/* XPM */
static char *result[] = {
/* columns rows colors chars-per-pixel */
"64 64 152 2 ",
"   c #040406",
".  c #040609",
"X  c #06090D",
"o  c #0A0B0D",
"O  c #100F0F",
"+  c #070F16",
"@  c #0B0E13",
"#  c #0E1115",
"$  c #0C141C",
"%  c #0E181F",
"&  c #121315",
"*  c #191715",
"=  c #13161B",
"-  c #15191D",
";  c #1B1B1D",
":  c #0C1621",
">  c #0E1924",
",  c #0E1C2A",
"<  c #131B23",
"1  c #1B1E22",
"2  c #121E2A",
"3  c #1D2126",
"4  c #14212C",
"5  c #1C232B",
"6  c #142432",
"7  c #1A2634",
"8  c #1C2A36",
"9  c #142638",
"0  c #172838",
"q  c #1C2B3B",
"w  c #1E303F",
"e  c #222325",
"r  c #22262C",
"t  c #24292E",
"y  c #2B2C2D",
"u  c #202730",
"i  c #232C34",
"p  c #2A2F33",
"a  c #232E39",
"s  c #2D3136",
"d  c #25313D",
"f  c #2B343C",
"g  c #323335",
"h  c #31363D",
"j  c #36393D",
"k  c #393A3B",
"l  c #162D40",
"z  c #1D2F41",
"x  c #1E3243",
"c  c #212F40",
"v  c #243443",
"b  c #2B3640",
"n  c #263947",
"m  c #2D3944",
"M  c #22364A",
"N  c #253B4C",
"B  c #2B3C4B",
"V  c #303742",
"C  c #333C44",
"Z  c #323E4A",
"A  c #263C51",
"S  c #293F51",
"D  c #2F414F",
"F  c #394147",
"G  c #35424D",
"H  c #3B454D",
"J  c #254056",
"K  c #2E4354",
"L  c #254259",
"P  c #2C455C",
"I  c #2F495D",
"U  c #334554",
"Y  c #3B4751",
"T  c #364857",
"R  c #3C4955",
"E  c #314659",
"W  c #344A5B",
"Q  c #3B4D5C",
"!  c #3F515F",
"~  c #344E63",
"^  c #394E62",
"/  c #3D5264",
"(  c #35526C",
")  c #3C546A",
"_  c #3E596E",
"`  c #3D5A73",
"'  c #414244",
"]  c #464648",
"[  c #42494F",
"{  c #48494B",
"}  c #434C54",
"|  c #4A4E53",
" . c #414E5A",
".. c #4C5157",
"X. c #42515E",
"o. c #4B555E",
"O. c #515257",
"+. c #52565A",
"@. c #54585B",
"#. c #435565",
"$. c #485664",
"%. c #475867",
"&. c #4D5A65",
"*. c #425768",
"=. c #455A6C",
"-. c #4B5C6B",
";. c #575D64",
":. c #5D5E62",
">. c #515E69",
",. c #445D73",
"<. c #4A5F72",
"1. c #405F7D",
"2. c #54616C",
"3. c #5B6369",
"4. c #4C6274",
"5. c #45617A",
"6. c #4D657B",
"7. c #526474",
"8. c #596775",
"9. c #526779",
"0. c #556A7C",
"q. c #5A6C7C",
"w. c #63727E",
"e. c #456682",
"r. c #4D6780",
"t. c #4D6A83",
"y. c #4E6D8A",
"u. c #536C83",
"i. c #5A6F82",
"p. c #546F89",
"a. c #4F708C",
"s. c #567087",
"d. c #5C7184",
"f. c #54728C",
"g. c #5B758C",
"h. c #557591",
"j. c #597691",
"k. c #577994",
"l. c #5C7993",
"z. c #5E7C99",
"x. c #637585",
"c. c #697780",
"v. c #697A86",
"b. c #62778A",
"n. c #64798D",
"m. c #6A7C8C",
"M. c #707E89",
"N. c #667E93",
"B. c #607E9B",
"V. c #68829A",
"C. c #728391",
"Z. c None",
/* pixels */
"Z.Z.Z.Z.Z.Z.Z.Z.Z.Z.Z.Z.Z.Z.Z.Z.Z.Z.Z.Z.Z.Z.Z.Z.Z.Z.Z.Z.Z.Z.Z.Z.Z.Z.Z.Z.Z.Z.Z.Z.Z.Z.Z.Z.Z.Z.Z.Z.Z.Z.Z.Z.Z.Z.Z.Z.Z.Z.Z.Z.Z.Z.Z.Z.",
"Z.Z.Z.Z.Z.Z.Z.Z.Z.Z.Z.Z.Z.Z.Z.Z.Z.Z.Z.Z.Z.Z.Z.Z.Z.Z.Z.Z.Z.Z.Z.Z.Z.Z.Z.Z.Z.Z.Z.Z.Z.Z.Z.Z.Z.Z.Z.Z.Z.Z.Z.Z.Z.Z.Z.Z.Z.Z.Z.Z.Z.Z.Z.Z.",
"Z.Z.Z.Z.Z.Z.Z.Z.Z.Z.Z.Z.Z.Z.Z.Z.Z.Z.Z.Z.Z.Z.Z.Z.Z.Z.Z.Z.Z.Z.Z.Z.Z.Z.Z.Z.Z.Z.Z.Z.Z.Z.Z.Z.Z.Z.Z.Z.Z.Z.Z.Z.Z.Z.Z.Z.Z.Z.Z.Z.Z.Z.Z.Z.",
"Z.Z.Z.Z.Z.Z.Z.Z.Z.Z.Z.Z.Z.Z.Z.Z.Z.Z.Z.Z.Z.Z.Z.Z.Z.Z.Z.Z.Z.Z.& & ; & Z.Z.Z.Z.Z.Z.Z.Z.Z.Z.Z.Z.Z.Z.Z.Z.Z.Z.Z.Z.Z.Z.Z.Z.Z.Z.Z.Z.Z.Z.",
"Z.Z.Z.Z.Z.Z.Z.Z.Z.Z.Z.Z.Z.Z.Z.Z.Z.Z.Z.Z.Z.Z.Z.Z.- = & - - * ; 1 ; - - - - - & Z.Z.Z.Z.Z.Z.Z.Z.Z.Z.Z.Z.Z.Z.Z.Z.Z.Z.Z.Z.Z.Z.Z.Z.Z.",
"Z.Z.Z.Z.Z.Z.Z.Z.Z.Z.Z.Z.Z.Z.Z.Z.Z.Z.Z.Z.Z.& & - 1 e e 1 ; - ; ; & & * ; 3 1 1 - # - Z.Z.Z.Z.Z.Z.Z.Z.Z.Z.Z.Z.Z.Z.Z.Z.Z.Z.Z.Z.Z.Z.",
"Z.Z.Z.Z.Z.Z.Z.Z.Z.Z.Z.Z.Z.Z.Z.Z.Z.Z.Z.& & - ; e ; * * o O 1 1 ; - & O @ o @ & - - - = & @ Z.Z.Z.Z.Z.Z.Z.Z.Z.Z.Z.Z.Z.Z.Z.Z.Z.Z.Z.",
"Z.Z.Z.Z.Z.Z.Z.Z.Z.Z.Z.Z.Z.Z.Z.Z.Z.# & = 3 ; & O * 3 p p C F C [ [ } } H C e - o o & ; 1 - @ Z.Z.Z.Z.Z.Z.Z.Z.Z.Z.Z.Z.Z.Z.Z.Z.Z.Z.",
"Z.Z.Z.Z.Z.Z.Z.Z.Z.Z.Z.Z.Z.Z.Z.Z.& - 3 ; O # 3 i m F C F F h h h C F } | o.&.[ h 1 @ o & e - @ o Z.Z.Z.Z.Z.Z.Z.Z.Z.Z.Z.Z.Z.Z.Z.Z.",
"Z.Z.Z.Z.Z.Z.Z.Z.Z.Z.Z.Z.Z.Z.& = 3 e O # 5 a h m m F H R G U T R  .X. .Y | $.&.o.R V u # o ; 1 @ o Z.Z.Z.Z.Z.Z.Z.Z.Z.Z.Z.Z.Z.Z.Z.",
"Z.Z.Z.Z.Z.Z.Z.Z.Z.Z.Z.Z.Z.& - u 3 # 3 i p f m G R / =.=.=.,.=.*.*.#.%.-.&.X.o.>.-.} Z b u @ - 1 # @ o Z.Z.Z.Z.Z.Z.Z.Z.Z.Z.Z.Z.Z.",
"Z.Z.Z.Z.Z.Z.Z.Z.Z.Z.Z.Z.& 1 t ; & 5 a f D Y X.*.<.9.0.d.g.V.n.g.i.u.9.9.9.9.<.%.&.>. .F C a & o 1 # o o Z.Z.Z.Z.Z.Z.Z.Z.Z.Z.Z.Z.",
"Z.Z.Z.Z.Z.Z.Z.Z.Z.Z.Z.# < t & = p m D G ! 4.g.0.0.0.q.d.Z.Z.Z.Z.Z.Z.Z.x.i.x.x.q.-.$.-.o.Z V f < X ; = X X Z.Z.Z.Z.Z.Z.Z.Z.Z.Z.Z.",
"Z.Z.Z.Z.Z.Z.Z.Z.Z.Z.# - p & < d m D T / 7.v.C.w.7.Z.Z.Z.Z.Z.Z.Z.Z.Z.Z.Z.Z.Z.x.x.i.,.#.7.$.H m f < X 1 & X o Z.Z.Z.Z.Z.Z.Z.Z.Z.Z.",
"Z.Z.Z.Z.Z.Z.Z.Z.Z.# < p * 4 b m D / =.7.n.C.Z.Z.Z.Z.Z.Z.Z.Z.Z.Z.Z.Z.Z.Z.Z.Z.Z.Z.Z.i.4.-.7.%.G b a < X 1 = e Z.Z.Z.Z.Z.Z.Z.Z.Z.Z.",
"Z.Z.Z.Z.Z.Z.Z.Z.Z.- s ; 4 m B E _ =.9.C.w.Z.Z.Z.Z.Z.Z.Z.Z.Z.Z.Z.Z.Z.Z.Z.Z.Z.Z.Z.Z.Z.Z.4.<.0.$.U m i % @ j 1 X Z.Z.Z.Z.Z.Z.Z.Z.Z.",
"Z.Z.Z.Z.Z.Z.Z.Z.% t r 5 n D I *.,.0.C.Z.Z.Z.Z.Z.Z.Z.Z.Z.Z.Z.Z.Z.Z.Z.Z.Z.Z.Z.Z.Z.Z.Z.Z.Z.4.7.0.$.G b 8 i e r r g Z.Z.Z.Z.Z.Z.Z.Z.",
"Z.Z.Z.Z.Z.Z.Z.% 4 s - n D ! / _ 7.c.Z.Z.Z.Z.Z.Z.Z.Z.Z.Z.Z.Z.Z.Z.Z.Z.Z.Z.Z.Z.Z.Z.Z.Z.Z.Z.Z.-.7.0.Q Z F f o k O.] Z.Z.Z.Z.Z.Z.Z.Z.",
"Z.Z.Z.Z.Z.Z.Z.< f 1 8 J W *._ 9.C.Z.Z.Z.Z.Z.Z.Z.Z.Z.Z.Z.Z.Z.Z.Z.Z.Z.Z.Z.Z.Z.Z.Z.Z.Z.Z.Z.Z.Z.>.0.4.Q R m 4 g :.{ ' Z.Z.Z.Z.Z.Z.Z.",
"Z.Z.Z.Z.Z.Z.% 8 p > D ~ ~ ,.0.C.Z.Z.Z.Z.Z.Z.Z.Z.Z.Z.Z.Z.Z.Z.Z.Z.Z.Z.Z.Z.Z.Z.Z.Z.Z.Z.Z.Z.Z.Z.Z.7.i.-.Q G 7 3 { ..y e Z.Z.Z.Z.Z.Z.",
"Z.Z.Z.Z.Z.Z.2 V 5 n ~ ( ` 4.q.Z.Z.Z.Z.Z.Z.Z.Z.Z.Z.Z.Z.Z.Z.Z.Z.Z.Z.Z.Z.Z.Z.Z.Z.Z.Z.Z.Z.Z.Z.Z.Z.Z.q.0.-.X.a 4 # g s ] Z.Z.Z.Z.Z.Z.",
"Z.Z.Z.Z.Z.% 8 h 8 W ! _ 4.9.q.Z.Z.Z.Z.Z.Z.Z.Z.Z.Z.Z.Z.Z.Z.Z.Z.Z.Z.Z.Z.Z.Z.Z.Z.Z.Z.Z.Z.Z.Z.Z.Z.Z.0.d.<.2.U q # s +.y Z.Z.Z.Z.Z.Z.",
"Z.Z.Z.Z.Z.> B u J / ~ 4.0.c.Z.Z.Z.Z.Z.Z.Z.Z.Z.Z.Z.Z.Z.Z.Z.Z.Z.Z.Z.Z.Z.Z.Z.Z.Z.Z.Z.Z.Z.Z.Z.Z.Z.Z.Z.d.7.%.%.G > t { o . Z.Z.Z.Z.Z.",
"Z.Z.Z.Z.Z.4 H d ~ ~ _ <.9.C.Z.Z.Z.Z.Z.Z.Z.Z.Z.Z.Z.Z.Z.Z.Z.Z.Z.Z.Z.Z.Z.Z.Z.Z.Z.Z.Z.Z.Z.Z.Z.Z.Z.Z.Z.q.q.-./ ! m 5 g = . Z.Z.Z.Z.Z.",
"Z.Z.Z.Z.> w F n W ) _ =.9.Z.Z.Z.Z.Z.Z.Z.Z.Z.Z.Z.Z.Z.Z.Z.Z.Z.Z.Z.Z.Z.Z.Z.Z.Z.Z.Z.Z.Z.Z.Z.Z.Z.Z.Z.Z.Z.q.9.=.I x : 3 3   Z.Z.Z.Z.Z.",
"Z.Z.Z.Z., D f E ( _ *.,.9.Z.Z.Z.Z.Z.Z.Z.Z.Z.Z.Z.Z.Z.Z.Z.Z.Z.Z.Z.Z.Z.Z.Z.Z.Z.Z.Z.Z.Z.Z.Z.Z.Z.Z.Z.Z.Z.w.0.4.W x > < s . . Z.Z.Z.Z.",
"Z.Z.Z.Z.6 G w W ) *.*.=.Z.Z.Z.Z.Z.Z.Z.Z.Z.Z.Z.Z.Z.Z.Z.Z.Z.Z.Z.Z.Z.Z.Z.Z.Z.Z.Z.Z.Z.Z.Z.Z.Z.Z.Z.Z.Z.Z.Z.i.6./ x , < h o   Z.Z.Z.Z.",
"Z.Z.Z.Z.8 Y w I _ / =.=.Z.Z.Z.Z.Z.Z.Z.Z.Z.Z.Z.Z.Z.Z.Z.Z.Z.Z.Z.Z.Z.Z.Z.Z.Z.Z.Z.Z.Z.Z.Z.Z.Z.Z.Z.Z.Z.Z.Z.d.0.) N 6 4 V =   Z.Z.Z.Z.",
"Z.Z.Z.4 w H x ~ / Q *.-.Z.Z.Z.Z.Z.Z.Z.Z.Z.Z.Z.Z.Z.Z.Z.Z.Z.Z.Z.Z.Z.Z.Z.Z.Z.Z.Z.Z.Z.Z.Z.Z.Z.Z.Z.Z.Z.Z.Z.i.u.) A 9 0 m 1   Z.Z.Z.Z.",
"Z.Z.Z.4 v C N ) W W *.-.Z.Z.Z.Z.Z.Z.Z.Z.Z.Z.Z.Z.Z.Z.Z.Z.Z.Z.Z.Z.Z.Z.Z.Z.Z.Z.Z.Z.Z.Z.Z.Z.Z.Z.Z.Z.Z.Z.Z.q.u.` J l v f r   Z.Z.Z.Z.",
"Z.Z.Z.4 n C D ~ I W *.&.Z.Z.Z.Z.Z.Z.Z.Z.Z.Z.Z.Z.Z.Z.Z.Z.Z.Z.Z.Z.Z.Z.Z.Z.Z.Z.Z.Z.Z.Z.Z.Z.Z.Z.Z.Z.Z.Z.Z.d.0.,.J l A d i . Z.Z.Z.Z.",
"Z.Z.Z.6 N C x ~ K W *.>.Z.Z.Z.Z.Z.Z.Z.Z.Z.Z.Z.Z.Z.Z.Z.Z.Z.Z.Z.Z.Z.Z.Z.Z.Z.Z.Z.Z.Z.Z.Z.Z.Z.Z.Z.Z.Z.Z.Z.q.0.,.J A P f f   . Z.Z.Z.",
"Z.Z.Z.8 D h D W P W *.2.Z.Z.Z.Z.Z.Z.Z.Z.Z.Z.Z.Z.Z.Z.Z.Z.Z.Z.Z.Z.Z.Z.Z.Z.Z.Z.Z.Z.Z.Z.Z.Z.Z.Z.Z.Z.Z.Z.Z.8.9.,.L I ( a b . . Z.Z.Z.",
"Z.Z.Z.8 x h J K E W =.-.Z.Z.Z.Z.Z.Z.Z.Z.Z.Z.Z.Z.Z.Z.Z.Z.Z.Z.Z.Z.Z.Z.Z.Z.Z.Z.Z.Z.Z.Z.Z.Z.Z.Z.Z.Z.Z.Z.Z.q.u.,.L ( ~ v c . Z.Z.Z.Z.",
"Z.Z.Z.8 w F J D W I =.-.Z.Z.Z.Z.Z.Z.Z.Z.Z.Z.Z.Z.Z.Z.Z.Z.Z.Z.Z.Z.Z.Z.Z.Z.Z.Z.Z.Z.Z.Z.Z.Z.Z.Z.Z.Z.Z.Z.Z.q.u.` I ` P b a X Z.Z.Z.Z.",
"Z.Z.Z.6 w H D I W E *.=.Z.Z.Z.Z.Z.Z.Z.Z.Z.Z.Z.Z.Z.Z.Z.Z.Z.Z.Z.Z.Z.Z.Z.Z.Z.Z.Z.Z.Z.Z.Z.Z.Z.Z.Z.Z.Z.Z.Z.0.t.( ( ` A b a X Z.Z.Z.Z.",
"Z.Z.Z.Z.8 H w K T E / %.Z.Z.Z.Z.Z.Z.Z.Z.Z.Z.Z.Z.Z.Z.Z.Z.Z.Z.Z.Z.Z.Z.Z.Z.Z.Z.Z.Z.Z.Z.Z.Z.Z.Z.Z.Z.Z.Z.Z.i.r.( ` e.M V 4 X Z.Z.Z.Z.",
"Z.Z.Z.Z.4 D q D E I / / Z.Z.Z.Z.Z.Z.Z.Z.Z.Z.Z.Z.Z.Z.Z.Z.Z.Z.Z.Z.Z.Z.Z.Z.Z.Z.Z.Z.Z.Z.Z.Z.Z.Z.Z.Z.Z.Z.Z.i.5.( e.e.c C , X Z.Z.Z.Z.",
"Z.Z.Z.Z.6 D f J W W / / ! Z.Z.Z.Z.Z.Z.Z.Z.Z.Z.Z.Z.Z.Z.Z.Z.Z.Z.Z.Z.Z.Z.Z.Z.Z.Z.Z.Z.Z.Z.Z.Z.Z.Z.Z.Z.Z.n.u.` 5.e.` a Z : X Z.Z.Z.Z.",
"Z.Z.Z.Z.4 d H n W W / / ! Z.Z.Z.Z.Z.Z.Z.Z.Z.Z.Z.Z.Z.Z.Z.Z.Z.Z.Z.Z.Z.Z.Z.Z.Z.Z.Z.Z.Z.Z.Z.Z.Z.Z.Z.Z.Z.x.6.,.e.e.( a b $ @ Z.Z.Z.Z.",
"Z.Z.Z.Z.4 6 Y d K W W / ! ! Z.Z.Z.Z.Z.Z.Z.Z.Z.Z.Z.Z.Z.Z.Z.Z.Z.Z.Z.Z.Z.Z.Z.Z.Z.Z.Z.Z.Z.Z.Z.Z.Z.Z.Z.Z.d.1.y.e.t.A C q $ Z.Z.Z.Z.Z.",
"Z.Z.Z.Z.Z.4 m d D W ~ / ! ! Z.Z.Z.Z.Z.Z.Z.Z.Z.Z.Z.Z.Z.Z.Z.Z.Z.Z.Z.Z.Z.Z.Z.Z.Z.Z.Z.Z.Z.Z.Z.Z.Z.Z.Z.x.p.y.h.t.r.7 Z , # Z.Z.Z.Z.Z.",
"Z.Z.Z.Z.Z.4 8 h w W W / ! Q / Z.Z.Z.Z.Z.Z.Z.Z.Z.Z.Z.Z.Z.Z.Z.Z.Z.Z.Z.Z.Z.Z.Z.Z.Z.Z.Z.Z.Z.Z.Z.Z.Z.v.b.h.l.h.h.~ a n : + Z.Z.Z.Z.Z.",
"Z.Z.Z.Z.Z.Z.4 D d E I W W W Q Z.Z.Z.Z.Z.Z.Z.Z.Z.Z.Z.Z.Z.Z.Z.Z.Z.Z.Z.Z.Z.Z.Z.Z.Z.Z.Z.Z.Z.Z.Z.Z.Z.b.B.B.z.a.y.7 Z 6 : Z.Z.Z.Z.Z.Z.",
"Z.Z.Z.Z.Z.Z.7 8 f v W W T Q K / Z.Z.Z.Z.Z.Z.Z.Z.Z.Z.Z.Z.Z.Z.Z.Z.Z.Z.Z.Z.Z.Z.Z.Z.Z.Z.Z.Z.Z.Z.Z.N.N.B.B.h.p.S a m , $ Z.Z.Z.Z.Z.Z.",
"Z.Z.Z.Z.Z.Z.3 7 m i N I W Q U K #.Z.Z.Z.Z.Z.Z.Z.Z.Z.Z.Z.Z.Z.Z.Z.Z.Z.Z.Z.Z.Z.Z.Z.Z.Z.Z.Z.Z.Z.N.N.B.z.h.h.e.5 Z 9 : Z.Z.Z.Z.Z.Z.Z.",
"Z.Z.Z.Z.Z.Z.Z.> 8 F 8 L W W T B W <.Z.Z.Z.Z.Z.Z.Z.Z.Z.Z.Z.Z.Z.Z.Z.Z.Z.Z.Z.Z.Z.Z.Z.Z.Z.Z.Z.n.N.j.k.h.p.y.c s M , : Z.Z.Z.Z.Z.Z.Z.",
"Z.Z.Z.Z.Z.Z.Z.Z.> f s 0 K W T U B ^ 4.Z.Z.Z.Z.Z.Z.Z.Z.Z.Z.Z.Z.Z.Z.Z.Z.Z.Z.Z.Z.Z.Z.Z.Z.Z.d.g.p.g.h.h.p.S 3 B 9 , Z.Z.Z.Z.Z.Z.Z.Z.",
"Z.Z.Z.Z.Z.Z.Z.Z.< > f 5 x E E W B B / <.Z.Z.Z.Z.Z.Z.Z.Z.Z.Z.Z.Z.Z.Z.Z.Z.Z.Z.Z.Z.Z.Z.Z.p.u.t.p.B.a.t.^ 1 B 0 , Z.Z.Z.Z.Z.Z.Z.Z.Z.",
"Z.Z.Z.Z.Z.Z.Z.Z.Z.> > f 5 v T T T n K / -.4.Z.Z.Z.Z.Z.Z.Z.Z.Z.Z.Z.Z.Z.Z.Z.Z.Z.Z.Z.0.r.<.u.j.j.y.t.) 1 V z 6 2 Z.Z.Z.Z.Z.Z.Z.Z.Z.",
"Z.Z.Z.Z.Z.Z.Z.Z.Z.Z.> 4 f 3 n E T X.U T #.=.4.7.Z.Z.Z.Z.Z.Z.Z.Z.Z.Z.Z.Z.Z.Z.Z.7.9.6.p.g.j.p.u.r.^ 1 c c 9 , Z.Z.Z.Z.Z.Z.Z.Z.Z.Z.",
"Z.Z.Z.Z.Z.Z.Z.Z.Z.Z.Z.% , s 5 d $.#.$.T / -.=.4.u.u.2.Z.Z.Z.Z.Z.Z.Z.Z.Z.7.7.9.i.p.j.h.p.u.r.r.S < f c 9 6 Z.Z.Z.Z.Z.Z.Z.Z.Z.Z.Z.",
"Z.Z.Z.Z.Z.Z.Z.Z.Z.Z.Z.Z.$ 4 a k f B S T B Q #.#.,.9.r.p.i.q.8.0.q.i.0.u.u.u.p.p.s.i.t.u.t.<.v < f c 9 6 Z.Z.Z.Z.Z.Z.Z.Z.Z.Z.Z.Z.",
"Z.Z.Z.Z.Z.Z.Z.Z.Z.Z.Z.Z.Z.% f m p f H T Q U T Q ^ *.<.<.u.g.l.l.l.g.g.g.g.g.b.p.p.u.r.,.E 1 1 b z 9 6 Z.Z.Z.Z.Z.Z.Z.Z.Z.Z.Z.Z.Z.",
"Z.Z.Z.Z.Z.Z.Z.Z.Z.Z.Z.Z.Z.Z.5 % H 3.+.Y B Q T  .B U ^ *.*.=.<.6.u.p.g.p.p.u.t.<.,.*.S 7 - i v q 6 4 Z.Z.Z.Z.Z.Z.Z.Z.Z.Z.Z.Z.Z.Z.",
"Z.Z.Z.Z.Z.Z.Z.Z.Z.Z.Z.Z.Z.Z.Z.- H &.;.+.5 s Q &.U B S R ^ #.) ^ / / ^ / ^ ^ ^ E v 2 - r c a 9 6 Z.Z.Z.Z.Z.Z.Z.Z.Z.Z.Z.Z.Z.Z.Z.Z.",
"Z.Z.Z.Z.Z.Z.Z.Z.Z.Z.Z.Z.Z.Z.Z.Z.Z.| ..Z } ;.H 3 u d b v B U T T Q Q W U B a 2 < - r c c 0 6 6 Z.Z.Z.Z.Z.Z.Z.Z.Z.Z.Z.Z.Z.Z.Z.Z.Z.",
"Z.Z.Z.Z.Z.Z.Z.Z.Z.Z.Z.Z.Z.Z.Z.Z.Z.Z.Z.f ..F q i u 3 < = = < 1 5 2 < < = - 1 u s v a 8 6 6 Z.Z.Z.Z.Z.Z.Z.Z.Z.Z.Z.Z.Z.Z.Z.Z.Z.Z.Z.",
"Z.Z.Z.Z.Z.Z.Z.Z.Z.Z.Z.Z.Z.Z.Z.Z.Z.Z.Z.Z.Z.1 > 2 6 7 i 8 i 7 7 5 u u i a a c a q 0 6 6 Z.Z.Z.Z.Z.Z.Z.Z.Z.Z.Z.Z.Z.Z.Z.Z.Z.Z.Z.Z.Z.",
"Z.Z.Z.Z.Z.Z.Z.Z.Z.Z.Z.Z.Z.Z.Z.Z.Z.Z.Z.Z.Z.Z.Z.: > > 2 2 4 4 7 7 7 7 7 6 7 6 6 4 Z.Z.Z.Z.Z.Z.Z.Z.Z.Z.Z.Z.Z.Z.Z.Z.Z.Z.Z.Z.Z.Z.Z.Z.",
"Z.Z.Z.Z.Z.Z.Z.Z.Z.Z.Z.Z.Z.Z.Z.Z.Z.Z.Z.Z.Z.Z.Z.Z.Z.Z.Z.Z.> > > > > 2 2 2 Z.Z.Z.Z.Z.Z.Z.Z.Z.Z.Z.Z.Z.Z.Z.Z.Z.Z.Z.Z.Z.Z.Z.Z.Z.Z.Z.Z.",
"Z.Z.Z.Z.Z.Z.Z.Z.Z.Z.Z.Z.Z.Z.Z.Z.Z.Z.Z.Z.Z.Z.Z.Z.Z.Z.Z.Z.Z.Z.Z.Z.Z.Z.Z.Z.Z.Z.Z.Z.Z.Z.Z.Z.Z.Z.Z.Z.Z.Z.Z.Z.Z.Z.Z.Z.Z.Z.Z.Z.Z.Z.Z.Z.",
"Z.Z.Z.Z.Z.Z.Z.Z.Z.Z.Z.Z.Z.Z.Z.Z.Z.Z.Z.Z.Z.Z.Z.Z.Z.Z.Z.Z.Z.Z.Z.Z.Z.Z.Z.Z.Z.Z.Z.Z.Z.Z.Z.Z.Z.Z.Z.Z.Z.Z.Z.Z.Z.Z.Z.Z.Z.Z.Z.Z.Z.Z.Z.Z.",
"Z.Z.Z.Z.Z.Z.Z.Z.Z.Z.Z.Z.Z.Z.Z.Z.Z.Z.Z.Z.Z.Z.Z.Z.Z.Z.Z.Z.Z.Z.Z.Z.Z.Z.Z.Z.Z.Z.Z.Z.Z.Z.Z.Z.Z.Z.Z.Z.Z.Z.Z.Z.Z.Z.Z.Z.Z.Z.Z.Z.Z.Z.Z.Z."
};
