/* XPM */
static char *result[] = {
/* columns rows colors chars-per-pixel */
"64 64 168 2 ",
"   c #0B0C0E",
".  c #120E0E",
"X  c #0D0F12",
"o  c #110F11",
"O  c #0E1115",
"+  c #0E1219",
"@  c #131214",
"#  c #191515",
"$  c #13161B",
"%  c #191718",
"&  c #16191C",
"*  c #1C1B1D",
"=  c #211D1D",
"-  c #0F1D26",
";  c #151B23",
":  c #1B1D22",
">  c #151F29",
",  c #1A1F29",
"<  c #221F21",
"1  c #1D2025",
"2  c #16222D",
"3  c #1C242C",
"4  c #162632",
"5  c #1C2731",
"6  c #1C2934",
"7  c #1E2D39",
"8  c #1F303D",
"9  c #232224",
"0  c #2A2626",
"q  c #22252B",
"w  c #2A2729",
"e  c #25292E",
"r  c #2B2B2D",
"t  c #302C2C",
"y  c #242B34",
"u  c #2A2E33",
"i  c #232E39",
"p  c #2C3136",
"a  c #24313D",
"s  c #2B333B",
"d  c #323235",
"f  c #33363B",
"g  c #34393F",
"h  c #39393B",
"j  c #243441",
"k  c #2A3642",
"l  c #263847",
"z  c #2C3A46",
"x  c #25384A",
"c  c #2D3D4A",
"v  c #333B44",
"b  c #3A3E44",
"n  c #323E4A",
"m  c #293D51",
"M  c #3E4146",
"N  c #34424D",
"B  c #3C444C",
"V  c #2E4155",
"C  c #2D455A",
"Z  c #344452",
"A  c #394652",
"S  c #3C4A55",
"D  c #32495D",
"F  c #3D4C5A",
"G  c #3F505E",
"H  c #384D61",
"J  c #3D5162",
"K  c #3C556B",
"L  c #3D5C77",
"P  c #414246",
"I  c #484847",
"U  c #41454B",
"Y  c #46494E",
"T  c #4A4B4D",
"R  c #434C55",
"E  c #4A4D54",
"W  c #424E5B",
"Q  c #484E58",
"!  c #4D5156",
"~  c #44515D",
"^  c #4C545D",
"/  c #535354",
"(  c #53575D",
")  c #54595F",
"_  c #445463",
"`  c #495663",
"'  c #4C5965",
"]  c #445669",
"[  c #44596C",
"{  c #4C5C6B",
"}  c #555B63",
"|  c #5A5E64",
" . c #515F6C",
".. c #5A5F68",
"X. c #445D73",
"o. c #4C5F71",
"O. c #4F606F",
"+. c #5A6067",
"@. c #54616D",
"#. c #5B636B",
"$. c #466176",
"%. c #4D6173",
"&. c #456179",
"*. c #4C657B",
"=. c #4F687F",
"-. c #546473",
";. c #596674",
":. c #5C6976",
">. c #53667A",
",. c #54697C",
"<. c #5C6C7B",
"1. c #626669",
"2. c #606770",
"3. c #636B74",
"4. c #696F74",
"5. c #616E7C",
"6. c #6B7076",
"7. c #64717D",
"8. c #6B737D",
"9. c #4D6780",
"0. c #4D6A83",
"q. c #536C83",
"w. c #596E82",
"e. c #536F88",
"r. c #577187",
"t. c #5C7185",
"y. c #55728B",
"u. c #5C748B",
"i. c #5D788F",
"p. c #597791",
"a. c #5D7A94",
"s. c #5D7D99",
"d. c #657483",
"f. c #697683",
"g. c #667886",
"h. c #6C7986",
"j. c #63768A",
"k. c #647A8C",
"l. c #6D7C8A",
"z. c #727B84",
"x. c #717E8B",
"c. c #647C91",
"v. c #697F92",
"b. c #617F99",
"n. c #5E809D",
"m. c #73818E",
"M. c #7A8189",
"N. c #6C8295",
"B. c #63829E",
"V. c #6D849A",
"C. c #6E889F",
"Z. c #768492",
"A. c #798693",
"S. c #7B8996",
"D. c #71879B",
"F. c #74899C",
"G. c #7D8B98",
"H. c #6485A2",
"J. c #6688A5",
"K. c #6889A7",
"L. c #6789A8",
"P. c #6B8CA9",
"I. c #748CA2",
"U. c #7A8FA2",
"Y. c #7A92A9",
"T. c #808993",
"R. c #808E9B",
"E. c None",
/* pixels */
"E.E.E.E.E.E.E.E.E.E.E.E.E.E.E.E.E.E.E.E.E.E.E.E.E.E.E.E.E.E.E.E.E.E.E.E.E.E.E.E.E.E.E.E.E.E.E.E.E.E.E.E.E.E.E.E.E.E.E.E.E.E.E.E.",
"E.E.E.E.E.E.E.E.E.E.E.E.E.E.E.E.E.E.E.E.E.E.E.E.E.E.E.E.E.E.E.E.E.E.E.E.E.E.E.E.E.E.E.E.E.E.E.E.E.E.E.E.E.E.E.E.E.E.E.E.E.E.E.E.",
"E.E.E.E.E.E.E.E.E.E.E.E.E.E.E.E.E.E.E.E.E.E.E.E.E.E.E.E.E.E.E.E.E.E.E.E.E.E.E.E.E.E.E.E.E.E.E.E.E.E.E.E.E.E.E.E.E.E.E.E.E.E.E.E.",
"E.E.E.E.E.E.E.E.E.E.E.E.E.E.E.E.E.E.E.E.E.E.E.E.E.E.9 0 0 < 9 t t w t w 0 0 E.E.E.E.E.E.E.E.E.E.E.E.E.E.E.E.E.E.E.E.E.E.E.E.E.E.",
"E.E.E.E.E.E.E.E.E.E.E.E.E.E.E.E.E.E.E.E.E.E.w w 0 = # # . . o # # # # # # * 9 9 9 E.E.E.E.E.E.E.E.E.E.E.E.E.E.E.E.E.E.E.E.E.E.E.",
"E.E.E.E.E.E.E.E.E.E.E.E.E.E.E.E.E.E.E.E.< < = # # @ @ : 9 d f f f d u < & @ o o % < 9 u E.E.E.E.E.E.E.E.E.E.E.E.E.E.E.E.E.E.E.E.",
"E.E.E.E.E.E.E.E.E.E.E.E.E.E.E.E.E.E.< = = @ * w u f g v b Y Y P P b b v g f d u &   0 d 0 r E.E.E.E.E.E.E.E.E.E.E.E.E.E.E.E.E.E.",
"E.E.E.E.E.E.E.E.E.E.E.E.E.E.E.E.* < . . : u v b U ! ( } ..} } E Y Y U b U M U U g f u X r / ( E.E.E.E.E.E.E.E.E.E.E.E.E.E.E.E.E.",
"E.E.E.E.E.E.E.E.E.E.E.E.E.E.E.< % . + w v b U Q ..3.3.3.2.2.....( / Q E E E E E U U u q P T / / 1 E.E.E.E.E.E.E.E.E.E.E.E.E.E.E.",
"E.E.E.E.E.E.E.E.E.E.E.E.E.< = @ X < k Y ( ^ ! } 3.6.8.z.8.7.6.3.2.} } } ( } ( ( E U g u T ) T h h ! E.E.E.E.E.E.E.E.E.E.E.E.E.E.",
"E.E.E.E.E.E.E.E.E.E.E.E.< < @ % y v Q ....#.2.#.3.6.z.z.z.f.8.8.8.3.....#.#...#.} E g u u P P d I / u E.E.E.E.E.E.E.E.E.E.E.E.E.",
"E.E.E.E.E.E.E.E.E.E.E.: < o ; u v Q -.2.:.d.<.d.d.6.6.z.z.z.f.f.z.8.3.3.3.2.;.2.#.^ Y u e e h ) ! * 0 1 E.E.E.E.E.E.E.E.E.E.E.E.",
"E.E.E.E.E.E.E.E.E.E.: < o : s v Q -.5.3.5.d.d.d.d.d.6.d.z.z.x.h.z.l.g.7.8.8.4.3.2.^ E R s u R ) M 1 X w 1 E.E.E.E.E.E.E.E.E.E.E.",
"E.E.E.E.E.E.E.E.E.; < o ; i v Q -.2.5.d.d.d.f.h.d.d.f.f.f.h.x.l.x.z.z.l.d.d.8.7.5...A Q Q v Q b g p : O r ; E.E.E.E.E.E.E.E.E.E.",
"E.E.E.E.E.E.E.E.E.q o ; k S ` ;.2.2.3.5.d.f.h.x.h.f.h.f.d.f.x.x.Z.x.x.x.f.h.z.f.z.5.W N R ~ B v M s y & % u & E.E.E.E.E.E.E.E.E.",
"E.E.E.E.E.E.E.E.9 * X x [ j.v.D.U.U.v.x.f.d.f.x.l.f.f.h.d.d.g.x.Z.l.x.x.z.z.z.h.h.4.` A N N N B B c s i % 9 w E.E.E.E.E.E.E.E.E.",
"E.E.E.E.E.E.E., 9 X m X.u.V.D.D.U.U.D.D.V.v.g.l.x.l.h.h.d.d.d.x.Z.x.m.Z.m.m.x.h.h.8.' S A A B A F N N k p $ r 1 E.E.E.E.E.E.E.E.",
"E.E.E.E.E.E.E.e $ j *.e.c.N.F.F.D.D.N.v.k.l.g.g.g.g.h.g.d.d.d.f.x.l.m.A.Z.m.m.x.h.f.' G F S S ~ G S N N s 3 1 p & E.E.E.E.E.E.E.",
"E.E.E.E.E.E.3 9 ; X.e.i.c.N.V.D.N.v.k.l.u.d.g.j.d.j.g.h.h.h.d.d.h.m.Z.G.S.Z.Z.m.h.g.O.` ~ G G _ G G F S N p 9 d q E.E.E.E.E.E.E.",
"E.E.E.E.E.E.u % m *.e.k.c.v.N.v.c.k.k.g.d.d.d.j.j.d.j.g.h.l.g.d.g.g.S.S.Z.S.Z.l.l.d.O._ ^ W ~ ' _ G G G A v u 9 h & E.E.E.E.E.E.",
"E.E.E.E.E.5 r ; X.0.e.i.c.k.k.g.d.j.d.g.g.d.d.j.g.d.d.u.d.g.h.g.7.h.A.Z.Z.S.S.Z.m.d.{ ' _ ~ ' { ] _ _ G F B y O h q E.E.E.E.E.E.",
"E.E.E.E.E.a : x X.X.>.w.t.u.j.k.c.c.c.k.v.V.v.k.k.k.j.j.t.<.g.h.d.f.x.S.S.S.G.Z.m.8.o.' _ _ O.{ ] K J _ G F a & 9 h * E.E.E.E.E.",
"E.E.E.E.E.s $ H X.&.e.u.i.p.i.i.i.i.c.a.c.N.C.V.I.F.N.l.t.<.<.g.h.<.h.A.G.G.G.A.Z.<.{ { ] ' ,.[ ] [ ] J ` K N 2 $ g 1 E.E.E.E.E.",
"E.E.E.E.i u > X.q.e.p.u.u.u.r.w.r.u.i.u.i.c.N.K.I.I.Y.U.N.g.7.5.d.7.<.A.D.A.S.A.A.:.' { ` -.-.O.{ J G J >.e.C 2 + h 1 E.E.E.E.E.",
"E.E.E.E.k 9 8 0.p.p.y.y.r.r.r.q.w.r.u.j.i.N.N.N.F.F.I.I.V.D.m.<.:.:.<.m.A.A.A.S.m.-.{ { ' >.%.$.] J J { p.p.K 4 ; p r E.E.E.E.E.",
"E.E.E.E.v : C 0.0.0.0.q.q.r.t.r.u.t.t.<.5.<.<.7.g.m.m.m.N.m.m.g.6.;.:.f.Z.Z.S.A.f.O.' ' -.>.[ { K J ] r.s.p.L x 1 e d O E.E.E.E.",
"E.E.E.E.v 2 L y.0.&.&.*.>.,.r.>.-.-.@.O.O.-.<.d.7.m.m.7.m.M.E.E.E.4.3.3.m.S.S.m.:.} ' @.;.O.] J G J q.B.n.p.9.C 2 1 M $ E.E.E.E.",
"E.E.E.7 g 4 0.y.0.*.*.%.%.O.' ~ ^ ' ' ' @.-.<.8.7.7.8.8.E.E.E.E.E.E.E.4.h.Z.G.x.;.-.-.;.%.] K J J >.H.L.H.n.y.K 8 ; M & E.E.E.E.",
"E.E.E.a g j 0.0.0.*.$.{ G G ~ ~ _ ` ' O.-.-.-.@.:.7.m.E.E.E.E.E.E.E.E.E.z.m.R.6.;.;.,.%.] _ _ ] =.B.P.P.L.H.s.X.c 5 P : E.E.E.E.",
"E.E.E.a k x 0.*.&.[ F N S S G ~ _ _ ' @.O.^ ` @.5.m.M.E.E.E.E.E.E.E.E.E.M.A.l.:.;.<.%.` _ K ` ,.B.P.P.P.P.L.s.0.F i P 3 E.E.E.E.",
"E.E.E.j v m 9.X.G N N V N S F G ~ ~ ' ` ~ ` O.5.h.h.8.E.E.E.E.E.E.E.E.E.E.m.7.:.<.-.O._ _ { >.a.J.J.P.H.n.s.s.X.D i U q E.E.E.E.",
"E.E.E.j v c X.H l l N N N Z S G ~ ` ~ _ ' O.5.g.8.7.8.E.E.E.E.E.E.E.E.E.E.f.:.<.-.{ { { { q.a.n.H.J.B.B.B.s.e.[ N i M e E.E.E.E.",
"E.E.E.a N l J c 8 8 c N N N S ~ ~ _ ~ ~ { :.f.f.d.4.z.E.E.E.E.E.E.E.E.E.z.3.<.:.{ { -.9.w.u.b.b.b.b.b.Y.s.y.q.X.n i U u E.E.E.E.",
"E.E.E.8 g 8 c 8 j z z c N S ~ ~ ~ ~ ~ _ :.d.7.d.5.3.A.E.E.E.E.E.E.E.E.E.6.3.-.@.-.-.9.9.e.p.s.b.b.b.b.s.q.q.q.X.V i Q u E.E.E.E.",
"E.E.E.8 M 8 l l j z z c S S G G W ~ ~  .<.7.d.7.:.:.A.T.E.E.E.E.E.E.E.6.3.;.-.-.o.o.o.9.9.y.p.a.s.p.u.e.9.q.9.] V k Q q E.E.E.E.",
"E.E.E.4 I p l j j j z c S S S S F _ { :.5.7.f.<.;.5.R.A.M.E.E.E.E.E.4.3. .{ { _ H ] ] X.9.e.a.u.w.q.e.e.q.q.9.] V u Q , E.E.E.E.",
"E.E.E.E.M g 8 l 8 z z N N N S S F ' @.:.:.7.7.:.;.d.R.A.A.m.z.m.l.d.:.O. .' ' ] ] X.o.9.q.q.q.w.q.e.q.q.q.9.9.] n u U , E.E.E.E.",
"E.E.E.E.8 g 8 j 8 j g N N N S S ~ ' #.#.;.3.<.;.-.g.R.S.T.A.f.h.Z.D.I.V.N.N.k.k.j.j.u.u.w.q.q.w.q.q.q.q.q.9.9.] x b n , E.E.E.E.",
"E.E.E.E.2 b 6 8 8 8 z z N N N S G ^ -.#.;.:.:.>.-.d.G.G.T.R.m.7.d.g.v.I.C.V.c.c.j.u.r.q.r.q.q.q.q.q.9.q.9.9.9.] k U v , E.E.E.E.",
"E.E.E.E.& N p 7 8 8 z z z z N S F @.+.@.-.:.d.:.;.5.G.S.A.R.T.x.5.5.d.d.j.k.u.u.r.q.q.q.q.q.9.q.9.q.w.9.9.9.{ { k Q k E.E.E.E.E.",
"E.E.E.E.E.s g 7 8 8 8 p z z N N ~ @.} @.@.:.7.,.<.5.G.S.A.S.A.A.l.5.:.:.<.w.d.u.t.w.9.>.q.q.q.q.q.j.d.9.o.{ ] F f R y E.E.E.E.E.",
"E.E.E.E.E.2 g z A A N N z z N N ^ @.@.@.@.:.7.7.w.5.Z.S.Z.m.Z.x.m.g.<.:.;.;.;.2.w.-.-.;.;.q.9.-.<.h.d.-.[ ] ] k Y k y E.E.E.E.E.",
"E.E.E.E.E.$ B B a p a v N z z N ^ O.' @.@.:.r.,.d.w.x.Z.m.x.x.z.z.x.d.:.-.;.-.-.-. .{ o. .] ] ;.w.2.d.{ ] ] F s Q i E.E.E.E.E.E.",
"E.E.E.E.E.E.f M 6 4 6 6 N S z S O.^ ' ) @.,.<.r.w.w.l.x.l.l.l.g.d.d.d.d.<.@. .{ { o.{ { ] {  .w.2.w.#.] H _ k U n i E.E.E.E.E.E.",
"E.E.E.E.E.E.$ B ) S 8 4 7 N S S ' ^ ' ` ' -.,.,.t.w.d.l.h.l.g.d.d.5.w.5.d.:.-.{ { { { ] { w.d.;.w.o.] ~ _ Z i Q j E.E.E.E.E.E.E.",
"E.E.E.E.E.E.E.E 4.) N 2 6 z R S ^ ^ ~ ^ ' @.O.-.,.,.:.g.g.g.h.d.5.:.<.<.:.;.<.;.-. . .{ -.-.2.<.-.` W W F i Y n i E.E.E.E.E.E.E.",
"E.E.E.E.E.E.E.T } 1.g a S S N S G R ~ ^ ^ O.` O.O.-.-.d.d.d.7.7.<.:.:.:.;.-.-.-.-.;.-.2.d.-.{ w.o.] W _ k d R a E.E.E.E.E.E.E.E.",
"E.E.E.E.E.E.E.E.M T M R ! z a S F R ~ ` ` ` G G _ { %.:.g.3.5.<.<.:.:.-.-.-.@. . . .w.w.d.d.<.;.-.{ o.n q R k E.E.E.E.E.E.E.E.E.",
"E.E.E.E.E.E.E.E.E.e #.T 6 4 a N B R ^ ^ ^ ~ ~ F ~ ~ O.@.7.5.<.<.<.<.;.-.-.-. . .{ o.o.:.5.d.-.{ { { W q U z i E.E.E.E.E.E.E.E.E.",
"E.E.E.E.E.E.E.E.E.M B M & - 7 z A S W R G ^ ~ S F F ~ ^ -.5.<.-.<.:.-.-.-. . .{ @.@.{ { O.[ _ W _ A , P n j E.E.E.E.E.E.E.E.E.E.",
"E.E.E.E.E.E.E.E.E.E.& & p & 2 a N R R R ~ ^ ~ S A G ` O.O.;.<.-.:.>.-.-.o. .{ { -.f.{ { _ W F F n < M n k E.E.E.E.E.E.E.E.E.E.E.",
"E.E.E.E.E.E.E.E.E.E.E.  ; p & & a A R F ~ ^ ~ F S G ~ ^ O.-.<.<.<.<.,.>.o.-.-.-.@.3.<._ F S S k : b n k E.E.E.E.E.E.E.E.E.E.E.E.",
"E.E.E.E.E.E.E.E.E.E.E.E.  & p : O i A G ~ ` ~ ~ G W ^ O.@.' <.,.w.w.<.,.q.;.>.-.>.-.` W R n e , b v k E.E.E.E.E.E.E.E.E.E.E.E.E.",
"E.E.E.E.E.E.E.E.E.E.E.E.E.  + y r O 1 N ~ ` ` F ~ ` ' O.@.@.O.,.w.u.u.u.u.t.w.,.o._ _ ~ k ; e b k i E.E.E.E.E.E.E.E.E.E.E.E.E.E.",
"E.E.E.E.E.E.E.E.E.E.E.E.E.E.E.O 3 s 1 + i B ~ G _ O.-.-.@.@.O.O.r.j.k.c.j.u.>.{ ~ n k : : g n s i E.E.E.E.E.E.E.E.E.E.E.E.E.E.E.",
"E.E.E.E.E.E.E.E.E.E.E.E.E.E.E.E.X * y y 1 + 3 s a Z _ O.@.-.@.@.-.,.,.,.o.] A k y ; % u v k y E.E.E.E.E.E.E.E.E.E.E.E.E.E.E.E.E.",
"E.E.E.E.E.E.E.E.E.E.E.E.E.E.E.E.E.E.& ; q y 3 $ X + ; i n S W S S B z k y ; $ $ 9 p v a y y E.E.E.E.E.E.E.E.E.E.E.E.E.E.E.E.E.E.",
"E.E.E.E.E.E.E.E.E.E.E.E.E.E.E.E.E.E.E.E.O $ 1 5 y 1 & @ O O O $ $ O & 1 % 9 p s s a y y E.E.E.E.E.E.E.E.E.E.E.E.E.E.E.E.E.E.E.E.",
"E.E.E.E.E.E.E.E.E.E.E.E.E.E.E.E.E.E.E.E.E.E.O $ $ 1 3 y e e e e e p g p p p u 5 y E.E.E.E.E.E.E.E.E.E.E.E.E.E.E.E.E.E.E.E.E.E.E.",
"E.E.E.E.E.E.E.E.E.E.E.E.E.E.E.E.E.E.E.E.E.E.E.E.E.E.$ $ ; : 2 3 3 y 3 3 3 3 E.E.E.E.E.E.E.E.E.E.E.E.E.E.E.E.E.E.E.E.E.E.E.E.E.E.",
"E.E.E.E.E.E.E.E.E.E.E.E.E.E.E.E.E.E.E.E.E.E.E.E.E.E.E.E.E.E.E.E.E.E.E.E.E.E.E.E.E.E.E.E.E.E.E.E.E.E.E.E.E.E.E.E.E.E.E.E.E.E.E.E.",
"E.E.E.E.E.E.E.E.E.E.E.E.E.E.E.E.E.E.E.E.E.E.E.E.E.E.E.E.E.E.E.E.E.E.E.E.E.E.E.E.E.E.E.E.E.E.E.E.E.E.E.E.E.E.E.E.E.E.E.E.E.E.E.E.",
"E.E.E.E.E.E.E.E.E.E.E.E.E.E.E.E.E.E.E.E.E.E.E.E.E.E.E.E.E.E.E.E.E.E.E.E.E.E.E.E.E.E.E.E.E.E.E.E.E.E.E.E.E.E.E.E.E.E.E.E.E.E.E.E.",
"E.E.E.E.E.E.E.E.E.E.E.E.E.E.E.E.E.E.E.E.E.E.E.E.E.E.E.E.E.E.E.E.E.E.E.E.E.E.E.E.E.E.E.E.E.E.E.E.E.E.E.E.E.E.E.E.E.E.E.E.E.E.E.E."
};
