/* XPM */
static char *result[] = {
/* columns rows colors chars-per-pixel */
"64 64 194 2 ",
"   c #0C0C0E",
".  c #100E0E",
"X  c #12100F",
"o  c #0C0E11",
"O  c #0D1115",
"+  c #0E141B",
"@  c #131314",
"#  c #13161A",
"$  c #16191C",
"%  c #1B1B1C",
"&  c #181719",
"*  c #20201F",
"=  c #0E1720",
"-  c #0F1A23",
";  c #0F1F2B",
":  c #101720",
">  c #131B23",
",  c #1B1E22",
"<  c #141F29",
"1  c #221F20",
"2  c #1E2124",
"3  c #15212B",
"4  c #1B232C",
"5  c #152532",
"6  c #1B2632",
"7  c #152834",
"8  c #1D2934",
"9  c #1D2D3B",
"0  c #1E313D",
"q  c #222325",
"w  c #23262A",
"e  c #26292D",
"r  c #2B2C2D",
"t  c #242B34",
"y  c #2A2E33",
"u  c #232D39",
"i  c #282F39",
"p  c #2D3135",
"a  c #25313D",
"s  c #2B333B",
"d  c #333335",
"f  c #32363B",
"g  c #31393F",
"h  c #3A3B3B",
"j  c #1C2E41",
"k  c #1E3243",
"l  c #1F3649",
"z  c #233543",
"x  c #2A3542",
"c  c #253946",
"v  c #2B3945",
"b  c #22374C",
"n  c #243A4C",
"m  c #2C3D4B",
"M  c #343C43",
"N  c #383D45",
"B  c #333E4A",
"V  c #263F51",
"C  c #2E3F53",
"Z  c #2E414E",
"A  c #374046",
"S  c #3C4147",
"D  c #34424D",
"F  c #3B434C",
"G  c #2C4354",
"H  c #2D4659",
"J  c #274051",
"K  c #334453",
"L  c #3B4653",
"P  c #364855",
"I  c #3B4956",
"U  c #344758",
"Y  c #344A5B",
"T  c #3B4C5B",
"R  c #3D505E",
"E  c #364C60",
"W  c #3B4F61",
"Q  c #3D5264",
"!  c #33526B",
"~  c #3D556C",
"^  c #3A556B",
"/  c #375874",
"(  c #3C5A75",
")  c #3D5E7A",
"_  c #3C5770",
"`  c #3E607E",
"'  c #41464B",
"]  c #44494E",
"[  c #444C54",
"{  c #494F55",
"}  c #424E5B",
"|  c #44515E",
" . c #4D545C",
".. c #50565C",
"X. c #53595F",
"o. c #445463",
"O. c #495663",
"+. c #4B5966",
"@. c #43566A",
"#. c #44596D",
"$. c #4C5C6B",
"%. c #475967",
"&. c #525C65",
"*. c #525F6B",
"=. c #455D72",
"-. c #4A5E71",
";. c #415F79",
":. c #4E606F",
">. c #586067",
",. c #53616E",
"<. c #5A636B",
"1. c #4C6174",
"2. c #43617B",
"3. c #4C647A",
"4. c #49647A",
"5. c #536474",
"6. c #596674",
"7. c #5C6A76",
"8. c #52667A",
"9. c #55697B",
"0. c #5B6C7C",
"q. c #60686F",
"w. c #626C74",
"e. c #616F7C",
"r. c #64727E",
"t. c #6A747E",
"y. c #446482",
"u. c #4D6B84",
"i. c #4E6F8B",
"p. c #536C82",
"a. c #5B6E81",
"s. c #516F8A",
"d. c #5D7184",
"f. c #54728B",
"g. c #5C758B",
"h. c #5E788E",
"j. c #567087",
"k. c #547593",
"l. c #5A7791",
"z. c #5D7A93",
"x. c #5B7D9B",
"c. c #567898",
"v. c #637484",
"b. c #6A7681",
"n. c #6C7985",
"m. c #637689",
"M. c #64798C",
"N. c #6B7C8C",
"B. c #667886",
"V. c #727C85",
"C. c #727E89",
"Z. c #637D94",
"A. c #6A7E91",
"S. c #647F99",
"D. c #5F809E",
"F. c #6F808F",
"G. c #73818D",
"H. c #79828A",
"J. c #668097",
"K. c #6C8194",
"L. c #64819C",
"P. c #6B859C",
"I. c #748493",
"U. c #798692",
"Y. c #7C8996",
"T. c #72879A",
"R. c #74899D",
"E. c #7B8B9B",
"W. c #5F80A1",
"Q. c #6484A2",
"!. c #6A87A2",
"~. c #6D89A2",
"^. c #738CA3",
"/. c #768FA7",
"(. c #7D91A4",
"). c #7C95AC",
"_. c #7793AA",
"`. c #7F99B2",
"'. c #838C95",
"]. c #818F9D",
"[. c #83919E",
"{. c #8C9399",
"}. c #8493A2",
"|. c #8996A5",
" X c #8A98A7",
".X c #8298AE",
"XX c #8C9AA9",
"oX c #8195A8",
"OX c #829CB3",
"+X c #8CA5BD",
"@X c #86A1BA",
"#X c #90A8BF",
"$X c #8FA8C0",
"%X c None",
/* pixels */
"%X%X%X%X%X%X%X%X%X%X%X%X%X%X%X%X%X%X%X%X%X%X%X%X%X%X%X%X%X%X%X%X%X%X%X%X%X%X%X%X%X%X%X%X%X%X%X%X%X%X%X%X%X%X%X%X%X%X%X%X%X%X%X%X",
"%X%X%X%X%X%X%X%X%X%X%X%X%X%X%X%X%X%X%X%X%X%X%X%X%X%X%X%X%X%X%X%X%X%X%X%X%X%X%X%X%X%X%X%X%X%X%X%X%X%X%X%X%X%X%X%X%X%X%X%X%X%X%X%X",
"%X%X%X%X%X%X%X%X%X%X%X%X%X%X%X%X%X%X%X%X%X%X%X%X%X%X%X%X%X%X%X%X%X%X%X%X%X%X%X%X%X%X%X%X%X%X%X%X%X%X%X%X%X%X%X%X%X%X%X%X%X%X%X%X",
"%X%X%X%X%X%X%X%X%X%X%X%X%X%X%X%X%X%X%X%X%X%X%X%X%X%XX @ @ @ @ & % % % & & %X%X%X%X%X%X%X%X%X%X%X%X%X%X%X%X%X%X%X%X%X%X%X%X%X%X%X",
"%X%X%X%X%X%X%X%X%X%X%X%X%X%X%X%X%X%X%X%X%X%X%X& & @ & & & & % % * * % % % % % & & %X%X%X%X%X%X%X%X%X%X%X%X%X%X%X%X%X%X%X%X%X%X%X",
"%X%X%X%X%X%X%X%X%X%X%X%X%X%X%X%X%X%X%X%Xd r d % % % q % @ X X . . . X @ % * q , % # @ %X%X%X%X%X%X%X%X%X%X%X%X%X%X%X%X%X%X%X%X%X",
"%X%X%X%X%X%X%X%X%X%X%X%X%X%X%X%X%X%X* d d h r % @ @ X X % q w 2 , % # @     X % q , $ # @ %X%X%X%X%X%X%X%X%X%X%X%X%X%X%X%X%X%X%X",
"%X%X%X%X%X%X%X%X%X%X%X%X%X%X%X%XX q d h h *     & q p N ' ' ] ] [ ' S N M f e &   o % 2 % @ @ %X%X%X%X%X%X%X%X%X%X%X%X%X%X%X%X%X",
"%X%X%X%X%X%X%X%X%X%X%X%X%X%X%X. * e d h * & 2 t v [  .....{ { { ..X.X.X...{ { ' d 2 O   % 2 # + O %X%X%X%X%X%X%X%X%X%X%X%X%X%X%X",
"%X%X%X%X%X%X%X%X%X%X%X%X%X%X. q h d & r y s A L  .&.,.>.,.,.,.+.X.&.<.<.>.q.>.{ S h s 2   @ 2 % @ @ %X%X%X%X%X%X%X%X%X%X%X%X%X%X",
"%X%X%X%X%X%X%X%X%X%X%X%XX   w d r q r g g A L | O.,.6.6.7.6.6.7.7.<.q.w.w.w.w.q.{ A A g 4 @   , , @ q %X%X%X%X%X%X%X%X%X%X%X%X%X",
"%X%X%X%X%X%X%X%X%X%X%X    $ r r y A B K R %.%.1.:.5.6.7.0.r.0.e.a.r.w.t.n.n.t.t.<.[ S A g i 2 . % 2 q r %X%X%X%X%X%X%X%X%X%X%X%X",
"%X%X%X%X%X%X%X%X%X%X  o q r % > A K R %.1.8.9.9.d.d.j.9.0.r.r.r.v.v.v.t.N.G.G.G.C.<.{ [ A M s t O & 2 e q %X%X%X%X%X%X%X%X%X%X%X",
"%X%X%X%X%X%X%X%X%X%Xo 2 h f t Z K ~ :.3.9.9.j.r.d.d.h.M.g.r.d.B.v.n.B.v.N.G.U.Y.G.n.&.| L A M g t O & w e e %X%X%X%X%X%X%X%X%X%X",
"%X%X%X%X%X%X%X%X%X. + p % [ $.R Q %.:.8.9.9.d.g.v.M.h.M.h.J.J.d.B.N.n.N.n.G.E.'.U.G.7.O.| [ F A s 6 o % 2 w r %X%X%X%X%X%X%X%X%X",
"%X%X%X%X%X%X%X%XO O e % i T P T Q :.3.p.p.9.d.m.M.M.M.Z.J.K.P.P.M.N.N.F.G.I.E.[.Y.U.t.+. .| [ L g a 3 o q > @ %X%X%X%X%X%X%X%X%X",
"%X%X%X%X%X%X%XO o 4 * + 0 J ! 4.u.f.f.J.J.D.P.~.^.^.R.K.K.P.~.~.A.A.A.I.I.T.A.].].E.N.*.O.O.O.O.D a s 3 . e @ O %X%X%X%X%X%X%X%X",
"%X%X%X%X%X%X%X  > d @ 7 J ( 4.i.i.J.J.J.J.L.^._.`.OX#X+X`.^.R.R.^.~.A.C.I.Y.Y.].].].C.6.*.*.$.O.I Z s 4 + & w O O %X%X%X%X%X%X%X",
"%X%X%X%X%X%XO O s * ; H ( u.f.f.D.D.f.D.J.P.~._.@X@X#X#X+X@X`.^.^.~.T.A.E.E.Y.].}.].].v.6.6.:.$.| D v s 6 + e $ . %X%X%X%X%X%X%X",
"%X%X%X%X%X%Xo t p - J ` 9.f.f.f.f.J.J.0.J.J.D.P.^.).`.`.OX`.OXOX/.T.~.A.A.E.^.E.}.|.}.C.a.5.*.$.o.R D J 8 2 & y O   %X%X%X%X%X%X",
"%X%X%X%X%XO > f * l 4.k.i.f.f.9.9.4.4.9.4.4.D.J.P.P._.^.(.).)..X.X/.T.A.A.A.].].}. X|.E.0.6.5.:.%.Q Y Z s 8 O r $   %X%X%X%X%X%X",
"%X%X%X%X%X> 4 f 7 ` k.f.3.:.^ Q %.~ 4.4.9.J.J.D.P.T.R.R.E.).{.[.|.}.oXT.A.A.].^.]. X X].e.9.5.5.1.@.R H Z m > > e   O %X%X%X%X%X",
"%X%X%X%X%X> a e H u.4.:.R Y R ! ~ ( 4.9.J.d.0.J.F.F.G.H.H.%X%X%X%X%X%X].U.n.C.^.^. X X}.v.8.8.9.1.#.Q T K Y 9 O d O   %X%X%X%X%X",
"%X%X%X%X+ - M 8 4.( ! H H Y Y R %.4.4.9.5.9.5.e.G.'.{.%X%X%X%X%X%X%X%X%X%XC.V.E.].|. X}.v.9.0.a.8.#.~ Y E _ G = y %   %X%X%X%X%X",
"%X%X%X%X+ 5 p z Q H H H Y Y R ^ 4.5.:.:.5.9.0.b.Y.%X%X%X%X%X%X%X%X%X%X%X%X%XV.U.E.].XX].v.0.0.a.3.-.~ W =.) ! 5 2 y   %X%X%X%X%X",
"%X%X%X%X- a p l G G H H H R ^ 2.%.%.:.:.5.0.e.G.%X%X%X%X%X%X%X%X%X%X%X%X%X%X%XH.Y.].XX(.d.0.0.a.1.=.Q W ;./ ! b > f o o %X%X%X%X",
"%X%X%X%X- v t l G G H U Y ^ R R %.%.:.5.5.6.r.H.%X%X%X%X%X%X%X%X%X%X%X%X%X%X%X%XU.'.XXE.a.e.a.a.3.#.Q =.;./ ! V > p O   %X%X%X%X",
"%X%X%X+ 3 v 7 l J G G H R T T R R %.:.:.:.7.V.%X%X%X%X%X%X%X%X%X%X%X%X%X%X%X%X%X%XY.|.U.v.e.a.9.-.@.@.;.) ) / ! 7 M ,   %X%X%X%X",
"%X%X%X- 3 D 9 V G G H Y K K P R %.%.%.:.5.t.Y.%X%X%X%X%X%X%X%X%X%X%X%X%X%X%X%X%X%X'.}.A.v.v.a.3.=.=.=.2.y.` ) / z M <   %X%X%X%X",
"%X%X%X: 7 A 9 J J G H Z Z K P T %.R %.:.e.C.%X%X%X%X%X%X%X%X%X%X%X%X%X%X%X%X%X%X%X'.].N.v.v.a.-.=.-.;.2.y.y.` / k p y   %X%X%X%X",
"%X%X%X- 8 A 9 J G H Z m Z Z K R R R %.7.B.V.%X%X%X%X%X%X%X%X%X%X%X%X%X%X%X%X%X%X%X[.Y.N.v.g.8.4.4.=._ ;.y.y.` ^ k i y   %X%X%X%X",
"%X%X%X3 9 A k J G Z z c J Z P P R %.5.B.B.n.%X%X%X%X%X%X%X%X%X%X%X%X%X%X%X%X%X%X%X%XC.B.M.a.p.8.3.=.^ 2.y.y.y.( z i i   %X%X%X%X",
"%X%X%X6 0 A 0 H Z J c c J K P R Q %.0.n.v.t.%X%X%X%X%X%X%X%X%X%X%X%X%X%X%X%X%X%X%X%XC.v.m.d.a.p.;._ _ ;.y.i.k.y.b i i   %X%X%X%X",
"%X%X%X3 0 F 0 K 0 a l l Z P K Y R 1.v.v.r.v.%X%X%X%X%X%X%X%X%X%X%X%X%X%X%X%X%X%X%XC.V.n.m.m.d.;.#._ _ ;.i.c.c.y.b i i   %X%X%X%X",
"%X%X%X3 7 F z J c 0 c Z K K K U R 1.v.B.r.e.%X%X%X%X%X%X%X%X%X%X%X%X%X%X%X%X%X%X%Xb.b.M.M.m.8.=.@._ _ ;.k.c.c.y.z x i o %X%X%X%X",
"%X%X%X3 3 A s 0 0 c c Z K Z K P @.0.v.v.e.e.C.%X%X%X%X%X%X%X%X%X%X%X%X%X%X%X%X%X%Xb.m.m.M.p.=.@._ @.;.Z.x.x.k.y.j M e o %X%X%X%X",
"%X%X%X> ; g s J J J a Z m m G T :.d.m.B.0.7.n.%X%X%X%X%X%X%X%X%X%X%X%X%X%X%X%X%Xb.b.v.a.8.8.=._ ~ -.x.x.x.x.k.y.j N < o %X%X%X%X",
"%X%X%X%X- s A 0 Z 0 Z Z m Z K R :.e.m.r.6.6.v.C.%X%X%X%X%X%X%X%X%X%X%X%X%X%X%X%Xb.v.a.-.@.@.@.-.f.S.Q.Q.x.x.k.y.u N > o %X%X%X%X",
"%X%X%X%X> 8 A 0 a c Z Z z m Z R :.0.r.0.6.5.v.N.C.%X%X%X%X%X%X%X%X%X%X%X%X%X%Xb.a.5.@.@.} @.s.S.S.S.Q.x.x.k.i.#.i B : o %X%X%X%X",
"%X%X%X%X3 3 h 7 c c Z a z Z D R :.5.0.0.,.5.0.N.N.I.%X%X%X%X%X%X%X%X%X%X%X%Xw.5.+.@.@.@.p.S.~.Q.x.x.x.x.x.k.y.C f x : %X%X%X%X%X",
"%X%X%X%X3 > s u 0 Z Z 0 a J D T O.:.6.6.:.:.6.B.N.I.C.%X%X%X%X%X%X%X%X%Xq.<.$.$.*.0.m.S.!.~.Q.Q.x.z.z.c.j.u.#.u F 6 > %X%X%X%X%X",
"%X%X%X%X%X> 6 g 9 a s 0 a c Z I :.6.e.e.,.O.,.m.N.A.C.I.I.I.C.%Xb.b.r.e.0.a.m.Z.S.~.~.!.S.S.x.x.x.z.l.g.s.;.E i B 4 p %X%X%X%X%X",
"%X%X%X%X%X> # s 4 J a 7 0 c Z | <.:.7.7.6.,.$.0.m.N.A.A.I.K.A.C.n.v.v.g.g.Z.S.!.!.Q.S.S.l.l.z.x.l.M.g.g.p.=.b N B M %X%X%X%X%X%X",
"%X%X%X%X%X%X+ 6 s 0 0 7 0 c P :.| $.:.:.o.:.,.6.v.v.N.A.K.I.I.K.I.K.n.M.M.M.Z.S.S.S.S.x.Z.Z.Z.m.l.g.j.u.-.E t N C p %X%X%X%X%X%X",
"%X%X%X%X%X%X+ > g 4 5 5 7 Z | I O.r.r.,.R T ,.7.0.v.v.N.A.A.A.T.A.A.A.A.S.S.A.K.A.S.Z.Z.Z.Z.m.l.g.f.p.-.~ u N O.N %X%X%X%X%X%X%X",
"%X%X%X%X%X%X%X+ 3 p 3 3 9 P Z L e.V.C.r.| T o.6.5.e.v.v.m.M.N.A.K.I.A.Z.S.A.S.Z.S.S.S.Z.Z.m.l.j.j.p.=.#.C y } B N %X%X%X%X%X%X%X",
"%X%X%X%X%X%X%X+ + 0 e - 7 D m K w.n.n.r.$.,.6.$.O.8.a.e.v.d.v.v.M.B.N.A.N.Z.Z.Z.M.l.l.Z.l.m.l.j.p.y.-.W u ..K 6 %X%X%X%X%X%X%X%X",
"%X%X%X%X%X%X%X%X+ + s , ; Z m Z  .7.w.,.b.t.$.T O.$.8.9.0.e.a.a.a.v.v.m.n.m.M.m.m.m.d.g.g.j.j.a.p.-.-.v ' L B 6 %X%X%X%X%X%X%X%X",
"%X%X%X%X%X%X%X%X%X+ : p $ v Z m m K o.t.n.O.L I T o.$.6.8.9.7.7.0.e.d.a.a.a.a.a.a.a.p.a.a.p.8.5.$.@.x x  .C ' %X%X%X%X%X%X%X%X%X",
"%X%X%X%X%X%X%X%X%XO + 3 y : m K x m <.t.+.T K K K T o.$.:.5.5.5.5.8.e.0.0.0.0.0.6.6.5.8.5.5.-.@.} x d B b B %X%X%X%X%X%X%X%X%X%X",
"%X%X%X%X%X%X%X%X%X%XO + 3 y $ K B v *.O.I } K C K K T o.$.$.$.-.:.:.*.8.6.6.8.0.p.5.8.5.-.-.@.Y j p  .B z %X%X%X%X%X%X%X%X%X%X%X",
"%X%X%X%X%X%X%X%X%X%X%XO + 4 y , v L L C I o.T C m G T o.O.O.$.$.$.$.@.$.-.1.5.5.5.5.5.$.@.O.U 4 r L } L %X%X%X%X%X%X%X%X%X%X%X%X",
"%X%X%X%X%X%X%X%X%X%X%X%Xo + < y , > 9 v K T o.K m G T o.o.o.O.o.O.@.o.@.@.O.-.-.-.$.+.@.| v > t M x B %X%X%X%X%X%X%X%X%X%X%X%X%X",
"%X%X%X%X%X%X%X%X%X%X%X%X%Xo + : t w # < v Y | | G K Y o.o.%.O.O.O.o.o.} o.} } W C W I C 6 , p v u 6 %X%X%X%X%X%X%X%X%X%X%X%X%X%X",
"%X%X%X%X%X%X%X%X%X%X%X%X%X%X%XO = < t , + 8 K o.T Y W o.@.%.@.@.o.o.} W T L C C x j 4 : w x x u 6 %X%X%X%X%X%X%X%X%X%X%X%X%X%X%X",
"%X%X%X%X%X%X%X%X%X%X%X%X%X%X%X%Xo O : 6 t , # 6 B m G Y W o.o.o.} } L C C x u 6 : > 1 x x a 9 %X%X%X%X%X%X%X%X%X%X%X%X%X%X%X%X%X",
"%X%X%X%X%X%X%X%X%X%X%X%X%X%X%X%X%X%XO + > 6 t 2 $ + + 2 4 8 9 a x x x 4 > + # , y a x u u 9 %X%X%X%X%X%X%X%X%X%X%X%X%X%X%X%X%X%X",
"%X%X%X%X%X%X%X%X%X%X%X%X%X%X%X%X%X%X%Xo o + : 4 e t 4 2 w % # # & : : , w y i x u u 6 6 %X%X%X%X%X%X%X%X%X%X%X%X%X%X%X%X%X%X%X%X",
"%X%X%X%X%X%X%X%X%X%X%X%X%X%X%X%X%X%X%X%X%X%X+ + + > < 4 6 i i t t u t i u u 6 6 6 6 %X%X%X%X%X%X%X%X%X%X%X%X%X%X%X%X%X%X%X%X%X%X",
"%X%X%X%X%X%X%X%X%X%X%X%X%X%X%X%X%X%X%X%X%X%X%X%X%X+ + + - > 4 3 < < < < < < %X%X%X%X%X%X%X%X%X%X%X%X%X%X%X%X%X%X%X%X%X%X%X%X%X%X",
"%X%X%X%X%X%X%X%X%X%X%X%X%X%X%X%X%X%X%X%X%X%X%X%X%X%X%X%X%X%X%X%X%X%X%X%X%X%X%X%X%X%X%X%X%X%X%X%X%X%X%X%X%X%X%X%X%X%X%X%X%X%X%X%X",
"%X%X%X%X%X%X%X%X%X%X%X%X%X%X%X%X%X%X%X%X%X%X%X%X%X%X%X%X%X%X%X%X%X%X%X%X%X%X%X%X%X%X%X%X%X%X%X%X%X%X%X%X%X%X%X%X%X%X%X%X%X%X%X%X",
"%X%X%X%X%X%X%X%X%X%X%X%X%X%X%X%X%X%X%X%X%X%X%X%X%X%X%X%X%X%X%X%X%X%X%X%X%X%X%X%X%X%X%X%X%X%X%X%X%X%X%X%X%X%X%X%X%X%X%X%X%X%X%X%X",
"%X%X%X%X%X%X%X%X%X%X%X%X%X%X%X%X%X%X%X%X%X%X%X%X%X%X%X%X%X%X%X%X%X%X%X%X%X%X%X%X%X%X%X%X%X%X%X%X%X%X%X%X%X%X%X%X%X%X%X%X%X%X%X%X"
};
