/* XPM */
static char *result[] = {
/* columns rows colors chars-per-pixel */
"64 64 193 2 ",
"   c #06070B",
".  c #07090D",
"X  c #0A0B0D",
"o  c #12100F",
"O  c #0C0D12",
"+  c #090F1A",
"@  c #100F11",
"#  c #0E1115",
"$  c #0C131B",
"%  c #131214",
"&  c #181617",
"*  c #12151A",
"=  c #16191D",
"-  c #1A1A1C",
";  c #18171B",
":  c #201E1E",
">  c #0D1620",
",  c #0D1923",
"<  c #0E1B2A",
"1  c #101620",
"2  c #131A23",
"3  c #1B1D23",
"4  c #131E2B",
"5  c #181F29",
"6  c #201E20",
"7  c #0F202F",
"8  c #1D2126",
"9  c #15212D",
"0  c #1C242C",
"q  c #0F2334",
"w  c #152433",
"e  c #1B2632",
"r  c #1D2935",
"t  c #152A3B",
"y  c #1D2C3B",
"u  c #162738",
"i  c #1D303F",
"p  c #222224",
"a  c #21252B",
"s  c #25292E",
"d  c #242B33",
"f  c #292E34",
"g  c #232E3A",
"h  c #292F38",
"j  c #2D3135",
"k  c #24313D",
"l  c #2B333C",
"z  c #313436",
"x  c #31363E",
"c  c #35393E",
"v  c #3A3B3C",
"b  c #1F2F40",
"n  c #1D3243",
"m  c #1E3549",
"M  c #1D3951",
"N  c #202F40",
"B  c #233444",
"V  c #2A3442",
"C  c #263846",
"Z  c #2B3946",
"A  c #22364A",
"S  c #243A4A",
"D  c #2A3D4C",
"F  c #2A3748",
"G  c #343B44",
"H  c #3A3E45",
"J  c #333E4B",
"K  c #393F48",
"L  c #263D51",
"P  c #293F52",
"I  c #2D404E",
"U  c #3A4046",
"Y  c #35414D",
"T  c #3B434C",
"R  c #2D4253",
"E  c #27435C",
"W  c #2D455A",
"Q  c #324554",
"!  c #3A4653",
"~  c #3C4955",
"^  c #314759",
"/  c #384758",
"(  c #34495B",
")  c #3B4C5C",
"_  c #3F515F",
"`  c #294760",
"'  c #2D4A62",
"]  c #344D63",
"[  c #3A4F61",
"{  c #324E68",
"}  c #3D5263",
"|  c #36536B",
" . c #3C556A",
".. c #3B556A",
"X. c #3B5772",
"o. c #3E5B75",
"O. c #45494D",
"+. c #42464A",
"@. c #454C53",
"#. c #4A4E53",
"$. c #434E5A",
"%. c #44515D",
"&. c #4A535C",
"*. c #4C5056",
"=. c #50575E",
"-. c #425464",
";. c #495563",
":. c #435769",
">. c #45596B",
",. c #4A5C6D",
"<. c #535A62",
"1. c #545F69",
"2. c #445C72",
"3. c #4A5E71",
"4. c #425F79",
"5. c #4C606F",
"6. c #57636F",
"7. c #5A626B",
"8. c #4D6174",
"9. c #44617A",
"0. c #4D647B",
"q. c #4F687E",
"w. c #536474",
"e. c #5A6773",
"r. c #5C6875",
"t. c #52677A",
"y. c #54697D",
"u. c #5B6C7C",
"i. c #606770",
"p. c #616E7B",
"a. c #65737F",
"s. c #446482",
"d. c #4A6783",
"f. c #4C6983",
"g. c #4C6D8B",
"h. c #556D83",
"j. c #596E82",
"k. c #516F8A",
"l. c #5C7285",
"z. c #54718B",
"x. c #5C748B",
"c. c #5E798F",
"v. c #577287",
"b. c #4E7193",
"n. c #567592",
"m. c #597792",
"M. c #5D7A95",
"N. c #5D7D9B",
"B. c #557899",
"V. c #637484",
"C. c #697683",
"Z. c #6E7A85",
"A. c #627689",
"S. c #64798C",
"D. c #6C7B8A",
"F. c #677987",
"G. c #707E8C",
"H. c #627C93",
"J. c #697F93",
"K. c #627F9A",
"L. c #5B7FA2",
"P. c #74818F",
"I. c #6D8194",
"U. c #64819D",
"Y. c #6C859C",
"T. c #738494",
"R. c #7A8795",
"E. c #7C8997",
"W. c #71869A",
"Q. c #75899B",
"!. c #7B8C9C",
"~. c #5D82A3",
"^. c #6385A5",
"/. c #6987A2",
"(. c #6D8AA4",
"). c #6689A9",
"_. c #698BAA",
"`. c #728DA5",
"'. c #7D8FA1",
"]. c #7E91A3",
"[. c #7692AC",
"{. c #7B93AB",
"}. c #7A96B0",
"|. c #808D9A",
" X c #8393A3",
".X c #8798A7",
"XX c #8296A9",
"oX c #8099AF",
"OX c #8E9CAB",
"+X c #829CB5",
"@X c #8BA4BD",
"#X c #93A2B0",
"$X c None",
/* pixels */
"$X$X$X$X$X$X$X$X$X$X$X$X$X$X$X$X$X$X$X$X$X$X$X$X$X$X$X$X$X$X$X$X$X$X$X$X$X$X$X$X$X$X$X$X$X$X$X$X$X$X$X$X$X$X$X$X$X$X$X$X$X$X$X$X",
"$X$X$X$X$X$X$X$X$X$X$X$X$X$X$X$X$X$X$X$X$X$X$X$X$X$X$X$X$X$X$X$X$X$X$X$X$X$X$X$X$X$X$X$X$X$X$X$X$X$X$X$X$X$X$X$X$X$X$X$X$X$X$X$X",
"$X$X$X$X$X$X$X$X$X$X$X$X$X$X$X$X$X$X$X$X$X$X$X$X$X$X$X$X$X$X$X$X$X$X$X$X$X$X$X$X$X$X$X$X$X$X$X$X$X$X$X$X$X$X$X$X$X$X$X$X$X$X$X$X",
"$X$X$X$X$X$X$X$X$X$X$X$X$X$X$X$X$X$X$X$X$X$X$X$X$X$X$X% & & - - & % % % $X$X$X$X$X$X$X$X$X$X$X$X$X$X$X$X$X$X$X$X$X$X$X$X$X$X$X$X",
"$X$X$X$X$X$X$X$X$X$X$X$X$X$X$X$X$X$X$X$X$X$X$X% % % % ; - - - p - & ; ; - - - * $X$X$X$X$X$X$X$X$X$X$X$X$X$X$X$X$X$X$X$X$X$X$X$X",
"$X$X$X$X$X$X$X$X$X$X$X$X$X$X$X$X$X$X$X$X% - ; ; - : : : & @ X # ; & % & - p p 3 * * # $X$X$X$X$X$X$X$X$X$X$X$X$X$X$X$X$X$X$X$X$X",
"$X$X$X$X$X$X$X$X$X$X$X$X$X$X$X$X$X$Xo o - 3 ; % o o % - - 8 8 8 p s 8 % X X % - 3 = * # # $X$X$X$X$X$X$X$X$X$X$X$X$X$X$X$X$X$X$X",
"$X$X$X$X$X$X$X$X$X$X$X$X$X$X$X$XO @ % p - X . % s G G U +.T O.@.@.*.&.$.+.x 3 O . % - = * % # $X$X$X$X$X$X$X$X$X$X$X$X$X$X$X$X$X",
"$X$X$X$X$X$X$X$X$X$X$X$X$X$X$XO * 3 p o X 3 l Q -.;.1.,.6.5.;.&.&.=.<.7.<.<.#.G a O X % 3 = # # $X$X$X$X$X$X$X$X$X$X$X$X$X$X$X$X",
"$X$X$X$X$X$X$X$X$X$X$X$X$X@ @ 3 p - & 9 V Y %.;.w.r.j.x.l.l.l.l.u.e.7.7.i.7.7.&.H x d # X = 3 # @ $X$X$X$X$X$X$X$X$X$X$X$X$X$X$X",
"$X$X$X$X$X$X$X$X$X$X$X$X@ % 3 6 & = 0 l Z Y ~ -.;.3.w.u.V.S.S.S.A.S.r.e.a.a.p.r.&.U G h 8 O % 8 * O O $X$X$X$X$X$X$X$X$X$X$X$X$X",
"$X$X$X$X$X$X$X$X$X$X$XO * s ; % 0 f Z / :.3.8.0.0.0.q.0.y.y.l.V.V.x.l.u.a.Z.G.G.C.&.T J l d * # 3 * O O $X$X$X$X$X$X$X$X$X$X$X$X",
"$X$X$X$X$X$X$X$X$X$XX & H : O 5 k / ,.0.h.h.v.j.j.k.z.z.k.z.v.k.v.V.l.j.j.C.R.E.T.p.%.~ G G k = X 8 * X X $X$X$X$X$X$X$X$X$X$X$X",
"$X$X$X$X$X$X$X$X$X# * c v s r D } 2.0.0.q.y.l.v.l.l.x.c.M.U.U.U.M.M.A.l.V.V.D.E.E.G.r.%.&.*.O.T s O 8 # O $X$X$X$X$X$X$X$X$X$X$X",
"$X$X$X$X$X$X$X$X$X= U v l ~ Q ) :.,.q.v.x.N././.(.(.(.`.[.`.Y.U././.Y.H.A.V.A.T.E.R.D.p.w.$.! G G d O a O X $X$X$X$X$X$X$X$X$X$X",
"$X$X$X$X$X$X$X$X* l +.H %.! P X.f.k.z.M.U.Y.[.[.{.[.}.}.}.@X@X@X[.`.[.[.Y.S.S.S.T.!.!.G.1.;.$.Y V G 8 & 0 O O $X$X$X$X$X$X$X$X$X",
"$X$X$X$X$X$X$X= l #.z Y C R o.g.U.U.U.U.v.U.U.F.I.I.U.Y.`.[.oX@X@X+X[.{.}.Q.J.S.A.'. XG.D.Z.V.%.Y k Z 3 3 3 O O $X$X$X$X$X$X$X$X",
"$X$X$X$X$X$X$Xs U z U I ' 9.q.U.v.9.q.0.5.q.v.v.U.I.W.W.I.I.$X$XXXXXXX{.{.[.Y.J.S.Q.'. XOX|.R.r.~ Z k x O s # . $X$X$X$X$X$X$X$X",
"$X$X$X$X$X$Xf T j 0 ^ { q.U.9.q.5.>.o.5.v.v.I.v.P.P.$X$X$X$X$X$X$X$X$X$X$X'.`.Y.J.Q.'.XX#X XE.p.6.6.%.k 2 & s X O $X$X$X$X$X$X$X",
"$X$X$X$X$X$Xe @.s I ' q.g.9...} | 4.9.v.v.v.a.a.$X$X$X$X$X$X$X$X$X$X$X$X$X$X$XW.(.'.G.|..X XD.C.P.a.~ i r # s * . $X$X$X$X$X$X$X",
"$X$X$X$X$X8 T O.I ` q.q.o.) ) ..9.q.y.y.a.I.$X$X$X$X$X$X$X$X$X$X$X$X$X$X$X$X$X$XW. XG.!.{.W.F.!.P.,.) C i 2 $ s . X $X$X$X$X$X$X",
"$X$X$X$X$X9 T h S 4.9.( ^ ' ..o.8.8.8.u.V.$X$X$X$X$X$X$X$X$X$X$X$X$X$X$X$X$X$X$X$XQ.'.Q.'.'.|.G.y.5...^ C r O j # . $X$X$X$X$X$X",
"$X$X$X$Xf k H w | 2.( R ^ | 5.5.5.5.y.u.$X$X$X$X$X$X$X$X$X$X$X$X$X$X$X$X$X$X$X$X$X$XQ.'. X X!.j.t.t.5...I m , 8 a   O $X$X$X$X$X",
"$X$X$X$XG ~ f L ..( ^ ' _  .-.-.5.8.u.$X$X$X$X$X$X$X$X$X$X$X$X$X$X$X$X$X$X$X$X$X$X$X$XG.XXOXG.u.t.y.0. ./ D u = f O X $X$X$X$X$X",
"$X$X$X$Xk G 0 ' ^ W ^ ] .._  .>.5.8.a.$X$X$X$X$X$X$X$X$X$X$X$X$X$X$X$X$X$X$X$X$X$X$X$X$XQ..XG.j.t.h.t.2.[ E n < x * . $X$X$X$X$X",
"$X$X$X2 u G r R W ^ ] ..( _ 5.5.8.u.$X$X$X$X$X$X$X$X$X$X$X$X$X$X$X$X$X$X$X$X$X$X$X$X$X$XT.XXT.j.u.j.t.2...W m < f 3   $X$X$X$X$X",
"$X$X$X, y l n R W W } ) ( _ 5. .u.a.$X$X$X$X$X$X$X$X$X$X$X$X$X$X$X$X$X$X$X$X$X$X$X$X$X$XT. XT.j.j.j.f.2...' L q e f   @ $X$X$X$X",
"$X$X$X< A r n R W ( ) R ( _ _ 5.u.$X$X$X$X$X$X$X$X$X$X$X$X$X$X$X$X$X$X$X$X$X$X$X$X$X$X$X$X XQ.V.l.j.3.2. .W L b e c   . $X$X$X$X",
"$X$X$X9 D g M R ^ ( R R ( _ _ w.a.$X$X$X$X$X$X$X$X$X$X$X$X$X$X$X$X$X$X$X$X$X$X$X$X$X$X$X$X|.Q.A.V.j.4.2.| ` M L g G .   $X$X$X$X",
"$X$X$X9 Y r R R ( I I R Q Q } y.P.$X$X$X$X$X$X$X$X$X$X$X$X$X$X$X$X$X$X$X$X$X$X$X$X$X$X$X$X|.Q.S.V.f.3.2.{ ` M L V K O X $X$X$X$X",
"$X$X$X9 Y r L R I S I R Q ( 5.u.a.$X$X$X$X$X$X$X$X$X$X$X$X$X$X$X$X$X$X$X$X$X$X$X$X$X$X$X$X$XW.D.V.f.d.2.{ ` P ] b J 1 X $X$X$X$X",
"$X$X$Xw T y R R S I I R R ) 5.l.u.$X$X$X$X$X$X$X$X$X$X$X$X$X$X$X$X$X$X$X$X$X$X$X$X$X$X$X$X$XJ.V.x.h.4.2.{ ' { s.A G 3 % $X$X$X$X",
"$X$X$Xw T r ` I m m R I I } w.p.r.$X$X$X$X$X$X$X$X$X$X$X$X$X$X$X$X$X$X$X$X$X$X$X$X$X$X$X$X|.S.V.j.h.9.2.| ' s.B.A Z 1 % $X$X$X$X",
"$X$X$Xw T i R I m I W I R } t.y.r.$X$X$X$X$X$X$X$X$X$X$X$X$X$X$X$X$X$X$X$X$X$X$X$X$X$X$X$XR.V.l.h.h.4.X.| o.L.B.F Z 1 X $X$X$X$X",
"$X$X$Xw I d I n I I R C I ..w.r.t.$X$X$X$X$X$X$X$X$X$X$X$X$X$X$X$X$X$X$X$X$X$X$X$X$X$X$X$XZ.C.l.h.f.9.4.o.z.L.b.A J 1 . $X$X$X$X",
"$X$X$X9 Z k n S S I I C R  .5.y.e.$X$X$X$X$X$X$X$X$X$X$X$X$X$X$X$X$X$X$X$X$X$X$X$X$X$X$X$XZ.D.l.h.f.s.4.d.B.L.g.N K $ . $X$X$X$X",
"$X$X$X9 i z t n S I m S ^ >.5.t.8.u.$X$X$X$X$X$X$X$X$X$X$X$X$X$X$X$X$X$X$X$X$X$X$X$X$X$X$XG.J.x.k.k.g.d.N.~.L.s.N J $ X $X$X$X$X",
"$X$X$X9 r T i C I I n S ^ -.5.w.,.r.$X$X$X$X$X$X$X$X$X$X$X$X$X$X$X$X$X$X$X$X$X$X$X$X$X$XZ.J.H.x.z.b.k.M.^.^.L.X.h V + @ $X$X$X$X",
"$X$X$X$X9 T r n I I n I Q >.5.5.>.w.$X$X$X$X$X$X$X$X$X$X$X$X$X$X$X$X$X$X$X$X$X$X$X$X$X$XT.J.l.k.m.m.M._.).~.B.W H g + $X$X$X$X$X",
"$X$X$X$X9 G i i C I i M Q -.5.5.-.,.u.$X$X$X$X$X$X$X$X$X$X$X$X$X$X$X$X$X$X$X$X$X$X$X$XG.W.x.k.n.m.M.^.).~.L.g.V J 7 + $X$X$X$X$X",
"$X$X$X$X9 r l t I C t S R } >.5.$.-.t.V.$X$X$X$X$X$X$X$X$X$X$X$X$X$X$X$X$X$X$X$X$X$X$XW.A.d.f.n.K._.L.L.L.n.2.h J , + $X$X$X$X$X",
"$X$X$X$X2 9 U e I i t C R _ -.5.) ) ,.j.V.$X$X$X$X$X$X$X$X$X$X$X$X$X$X$X$X$X$X$X$X$XT.j.2.9.z.K._.[.L.N.m.n.L G N 1 $X$X$X$X$X$X",
"$X$X$X$X$X, i d n C t i I [  .5._ / } w.l.F.$X$X$X$X$X$X$X$X$X$X$X$X$X$X$X$X$X$X$XA.t.2.0.x.U.).L.L.K.M.K.d.g J w 1 $X$X$X$X$X$X",
"$X$X$X$X$X, 9 x u i t i I (  .5.-.Q / ,.y.l.V.$X$X$X$X$X$X$X$X$X$X$X$X$X$X$X$X$Xu.w.t.h.M.N.^.^.K.K.H.M.L.W l B < 1 $X$X$X$X$X$X",
"$X$X$X$X$X$X$ k d w t t m ) ..5.;.I Q :.,.t.A.S.V.$X$X$X$X$X$X$X$X$X$X$X$X$Xe.y.h.j.m.m.N.M.M.M.K.K.K.K.s.d J u 0 $X$X$X$X$X$X$X",
"$X$X$X$X$X$X$ 7 l 9 7 t n Q -.>.>.~ I Q :.3.h.J.J.V.V.$X$X$X$X$X$X$X$X$XV.u.y.j.h.f.f.k.m.M.K.U.K.K.M.m.A h B e 5 $X$X$X$X$X$X$X",
"$X$X$X$X$X$X$X$ w f , q i I } ..,.} Z I $.>.3.y.A.H.J.S.S.S.V.a.a.p.p.j.V.j.0.0.f.h.l.H.K.K.U.U.N.m.z.-.a J y 4 $X$X$X$X$X$X$X$X",
"$X$X$X$X$X$X$X$ $ k 8 < t m ( } >.-.D A Q -.:.3.t.l.M.A.J.H.H.A.A.A.A.V.V.x.c.A.H.H.K.U./.U.U.M.z.f.2.5 G F w $X$X$X$X$X$X$X$X$X",
"$X$X$X$X$X$X$X$X$ , l = 7 i R ) )  .) Z S Q } >.5.0.v.H.M.A.H.A.x.A.x.x.x.H.H.H.m.H.H.K.K.K.M.j.d.2.h V F u 4 $X$X$X$X$X$X$X$X$X",
"$X$X$X$X$X$X$X$X$X$ , f * q S R ) } _ I Z D / } ,.,.8.y.x.l.x.A.A.x.A.V.l.l.z.x.m.z.x.l.x.h.0.3.:.K H F u w $X$X$X$X$X$X$X$X$X$X",
"$X$X$X$X$X$X$X$X$X$X0 e d * r R R ) _ ~ Z C Z Q -.>.>.,.2.h.j.z.l.l.j.l.j.j.j.j.h.j.h.t.0.3.2.[ h *.$.N u $X$X$X$X$X$X$X$X$X$X$X",
"$X$X$X$X$X$X$X$X$X$X$Xj r d = r S R ^ } / i B C ! ..;.:.>.,.3.8.h.f.h.h.h.h.y.t.t.t.t.3.,.>./ G O.$.! e $X$X$X$X$X$X$X$X$X$X$X$X",
"$X$X$X$X$X$X$X$X$X$X$X$Xj 0 d 8 9 k R _ ;.I y i C Q } ;.:.:.-.:.:.>.8.t.t.t.t.f.t.3.,.>.:.F a *.;.! J $X$X$X$X$X$X$X$X$X$X$X$X$X",
"$X$X$X$X$X$X$X$X$X$X$X$X$Xj 8 e 8 $ w R } :.Z r i Z Y ) -.-.-.:.-.-.-.:.:.,.,.,.;.:.:.P 0 f *.$.! V $X$X$X$X$X$X$X$X$X$X$X$X$X$X",
"$X$X$X$X$X$X$X$X$X$X$X$X$X$X8 $ 9 r 3 , i ) _ B y C Y ! ~ ) -.:.-.$.$.[ ) ) [ / J A 5 2 x ! ~ ~ J $X$X$X$X$X$X$X$X$X$X$X$X$X$X$X",
"$X$X$X$X$X$X$X$X$X$X$X$X$X$X$X# # , 0 8 3 2 y Y B k C D Q Q ~ ) [ / [ P / P F u 2 3 6 ! $.F g J $X$X$X$X$X$X$X$X$X$X$X$X$X$X$X$X",
"$X$X$X$X$X$X$X$X$X$X$X$X$X$X$X$X$X# # , e e 8 = 2 , 4 e g B F F F J F V 0 1 * 3 s V K F J V $X$X$X$X$X$X$X$X$X$X$X$X$X$X$X$X$X$X",
"$X$X$X$X$X$X$X$X$X$X$X$X$X$X$X$X$X$X$X# $ 2 9 0 a 8 = * * # # # * 1 ; 1 3 d h N N y V G $X$X$X$X$X$X$X$X$X$X$X$X$X$X$X$X$X$X$X$X",
"$X$X$X$X$X$X$X$X$X$X$X$X$X$X$X$X$X$X$X$X$X# $ , 2 9 0 e r e d e d d g N y g g w h V $X$X$X$X$X$X$X$X$X$X$X$X$X$X$X$X$X$X$X$X$X$X",
"$X$X$X$X$X$X$X$X$X$X$X$X$X$X$X$X$X$X$X$X$X$X$X$X$ $ > , 2 4 4 4 4 w 4 4 4 5 9 $X$X$X$X$X$X$X$X$X$X$X$X$X$X$X$X$X$X$X$X$X$X$X$X$X",
"$X$X$X$X$X$X$X$X$X$X$X$X$X$X$X$X$X$X$X$X$X$X$X$X$X$X$X$X$X$X$ $ $X$X$X$X$X$X$X$X$X$X$X$X$X$X$X$X$X$X$X$X$X$X$X$X$X$X$X$X$X$X$X$X",
"$X$X$X$X$X$X$X$X$X$X$X$X$X$X$X$X$X$X$X$X$X$X$X$X$X$X$X$X$X$X$X$X$X$X$X$X$X$X$X$X$X$X$X$X$X$X$X$X$X$X$X$X$X$X$X$X$X$X$X$X$X$X$X$X",
"$X$X$X$X$X$X$X$X$X$X$X$X$X$X$X$X$X$X$X$X$X$X$X$X$X$X$X$X$X$X$X$X$X$X$X$X$X$X$X$X$X$X$X$X$X$X$X$X$X$X$X$X$X$X$X$X$X$X$X$X$X$X$X$X",
"$X$X$X$X$X$X$X$X$X$X$X$X$X$X$X$X$X$X$X$X$X$X$X$X$X$X$X$X$X$X$X$X$X$X$X$X$X$X$X$X$X$X$X$X$X$X$X$X$X$X$X$X$X$X$X$X$X$X$X$X$X$X$X$X"
};
