/* XPM */
static char *result[] = {
/* columns rows colors chars-per-pixel */
"64 64 154 2 ",
"   c #010101",
".  c #050A05",
"X  c #080F07",
"o  c #060E08",
"O  c #0B0B0B",
"+  c #091207",
"@  c #07120A",
"#  c #09140B",
"$  c #0D1A0B",
"%  c #101C0D",
"&  c #0D1B10",
"*  c #141414",
"=  c #1B1B1B",
"-  c #12230E",
";  c #0F2113",
":  c #112414",
">  c #152811",
",  c #112418",
"<  c #142A19",
"1  c #1C3516",
"2  c #1D3817",
"3  c #17311D",
"4  c #18331E",
"5  c #1F3A19",
"6  c #213E1B",
"7  c #340E23",
"8  c #3A152D",
"9  c #391A2E",
"0  c #3B1730",
"q  c #3D1B32",
"w  c #1B3621",
"e  c #1C3B24",
"r  c #232323",
"t  c #272A2A",
"y  c #2A2B2A",
"u  c #322F32",
"i  c #2E3230",
"p  c #323535",
"a  c #343937",
"s  c #363B3A",
"d  c #471F3E",
"f  c #432334",
"g  c #23411C",
"h  c #26481E",
"j  c #294E21",
"k  c #214328",
"l  c #254B2D",
"z  c #2D5524",
"x  c #2F5825",
"c  c #305B26",
"v  c #335F29",
"b  c #264E30",
"n  c #3B403F",
"m  c #295332",
"M  c #2E5C36",
"N  c #35632A",
"B  c #3B6D2F",
"V  c #396B30",
"C  c #32643C",
"Z  c #356B3E",
"A  c #3F7632",
"S  c #3B733E",
"D  c #427A35",
"F  c #4B2643",
"G  c #4A2F42",
"H  c #4C3142",
"J  c #543C4D",
"K  c #3D4141",
"L  c #376D42",
"P  c #3A7445",
"I  c #3E7B4A",
"U  c #39744D",
"Y  c #454B4A",
"T  c #5A4455",
"R  c #544353",
"E  c #4C5352",
"W  c #595F5F",
"Q  c #555D5D",
"!  c #407F4E",
"~  c #5A625F",
"^  c #645A63",
"/  c #5E6665",
"(  c #67676E",
")  c #636B69",
"_  c #756374",
"`  c #746874",
"'  c #6B7070",
"]  c #79767A",
"[  c #737C7B",
"{  c #478339",
"}  c #48863A",
"|  c #4B8A3C",
" . c #4F913F",
".. c #42834D",
"X. c #4F964F",
"o. c #519441",
"O. c #559C44",
"+. c #448651",
"@. c #468B53",
"#. c #488E54",
"$. c #4D9454",
"%. c #4F9855",
"&. c #529C53",
"*. c #59A247",
"=. c #55A04E",
"-. c #5AA549",
";. c #5DAA4B",
":. c #56A253",
">. c #59A653",
",. c #5DAC53",
"<. c #5FB052",
"1. c #60AF4D",
"2. c #61B24E",
"3. c #62B452",
"4. c #67BB52",
"5. c #69BE54",
"6. c #6AC155",
"7. c #7B8684",
"8. c #7F8B89",
"9. c #88818A",
"0. c #838C8C",
"q. c #8D8791",
"w. c #8D8992",
"e. c #8D9695",
"r. c #8D9897",
"t. c #909C9A",
"y. c #999A9F",
"u. c #95A2A0",
"i. c #98A5A3",
"p. c #9CA8A6",
"a. c #9DAAA8",
"s. c #A3A5AB",
"d. c #A1AAAB",
"f. c #A4B1AF",
"g. c #ABB3B5",
"h. c #B5C4C3",
"j. c #BAC5C6",
"k. c #B9C9C6",
"l. c #BECECC",
"z. c #C1CBCC",
"x. c #C3D4D2",
"c. c #C8D5D4",
"v. c #C7D8D5",
"b. c #C7D8D9",
"n. c #CDDCDA",
"m. c #CFE1DE",
"M. c #D4E6E3",
"N. c #D7E9E6",
"B. c #D8EAE7",
"V. c #DCEFEB",
"C. c #DEF1ED",
"Z. c #E0F2EF",
"A. c #E1F4F0",
"S. c None",
/* pixels */
"S.S.S.S.S.S.S.S.S.S.S.S.S.S.S.S.S.S.S.S.S.S.S.S.S.S.S.S.S.S.S.S.S.S.S.S.S.S.S.S.S.S.S.S.S.S.S.S.S.S.S.S.S.S.S.S.S.S.S.S.S.S.S.S.",
"S.S.S.S.S.S.S.S.S.S.S.S.S.S.S.S.S.S.S.S.S.S.S.S.S.S.S.S.S.S.S.S.S.S.S.y r = S.S.S.S.S.S.S.S.S.S.S.S.S.S.S.S.S.S.S.S.S.S.S.S.S.S.",
"S.S.S.S.S.S.S.S.S.S.S.S.S.S.S.S.S.S.S.S.S.S.S.S.S.S.S.S.S.S.S.r r r r O     O S.S.S.S.S.S.S.S.S.S.S.S.S.S.S.S.S.S.S.S.S.S.S.S.S.",
"S.S.S.S.S.S.S.S.S.S.S.S.S.S.S.S.S.S.S.S.S.S.S.S.S.S.S.S.S.S.*                 = S.S.S.S.S.S.S.S.S.S.S.S.S.S.S.S.S.S.S.S.S.S.S.S.",
"S.S.S.S.S.S.S.S.S.S.S.S.S.S.S.S.S.S.S.S.S.S.S.S.S.S.S.S.S.*                   = S.S.S.S.S.S.S.S.S.S.S.S.S.S.S.S.S.S.S.S.S.S.S.S.",
"S.S.S.S.S.S.S.S.S.S.S.S.S.S.S.S.S.S.S.S.S.S.S.S.S.S.S.S.S..       O O       . S.S.S.S.S.S.S.S.S.S.S.S.S.S.S.S.S.S.S.S.S.S.S.S.S.",
"S.S.S.S.S.S.S.S.S.S.S.S.S.S.S.S.S.S.S.S.S.S.S.S.S.S.S.S.S..     O S.S.* * * = S.S.S.S.S.S.S.S.S.S.S.S.S.S.S.S.S.S.S.S.S.S.S.S.S.",
"S.S.S.S.S.S.S.S.S.S.S.S.S.S.S.S.S.S.S.S.S.S.S.S.S.S.S.S.S..     O S.S.S.S.S.S.S.S.S.S.S.S.S.S.S.S.S.S.S.S.S.S.S.S.S.S.S.S.S.S.S.",
"S.S.S.S.S.S.S.S.S.S.S.S.S.S.S.S.S.S.S.S.S.S.S.S.S.S.S.S.S.O     . S.S.S.S.S.S.S.S.S.S.S.S.S.S.S.S.S.S.S.S.S.S.S.S.S.S.S.S.S.S.S.",
"S.S.S.S.S.S.S.S.S.S.S.S.S.S.S.S.S.S.S.S.S.S.S.S.S.S.S.S.S..       r t S.S.S.S.S.S.S.S.S.S.S.S.S.S.S.S.S.S.S.S.S.S.S.S.S.S.S.S.S.",
"S.S.S.S.S.S.S.S.S.S.S.S.S.S.S.S.S.S.S.S.S.S.S.S.S.S.S.= O         . O O * * = S.S.S.S.S.S.S.S.S.S.S.S.S.S.S.S.S.S.S.S.S.S.S.S.S.",
"S.S.S.S.S.S.S.S.S.S.S.S.S.S.S.S.S.S.S.S.S.S.S.S.S.= O                         . * = S.S.S.S.S.S.S.S.S.S.S.S.S.S.S.S.S.S.S.S.S.S.",
"S.S.S.S.S.S.S.S.S.S.S.S.S.S.S.S.S.S.S.S.S.S.S.S.*             .   . .             . * S.S.S.S.S.S.S.S.S.S.S.S.S.S.S.S.S.S.S.S.S.",
"S.S.S.S.S.S.S.S.S.S.S.S.S.S.S.S.S.S.S.S.S.S.S.O         # 5 x c c c v N 6 X           * S.S.S.S.S.S.S.S.S.S.S.S.S.S.S.S.S.S.S.S.",
"S.S.S.S.S.S.S.S.S.S.S.S.S.S.S.S.S.S.S.S.S.S.O         5 A  .-.;.*. .D B g .           . S.S.S.S.S.S.S.S.S.S.S.S.S.S.S.S.S.S.S.S.",
"S.S.S.S.S.S.S.S.S.S.S.S.S.S.S.S.S.S.S.S.S..       + j o.4.6.4.*.{ N g $ .             . = S.S.S.S.S.S.S.S.S.S.S.S.S.S.S.S.S.S.S.",
"S.S.S.S.S.S.S.S.S.S.S.S.S.S.S.S.S.S.S.S.O       $ N -.5.6.3.| g . .                     * S.S.S.S.S.S.S.S.S.S.S.S.S.S.S.S.S.S.S.",
"S.S.S.S.S.S.S.S.S.S.S.S.S.S.S.S.S.S.S.O       $ N ;.5.5.4.{ >                             * S.S.S.S.S.S.S.S.S.S.S.S.S.S.S.S.S.S.",
"S.S.S.S.S.S.S.S.S.S.S.S.S.S.S.S.S.S.S.O     . z *.5.5.5.| >         O t i n Y E Y t .     . r S.S.S.S.S.S.S.S.S.S.S.S.S.S.S.S.S.",
"S.S.S.S.S.S.S.S.S.S.S.S.S.S.S.S.S.S.*       $ | 4.5.5.O.g         O W e.f.h.x.b.h.0.K O     O S.S.S.S.S.S.S.S.S.S.S.S.S.S.S.S.S.",
"S.S.S.S.S.S.S.S.S.S.S.S.S.S.S.S.S.S..     . c ;.5.5.;.N .       O E k.B.M.j.q._ _ w.d.Y .     * S.S.S.S.S.S.S.S.S.S.S.S.S.S.S.S.",
"S.S.S.S.S.S.S.S.S.S.S.S.S.S.S.S.S.S.O     $ o.4.4.6.o.2       * Q k.C.A.l.] f 8 0 H ^ ( =     . S.S.S.S.S.S.S.S.S.S.S.S.S.S.S.S.",
"S.S.S.S.S.S.S.S.S.S.S.S.S.S.S.S.S.S.O     : O.6.4.5.{ +     . E k.V.Z.C.g.R 7 9 8 7 0 R u O     r S.S.S.S.S.S.S.S.S.S.S.S.S.S.S.",
"S.S.S.S.S.S.S.S.S.S.S.S.S.S.S.S.S.=       6 ;.5.5.1.N       y p.B.C.V.C.s.J 8 q q q 8 G ' t     = S.S.S.S.S.S.S.S.S.S.S.S.S.S.S.",
"S.S.S.S.S.S.S.S.S.S.S.S.S.S.S.S.S.*     X m ;.5.5.O.h       Y v.V.V.V.V.g.T 7 0 0 8 7 J e.a     * S.S.S.S.S.S.S.S.S.S.S.S.S.S.S.",
"S.S.S.S.S.S.S.S.S.S.S.S.S.S.S.S.S..     # M ,.5.5. .2     . ) M.C.V.V.V.c.9.F d F T ` y.p.a     * S.S.S.S.S.S.S.S.S.S.S.S.S.S.S.",
"S.S.S.S.S.S.S.S.S.S.S.S.S.S.S.S.S.      # M &.4.5. .1     = 7.M.C.V.V.V.V.z.s.s.s.g.l.n.p.p     * S.S.S.S.S.S.S.S.S.S.S.S.S.S.S.",
"S.S.S.S.S.S.S.S.S.S.S.S.S.S.S.S.S..     # C $.3.6. .6     r 0.N.C.V.V.V.V.C.C.V.C.V.Z.M.[ *     = S.S.S.S.S.S.S.S.S.S.S.S.S.S.S.",
"S.S.S.S.S.S.S.S.S.S.S.S.S.S.S.S.S.O     # P $.3.5.*.z     = 7.B.Z.V.V.V.V.V.V.V.V.C.V.h.a       = S.S.S.S.S.S.S.S.S.S.S.S.S.S.S.",
"S.S.S.S.S.S.S.S.S.S.S.S.S.S.S.S.S.O     & I %.3.6.-.c .   . / m.A.Z.Z.Z.C.Z.Z.V.C.C.x.~ O     . S.S.S.S.S.S.S.S.S.S.S.S.S.S.S.S.",
"S.S.S.S.S.S.S.S.S.S.S.S.S.S.S.S.S..     & I %.,.5.;.N       s g.m.M.M.M.M.M.M.M.m.x.r.r       = S.S.S.S.S.S.S.S.S.S.S.S.S.S.S.S.",
"S.S.S.S.S.S.S.S.S.S.S.S.S.S.S.S.= .     & I %.3.5.4.A       O s 7.i.a.a.a.a.a.u.8./ t .     O S.S.S.S.S.S.S.S.S.S.S.S.S.S.S.S.S.",
"S.S.S.S.S.S.S.S.S.S.S.S.S.S.S.S.O     . e ..&.3.5.5. .2 .       = t t t t t t r = O       . * S.S.S.S.S.S.S.S.S.S.S.S.S.S.S.S.S.",
"S.S.S.S.S.S.S.S.S.S.S.S.S.S.S.r       & C +.:.3.4.5.4.o.g $ .                               O S.S.S.S.S.S.S.S.S.S.S.S.S.S.S.S.S.",
"S.S.S.S.S.S.S.S.S.S.S.S.S.S.S.*       , I #.,.4.4.4.5.2.1.| g + .                 . . .     . S.S.S.S.S.S.S.S.S.S.S.S.S.S.S.S.S.",
"S.S.S.S.S.S.S.S.S.S.S.S.S.S.S.O     o k +.&.2.4.4.4.4.5.6.4.-.{ z $ . . . . . . - h z +     O S.S.S.S.S.S.S.S.S.S.S.S.S.S.S.S.S.",
"S.S.S.S.S.S.S.S.S.S.S.S.S.S.O       & Z #.,.3.4.4.4.4.4.4.4.5.4.-. .{ | | | { |  .-. .-       = S.S.S.S.S.S.S.S.S.S.S.S.S.S.S.S.",
"S.S.S.S.S.S.S.S.S.S.S.S.* .         4 ..>.2.5.4.4.4.4.4.4.4.4.4.5.5.6.5.6.5.5.6.5.6.;.2       . S.S.S.S.S.S.S.S.S.S.S.S.S.S.S.S.",
"S.S.S.S.S.S.S.S.S.S.= .           ; S &.3.4.4.4.4.4.4.4.4.4.4.4.4.4.4.4.4.4.5.4.4.5.2.D $       O r S.S.S.S.S.S.S.S.S.S.S.S.S.S.",
"S.S.S.S.S.S.S.S.S.O             < Z >.3.5.4.4.4.4.4.4.4.4.4.4.4.4.4.4.4.4.4.4.4.4.4.5.;.B $       O * S.S.S.S.S.S.S.S.S.S.S.S.S.",
"S.S.S.S.S.S.S.= .           . 3 P ,.3.5.5.4.4.4.4.4.4.4.4.4.4.4.4.4.4.4.4.4.4.4.4.4.4.5.;.N +         O r S.S.S.S.S.S.S.S.S.S.S.",
"S.S.S.S.S.S.* .         # 4 l L %.4.5.4.4.5.4.4.4.4.4.4.4.4.4.4.4.4.4.4.4.4.4.3.3.3.3.3.4.-.N %         . * S.S.S.S.S.S.S.S.S.S.",
"S.S.S.S.S.S.O       @ , m I @.@.$.;.4.4.4.4.3.3.4.4.4.4.4.4.4.4.4.4.4.4.4.4.,.&.X.$.&.>.3.3.;.B :           . * S.S.S.S.S.S.S.S.",
"S.S.S.S.S.r     . # l P @.@.@.@.#.$.:.,.;.>.>.>.,.2.5.4.4.4.4.4.4.4.4.4.4.<.&.@.@.#.@.@.$.:.>.&.S w & o       . = S.S.S.S.S.S.S.",
"S.S.S.S.S.O     . e P +.+.+.+.+.+...+.@.#.@.#.@.X.>.4.4.4.4.4.4.4.4.4.4.4.&.@.@.@.@.I U ..........I Z 3         O r S.S.S.S.S.S.",
"S.S.S.S.S..     . 4 b m m m b m m m b M I +.@.@.@.&.,.4.4.4.4.4.4.4.4.4.<.X.@.@...C 4 , < < < < 4 k l 4         . r S.S.S.S.S.S.",
"S.S.S.S.S.*       o @ @ @ @ @ @ # # # # 4 C ..+.@.@.&.3.4.4.4.4.4.4.4.4.&.#.@.! m ;                 # +           r S.S.S.S.S.S.",
"S.S.S.S.S.t .                             ; 4 l P +.@.&.>.3.4.5.4.4.4.&.$.@.+.M #                               . r S.S.S.S.S.S.",
"S.S.S.S.S.S.= O O                             . w L @.@.#.%.:.,.,.,.:.#.@.@.Z ;             .         .         O S.S.S.S.S.S.S.",
"S.S.S.S.S.S.S.S.S.S.S.= = = = = = * O             w U @.@.@.#.$.%.$.#.@.@.P w       . * S.S.S.S.S.= = = = = = r S.S.S.S.S.S.S.S.",
"S.S.S.S.S.S.S.S.S.S.S.S.S.S.S.S.S.S.S.= * .       . e L ..@.@.@.@.@.@.#.U e       . * S.S.S.S.S.S.S.S.S.S.S.S.S.S.S.S.S.S.S.S.S.",
"S.S.S.S.S.S.S.S.S.S.S.S.S.S.S.S.S.S.S.S.S.S.O         : m P +.#.#.#.@.P w .       * S.S.S.S.S.S.S.S.S.S.S.S.S.S.S.S.S.S.S.S.S.S.",
"S.S.S.S.S.S.S.S.S.S.S.S.S.S.S.S.S.S.S.S.S.S.S.*         . < M L L L C w         O S.S.S.S.S.S.S.S.S.S.S.S.S.S.S.S.S.S.S.S.S.S.S.",
"S.S.S.S.S.S.S.S.S.S.S.S.S.S.S.S.S.S.S.S.S.S.S.S.*           . . o @ . .       O S.S.S.S.S.S.S.S.S.S.S.S.S.S.S.S.S.S.S.S.S.S.S.S.",
"S.S.S.S.S.S.S.S.S.S.S.S.S.S.S.S.S.S.S.S.S.S.S.S.S.* .                       O S.S.S.S.S.S.S.S.S.S.S.S.S.S.S.S.S.S.S.S.S.S.S.S.S.",
"S.S.S.S.S.S.S.S.S.S.S.S.S.S.S.S.S.S.S.S.S.S.S.S.S.S.= O O               . O S.S.S.S.S.S.S.S.S.S.S.S.S.S.S.S.S.S.S.S.S.S.S.S.S.S.",
"S.S.S.S.S.S.S.S.S.S.S.S.S.S.S.S.S.S.S.S.S.S.S.S.S.S.S.S.S.* O O O O O O * S.S.S.S.S.S.S.S.S.S.S.S.S.S.S.S.S.S.S.S.S.S.S.S.S.S.S.",
"S.S.S.S.S.S.S.S.S.S.S.S.S.S.S.S.S.S.S.S.S.S.S.S.S.S.S.S.S.S.S.S.S.S.S.S.S.S.S.S.S.S.S.S.S.S.S.S.S.S.S.S.S.S.S.S.S.S.S.S.S.S.S.S.",
"S.S.S.S.S.S.S.S.S.S.S.S.S.S.S.S.S.S.S.S.S.S.S.S.S.S.S.S.S.S.S.S.S.S.S.S.S.S.S.S.S.S.S.S.S.S.S.S.S.S.S.S.S.S.S.S.S.S.S.S.S.S.S.S.",
"S.S.S.S.S.S.S.S.S.S.S.S.S.S.S.S.S.S.S.S.S.S.S.S.S.S.S.S.S.S.S.S.S.S.S.S.S.S.S.S.S.S.S.S.S.S.S.S.S.S.S.S.S.S.S.S.S.S.S.S.S.S.S.S.",
"S.S.S.S.S.S.S.S.S.S.S.S.S.S.S.S.S.S.S.S.S.S.S.S.S.S.S.S.S.S.S.S.S.S.S.S.S.S.S.S.S.S.S.S.S.S.S.S.S.S.S.S.S.S.S.S.S.S.S.S.S.S.S.S.",
"S.S.S.S.S.S.S.S.S.S.S.S.S.S.S.S.S.S.S.S.S.S.S.S.S.S.S.S.S.S.S.S.S.S.S.S.S.S.S.S.S.S.S.S.S.S.S.S.S.S.S.S.S.S.S.S.S.S.S.S.S.S.S.S.",
"S.S.S.S.S.S.S.S.S.S.S.S.S.S.S.S.S.S.S.S.S.S.S.S.S.S.S.S.S.S.S.S.S.S.S.S.S.S.S.S.S.S.S.S.S.S.S.S.S.S.S.S.S.S.S.S.S.S.S.S.S.S.S.S.",
"S.S.S.S.S.S.S.S.S.S.S.S.S.S.S.S.S.S.S.S.S.S.S.S.S.S.S.S.S.S.S.S.S.S.S.S.S.S.S.S.S.S.S.S.S.S.S.S.S.S.S.S.S.S.S.S.S.S.S.S.S.S.S.S."
};
