/* XPM */
static char *result[] = {
/* columns rows colors chars-per-pixel */
"64 64 154 2 ",
"   c #010101",
".  c #050A05",
"X  c #080F06",
"o  c #060D08",
"O  c #0B0C0C",
"+  c #091207",
"@  c #0A140A",
"#  c #0C190D",
"$  c #101E0D",
"%  c #0F1110",
"&  c #0D1C11",
"*  c #141414",
"=  c #1B1C1C",
"-  c #12220F",
";  c #122514",
":  c #162811",
">  c #132719",
",  c #1D201F",
"<  c #152C1B",
"1  c #1C3316",
"2  c #1D3817",
"3  c #17311D",
"4  c #19331E",
"5  c #213E1A",
"6  c #350D24",
"7  c #3A152C",
"8  c #38172A",
"9  c #3B1630",
"0  c #3D1C32",
"q  c #1F2222",
"w  c #1D3D25",
"e  c #232323",
"r  c #262928",
"t  c #2A2B2B",
"y  c #3E2733",
"u  c #2C3031",
"i  c #323434",
"p  c #373B3A",
"a  c #3C3C3C",
"s  c #40222F",
"d  c #44233A",
"f  c #49283A",
"g  c #432A39",
"h  c #22401B",
"j  c #204127",
"k  c #294D21",
"l  c #214429",
"z  c #254C2D",
"x  c #2D5324",
"c  c #315C27",
"v  c #325D29",
"b  c #264E30",
"n  c #3C423F",
"m  c #2A5634",
"M  c #2C5A36",
"N  c #2F5D39",
"B  c #305F3A",
"V  c #36652B",
"C  c #38672D",
"Z  c #3A6C2F",
"A  c #386A32",
"S  c #32643C",
"D  c #34693F",
"F  c #3F7432",
"G  c #407633",
"H  c #417935",
"J  c #417A3F",
"K  c #512E4A",
"L  c #4E3645",
"P  c #493E47",
"I  c #3E4444",
"U  c #376C42",
"Y  c #386F44",
"T  c #3B7446",
"R  c #3D7947",
"E  c #3E7B4B",
"W  c #404646",
"Q  c #45494A",
"!  c #50444D",
"~  c #48504E",
"^  c #4D4F50",
"/  c #5D4358",
"(  c #515858",
")  c #407E4D",
"_  c #427D43",
"`  c #635961",
"'  c #685F68",
"]  c #675264",
"[  c #5C6262",
"{  c #646C6B",
"}  c #6A7372",
"|  c #6F7877",
" . c #707978",
".. c #7C737F",
"X. c #478339",
"o. c #48863A",
"O. c #4C8C3D",
"+. c #4F913F",
"@. c #41824E",
"#. c #529641",
"$. c #559A44",
"%. c #559F4D",
"&. c #448551",
"*. c #468B54",
"=. c #498E54",
"-. c #4C9354",
";. c #4F9852",
":. c #529C53",
">. c #57A046",
",. c #58A246",
"<. c #5BA649",
"1. c #5DAB4B",
"2. c #55A253",
"3. c #58A653",
"4. c #5DAD52",
"5. c #5FB052",
"6. c #60AF4D",
"7. c #62B34F",
"8. c #63B551",
"9. c #67BB52",
"0. c #68BE53",
"q. c #76807E",
"w. c #6AC155",
"e. c #817D83",
"r. c #7F8988",
"t. c #868A8D",
"y. c #85928F",
"u. c #8F8C94",
"i. c #879390",
"p. c #8B9294",
"a. c #959B9E",
"s. c #929299",
"d. c #9D9CA3",
"f. c #9AA6A6",
"g. c #A1AFAE",
"h. c #A6ACB1",
"j. c #A9B5B5",
"k. c #ABB8B6",
"l. c #ADB7B9",
"z. c #ADBBB9",
"x. c #B4BCBE",
"c. c #B5C4C2",
"v. c #BAC4C5",
"b. c #BDCDCB",
"n. c #C1CED0",
"m. c #C5D4D3",
"M. c #C7D8D5",
"N. c #CCDCDB",
"B. c #D1E1DF",
"V. c #D3E4E2",
"C. c #DCEEEC",
"Z. c #DEF1EE",
"A. c #E0F3F0",
"S. c None",
/* pixels */
"S.S.S.S.S.S.S.S.S.S.S.S.S.S.S.S.S.S.S.S.S.S.S.S.S.S.S.S.S.S.S.S.S.S.S.S.S.S.S.S.S.S.S.S.S.S.S.S.S.S.S.S.S.S.S.S.S.S.S.S.S.S.S.S.",
"S.S.S.S.S.S.S.S.S.S.S.S.S.S.S.S.S.S.S.S.S.S.S.S.S.S.S.S.S.S.S.S.S.P i = * = S.S.S.S.S.S.S.S.S.S.S.S.S.S.S.S.S.S.S.S.S.S.S.S.S.S.",
"S.S.S.S.S.S.S.S.S.S.S.S.S.S.S.S.S.S.S.S.S.S.S.S.S.S.S.S.S.S.e * * * O       * S.S.S.S.S.S.S.S.S.S.S.S.S.S.S.S.S.S.S.S.S.S.S.S.S.",
"S.S.S.S.S.S.S.S.S.S.S.S.S.S.S.S.S.S.S.S.S.S.S.S.S.S.S.S.S.e                 O S.S.S.S.S.S.S.S.S.S.S.S.S.S.S.S.S.S.S.S.S.S.S.S.S.",
"S.S.S.S.S.S.S.S.S.S.S.S.S.S.S.S.S.S.S.S.S.S.S.S.S.S.S.S.S.O                 . S.S.S.S.S.S.S.S.S.S.S.S.S.S.S.S.S.S.S.S.S.S.S.S.S.",
"S.S.S.S.S.S.S.S.S.S.S.S.S.S.S.S.S.S.S.S.S.S.S.S.S.S.S.S.=                   * S.S.S.S.S.S.S.S.S.S.S.S.S.S.S.S.S.S.S.S.S.S.S.S.S.",
"S.S.S.S.S.S.S.S.S.S.S.S.S.S.S.S.S.S.S.S.S.S.S.S.S.S.S.S.*       O S.= * * = S.S.S.S.S.S.S.S.S.S.S.S.S.S.S.S.S.S.S.S.S.S.S.S.S.S.",
"S.S.S.S.S.S.S.S.S.S.S.S.S.S.S.S.S.S.S.S.S.S.S.S.S.S.S.S.*       = S.S.S.S.S.S.S.S.S.S.S.S.S.S.S.S.S.S.S.S.S.S.S.S.S.S.S.S.S.S.S.",
"S.S.S.S.S.S.S.S.S.S.S.S.S.S.S.S.S.S.S.S.S.S.S.S.S.S.S.S.=       = S.S.S.S.S.S.S.S.S.S.S.S.S.S.S.S.S.S.S.S.S.S.S.S.S.S.S.S.S.S.S.",
"S.S.S.S.S.S.S.S.S.S.S.S.S.S.S.S.S.S.S.S.S.S.S.S.S.S.S.S.=       * S.S.S.S.S.S.S.S.S.S.S.S.S.S.S.S.S.S.S.S.S.S.S.S.S.S.S.S.S.S.S.",
"S.S.S.S.S.S.S.S.S.S.S.S.S.S.S.S.S.S.S.S.S.S.S.S.S.S.S.S.*         O % * = i S.S.S.S.S.S.S.S.S.S.S.S.S.S.S.S.S.S.S.S.S.S.S.S.S.S.",
"S.S.S.S.S.S.S.S.S.S.S.S.S.S.S.S.S.S.S.S.S.S.S.S.S.S.* O                 . O O * S.S.S.S.S.S.S.S.S.S.S.S.S.S.S.S.S.S.S.S.S.S.S.S.",
"S.S.S.S.S.S.S.S.S.S.S.S.S.S.S.S.S.S.S.S.S.S.S.S.* O                             O e S.S.S.S.S.S.S.S.S.S.S.S.S.S.S.S.S.S.S.S.S.S.",
"S.S.S.S.S.S.S.S.S.S.S.S.S.S.S.S.S.S.S.S.S.S.S.*           X + + + + @ + .         . = S.S.S.S.S.S.S.S.S.S.S.S.S.S.S.S.S.S.S.S.S.",
"S.S.S.S.S.S.S.S.S.S.S.S.S.S.S.S.S.S.S.S.S.S.%         + 2 V H F G G G Z 2 .           , S.S.S.S.S.S.S.S.S.S.S.S.S.S.S.S.S.S.S.S.",
"S.S.S.S.S.S.S.S.S.S.S.S.S.S.S.S.S.S.S.S.S.O         $ F >.1.7.7.<.o.C k $             % S.S.S.S.S.S.S.S.S.S.S.S.S.S.S.S.S.S.S.S.",
"S.S.S.S.S.S.S.S.S.S.S.S.S.S.S.S.S.S.S.S.*       . 2 o.6.w.w.7.o.c 5 $ .               O S.S.S.S.S.S.S.S.S.S.S.S.S.S.S.S.S.S.S.S.",
"S.S.S.S.S.S.S.S.S.S.S.S.S.S.S.S.S.S.S.e .       1 +.9.w.w.,.C -                       . e S.S.S.S.S.S.S.S.S.S.S.S.S.S.S.S.S.S.S.",
"S.S.S.S.S.S.S.S.S.S.S.S.S.S.S.S.S.S.S.O       - o.7.9.9.1.V .                           . r S.S.S.S.S.S.S.S.S.S.S.S.S.S.S.S.S.S.",
"S.S.S.S.S.S.S.S.S.S.S.S.S.S.S.S.S.S.e       + C 7.w.w.7.F #           % r p ( ( W O       % S.S.S.S.S.S.S.S.S.S.S.S.S.S.S.S.S.S.",
"S.S.S.S.S.S.S.S.S.S.S.S.S.S.S.S.S.S.*       h ,.9.w.9.+.2         e { r.a.g.j.l.f.| p       = S.S.S.S.S.S.S.S.S.S.S.S.S.S.S.S.S.",
"S.S.S.S.S.S.S.S.S.S.S.S.S.S.S.S.S.S..     # F 9.w.9.1.x         %  .N.C.V.n.a.s.h.j. .e     O t S.S.S.S.S.S.S.S.S.S.S.S.S.S.S.S.",
"S.S.S.S.S.S.S.S.S.S.S.S.S.S.S.S.S.e       h <.0.w.9.o.:       , { c.C.C.c.` 0 s d L { ! .     * S.S.S.S.S.S.S.S.S.S.S.S.S.S.S.S.",
"S.S.S.S.S.S.S.S.S.S.S.S.S.S.S.S.S.=       k 8.0.w.7.c       O } M.C.A.V.i.g 6 8 6 7 L P *     O S.S.S.S.S.S.S.S.S.S.S.S.S.S.S.S.",
"S.S.S.S.S.S.S.S.S.S.S.S.S.S.S.S.S.*       v 8.9.9.1.5       Q k.C.C.C.B...d 9 0 0 0 0 ! ~ O   O t S.S.S.S.S.S.S.S.S.S.S.S.S.S.S.",
"S.S.S.S.S.S.S.S.S.S.S.S.S.S.S.S.S.*     O A 8.0.8.#.1       } N.C.C.C.B.t.d 7 0 0 9 6 `  .%   . e S.S.S.S.S.S.S.S.S.S.S.S.S.S.S.",
"S.S.S.S.S.S.S.S.S.S.S.S.S.S.S.S.S..     > _ 8.9.7.H -     O i.Z.Z.C.C.V.d.L 6 9 7 7 f t.t.*     e S.S.S.S.S.S.S.S.S.S.S.S.S.S.S.",
"S.S.S.S.S.S.S.S.S.S.S.S.S.S.S.S.S.      < _ 8.9.7.Z #     u g.A.C.C.C.C.N.s.L K K ] a.v.y.*   . e S.S.S.S.S.S.S.S.S.S.S.S.S.S.S.",
"S.S.S.S.S.S.S.S.S.S.S.S.S.S.S.S.e       > T 4.0.9.Z #     W j.Z.C.C.C.C.Z.N.v.x.x.v.B.M. .%     e S.S.S.S.S.S.S.S.S.S.S.S.S.S.S.",
"S.S.S.S.S.S.S.S.S.S.S.S.S.S.S.S.e .     < _ 3.0.9.H -     W j.C.C.C.C.Z.Z.Z.Z.Z.A.Z.A.c.W .   . e S.S.S.S.S.S.S.S.S.S.S.S.S.S.S.",
"S.S.S.S.S.S.S.S.S.S.S.S.S.S.S.S.e       w &.:.9.9.O.1     i g.Z.C.C.C.C.C.C.Z.C.C.Z.B.i.O     O S.S.S.S.S.S.S.S.S.S.S.S.S.S.S.S.",
"S.S.S.S.S.S.S.S.S.S.S.S.S.S.S.S.=       w *.:.9.0.+.1     * f.A.Z.Z.C.C.Z.C.C.Z.Z.A.z.I       * S.S.S.S.S.S.S.S.S.S.S.S.S.S.S.S.",
"S.S.S.S.S.S.S.S.S.S.S.S.S.S.S.S.=       w *.:.9.9.#.2     . } n.C.Z.A.A.A.A.A.A.Z.m.| .     O e S.S.S.S.S.S.S.S.S.S.S.S.S.S.S.S.",
"S.S.S.S.S.S.S.S.S.S.S.S.S.S.S.S.*       l *.2.9.0.1.h       O { l.v.b.b.b.b.b.b.z.} *       * S.S.S.S.S.S.S.S.S.S.S.S.S.S.S.S.S.",
"S.S.S.S.S.S.S.S.S.S.S.S.S.S.S.e .     # M =.2.9.0.7.C +       O q u i i i i i t = %       . r S.S.S.S.S.S.S.S.S.S.S.S.S.S.S.S.S.",
"S.S.S.S.S.S.S.S.S.S.S.S.S.S.S.*       < U =.3.9.9.0.,.c #                                 . r S.S.S.S.S.S.S.S.S.S.S.S.S.S.S.S.S.",
"S.S.S.S.S.S.S.S.S.S.S.S.S.S.S.%       j @.-.5.0.9.9.9.1.G 1 +                               = S.S.S.S.S.S.S.S.S.S.S.S.S.S.S.S.S.",
"S.S.S.S.S.S.S.S.S.S.S.S.S.S., .     o m *.:.9.9.0.9.9.9.7.$.Z - @ .             X @ X       @ S.S.S.S.S.S.S.S.S.S.S.S.S.S.S.S.S.",
"S.S.S.S.S.S.S.S.S.S.S.S.S.S.*       & B -.3.9.9.9.9.9.9.0.9.6.$.X.h : - $ ; ; 1 v o.c         * S.S.S.S.S.S.S.S.S.S.S.S.S.S.S.S.",
"S.S.S.S.S.S.S.S.S.S.S.S.S.*         w E :.9.9.9.0.9.9.0.9.9.0.0.7.6.$.#.$.#.#.$.1.9.o.#         * S.S.S.S.S.S.S.S.S.S.S.S.S.S.S.",
"S.S.S.S.S.S.S.S.S.S.= * O         ; B =.3.0.9.0.9.9.9.9.9.9.9.9.0.0.w.0.0.9.9.0.9.0.6.h         . = S.S.S.S.S.S.S.S.S.S.S.S.S.S.",
"S.S.S.S.S.S.S.S.S.*             @ m &.2.9.0.9.9.9.9.9.9.9.9.9.9.9.9.9.9.9.9.9.9.9.9.7.H O         O S.S.S.S.S.S.S.S.S.S.S.S.S.S.",
"S.S.S.S.S.S.S.S.*             @ z E 2.8.9.9.9.9.9.9.9.9.9.9.9.9.9.9.9.9.9.9.9.9.9.9.9.%.v >         = S.S.S.S.S.S.S.S.S.S.S.S.S.",
"S.S.S.S.S.S.S.=         @ ; w M @.2.5.0.9.9.9.9.9.9.9.9.9.9.9.9.9.0.9.9.9.9.9.9.9.9.9.9.:.B w .     O S.S.S.S.S.S.S.S.S.S.S.S.S.",
"S.S.S.S.S.S.S..     o < m D @.*.-.3.9.9.9.9.9.9.9.9.9.9.9.9.9.9.9.9.9.9.9.9.9.9.9.9.9.9.6.=.U @     O S.S.S.S.S.S.S.S.S.S.S.S.S.",
"S.S.S.S.S.S.e       @ z R &.*.*.*.-.2.9.9.9.9.9.9.9.9.9.9.9.9.9.9.9.9.9.9.9.9.9.9.9.9.9.8.%.T &     O S.S.S.S.S.S.S.S.S.S.S.S.S.",
"S.S.S.S.S.S.=         # z D @.*.*.*.-.3.9.9.9.9.9.9.9.9.9.9.9.9.9.9.9.9.9.9.9.9.9.9.9.9.8.;.S @     O S.S.S.S.S.S.S.S.S.S.S.S.S.",
"S.S.S.S.S.S.e         . . & N &.*.*.*.;.4.9.9.9.9.9.9.9.9.9.9.9.9.9.9.9.9.9.9.9.9.9.9.9.5.*.M @     O S.S.S.S.S.S.S.S.S.S.S.S.S.",
"S.S.S.S.S.S.S.O             # M &.*.*.*.2.9.9.9.9.9.9.9.8.5.4.4.4.4.5.5.5.4.4.4.8.9.9.9.2.&.N O     O S.S.S.S.S.S.S.S.S.S.S.S.S.",
"S.S.S.S.S.S.S.S.= O O         & b E *.*.;.9.9.0.9.9.5.2.-.-.-.=.=.-.-.*.-.-.-.-.;.3.5.8.:.*.T #       * S.S.S.S.S.S.S.S.S.S.S.S.",
"S.S.S.S.S.S.S.S.S.S.S.= .       @ M *.*.-.5.0.0.0.3.-.*.&.E N m U ) *.*.*.*.*.*.*.=.-.-.*.=.) ;         = S.S.S.S.S.S.S.S.S.S.S.",
"S.S.S.S.S.S.S.S.S.S.S.S.=         w T *.*.:.3.3.:.-.&.U l w ; # ; w N U T T &.*.*.*.*.*.*.=.&.m #       . i S.S.S.S.S.S.S.S.S.S.",
"S.S.S.S.S.S.S.S.S.S.S.S.S.%       o M *.*.*.=.-.&.Y b >           . & < 3 4 l z m N U @.*.*.*.) m #       r S.S.S.S.S.S.S.S.S.S.",
"S.S.S.S.S.S.S.S.S.S.S.S.S.= .       < Y *.=.=.@.B 3 .                             % < l m S T &.) <       r S.S.S.S.S.S.S.S.S.S.",
"S.S.S.S.S.S.S.S.S.S.S.S.S.S.=         4 N S S b &                                         + 3 b M >       u S.S.S.S.S.S.S.S.S.S.",
"S.S.S.S.S.S.S.S.S.S.S.S.S.S.S.*         . o O           . * = = = = * * O                       .       . i S.S.S.S.S.S.S.S.S.S.",
"S.S.S.S.S.S.S.S.S.S.S.S.S.S.S.S.%                     % e S.S.S.S.S.S.p t = = * = O                     , S.S.S.S.S.S.S.S.S.S.S.",
"S.S.S.S.S.S.S.S.S.S.S.S.S.S.S.S.S.* .             O * p S.S.S.S.S.S.S.S.S.S.S.S.S.t = * O             * S.S.S.S.S.S.S.S.S.S.S.S.",
"S.S.S.S.S.S.S.S.S.S.S.S.S.S.S.S.S.S.e * * * * * = i S.S.S.S.S.S.S.S.S.S.S.S.S.S.S.S.S.S.e * * % % % = i S.S.S.S.S.S.S.S.S.S.S.S.",
"S.S.S.S.S.S.S.S.S.S.S.S.S.S.S.S.S.S.S.S.S.S.S.S.S.S.S.S.S.S.S.S.S.S.S.S.S.S.S.S.S.S.S.S.S.S.S.p a a S.S.S.S.S.S.S.S.S.S.S.S.S.S.",
"S.S.S.S.S.S.S.S.S.S.S.S.S.S.S.S.S.S.S.S.S.S.S.S.S.S.S.S.S.S.S.S.S.S.S.S.S.S.S.S.S.S.S.S.S.S.S.S.S.S.S.S.S.S.S.S.S.S.S.S.S.S.S.S.",
"S.S.S.S.S.S.S.S.S.S.S.S.S.S.S.S.S.S.S.S.S.S.S.S.S.S.S.S.S.S.S.S.S.S.S.S.S.S.S.S.S.S.S.S.S.S.S.S.S.S.S.S.S.S.S.S.S.S.S.S.S.S.S.S.",
"S.S.S.S.S.S.S.S.S.S.S.S.S.S.S.S.S.S.S.S.S.S.S.S.S.S.S.S.S.S.S.S.S.S.S.S.S.S.S.S.S.S.S.S.S.S.S.S.S.S.S.S.S.S.S.S.S.S.S.S.S.S.S.S.",
"S.S.S.S.S.S.S.S.S.S.S.S.S.S.S.S.S.S.S.S.S.S.S.S.S.S.S.S.S.S.S.S.S.S.S.S.S.S.S.S.S.S.S.S.S.S.S.S.S.S.S.S.S.S.S.S.S.S.S.S.S.S.S.S."
};
