/* XPM */
static char *result[] = {
/* columns rows colors chars-per-pixel */
"64 64 151 2 ",
"   c #010101",
".  c #040A05",
"X  c #060E08",
"o  c #0B0B0B",
"O  c #091207",
"+  c #07100A",
"@  c #0A130B",
"#  c #0D1A0D",
"$  c #111F0D",
"%  c #0F1010",
"&  c #0D1C11",
"*  c #131313",
"=  c #151818",
"-  c #1C1C1C",
";  c #2B0B1B",
":  c #310D1F",
">  c #11210E",
",  c #122515",
"<  c #162A12",
"1  c #1D201E",
"2  c #152D1A",
"3  c #1B3315",
"4  c #1D3817",
"5  c #17311D",
"6  c #19341E",
"7  c #1F3B18",
"8  c #213E1A",
"9  c #330F21",
"0  c #39132C",
"q  c #3B192D",
"w  c #3D1C32",
"e  c #1E2121",
"r  c #1A3520",
"t  c #1C3A23",
"y  c #232423",
"u  c #262929",
"i  c #2D2D2D",
"p  c #2C312F",
"a  c #2F3232",
"s  c #333333",
"d  c #343937",
"f  c #353938",
"g  c gray22",
"h  c #402835",
"j  c #462739",
"k  c #24441D",
"l  c #1F4026",
"z  c #214227",
"x  c #224429",
"c  c #254B2D",
"v  c #2E5625",
"b  c #2F5825",
"n  c #305B26",
"m  c #325D28",
"M  c #295431",
"N  c #2D5B36",
"B  c #2D5C38",
"V  c #35632B",
"C  c #38682D",
"Z  c #33663D",
"A  c #356A3F",
"S  c #336333",
"D  c #3E7332",
"F  c #407734",
"G  c #427B35",
"H  c #4F3348",
"J  c #443D43",
"K  c #513348",
"L  c #543F4E",
"P  c #3F4545",
"I  c #366B41",
"U  c #386F43",
"Y  c #3A7345",
"T  c #3C7648",
"R  c #3E7B4A",
"E  c #53414B",
"W  c #5B4858",
"Q  c #594B55",
"!  c #4E5353",
"~  c #515857",
"^  c #5F545F",
"/  c #5D595F",
"(  c #407F4C",
")  c #675966",
"_  c #665563",
"`  c #5C6462",
"'  c #6B6067",
"]  c #666E6D",
"[  c #67706E",
"{  c #746C74",
"}  c #6B7474",
"|  c #7A7B7E",
" . c #737E7C",
".. c #458237",
"X. c #478139",
"o. c #488439",
"O. c #4D8D3E",
"+. c #4F903F",
"@. c #42824E",
"#. c #519541",
"$. c #549A43",
"%. c #549E4E",
"&. c #448651",
"*. c #468A54",
"=. c #488E54",
"-. c #4C9453",
";. c #4E9854",
":. c #519B53",
">. c #5AA64A",
",. c #5EAC4B",
"<. c #56A353",
"1. c #59A753",
"2. c #5CAB52",
"3. c #5FB052",
"4. c #60AF4D",
"5. c #62B34E",
"6. c #62B552",
"7. c #67BB52",
"8. c #68BE53",
"9. c #69C054",
"0. c #7A8584",
"q. c #7F8A87",
"w. c #838E8C",
"e. c #899392",
"r. c #8E9A98",
"t. c #909699",
"y. c #939B9C",
"u. c #989B9F",
"i. c #97A19F",
"p. c #9DA0A3",
"a. c #A2A3A8",
"s. c #A2ADAB",
"d. c #AAB3B5",
"f. c #ACBAB7",
"g. c #ADBCB9",
"h. c #B1B8BB",
"j. c #B6BFC1",
"k. c #B6C3C2",
"l. c #BCC9CA",
"z. c #C7D8D5",
"x. c #CBDCDA",
"c. c #C5D2D2",
"v. c #CFE1DE",
"b. c #D0E1DE",
"n. c #D3E5E2",
"m. c #D6E8E5",
"M. c #DBEEEB",
"N. c #DEF1ED",
"B. c #E0F3EF",
"V. c #E1F4F1",
"C. c None",
/* pixels */
"C.C.C.C.C.C.C.C.C.C.C.C.C.C.C.C.C.C.C.C.C.C.C.C.C.C.C.C.C.C.C.C.C.C.C.C.C.C.C.C.C.C.C.C.C.C.C.C.C.C.C.C.C.C.C.C.C.C.C.C.C.C.C.C.",
"C.C.C.C.C.C.C.C.C.C.C.C.C.C.C.C.C.C.C.C.C.C.C.C.C.C.C.C.C.C.C.C.C.C.C.C.C.C.C.C.C.C.C.C.C.C.C.C.C.C.C.C.C.C.C.C.C.C.C.C.C.C.C.C.",
"C.C.C.C.C.C.C.C.C.C.C.C.C.C.C.C.C.C.C.C.C.C.C.C.C.C.C.C.C.C.C.C.C.C.C.C.C.C.C.C.C.C.C.C.C.C.C.C.C.C.C.C.C.C.C.C.C.C.C.C.C.C.C.C.",
"C.C.C.C.C.C.C.C.C.C.C.C.C.C.C.C.C.C.C.C.C.C.C.C.C.C.C.C.C.C.C.C.C.C.C.C.C.C.C.C.C.C.C.C.C.C.C.C.C.C.C.C.C.C.C.C.C.C.C.C.C.C.C.C.",
"C.C.C.C.C.C.C.C.C.C.C.C.C.C.C.C.C.C.C.C.C.C.C.C.C.C.C.C.C.C.C.C.C.C.C.C.C.C.C.C.C.C.C.C.C.C.C.C.C.C.C.C.C.C.C.C.C.C.C.C.C.C.C.C.",
"C.C.C.C.C.C.C.C.C.C.C.C.C.C.C.C.C.C.C.C.C.C.C.C.C.C.C.C.C.C.C.C.C.C.C.C.s s C.C.C.C.C.C.C.C.C.C.C.C.C.C.C.C.C.C.C.C.C.C.C.C.C.C.",
"C.C.C.C.C.C.C.C.C.C.C.C.C.C.C.C.C.C.C.C.C.C.C.C.C.C.C.C.C.C.C.g g g i * . . * C.C.C.C.C.C.C.C.C.C.C.C.C.C.C.C.C.C.C.C.C.C.C.C.C.",
"C.C.C.C.C.C.C.C.C.C.C.C.C.C.C.C.C.C.C.C.C.C.C.C.C.C.C.C.C.C.y o o . .       . - C.C.C.C.C.C.C.C.C.C.C.C.C.C.C.C.C.C.C.C.C.C.C.C.",
"C.C.C.C.C.C.C.C.C.C.C.C.C.C.C.C.C.C.C.C.C.C.C.C.C.C.C.C.C.e .                 - C.C.C.C.C.C.C.C.C.C.C.C.C.C.C.C.C.C.C.C.C.C.C.C.",
"C.C.C.C.C.C.C.C.C.C.C.C.C.C.C.C.C.C.C.C.C.C.C.C.C.C.C.C.C..       .           e C.C.C.C.C.C.C.C.C.C.C.C.C.C.C.C.C.C.C.C.C.C.C.C.",
"C.C.C.C.C.C.C.C.C.C.C.C.C.C.C.C.C.C.C.C.C.C.C.C.C.C.C.C.C..     . 1 = o o . * C.C.C.C.C.C.C.C.C.C.C.C.C.C.C.C.C.C.C.C.C.C.C.C.C.",
"C.C.C.C.C.C.C.C.C.C.C.C.C.C.C.C.C.C.C.C.C.C.C.C.C.C.C.C.C..     o C.C.C.C.C.C.C.C.C.C.C.C.C.C.C.C.C.C.C.C.C.C.C.C.C.C.C.C.C.C.C.",
"C.C.C.C.C.C.C.C.C.C.C.C.C.C.C.C.C.C.C.C.C.C.C.C.C.C.C.C.C..     o C.C.C.C.C.C.C.C.C.C.C.C.C.C.C.C.C.C.C.C.C.C.C.C.C.C.C.C.C.C.C.",
"C.C.C.C.C.C.C.C.C.C.C.C.C.C.C.C.C.C.C.C.C.C.C.C.C.C.C.C.C..     o C.C.C.C.C.C.C.C.C.C.C.C.C.C.C.C.C.C.C.C.C.C.C.C.C.C.C.C.C.C.C.",
"C.C.C.C.C.C.C.C.C.C.C.C.C.C.C.C.C.C.C.C.C.C.C.C.C.C.C.C.-         % * - - y C.C.C.C.C.C.C.C.C.C.C.C.C.C.C.C.C.C.C.C.C.C.C.C.C.C.",
"C.C.C.C.C.C.C.C.C.C.C.C.C.C.C.C.C.C.C.C.C.C.C.C.C.C.C.*                   . . * u C.C.C.C.C.C.C.C.C.C.C.C.C.C.C.C.C.C.C.C.C.C.C.",
"C.C.C.C.C.C.C.C.C.C.C.C.C.C.C.C.C.C.C.C.C.C.C.C.C.* .                             % C.C.C.C.C.C.C.C.C.C.C.C.C.C.C.C.C.C.C.C.C.C.",
"C.C.C.C.C.C.C.C.C.C.C.C.C.C.C.C.C.C.C.C.C.C.C.* .         + 3 3 3 3 3 3 #           o 1 C.C.C.C.C.C.C.C.C.C.C.C.C.C.C.C.C.C.C.C.",
"C.C.C.C.C.C.C.C.C.C.C.C.C.C.C.C.C.C.C.C.C.C.* .       # 8 C +.#.#.O.o.D 4             % C.C.C.C.C.C.C.C.C.C.C.C.C.C.C.C.C.C.C.C.",
"C.C.C.C.C.C.C.C.C.C.C.C.C.C.C.C.C.C.C.C.C.*       . < D ,.5.7.5.,...b 3 O             . y C.C.C.C.C.C.C.C.C.C.C.C.C.C.C.C.C.C.C.",
"C.C.C.C.C.C.C.C.C.C.C.C.C.C.C.C.C.C.C.C.*         8 O.5.9.9.5.G 8 > O                   1 C.C.C.C.C.C.C.C.C.C.C.C.C.C.C.C.C.C.C.",
"C.C.C.C.C.C.C.C.C.C.C.C.C.C.C.C.C.C.C.C.o       3 O.7.9.9.>.v #                         o C.C.C.C.C.C.C.C.C.C.C.C.C.C.C.C.C.C.C.",
"C.C.C.C.C.C.C.C.C.C.C.C.C.C.C.C.C.C.C.o       > o.7.8.8.,.V X           . o % % o .       % C.C.C.C.C.C.C.C.C.C.C.C.C.C.C.C.C.C.",
"C.C.C.C.C.C.C.C.C.C.C.C.C.C.C.C.C.C.C..     X C ,.8.8.4.G #       . * d ! ] q.e.0.E % .     * C.C.C.C.C.C.C.C.C.C.C.C.C.C.C.C.C.",
"C.C.C.C.C.C.C.C.C.C.C.C.C.C.C.C.C.C.o       3 #.8.8.7.O.3         e r.k.k.l.d.u.u.t.0.u     . u C.C.C.C.C.C.C.C.C.C.C.C.C.C.C.C.",
"C.C.C.C.C.C.C.C.C.C.C.C.C.C.C.C.C.C.o     + G 5.8.8.>.n         = 0.n.V.n.d.{ W ) { | ! *     * C.C.C.C.C.C.C.C.C.C.C.C.C.C.C.C.",
"C.C.C.C.C.C.C.C.C.C.C.C.C.C.C.C.C.C.o     # $.8.7.8.+.<       y e.z.M.B.j.^ ; 0 0 : h / -       y C.C.C.C.C.C.C.C.C.C.C.C.C.C.C.",
"C.C.C.C.C.C.C.C.C.C.C.C.C.C.C.C.C.-       < >.9.7.7.D .     % [ n.B.N.N.p.H 0 w w q j E J *     y C.C.C.C.C.C.C.C.C.C.C.C.C.C.C.",
"C.C.C.C.C.C.C.C.C.C.C.C.C.C.C.C.C.-     . z >.8.9.>.m .     f g.M.V.M.N.a.K 0 w w w 0 j | i     - C.C.C.C.C.C.C.C.C.C.C.C.C.C.C.",
"C.C.C.C.C.C.C.C.C.C.C.C.C.C.C.C.C.*     + M >.8.9.+.k       ! n.N.M.N.N.j._ ; 9 9 : q ' u.f     * C.C.C.C.C.C.C.C.C.C.C.C.C.C.C.",
"C.C.C.C.C.C.C.C.C.C.C.C.C.C.C.C.C.      + N >.8.9.+.4     o } m.N.M.M.M.n.p.W E E E { d.s.f     * C.C.C.C.C.C.C.C.C.C.C.C.C.C.C.",
"C.C.C.C.C.C.C.C.C.C.C.C.C.C.C.C.C..     + B <.7.9.+.4     e w.m.N.M.M.M.M.M.c.h.f.k.v.n.s.a     * C.C.C.C.C.C.C.C.C.C.C.C.C.C.C.",
"C.C.C.C.C.C.C.C.C.C.C.C.C.C.C.C.C..     O A ;.7.9.+.3     1 w.m.B.M.M.N.M.B.M.m.M.M.N.x.` o     * C.C.C.C.C.C.C.C.C.C.C.C.C.C.C.",
"C.C.C.C.C.C.C.C.C.C.C.C.C.C.C.C.C..     # T ;.6.9.+.4     1 q.m.B.M.N.M.M.N.N.N.N.B.M.f.s       e C.C.C.C.C.C.C.C.C.C.C.C.C.C.C.",
"C.C.C.C.C.C.C.C.C.C.C.C.C.C.C.C.C.o     & R ;.3.9.#.k     . ` v.B.M.N.M.N.N.N.N.N.V.z.` @     o C.C.C.C.C.C.C.C.C.C.C.C.C.C.C.C.",
"C.C.C.C.C.C.C.C.C.C.C.C.C.C.C.C.C..     # T ;.6.9.,.m       u y.m.B.M.B.M.N.N.N.V.v.0.=       - C.C.C.C.C.C.C.C.C.C.C.C.C.C.C.C.",
"C.C.C.C.C.C.C.C.C.C.C.C.C.C.C.C.=       , R ;.3.9.7.D .       p  .w.w.w.w.q.e.q.0.] e       o C.C.C.C.C.C.C.C.C.C.C.C.C.C.C.C.C.",
"C.C.C.C.C.C.C.C.C.C.C.C.C.C.C.C..     . t R ;.6.7.9.$.k         . o o o o o o o             * C.C.C.C.C.C.C.C.C.C.C.C.C.C.C.C.C.",
"C.C.C.C.C.C.C.C.C.C.C.C.C.C.C.1       @ Z *.1.7.7.9.7.#.m >                                 o C.C.C.C.C.C.C.C.C.C.C.C.C.C.C.C.C.",
"C.C.C.C.C.C.C.C.C.C.C.C.C.C.C.*       5 R =.3.9.7.7.7.7.,.G v $                             . C.C.C.C.C.C.C.C.C.C.C.C.C.C.C.C.C.",
"C.C.C.C.C.C.C.C.C.C.C.C.C.C.C.      . l &.;.6.7.7.7.7.8.7.7.,.G v 7 > > $ $ $ < k m b O       - C.C.C.C.C.C.C.C.C.C.C.C.C.C.C.C.",
"C.C.C.C.C.C.C.C.C.C.C.C.C.C.%       # B *.1.7.7.7.7.7.7.7.7.7.7.5.#.G G F F F G +.9.4.<         * C.C.C.C.C.C.C.C.C.C.C.C.C.C.C.",
"C.C.C.C.C.C.C.C.C.C.C.C.* .       . t R -.3.9.7.7.7.7.7.8.7.8.7.7.7.6.7.7.7.7.7.7.8.4.V O         * C.C.C.C.C.C.C.C.C.C.C.C.C.C.",
"C.C.C.C.C.C.C.C.C.C.C.- .       . t U *.<.7.9.7.7.7.7.7.7.7.7.7.7.7.7.8.7.7.7.7.7.7.7.4.n > .       * C.C.C.C.C.C.C.C.C.C.C.C.C.",
"C.C.C.C.C.C.C.C.C.C.C.o       + l T *.;.3.7.7.7.7.7.7.7.7.7.7.7.7.7.7.7.7.7.7.7.8.7.8.7.4...3         o - C.C.C.C.C.C.C.C.C.C.C.",
"C.C.C.C.C.C.C.C.C.C.o .     + c @.*.;.3.7.7.7.7.7.7.7.7.7.7.7.7.7.7.7.7.7.7.7.7.7.7.7.7.8.4.S &           o - C.C.C.C.C.C.C.C.C.",
"C.C.C.C.C.C.C.C.C.*         t T =.*.;.2.2.1.1.2.2.1.2.7.7.7.7.7.7.7.7.7.7.7.7.7.7.7.7.7.7.,.@.A 6           o C.C.C.C.C.C.C.C.C.",
"C.C.C.C.C.C.C.C.C.o         5 U *.*.=.;.-.-.=.-.-.-.-.:.<.2.7.7.8.7.7.7.7.7.7.7.7.7.8.7.>.;.*.&.c           o s C.C.C.C.C.C.C.C.",
"C.C.C.C.C.C.C.C.C.%         , Z *.*.*.&.*.*.*.*.*.*.*.*.*.-.%.5.7.7.7.7.7.7.7.7.7.7.7.2.-.*.U M 2           * C.C.C.C.C.C.C.C.C.",
"C.C.C.C.C.C.C.C.C.*       . c R *.*.*.*.*.*.*.*.*.*.*.*.*.*.*.;.<.3.7.7.7.7.7.7.7.7.1.;.*.Z 6 .           o C.C.C.C.C.C.C.C.C.C.",
"C.C.C.C.C.C.C.C.C.o     . t T =.*.*.*.*.*.=.=.*.=.=.*.*.*.*.*.*.*.;.2.7.7.7.7.7.7.<.-.&.A ,           o - C.C.C.C.C.C.C.C.C.C.C.",
"C.C.C.C.C.C.C.C.o       2 Y =.=.*.( Y U I I A I U T R &.=.*.*.*.*.=.-.2.7.7.7.7.>.*.=.@.r         o - C.C.C.C.C.C.C.C.C.C.C.C.C.",
"C.C.C.C.C.C.C.C.o     X N @.R R I M 5 , @ + @ @ , t l B U U @.*.=.*.*.-.3.7.7.2.;.*.*.U ,       o C.C.C.C.C.C.C.C.C.C.C.C.C.C.C.",
"C.C.C.C.C.C.C.C.o     + N I M t & . .             . . o + & c Y @.*.*.*.;.1.1.<.-.=.( c X     . C.C.C.C.C.C.C.C.C.C.C.C.C.C.C.C.",
"C.C.C.C.C.C.C.y .       + + X .                             . & l U *.*.*.*.=.*.*.*.( c o     * C.C.C.C.C.C.C.C.C.C.C.C.C.C.C.C.",
"C.C.C.C.C.C.C.y .                       o o o o % % o           + t T *.*.*.*.*.*.*.@.N @     - C.C.C.C.C.C.C.C.C.C.C.C.C.C.C.C.",
"C.C.C.C.C.C.C.C.% .             o o o * C.C.C.C.C.C.C.* .         X t T &.*.=.*.=.=.&.N @     - C.C.C.C.C.C.C.C.C.C.C.C.C.C.C.C.",
"C.C.C.C.C.C.C.C.C.y * o o . o * - C.C.C.C.C.C.C.C.C.C.C.C.- o       . , c T &.*.&.*.( 6 .     - C.C.C.C.C.C.C.C.C.C.C.C.C.C.C.C.",
"C.C.C.C.C.C.C.C.C.C.C.C.C.C.C.C.C.C.C.C.C.C.C.C.C.C.C.C.C.C.u %         X r t x p l 6 X       y C.C.C.C.C.C.C.C.C.C.C.C.C.C.C.C.",
"C.C.C.C.C.C.C.C.C.C.C.C.C.C.C.C.C.C.C.C.C.C.C.C.C.C.C.C.C.C.C.C.o                           . y C.C.C.C.C.C.C.C.C.C.C.C.C.C.C.C.",
"C.C.C.C.C.C.C.C.C.C.C.C.C.C.C.C.C.C.C.C.C.C.C.C.C.C.C.C.C.C.C.C.C.* .                     . = C.C.C.C.C.C.C.C.C.C.C.C.C.C.C.C.C.",
"C.C.C.C.C.C.C.C.C.C.C.C.C.C.C.C.C.C.C.C.C.C.C.C.C.C.C.C.C.C.C.C.C.C.C.o                 . * C.C.C.C.C.C.C.C.C.C.C.C.C.C.C.C.C.C.",
"C.C.C.C.C.C.C.C.C.C.C.C.C.C.C.C.C.C.C.C.C.C.C.C.C.C.C.C.C.C.C.C.C.C.C.C.C.C.C.o % % C.C.C.C.C.C.C.C.C.C.C.C.C.C.C.C.C.C.C.C.C.C.",
"C.C.C.C.C.C.C.C.C.C.C.C.C.C.C.C.C.C.C.C.C.C.C.C.C.C.C.C.C.C.C.C.C.C.C.C.C.C.C.C.C.C.C.C.C.C.C.C.C.C.C.C.C.C.C.C.C.C.C.C.C.C.C.C."
};
