/* XPM */
static char *result[] = {
/* columns rows colors chars-per-pixel */
"64 64 151 2 ",
"   c #010101",
".  c #040A05",
"X  c #060E08",
"o  c #0B0B0B",
"O  c #091207",
"+  c #07100A",
"@  c #0A130B",
"#  c #0D1A0D",
"$  c #111F0D",
"%  c #0F1010",
"&  c #0D1C11",
"*  c #131313",
"=  c #151818",
"-  c #1C1C1C",
";  c #2B0B1B",
":  c #310D1F",
">  c #11210E",
",  c #122515",
"<  c #162A12",
"1  c #1D201E",
"2  c #152D1A",
"3  c #1B3315",
"4  c #1D3817",
"5  c #17311D",
"6  c #19341E",
"7  c #1F3B18",
"8  c #213E1A",
"9  c #330F21",
"0  c #39132C",
"q  c #3B192D",
"w  c #3D1C32",
"e  c #1E2121",
"r  c #1A3520",
"t  c #1C3A23",
"y  c #232423",
"u  c #262929",
"i  c #2D2D2D",
"p  c #2C312F",
"a  c #2F3232",
"s  c #333333",
"d  c #343937",
"f  c #353938",
"g  c gray22",
"h  c #402835",
"j  c #462739",
"k  c #24441D",
"l  c #1F4026",
"z  c #214227",
"x  c #224429",
"c  c #254B2D",
"v  c #2E5625",
"b  c #2F5825",
"n  c #305B26",
"m  c #325D28",
"M  c #295431",
"N  c #2D5B36",
"B  c #2D5C38",
"V  c #35632B",
"C  c #38682D",
"Z  c #33663D",
"A  c #356A3F",
"S  c #336333",
"D  c #3E7332",
"F  c #407734",
"G  c #427B35",
"H  c #4F3348",
"J  c #443D43",
"K  c #513348",
"L  c #543F4E",
"P  c #3F4545",
"I  c #366B41",
"U  c #386F43",
"Y  c #3A7345",
"T  c #3C7648",
"R  c #3E7B4A",
"E  c #53414B",
"W  c #5B4858",
"Q  c #594B55",
"!  c #4E5353",
"~  c #515857",
"^  c #5F545F",
"/  c #5D595F",
"(  c #407F4C",
")  c #675966",
"_  c #665563",
"`  c #5C6462",
"'  c #6B6067",
"]  c #666E6D",
"[  c #67706E",
"{  c #746C74",
"}  c #6B7474",
"|  c #7A7B7E",
" . c #737E7C",
".. c #458237",
"X. c #478139",
"o. c #488439",
"O. c #4D8D3E",
"+. c #4F903F",
"@. c #42824E",
"#. c #519541",
"$. c #549A43",
"%. c #549E4E",
"&. c #448651",
"*. c #468A54",
"=. c #488E54",
"-. c #4C9453",
";. c #4E9854",
":. c #519B53",
">. c #5AA64A",
",. c #5EAC4B",
"<. c #56A353",
"1. c #59A753",
"2. c #5CAB52",
"3. c #5FB052",
"4. c #60AF4D",
"5. c #62B34E",
"6. c #62B552",
"7. c #67BB52",
"8. c #68BE53",
"9. c #69C054",
"0. c #7A8584",
"q. c #7F8A87",
"w. c #838E8C",
"e. c #899392",
"r. c #8E9A98",
"t. c #909699",
"y. c #939B9C",
"u. c #989B9F",
"i. c #97A19F",
"p. c #9DA0A3",
"a. c #A2A3A8",
"s. c #A2ADAB",
"d. c #AAB3B5",
"f. c #ACBAB7",
"g. c #ADBCB9",
"h. c #B1B8BB",
"j. c #B6BFC1",
"k. c #B6C3C2",
"l. c #BCC9CA",
"z. c #C7D8D5",
"x. c #CBDCDA",
"c. c #C5D2D2",
"v. c #CFE1DE",
"b. c #D0E1DE",
"n. c #D3E5E2",
"m. c #D6E8E5",
"M. c #DBEEEB",
"N. c #DEF1ED",
"B. c #E0F3EF",
"V. c #E1F4F1",
"C. c None",
/* pixels */
"C.C.C.C.C.C.C.C.C.C.C.C.C.C.C.C.C.C.C.C.C.C.C.C.C.C.C.C.C.C.C.C.C.C.C.C.C.C.C.C.C.C.C.C.C.C.C.C.C.C.C.C.C.C.C.C.C.C.C.C.C.C.C.C.",
"C.C.C.C.C.C.C.C.C.C.C.C.C.C.C.C.C.C.C.C.C.C.C.C.C.C.C.C.C.C.C.C.C.C.C.C.C.C.C.C.C.C.C.C.C.C.C.C.C.C.C.C.C.C.C.C.C.C.C.C.C.C.C.C.",
"C.C.C.C.C.C.C.C.C.C.C.C.C.C.C.C.C.C.C.C.C.C.C.C.C.C.C.C.C.C.C.C.C.C.C.C.C.C.C.C.C.C.C.C.C.C.C.C.C.C.C.C.C.C.C.C.C.C.C.C.C.C.C.C.",
"C.C.C.C.C.C.C.C.C.C.C.C.C.C.C.C.C.C.C.C.C.C.C.C.C.C.C.C.C.C.C.C.C.C.C.C.C.C.C.C.C.C.C.C.C.C.C.C.C.C.C.C.C.C.C.C.C.C.C.C.C.C.C.C.",
"C.C.C.C.C.C.C.C.C.C.C.C.C.C.C.C.C.C.C.C.C.C.C.C.C.C.C.C.C.C.C.C.C.C.C.C.C.C.C.C.C.C.C.C.C.C.C.C.C.C.C.C.C.C.C.C.C.C.C.C.C.C.C.C.",
"C.C.C.C.C.C.C.C.C.C.C.C.C.C.C.C.C.C.C.C.C.C.C.C.C.C.s s C.C.C.C.C.C.C.C.C.C.C.C.C.C.C.C.C.C.C.C.C.C.C.C.C.C.C.C.C.C.C.C.C.C.C.C.",
"C.C.C.C.C.C.C.C.C.C.C.C.C.C.C.C.C.C.C.C.C.C.C.C.C.= o . * i g s g C.C.C.C.C.C.C.C.C.C.C.C.C.C.C.C.C.C.C.C.C.C.C.C.C.C.C.C.C.C.C.",
"C.C.C.C.C.C.C.C.C.C.C.C.C.C.C.C.C.C.C.C.C.C.C.C.1         . o o o y C.C.C.C.C.C.C.C.C.C.C.C.C.C.C.C.C.C.C.C.C.C.C.C.C.C.C.C.C.C.",
"C.C.C.C.C.C.C.C.C.C.C.C.C.C.C.C.C.C.C.C.C.C.C.C.-                 . e C.C.C.C.C.C.C.C.C.C.C.C.C.C.C.C.C.C.C.C.C.C.C.C.C.C.C.C.C.",
"C.C.C.C.C.C.C.C.C.C.C.C.C.C.C.C.C.C.C.C.C.C.C.C.e         . .       o C.C.C.C.C.C.C.C.C.C.C.C.C.C.C.C.C.C.C.C.C.C.C.C.C.C.C.C.C.",
"C.C.C.C.C.C.C.C.C.C.C.C.C.C.C.C.C.C.C.C.C.C.C.C.C.* o . o = e .     . C.C.C.C.C.C.C.C.C.C.C.C.C.C.C.C.C.C.C.C.C.C.C.C.C.C.C.C.C.",
"C.C.C.C.C.C.C.C.C.C.C.C.C.C.C.C.C.C.C.C.C.C.C.C.C.C.C.C.C.C.C..     . C.C.C.C.C.C.C.C.C.C.C.C.C.C.C.C.C.C.C.C.C.C.C.C.C.C.C.C.C.",
"C.C.C.C.C.C.C.C.C.C.C.C.C.C.C.C.C.C.C.C.C.C.C.C.C.C.C.C.C.C.C..     . C.C.C.C.C.C.C.C.C.C.C.C.C.C.C.C.C.C.C.C.C.C.C.C.C.C.C.C.C.",
"C.C.C.C.C.C.C.C.C.C.C.C.C.C.C.C.C.C.C.C.C.C.C.C.C.C.C.C.C.C.C.o     . C.C.C.C.C.C.C.C.C.C.C.C.C.C.C.C.C.C.C.C.C.C.C.C.C.C.C.C.C.",
"C.C.C.C.C.C.C.C.C.C.C.C.C.C.C.C.C.C.C.C.C.C.C.C.C.C.y e - * o         - C.C.C.C.C.C.C.C.C.C.C.C.C.C.C.C.C.C.C.C.C.C.C.C.C.C.C.C.",
"C.C.C.C.C.C.C.C.C.C.C.C.C.C.C.C.C.C.C.C.C.C.C.u * .                     * C.C.C.C.C.C.C.C.C.C.C.C.C.C.C.C.C.C.C.C.C.C.C.C.C.C.C.",
"C.C.C.C.C.C.C.C.C.C.C.C.C.C.C.C.C.C.C.C.C.C.*                             . = C.C.C.C.C.C.C.C.C.C.C.C.C.C.C.C.C.C.C.C.C.C.C.C.C.",
"C.C.C.C.C.C.C.C.C.C.C.C.C.C.C.C.C.C.C.C.- o           # 3 4 4 4 3 3 O         . = C.C.C.C.C.C.C.C.C.C.C.C.C.C.C.C.C.C.C.C.C.C.C.",
"C.C.C.C.C.C.C.C.C.C.C.C.C.C.C.C.C.C.C.C.o             7 C X.O.#.#.+.V 8 #       . * C.C.C.C.C.C.C.C.C.C.C.C.C.C.C.C.C.C.C.C.C.C.",
"C.C.C.C.C.C.C.C.C.C.C.C.C.C.C.C.C.C.C.y .             O 4 v G ,.5.7.5.,.D < .       * C.C.C.C.C.C.C.C.C.C.C.C.C.C.C.C.C.C.C.C.C.",
"C.C.C.C.C.C.C.C.C.C.C.C.C.C.C.C.C.C.C.- .                 O > 8 G ,.9.9.5.+.8         = C.C.C.C.C.C.C.C.C.C.C.C.C.C.C.C.C.C.C.C.",
"C.C.C.C.C.C.C.C.C.C.C.C.C.C.C.C.C.C.C.o                         $ v ,.9.8.7.O.4       . C.C.C.C.C.C.C.C.C.C.C.C.C.C.C.C.C.C.C.C.",
"C.C.C.C.C.C.C.C.C.C.C.C.C.C.C.C.C.C.o       . % % % o .           X V ,.7.9.7.o.$       o C.C.C.C.C.C.C.C.C.C.C.C.C.C.C.C.C.C.C.",
"C.C.C.C.C.C.C.C.C.C.C.C.C.C.C.C.C.=     . + E | e.w.] ! d =         # F 5.7.8.4.C X     . C.C.C.C.C.C.C.C.C.C.C.C.C.C.C.C.C.C.C.",
"C.C.C.C.C.C.C.C.C.C.C.C.C.C.C.C.u .     u 0.t.u.u.d.l.k.k.r.y         3 O.7.7.7.$.3       o C.C.C.C.C.C.C.C.C.C.C.C.C.C.C.C.C.C.",
"C.C.C.C.C.C.C.C.C.C.C.C.C.C.C.C.%     % ! | { ) W { d.n.V.n.0.=         m >.7.9.5.F O     o C.C.C.C.C.C.C.C.C.C.C.C.C.C.C.C.C.C.",
"C.C.C.C.C.C.C.C.C.C.C.C.C.C.C.y .     - / h : 0 0 ; W k.B.M.z.e.y       < +.9.7.8.$.#     o C.C.C.C.C.C.C.C.C.C.C.C.C.C.C.C.C.C.",
"C.C.C.C.C.C.C.C.C.C.C.C.C.C.C.e     * J L j q w w 0 K a.N.N.V.n.[ %     . D 7.9.8.>.<       - C.C.C.C.C.C.C.C.C.C.C.C.C.C.C.C.C.",
"C.C.C.C.C.C.C.C.C.C.C.C.C.C.C.-     i | j 0 w w w 0 K a.M.M.M.M.g.d       m >.9.9.>.x .     - C.C.C.C.C.C.C.C.C.C.C.C.C.C.C.C.C.",
"C.C.C.C.C.C.C.C.C.C.C.C.C.C.C.*     g i.' q : 9 9 ; _ j.N.N.M.V.n.~       k $.9.9.>.M +     % C.C.C.C.C.C.C.C.C.C.C.C.C.C.C.C.C.",
"C.C.C.C.C.C.C.C.C.C.C.C.C.C.C.*     d s.d.{ E E L Q p.n.M.M.M.N.m.} o     4 +.9.7.>.B X     . C.C.C.C.C.C.C.C.C.C.C.C.C.C.C.C.C.",
"C.C.C.C.C.C.C.C.C.C.C.C.C.C.C.*     p s.m.x.k.h.h.c.M.M.M.N.N.V.n.w.e     3 O.9.7.<.B +     . C.C.C.C.C.C.C.C.C.C.C.C.C.C.C.C.C.",
"C.C.C.C.C.C.C.C.C.C.C.C.C.C.C.=     @ ` b.N.M.M.M.M.B.M.M.N.M.N.n.w.y     4 O.9.7.:.I @     . C.C.C.C.C.C.C.C.C.C.C.C.C.C.C.C.C.",
"C.C.C.C.C.C.C.C.C.C.C.C.C.C.C.- .   . a f.M.N.N.M.N.M.M.M.M.M.M.m.q.-     4 +.9.6.;.T #     . C.C.C.C.C.C.C.C.C.C.C.C.C.C.C.C.C.",
"C.C.C.C.C.C.C.C.C.C.C.C.C.C.C.C..     o ` z.V.N.N.M.N.N.B.M.M.V.n.` .     k $.7.3.;.T #     . C.C.C.C.C.C.C.C.C.C.C.C.C.C.C.C.C.",
"C.C.C.C.C.C.C.C.C.C.C.C.C.C.C.C.= .     = 0.v.V.N.N.M.B.M.B.V.n.r.u     . m >.9.3.;.T #     . C.C.C.C.C.C.C.C.C.C.C.C.C.C.C.C.C.",
"C.C.C.C.C.C.C.C.C.C.C.C.C.C.C.C.C.o       e ] 0.q.w.w.w.w.w.w. .p       . D 7.9.3.;.R ,       = C.C.C.C.C.C.C.C.C.C.C.C.C.C.C.C.",
"C.C.C.C.C.C.C.C.C.C.C.C.C.C.C.C.C.*             o o o o o o o .       . k $.9.7.6.:.@.t       o C.C.C.C.C.C.C.C.C.C.C.C.C.C.C.C.",
"C.C.C.C.C.C.C.C.C.C.C.C.C.C.C.C.C.o                                 $ m +.7.7.7.7.2.*.Z #       e C.C.C.C.C.C.C.C.C.C.C.C.C.C.C.",
"C.C.C.C.C.C.C.C.C.C.C.C.C.C.C.C.C..                             # v ..,.9.7.9.7.7.2.=.R 2       * C.C.C.C.C.C.C.C.C.C.C.C.C.C.C.",
"C.C.C.C.C.C.C.C.C.C.C.C.C.C.C.C.-       O v b k < $ $ $ > > 8 b G ,.7.7.7.7.7.8.7.6.:.&.l X       C.C.C.C.C.C.C.C.C.C.C.C.C.C.C.",
"C.C.C.C.C.C.C.C.C.C.C.C.C.C.C.*         < >.7.$.G F F F F G +.5.7.7.7.7.7.7.7.7.8.7.<.&.B #       * C.C.C.C.C.C.C.C.C.C.C.C.C.C.",
"C.C.C.C.C.C.C.C.C.C.C.C.C.C.*         @ V 5.9.7.7.7.6.7.7.7.7.7.7.7.7.7.7.7.7.7.7.8.6.-.R t .       . * C.C.C.C.C.C.C.C.C.C.C.C.",
"C.C.C.C.C.C.C.C.C.C.C.C.C.*       . > n ,.9.7.7.7.8.8.7.7.8.7.7.7.7.7.7.7.7.7.7.7.7.7.<.*.U t .         - C.C.C.C.C.C.C.C.C.C.C.",
"C.C.C.C.C.C.C.C.C.C.C.- X         4 ..5.7.9.7.7.7.7.7.7.7.7.7.7.7.7.7.7.7.7.7.7.8.8.7.3.;.*.R x X       o C.C.C.C.C.C.C.C.C.C.C.",
"C.C.C.C.C.C.C.C.C.- o .       . & S ,.7.7.7.7.7.7.7.7.7.7.7.7.7.7.9.7.9.7.7.7.7.7.7.7.7.2.-.*.@.c X       % C.C.C.C.C.C.C.C.C.C.",
"C.C.C.C.C.C.C.C.C.o           6 Z @.2.7.7.7.7.7.7.7.7.7.7.7.7.7.7.7.7.7.7.2.2.1.<.<.2.2.2.-.*.*.R t         * C.C.C.C.C.C.C.C.C.",
"C.C.C.C.C.C.C.C.a o           c *.*.-.2.7.7.7.7.7.7.7.7.7.7.7.7.7.7.2.<.:.-.-.-.-.-.-.-.;.-.*.*.U 2         % C.C.C.C.C.C.C.C.C.",
"C.C.C.C.C.C.C.C.C.=           2 M U *.-.2.7.7.7.7.7.7.7.7.7.7.7.6.:.-.*.*.*.*.*.*.*.*.*.*.*.*.*.Z ,         o C.C.C.C.C.C.C.C.C.",
"C.C.C.C.C.C.C.C.C.C.o           . 6 Z *.;.2.7.7.7.7.7.7.8.8.3.<.;.*.*.*.*.*.*.*.*.*.*.*.*.*.*.*.@.c .       * C.C.C.C.C.C.C.C.C.",
"C.C.C.C.C.C.C.C.C.C.C.- o           , Z @.-.<.7.7.7.7.7.7.2.;.*.*.*.*.*.*.=.*.=.*.*.*.=.*.*.*.*.*.R t       o C.C.C.C.C.C.C.C.C.",
"C.C.C.C.C.C.C.C.C.C.C.C.C.- o         6 @.=.*.2.7.7.7.7.2.;.*.*.*.*.=.=.&.R T U I I A A U T ( *.*.=.Y 2       o C.C.C.C.C.C.C.C.",
"C.C.C.C.C.C.C.C.C.C.C.C.C.C.C.o       , Y &.*.;.,.7.7.2.;.*.=.=.*.( Y I N x r , @ @ @ @ , 5 M I R @.@.B X     o C.C.C.C.C.C.C.C.",
"C.C.C.C.C.C.C.C.C.C.C.C.C.C.C.C..     X c @.*.=.<.<.1.;.*.*.&.( Y c & X . . .             . . & t M A N +     o C.C.C.C.C.C.C.C.",
"C.C.C.C.C.C.C.C.C.C.C.C.C.C.C.C.*     X l &.=.*.*.*.=.*.*.&.U c & .                             . X + X       . y C.C.C.C.C.C.C.",
"C.C.C.C.C.C.C.C.C.C.C.C.C.C.C.C.-     @ N &.=.*.*.*.*.*.=.T t X         . o o o o o o o                       . y C.C.C.C.C.C.C.",
"C.C.C.C.C.C.C.C.C.C.C.C.C.C.C.C.-     @ M &.=.=.*.=.*.*.T t .       . . % C.C.C.C.C.C.C.= o o .             . * C.C.C.C.C.C.C.C.",
"C.C.C.C.C.C.C.C.C.C.C.C.C.C.C.C.-     . r ( *.&.*.&.T c , .       o - C.C.C.C.C.C.C.C.C.C.C.C.e * o . o o % y C.C.C.C.C.C.C.C.C.",
"C.C.C.C.C.C.C.C.C.C.C.C.C.C.C.C.e .     X r p l p l 2 +         o y C.C.C.C.C.C.C.C.C.C.C.C.C.C.C.C.C.C.C.C.C.C.C.C.C.C.C.C.C.C.",
"C.C.C.C.C.C.C.C.C.C.C.C.C.C.C.C.y .         .                 o C.C.C.C.C.C.C.C.C.C.C.C.C.C.C.C.C.C.C.C.C.C.C.C.C.C.C.C.C.C.C.C.",
"C.C.C.C.C.C.C.C.C.C.C.C.C.C.C.C.C.=                       . * C.C.C.C.C.C.C.C.C.C.C.C.C.C.C.C.C.C.C.C.C.C.C.C.C.C.C.C.C.C.C.C.C.",
"C.C.C.C.C.C.C.C.C.C.C.C.C.C.C.C.C.C.= .                 % C.C.C.C.C.C.C.C.C.C.C.C.C.C.C.C.C.C.C.C.C.C.C.C.C.C.C.C.C.C.C.C.C.C.C.",
"C.C.C.C.C.C.C.C.C.C.C.C.C.C.C.C.C.C.C.C.C.C.% % @ C.C.C.C.C.C.C.C.C.C.C.C.C.C.C.C.C.C.C.C.C.C.C.C.C.C.C.C.C.C.C.C.C.C.C.C.C.C.C.",
"C.C.C.C.C.C.C.C.C.C.C.C.C.C.C.C.C.C.C.C.C.C.C.C.C.C.C.C.C.C.C.C.C.C.C.C.C.C.C.C.C.C.C.C.C.C.C.C.C.C.C.C.C.C.C.C.C.C.C.C.C.C.C.C."
};
