/* XPM */
static char *result[] = {
/* columns rows colors chars-per-pixel */
"64 64 154 2 ",
"   c #010101",
".  c #050A05",
"X  c #080F07",
"o  c #060E08",
"O  c #0B0B0B",
"+  c #091207",
"@  c #07120A",
"#  c #09140B",
"$  c #0D1A0B",
"%  c #101C0D",
"&  c #0D1B10",
"*  c #141414",
"=  c #1B1B1B",
"-  c #12230E",
";  c #0F2113",
":  c #112414",
">  c #152811",
",  c #112418",
"<  c #142A19",
"1  c #1C3516",
"2  c #1D3817",
"3  c #17311D",
"4  c #18331E",
"5  c #1F3A19",
"6  c #213E1B",
"7  c #340E23",
"8  c #3A152D",
"9  c #391A2E",
"0  c #3B1730",
"q  c #3D1B32",
"w  c #1B3621",
"e  c #1C3B24",
"r  c #222323",
"t  c #272A2A",
"y  c #2A2B2A",
"u  c #322F32",
"i  c #2E3230",
"p  c #323535",
"a  c #343937",
"s  c #363B3A",
"d  c #471F3E",
"f  c #432334",
"g  c #23411C",
"h  c #26481E",
"j  c #294E21",
"k  c #214328",
"l  c #254B2D",
"z  c #2D5524",
"x  c #2F5825",
"c  c #305B26",
"v  c #335F29",
"b  c #264E30",
"n  c #3B403F",
"m  c #295332",
"M  c #2E5C36",
"N  c #35632A",
"B  c #3B6D2F",
"V  c #396B30",
"C  c #32643C",
"Z  c #356B3E",
"A  c #3F7632",
"S  c #3B733E",
"D  c #427A35",
"F  c #4B2643",
"G  c #4A2F42",
"H  c #4C3142",
"J  c #543C4D",
"K  c #3D4141",
"L  c #376D42",
"P  c #3A7445",
"I  c #3E7B4A",
"U  c #39744D",
"Y  c #454B4A",
"T  c #5A4455",
"R  c #544353",
"E  c #4C5352",
"W  c #595F5F",
"Q  c #555D5D",
"!  c #407F4E",
"~  c #5A625F",
"^  c #645A63",
"/  c #5E6665",
"(  c #67676E",
")  c #636B69",
"_  c #756374",
"`  c #746874",
"'  c #6B7070",
"]  c #79767A",
"[  c #737C7B",
"{  c #478339",
"}  c #48863A",
"|  c #4B8A3C",
" . c #4F913F",
".. c #42834D",
"X. c #4F964F",
"o. c #519441",
"O. c #559C44",
"+. c #448651",
"@. c #468B53",
"#. c #488E54",
"$. c #4D9454",
"%. c #4F9855",
"&. c #529C53",
"*. c #59A247",
"=. c #55A04E",
"-. c #5AA549",
";. c #5DAA4B",
":. c #56A253",
">. c #59A653",
",. c #5DAC53",
"<. c #5FB052",
"1. c #60AF4D",
"2. c #61B24E",
"3. c #62B452",
"4. c #67BB52",
"5. c #69BE54",
"6. c #6AC155",
"7. c #7B8684",
"8. c #7F8B89",
"9. c #88818A",
"0. c #838C8C",
"q. c #8D8791",
"w. c #8D8992",
"e. c #8D9695",
"r. c #8D9897",
"t. c #909C9A",
"y. c #999A9F",
"u. c #95A2A0",
"i. c #98A5A3",
"p. c #9CA8A6",
"a. c #9DAAA8",
"s. c #A3A5AB",
"d. c #A1AAAB",
"f. c #A4B1AF",
"g. c #ABB3B5",
"h. c #B5C4C3",
"j. c #BAC5C6",
"k. c #B9C9C6",
"l. c #BECECC",
"z. c #C1CBCC",
"x. c #C3D4D2",
"c. c #C8D5D4",
"v. c #C7D8D5",
"b. c #C7D8D9",
"n. c #CDDCDA",
"m. c #CFE1DE",
"M. c #D4E6E3",
"N. c #D7E9E6",
"B. c #D8EAE7",
"V. c #DCEFEB",
"C. c #DEF1ED",
"Z. c #E0F2EF",
"A. c #E1F4F0",
"S. c None",
/* pixels */
"S.S.S.S.S.S.S.S.S.S.S.S.S.S.S.S.S.S.S.S.S.S.S.S.S.S.S.S.S.S.S.S.S.S.S.S.S.S.S.S.S.S.S.S.S.S.S.S.S.S.S.S.S.S.S.S.S.S.S.S.S.S.S.S.",
"S.S.S.S.S.S.S.S.S.S.S.S.S.S.S.S.S.S.S.S.S.S.S.S.S.S.= r y S.S.S.S.S.S.S.S.S.S.S.S.S.S.S.S.S.S.S.S.S.S.S.S.S.S.S.S.S.S.S.S.S.S.S.",
"S.S.S.S.S.S.S.S.S.S.S.S.S.S.S.S.S.S.S.S.S.S.S.S.S.O     O = r r t S.S.S.S.S.S.S.S.S.S.S.S.S.S.S.S.S.S.S.S.S.S.S.S.S.S.S.S.S.S.S.",
"S.S.S.S.S.S.S.S.S.S.S.S.S.S.S.S.S.S.S.S.S.S.S.S.=                 * S.S.S.S.S.S.S.S.S.S.S.S.S.S.S.S.S.S.S.S.S.S.S.S.S.S.S.S.S.S.",
"S.S.S.S.S.S.S.S.S.S.S.S.S.S.S.S.S.S.S.S.S.S.S.S.=                   * S.S.S.S.S.S.S.S.S.S.S.S.S.S.S.S.S.S.S.S.S.S.S.S.S.S.S.S.S.",
"S.S.S.S.S.S.S.S.S.S.S.S.S.S.S.S.S.S.S.S.S.S.S.S.S..       O O       O S.S.S.S.S.S.S.S.S.S.S.S.S.S.S.S.S.S.S.S.S.S.S.S.S.S.S.S.S.",
"S.S.S.S.S.S.S.S.S.S.S.S.S.S.S.S.S.S.S.S.S.S.S.S.S.= * * * S.S.O       S.S.S.S.S.S.S.S.S.S.S.S.S.S.S.S.S.S.S.S.S.S.S.S.S.S.S.S.S.",
"S.S.S.S.S.S.S.S.S.S.S.S.S.S.S.S.S.S.S.S.S.S.S.S.S.S.S.S.S.S.S.O     O S.S.S.S.S.S.S.S.S.S.S.S.S.S.S.S.S.S.S.S.S.S.S.S.S.S.S.S.S.",
"S.S.S.S.S.S.S.S.S.S.S.S.S.S.S.S.S.S.S.S.S.S.S.S.S.S.S.S.S.S.S.O     . S.S.S.S.S.S.S.S.S.S.S.S.S.S.S.S.S.S.S.S.S.S.S.S.S.S.S.S.S.",
"S.S.S.S.S.S.S.S.S.S.S.S.S.S.S.S.S.S.S.S.S.S.S.S.S.S.S.S.S.t = .     . S.S.S.S.S.S.S.S.S.S.S.S.S.S.S.S.S.S.S.S.S.S.S.S.S.S.S.S.S.",
"S.S.S.S.S.S.S.S.S.S.S.S.S.S.S.S.S.S.S.S.S.S.S.S.S.= * * * O .         * = S.S.S.S.S.S.S.S.S.S.S.S.S.S.S.S.S.S.S.S.S.S.S.S.S.S.S.",
"S.S.S.S.S.S.S.S.S.S.S.S.S.S.S.S.S.S.S.S.S.S.= * .                         O = S.S.S.S.S.S.S.S.S.S.S.S.S.S.S.S.S.S.S.S.S.S.S.S.S.",
"S.S.S.S.S.S.S.S.S.S.S.S.S.S.S.S.S.S.S.S.S.*               .                   * S.S.S.S.S.S.S.S.S.S.S.S.S.S.S.S.S.S.S.S.S.S.S.S.",
"S.S.S.S.S.S.S.S.S.S.S.S.S.S.S.S.S.S.S.S.*           . g v N v x v x 5 +         O S.S.S.S.S.S.S.S.S.S.S.S.S.S.S.S.S.S.S.S.S.S.S.",
"S.S.S.S.S.S.S.S.S.S.S.S.S.S.S.S.S.S.S.S.O           . g B D  .-.;.-. .D 5         O S.S.S.S.S.S.S.S.S.S.S.S.S.S.S.S.S.S.S.S.S.S.",
"S.S.S.S.S.S.S.S.S.S.S.S.S.S.S.S.S.S.S.= .             . $ g N { O.4.6.4. .j +       . S.S.S.S.S.S.S.S.S.S.S.S.S.S.S.S.S.S.S.S.S.",
"S.S.S.S.S.S.S.S.S.S.S.S.S.S.S.S.S.S.S.*                       + g | 2.5.5.-.N %       O S.S.S.S.S.S.S.S.S.S.S.S.S.S.S.S.S.S.S.S.",
"S.S.S.S.S.S.S.S.S.S.S.S.S.S.S.S.S.S.*                             - } 4.6.5.-.N #       O S.S.S.S.S.S.S.S.S.S.S.S.S.S.S.S.S.S.S.",
"S.S.S.S.S.S.S.S.S.S.S.S.S.S.S.S.S.r .       t Y E Y K p r O         >  .4.5.5.-.x .     O S.S.S.S.S.S.S.S.S.S.S.S.S.S.S.S.S.S.S.",
"S.S.S.S.S.S.S.S.S.S.S.S.S.S.S.S.S.O     O K 0.h.b.z.h.f.r./ O         g O.5.5.4.| $     . * S.S.S.S.S.S.S.S.S.S.S.S.S.S.S.S.S.S.",
"S.S.S.S.S.S.S.S.S.S.S.S.S.S.S.S.*     . Y d.w._ _ q.j.M.B.k.E O       X N 1.4.4.;.c X     . S.S.S.S.S.S.S.S.S.S.S.S.S.S.S.S.S.S.",
"S.S.S.S.S.S.S.S.S.S.S.S.S.S.S.S..     = ( ^ G d 8 f ] l.A.C.k.Q #       6 o.5.4.4. .$     O S.S.S.S.S.S.S.S.S.S.S.S.S.S.S.S.S.S.",
"S.S.S.S.S.S.S.S.S.S.S.S.S.S.S.=     . u R 9 7 8 0 7 R g.C.C.V.k.E .     @ } 5.4.5.*.>     . S.S.S.S.S.S.S.S.S.S.S.S.S.S.S.S.S.S.",
"S.S.S.S.S.S.S.S.S.S.S.S.S.S.S.=     t ' G 8 q q 0 8 J s.C.C.C.B.p.y       N <.5.5.-.6       = S.S.S.S.S.S.S.S.S.S.S.S.S.S.S.S.S.",
"S.S.S.S.S.S.S.S.S.S.S.S.S.S.S.*     s e.J 7 8 0 0 7 T g.V.V.V.V.v.Y       h O.4.5.;.m o     * S.S.S.S.S.S.S.S.S.S.S.S.S.S.S.S.S.",
"S.S.S.S.S.S.S.S.S.S.S.S.S.S.S.*     s p.y.` T F f F 9.b.V.V.V.C.M.) .     5  .4.5.;.C @     . S.S.S.S.S.S.S.S.S.S.S.S.S.S.S.S.S.",
"S.S.S.S.S.S.S.S.S.S.S.S.S.S.S.*     i p.n.z.g.s.s.s.z.V.V.V.V.C.M.7.=     1  .4.4.=.M O       S.S.S.S.S.S.S.S.S.S.S.S.S.S.S.S.S.",
"S.S.S.S.S.S.S.S.S.S.S.S.S.S.S.=     * [ M.Z.V.C.V.C.Z.V.V.V.C.C.M.0.t     g o.6.3.$.C @     . S.S.S.S.S.S.S.S.S.S.S.S.S.S.S.S.S.",
"S.S.S.S.S.S.S.S.S.S.S.S.S.S.S.= .     p h.B.C.C.V.V.C.V.V.C.C.C.B.7.=     z *.6.<.$.L &     O S.S.S.S.S.S.S.S.S.S.S.S.S.S.S.S.S.",
"S.S.S.S.S.S.S.S.S.S.S.S.S.S.S.S.O     O ~ x.C.C.C.C.C.C.C.C.C.A.M.)       v -.4.3.%.I &     . S.S.S.S.S.S.S.S.S.S.S.S.S.S.S.S.S.",
"S.S.S.S.S.S.S.S.S.S.S.S.S.S.S.S.*       r t.x.m.M.M.M.M.M.N.M.m.g.s       N ;.6.,.%.I &     O S.S.S.S.S.S.S.S.S.S.S.S.S.S.S.S.S.",
"S.S.S.S.S.S.S.S.S.S.S.S.S.S.S.S.S.O     . t / 8.y.a.a.a.a.a.i.7.a o     . A 4.6.3.%.I ;     . = S.S.S.S.S.S.S.S.S.S.S.S.S.S.S.S.",
"S.S.S.S.S.S.S.S.S.S.S.S.S.S.S.S.S.*         O = r t t t t t t =       . 1  .4.4.3.&...e .     O S.S.S.S.S.S.S.S.S.S.S.S.S.S.S.S.",
"S.S.S.S.S.S.S.S.S.S.S.S.S.S.S.S.S.O                                 $ h  .4.4.4.3.:.+.C #       = S.S.S.S.S.S.S.S.S.S.S.S.S.S.S.",
"S.S.S.S.S.S.S.S.S.S.S.S.S.S.S.S.S.O       . .                   # g | ;.4.5.4.4.4.,.$.I ,       * S.S.S.S.S.S.S.S.S.S.S.S.S.S.S.",
"S.S.S.S.S.S.S.S.S.S.S.S.S.S.S.S.S.O     # x j - X . . . . . % z } -.5.6.4.5.4.4.4.<.%...l o     O S.S.S.S.S.S.S.S.S.S.S.S.S.S.S.",
"S.S.S.S.S.S.S.S.S.S.S.S.S.S.S.S.=       -  .-. .| | } | | | | *.4.6.4.4.4.4.4.4.4.4.,.@.Z ;       O S.S.S.S.S.S.S.S.S.S.S.S.S.S.",
"S.S.S.S.S.S.S.S.S.S.S.S.S.S.S.S..       1 ;.6.5.5.5.5.5.5.6.6.5.4.4.5.4.4.4.4.4.4.4.3.:...4         . * S.S.S.S.S.S.S.S.S.S.S.S.",
"S.S.S.S.S.S.S.S.S.S.S.S.S.S.r O       $ D 2.5.4.4.4.4.4.4.4.4.4.4.4.4.4.4.4.4.4.4.5.4.3.&.S :           O = S.S.S.S.S.S.S.S.S.S.",
"S.S.S.S.S.S.S.S.S.S.S.S.S.* .       $ B 2.4.4.4.4.4.4.4.4.4.4.5.4.4.4.4.4.4.4.4.4.4.4.4.3.:.C <             O S.S.S.S.S.S.S.S.S.",
"S.S.S.S.S.S.S.S.S.S.S.r O         + v ;.5.5.5.4.4.4.4.4.4.4.4.4.4.4.4.4.4.4.4.4.4.4.4.5.5.4.>.P w             . = S.S.S.S.S.S.S.",
"S.S.S.S.S.S.S.S.S.S.* .         $ N *.4.4.3.<.<.3.4.4.4.4.4.4.4.4.4.4.4.4.4.4.4.4.4.4.4.4.5.4.&.L l w $         . * S.S.S.S.S.S.",
"S.S.S.S.S.S.S.S.* O           : V ;.4.3.:.:.$.%.&.,.4.4.4.4.4.4.4.4.4.4.4.4.4.4.3.4.4.4.4.3.,.$.+.+.I m , @       O S.S.S.S.S.S.",
"S.S.S.S.S.S.S.= .       . & w P &.,.&.$.@.@.@.@.@.&.<.4.4.4.4.4.4.4.4.4.4.4.3.;.:.:.>.,.,.:.$.@.@.#.#.+.P l $     . = S.S.S.S.S.",
"S.S.S.S.S.S.t O         3 Z I ..@.....I U ! +.@.@.@.:.3.4.4.4.4.4.4.4.4.4.4.,.#.@.#.#.$.@...+.+.+.+.+.+.+.P e .     O S.S.S.S.S.",
"S.S.S.S.S.S.r           1 l k 4 < < < < , 4 C ..#.@.%.,.4.4.4.4.4.4.4.4.4.<.&.+.@.@.+.I m b m m m m m m m b 4 .     . S.S.S.S.S.",
"S.S.S.S.S.S.r           @ #                 ; m I #.#.&.3.4.4.4.4.4.4.4.3.&.#.#.@...C 4 $ @ # @ @ @ O @ @ @ .       * S.S.S.S.S.",
"S.S.S.S.S.S.r O                               $ M +.@.#.:.4.4.4.4.4.3.>.&.#...P l 1 &                             O t S.S.S.S.S.",
"S.S.S.S.S.S.S.O .             . .               ; Z @.@.$.:.,.,.,.>.&.@.@.@.L w .                           . . O = S.S.S.S.S.S.",
"S.S.S.S.S.S.S.S.= = = = = = = S.S.S.S.S.* O       4 U @.@.@.$.%.$.@.@.@.#.U w             O * = = = = = = S.S.S.S.S.S.S.S.S.S.S.",
"S.S.S.S.S.S.S.S.S.S.S.S.S.S.S.S.S.S.S.S.S.* .       w I @.@.@.@.@.@.#...L e         O * = S.S.S.S.S.S.S.S.S.S.S.S.S.S.S.S.S.S.S.",
"S.S.S.S.S.S.S.S.S.S.S.S.S.S.S.S.S.S.S.S.S.S.*       . w U @.#.$.#.+.P m :         O S.S.S.S.S.S.S.S.S.S.S.S.S.S.S.S.S.S.S.S.S.S.",
"S.S.S.S.S.S.S.S.S.S.S.S.S.S.S.S.S.S.S.S.S.S.S.O         4 C L L L M < .         * S.S.S.S.S.S.S.S.S.S.S.S.S.S.S.S.S.S.S.S.S.S.S.",
"S.S.S.S.S.S.S.S.S.S.S.S.S.S.S.S.S.S.S.S.S.S.S.S.O         o o . o .           * S.S.S.S.S.S.S.S.S.S.S.S.S.S.S.S.S.S.S.S.S.S.S.S.",
"S.S.S.S.S.S.S.S.S.S.S.S.S.S.S.S.S.S.S.S.S.S.S.S.S.O                       . * S.S.S.S.S.S.S.S.S.S.S.S.S.S.S.S.S.S.S.S.S.S.S.S.S.",
"S.S.S.S.S.S.S.S.S.S.S.S.S.S.S.S.S.S.S.S.S.S.S.S.S.S.O .               . O = S.S.S.S.S.S.S.S.S.S.S.S.S.S.S.S.S.S.S.S.S.S.S.S.S.S.",
"S.S.S.S.S.S.S.S.S.S.S.S.S.S.S.S.S.S.S.S.S.S.S.S.S.S.S.* O O O O O O * S.S.S.S.S.S.S.S.S.S.S.S.S.S.S.S.S.S.S.S.S.S.S.S.S.S.S.S.S.",
"S.S.S.S.S.S.S.S.S.S.S.S.S.S.S.S.S.S.S.S.S.S.S.S.S.S.S.S.S.S.S.S.S.S.S.S.S.S.S.S.S.S.S.S.S.S.S.S.S.S.S.S.S.S.S.S.S.S.S.S.S.S.S.S.",
"S.S.S.S.S.S.S.S.S.S.S.S.S.S.S.S.S.S.S.S.S.S.S.S.S.S.S.S.S.S.S.S.S.S.S.S.S.S.S.S.S.S.S.S.S.S.S.S.S.S.S.S.S.S.S.S.S.S.S.S.S.S.S.S.",
"S.S.S.S.S.S.S.S.S.S.S.S.S.S.S.S.S.S.S.S.S.S.S.S.S.S.S.S.S.S.S.S.S.S.S.S.S.S.S.S.S.S.S.S.S.S.S.S.S.S.S.S.S.S.S.S.S.S.S.S.S.S.S.S.",
"S.S.S.S.S.S.S.S.S.S.S.S.S.S.S.S.S.S.S.S.S.S.S.S.S.S.S.S.S.S.S.S.S.S.S.S.S.S.S.S.S.S.S.S.S.S.S.S.S.S.S.S.S.S.S.S.S.S.S.S.S.S.S.S.",
"S.S.S.S.S.S.S.S.S.S.S.S.S.S.S.S.S.S.S.S.S.S.S.S.S.S.S.S.S.S.S.S.S.S.S.S.S.S.S.S.S.S.S.S.S.S.S.S.S.S.S.S.S.S.S.S.S.S.S.S.S.S.S.S.",
"S.S.S.S.S.S.S.S.S.S.S.S.S.S.S.S.S.S.S.S.S.S.S.S.S.S.S.S.S.S.S.S.S.S.S.S.S.S.S.S.S.S.S.S.S.S.S.S.S.S.S.S.S.S.S.S.S.S.S.S.S.S.S.S.",
"S.S.S.S.S.S.S.S.S.S.S.S.S.S.S.S.S.S.S.S.S.S.S.S.S.S.S.S.S.S.S.S.S.S.S.S.S.S.S.S.S.S.S.S.S.S.S.S.S.S.S.S.S.S.S.S.S.S.S.S.S.S.S.S."
};
