/* XPM */
static char *result[] = {
/* columns rows colors chars-per-pixel */
"64 64 154 2 ",
"   c #010101",
".  c #050A05",
"X  c #080F06",
"o  c #060D08",
"O  c #0B0C0C",
"+  c #091207",
"@  c #0A140A",
"#  c #0C190D",
"$  c #101E0D",
"%  c #0F1110",
"&  c #0D1C11",
"*  c #141414",
"=  c #1C1C1C",
"-  c #12220F",
";  c #122514",
":  c #162811",
">  c #132719",
",  c #1D201F",
"<  c #152C1B",
"1  c #1C3316",
"2  c #1D3817",
"3  c #17311D",
"4  c #19331E",
"5  c #213E1A",
"6  c #350D24",
"7  c #3A152C",
"8  c #38172A",
"9  c #3B1630",
"0  c #3D1C32",
"q  c #1F2222",
"w  c #1D3D25",
"e  c #232323",
"r  c #262928",
"t  c #2B2B2B",
"y  c #3E2733",
"u  c #2C3031",
"i  c #323434",
"p  c #373B3A",
"a  c #3C3C3C",
"s  c #40222F",
"d  c #44233A",
"f  c #49283A",
"g  c #432A39",
"h  c #22401B",
"j  c #204127",
"k  c #294D21",
"l  c #214429",
"z  c #254C2D",
"x  c #2D5324",
"c  c #315C27",
"v  c #325D29",
"b  c #264E30",
"n  c #3C423F",
"m  c #2A5634",
"M  c #2C5A36",
"N  c #2F5D39",
"B  c #305F3A",
"V  c #36652B",
"C  c #38672D",
"Z  c #3A6C2F",
"A  c #386A32",
"S  c #32643C",
"D  c #34693F",
"F  c #3F7432",
"G  c #407633",
"H  c #417935",
"J  c #417A3F",
"K  c #512E4A",
"L  c #4E3645",
"P  c #493E47",
"I  c #3E4444",
"U  c #376C42",
"Y  c #386F44",
"T  c #3B7446",
"R  c #3D7947",
"E  c #3E7B4B",
"W  c #404646",
"Q  c #45494A",
"!  c #50444D",
"~  c #48504E",
"^  c #4D4F50",
"/  c #5D4358",
"(  c #515858",
")  c #407E4D",
"_  c #427D43",
"`  c #635961",
"'  c #685F68",
"]  c #675264",
"[  c #5C6262",
"{  c #646C6B",
"}  c #6A7372",
"|  c #6F7877",
" . c #707978",
".. c #7C737F",
"X. c #478339",
"o. c #48863A",
"O. c #4C8C3D",
"+. c #4F913F",
"@. c #41824E",
"#. c #529641",
"$. c #559A44",
"%. c #559F4D",
"&. c #448551",
"*. c #468B54",
"=. c #498E54",
"-. c #4C9354",
";. c #4F9852",
":. c #529C53",
">. c #57A046",
",. c #58A246",
"<. c #5BA649",
"1. c #5DAB4B",
"2. c #55A253",
"3. c #58A653",
"4. c #5DAD52",
"5. c #5FB052",
"6. c #60AF4D",
"7. c #62B34F",
"8. c #63B551",
"9. c #67BB52",
"0. c #68BE53",
"q. c #76807E",
"w. c #6AC155",
"e. c #817D83",
"r. c #7F8988",
"t. c #868A8D",
"y. c #85928F",
"u. c #8F8C94",
"i. c #879390",
"p. c #8B9294",
"a. c #959B9E",
"s. c #929299",
"d. c #9D9CA3",
"f. c #9AA6A6",
"g. c #A1AFAE",
"h. c #A6ACB1",
"j. c #A9B5B5",
"k. c #ABB8B6",
"l. c #ADB7B9",
"z. c #ADBBB9",
"x. c #B4BCBE",
"c. c #B5C4C2",
"v. c #BAC4C5",
"b. c #BDCDCB",
"n. c #C1CED0",
"m. c #C5D4D3",
"M. c #C7D8D5",
"N. c #CCDCDB",
"B. c #D1E1DF",
"V. c #D3E4E2",
"C. c #DCEEEC",
"Z. c #DEF1EE",
"A. c #E0F3F0",
"S. c None",
/* pixels */
"S.S.S.S.S.S.S.S.S.S.S.S.S.S.S.S.S.S.S.S.S.S.S.S.S.S.S.S.S.S.S.S.S.S.S.S.S.S.S.S.S.S.S.S.S.S.S.S.S.S.S.S.S.S.S.S.S.S.S.S.S.S.S.S.",
"S.S.S.S.S.S.S.S.S.S.S.S.S.S.S.S.S.S.S.S.S.S.S.S.S.S.= * * i g S.S.S.S.S.S.S.S.S.S.S.S.S.S.S.S.S.S.S.S.S.S.S.S.S.S.S.S.S.S.S.S.S.",
"S.S.S.S.S.S.S.S.S.S.S.S.S.S.S.S.S.S.S.S.S.S.S.S.S.*       O * * > e S.S.S.S.S.S.S.S.S.S.S.S.S.S.S.S.S.S.S.S.S.S.S.S.S.S.S.S.S.S.",
"S.S.S.S.S.S.S.S.S.S.S.S.S.S.S.S.S.S.S.S.S.S.S.S.S..                 e S.S.S.S.S.S.S.S.S.S.S.S.S.S.S.S.S.S.S.S.S.S.S.S.S.S.S.S.S.",
"S.S.S.S.S.S.S.S.S.S.S.S.S.S.S.S.S.S.S.S.S.S.S.S.S.O                 O S.S.S.S.S.S.S.S.S.S.S.S.S.S.S.S.S.S.S.S.S.S.S.S.S.S.S.S.S.",
"S.S.S.S.S.S.S.S.S.S.S.S.S.S.S.S.S.S.S.S.S.S.S.S.S.%                   = S.S.S.S.S.S.S.S.S.S.S.S.S.S.S.S.S.S.S.S.S.S.S.S.S.S.S.S.",
"S.S.S.S.S.S.S.S.S.S.S.S.S.S.S.S.S.S.S.S.S.S.S.S.S.S.= * * = S.%       * S.S.S.S.S.S.S.S.S.S.S.S.S.S.S.S.S.S.S.S.S.S.S.S.S.S.S.S.",
"S.S.S.S.S.S.S.S.S.S.S.S.S.S.S.S.S.S.S.S.S.S.S.S.S.S.S.S.S.S.S.*       = S.S.S.S.S.S.S.S.S.S.S.S.S.S.S.S.S.S.S.S.S.S.S.S.S.S.S.S.",
"S.S.S.S.S.S.S.S.S.S.S.S.S.S.S.S.S.S.S.S.S.S.S.S.S.S.S.S.S.S.S.=       = S.S.S.S.S.S.S.S.S.S.S.S.S.S.S.S.S.S.S.S.S.S.S.S.S.S.S.S.",
"S.S.S.S.S.S.S.S.S.S.S.S.S.S.S.S.S.S.S.S.S.S.S.S.S.S.S.S.S.S.S.*       = S.S.S.S.S.S.S.S.S.S.S.S.S.S.S.S.S.S.S.S.S.S.S.S.S.S.S.S.",
"S.S.S.S.S.S.S.S.S.S.S.S.S.S.S.S.S.S.S.S.S.S.S.S.S.S.i , * O O         * S.S.S.S.S.S.S.S.S.S.S.S.S.S.S.S.S.S.S.S.S.S.S.S.S.S.S.S.",
"S.S.S.S.S.S.S.S.S.S.S.S.S.S.S.S.S.S.S.S.S.S.S.S.* % O                   O * S.S.S.S.S.S.S.S.S.S.S.S.S.S.S.S.S.S.S.S.S.S.S.S.S.S.",
"S.S.S.S.S.S.S.S.S.S.S.S.S.S.S.S.S.S.S.S.S.S.e O                             O * S.S.S.S.S.S.S.S.S.S.S.S.S.S.S.S.S.S.S.S.S.S.S.S.",
"S.S.S.S.S.S.S.S.S.S.S.S.S.S.S.S.S.S.S.S.S.=           . @ + + @ + + +           * S.S.S.S.S.S.S.S.S.S.S.S.S.S.S.S.S.S.S.S.S.S.S.",
"S.S.S.S.S.S.S.S.S.S.S.S.S.S.S.S.S.S.S.S.,           . 1 Z H G F G G V 2 +         % S.S.S.S.S.S.S.S.S.S.S.S.S.S.S.S.S.S.S.S.S.S.",
"S.S.S.S.S.S.S.S.S.S.S.S.S.S.S.S.S.S.S.S.%             $ k C X.<.7.7.1.>.F #         % S.S.S.S.S.S.S.S.S.S.S.S.S.S.S.S.S.S.S.S.S.",
"S.S.S.S.S.S.S.S.S.S.S.S.S.S.S.S.S.S.S.S.%               . $ 5 v o.6.w.w.7.o.h .       * S.S.S.S.S.S.S.S.S.S.S.S.S.S.S.S.S.S.S.S.",
"S.S.S.S.S.S.S.S.S.S.S.S.S.S.S.S.S.S.S.e .                       - V ,.w.w.8.O.1         e S.S.S.S.S.S.S.S.S.S.S.S.S.S.S.S.S.S.S.",
"S.S.S.S.S.S.S.S.S.S.S.S.S.S.S.S.S.S.r .                           X V <.9.9.8.o.:       O S.S.S.S.S.S.S.S.S.S.S.S.S.S.S.S.S.S.S.",
"S.S.S.S.S.S.S.S.S.S.S.S.S.S.S.S.S.S.%       O I ( ( p r O           $ F 7.w.w.7.C +       e S.S.S.S.S.S.S.S.S.S.S.S.S.S.S.S.S.S.",
"S.S.S.S.S.S.S.S.S.S.S.S.S.S.S.S.S.=       p  .f.l.j.g.a.t.{ e         2 +.9.w.9.>.5       * S.S.S.S.S.S.S.S.S.S.S.S.S.S.S.S.S.S.",
"S.S.S.S.S.S.S.S.S.S.S.S.S.S.S.S.t O     e q.j.h.s.a.n.V.C.B. .%       . x 1.9.w.9.F #     O S.S.S.S.S.S.S.S.S.S.S.S.S.S.S.S.S.S.",
"S.S.S.S.S.S.S.S.S.S.S.S.S.S.S.S.*     . ^ ' L y s 0 ` c.C.C.c.{ =       : o.9.w.0.<.h       e S.S.S.S.S.S.S.S.S.S.S.S.S.S.S.S.S.",
"S.S.S.S.S.S.S.S.S.S.S.S.S.S.S.S.O     * P L 7 6 6 6 g p.V.C.C.m.| O       c 7.0.w.8.k       = S.S.S.S.S.S.S.S.S.S.S.S.S.S.S.S.S.",
"S.S.S.S.S.S.S.S.S.S.S.S.S.S.S.t O   O ~ ! 0 s 0 0 9 d ..B.C.C.Z.k.Q       h <.9.0.9.v       * S.S.S.S.S.S.S.S.S.S.S.S.S.S.S.S.S.",
"S.S.S.S.S.S.S.S.S.S.S.S.S.S.S.e     % | ` 6 0 0 0 7 d t.V.C.C.C.N.}       1 +.9.0.8.A O     * S.S.S.S.S.S.S.S.S.S.S.S.S.S.S.S.S.",
"S.S.S.S.S.S.S.S.S.S.S.S.S.S.S.=     * y.e.f 9 9 9 6 L d.V.Z.C.Z.C.i.O     - H 7.9.8._ >       S.S.S.S.S.S.S.S.S.S.S.S.S.S.S.S.S.",
"S.S.S.S.S.S.S.S.S.S.S.S.S.S.S.e     % y.v.a.] K K / u.m.V.C.C.Z.Z.g.u     # Z 9.9.5._ >       S.S.S.S.S.S.S.S.S.S.S.S.S.S.S.S.S.",
"S.S.S.S.S.S.S.S.S.S.S.S.S.S.S.e O   O  .N.V.v.x.x.v.N.C.C.C.C.C.Z.k.W     # Z 7.0.4.T >       e S.S.S.S.S.S.S.S.S.S.S.S.S.S.S.S.",
"S.S.S.S.S.S.S.S.S.S.S.S.S.S.S.e     . I c.A.Z.A.A.A.Z.C.C.C.C.C.Z.k.W     - H 9.0.3._ <       e S.S.S.S.S.S.S.S.S.S.S.S.S.S.S.S.",
"S.S.S.S.S.S.S.S.S.S.S.S.S.S.S.S.O     % y.B.Z.C.C.C.C.C.C.Z.C.C.Z.g.i     1 O.0.9.:.&.w       e S.S.S.S.S.S.S.S.S.S.S.S.S.S.S.S.",
"S.S.S.S.S.S.S.S.S.S.S.S.S.S.S.S.*       n z.A.Z.C.Z.C.Z.C.C.C.Z.Z.f.*     1 +.0.9.:.*.j       = S.S.S.S.S.S.S.S.S.S.S.S.S.S.S.S.",
"S.S.S.S.S.S.S.S.S.S.S.S.S.S.S.S.e O     . | m.Z.A.A.A.A.A.A.A.C.b.}       2 #.9.9.;.*.j       = S.S.S.S.S.S.S.S.S.S.S.S.S.S.S.S.",
"S.S.S.S.S.S.S.S.S.S.S.S.S.S.S.S.S.*       * } z.b.b.b.b.b.b.b.k.[ %       h 1.0.0.:.*.l       * S.S.S.S.S.S.S.S.S.S.S.S.S.S.S.S.",
"S.S.S.S.S.S.S.S.S.S.S.S.S.S.S.S.S.r .       % = t i i i i i t e %       + C 8.0.9.2.*.M @       e S.S.S.S.S.S.S.S.S.S.S.S.S.S.S.",
"S.S.S.S.S.S.S.S.S.S.S.S.S.S.S.S.S.r .                                 # c <.9.0.0.4.=.U <       * S.S.S.S.S.S.S.S.S.S.S.S.S.S.S.",
"S.S.S.S.S.S.S.S.S.S.S.S.S.S.S.S.S.*                               + 1 F 1.9.9.9.0.4.-.@.j       * S.S.S.S.S.S.S.S.S.S.S.S.S.S.S.",
"S.S.S.S.S.S.S.S.S.S.S.S.S.S.S.S.S.%       X @ X             . + : A >.7.9.9.9.9.0.8.;.*.m .       = S.S.S.S.S.S.S.S.S.S.S.S.S.S.",
"S.S.S.S.S.S.S.S.S.S.S.S.S.S.S.S.*       . c X.v 1 ; - - $ : h X.$.6.9.9.9.9.9.9.0.0.3.-.S &       * S.S.S.S.S.S.S.S.S.S.S.S.S.S.",
"S.S.S.S.S.S.S.S.S.S.S.S.S.S.S.*         $ o.8.<.$.#.$.#.$.$.6.7.0.0.9.9.0.9.9.0.9.0.9.:.R w         = S.S.S.S.S.S.S.S.S.S.S.S.S.",
"S.S.S.S.S.S.S.S.S.S.S.S.S.S.,           x <.9.9.9.9.0.0.0.w.0.0.9.9.9.9.9.9.9.9.9.w.9.6.=.S ;         O * = S.S.S.S.S.S.S.S.S.S.",
"S.S.S.S.S.S.S.S.S.S.S.S.S.S.O         O F 8.9.9.9.9.9.9.9.0.0.8.9.9.9.9.9.9.9.9.9.9.9.8.:.&.m @             * S.S.S.S.S.S.S.S.S.",
"S.S.S.S.S.S.S.S.S.S.S.S.S.*         > v >.9.9.9.9.9.9.9.9.9.9.0.9.9.9.9.9.9.9.9.9.9.9.9.5.2.@.z @             * S.S.S.S.S.S.S.S.",
"S.S.S.S.S.S.S.S.S.S.S.S.S.O     . 4 D :.9.9.9.9.9.9.9.9.9.0.9.9.9.9.9.9.9.9.9.9.9.9.9.9.0.8.2.@.m w > @         = S.S.S.S.S.S.S.",
"S.S.S.S.S.S.S.S.S.S.S.S.S.O     @ D =.5.0.9.9.9.9.9.9.9.9.9.9.9.9.9.9.9.9.9.9.9.9.0.9.9.0.9.3.-.*.@.D m < o       S.S.S.S.S.S.S.",
"S.S.S.S.S.S.S.S.S.S.S.S.S.O     & T 2.8.9.9.9.9.9.9.9.9.9.9.9.9.9.9.9.9.9.9.9.9.9.9.9.9.8.3.-.*.*.*.&.R z @       e S.S.S.S.S.S.",
"S.S.S.S.S.S.S.S.S.S.S.S.S.O     @ S ;.8.9.9.9.9.9.9.9.9.9.0.9.9.9.9.9.9.9.9.9.9.9.9.9.8.3.-.*.*.*.@.D z #         e S.S.S.S.S.S.",
"S.S.S.S.S.S.S.S.S.S.S.S.S.O     @ M &.4.9.9.9.9.9.8.9.9.9.9.9.9.8.9.9.9.9.9.9.9.9.9.9.6.:.*.*.=.@.N & .           e S.S.S.S.S.S.",
"S.S.S.S.S.S.S.S.S.S.S.S.S.O     @ N ) 2.9.9.9.8.4.4.4.4.4.4.5.4.4.4.8.8.9.9.9.9.9.9.9.2.=.*.*.) m &             O S.S.S.S.S.S.S.",
"S.S.S.S.S.S.S.S.S.S.S.S.*       & T *.:.8.5.2.:.-.-.-.-.-.-.-.-.=.=.-.-.2.5.9.9.9.0.0.:.*.*.E b #         O O * S.S.S.S.S.S.S.S.",
"S.S.S.S.S.S.S.S.S.S.S.=         > E =.=.-.-.=.=.*.*.*.*.*.&.E U m S R *.*.-.3.9.0.0.5.-.*.*.S @         = S.S.S.S.S.S.S.S.S.S.S.",
"S.S.S.S.S.S.S.S.S.S.i .       # m &.=.*.*.*.*.=.*.&.T T Y N w ; @ ; 4 z U *.-.:.3.2.;.*.*.T 4         = S.S.S.S.S.S.S.S.S.S.S.S.",
"S.S.S.S.S.S.S.S.S.S.r       & m ) *.=.*.@.U N b b l w < < &             > b U *.*.-.*.*.*.m O       % S.S.S.S.S.S.S.S.S.S.S.S.S.",
"S.S.S.S.S.S.S.S.S.S.r       < ) &.Y N m l < +                             . < B &.*.*.*.U <       O , S.S.S.S.S.S.S.S.S.S.S.S.S.",
"S.S.S.S.S.S.S.S.S.S.u       ; M b 3 @                                         # b B S N w         = S.S.S.S.S.S.S.S.S.S.S.S.S.S.",
"S.S.S.S.S.S.S.S.S.S.i O         .                     O * = = = = = *           . . @ .         * S.S.S.S.S.S.S.S.S.S.S.S.S.S.S.",
"S.S.S.S.S.S.S.S.S.S.S.,                     O = * = = t p S.S.S.S.S.S.r %                     O S.S.S.S.S.S.S.S.S.S.S.S.S.S.S.S.",
"S.S.S.S.S.S.S.S.S.S.S.S.*             O * = t S.S.S.S.S.S.S.S.S.S.S.S.S.i = O               * S.S.S.S.S.S.S.S.S.S.S.S.S.S.S.S.S.",
"S.S.S.S.S.S.S.S.S.S.S.S.i = % % O * = e S.S.S.S.S.S.S.S.S.S.S.S.S.S.S.S.S.S.u = * * * = * e S.S.S.S.S.S.S.S.S.S.S.S.S.S.S.S.S.S.",
"S.S.S.S.S.S.S.S.S.S.S.S.S.S.a a a S.S.S.S.S.S.S.S.S.S.S.S.S.S.S.S.S.S.S.S.S.S.S.S.S.S.S.S.S.S.S.S.S.S.S.S.S.S.S.S.S.S.S.S.S.S.S.",
"S.S.S.S.S.S.S.S.S.S.S.S.S.S.S.S.S.S.S.S.S.S.S.S.S.S.S.S.S.S.S.S.S.S.S.S.S.S.S.S.S.S.S.S.S.S.S.S.S.S.S.S.S.S.S.S.S.S.S.S.S.S.S.S.",
"S.S.S.S.S.S.S.S.S.S.S.S.S.S.S.S.S.S.S.S.S.S.S.S.S.S.S.S.S.S.S.S.S.S.S.S.S.S.S.S.S.S.S.S.S.S.S.S.S.S.S.S.S.S.S.S.S.S.S.S.S.S.S.S.",
"S.S.S.S.S.S.S.S.S.S.S.S.S.S.S.S.S.S.S.S.S.S.S.S.S.S.S.S.S.S.S.S.S.S.S.S.S.S.S.S.S.S.S.S.S.S.S.S.S.S.S.S.S.S.S.S.S.S.S.S.S.S.S.S.",
"S.S.S.S.S.S.S.S.S.S.S.S.S.S.S.S.S.S.S.S.S.S.S.S.S.S.S.S.S.S.S.S.S.S.S.S.S.S.S.S.S.S.S.S.S.S.S.S.S.S.S.S.S.S.S.S.S.S.S.S.S.S.S.S."
};
