/* XPM */
static char *result[] = {
/* columns rows colors chars-per-pixel */
"64 64 195 2 ",
"   c #3F1618",
".  c #36260E",
"X  c #38270F",
"o  c #3B2A0F",
"O  c #362710",
"+  c #382710",
"@  c #372811",
"#  c #392911",
"$  c #3D2E18",
"%  c #3E301A",
"&  c #3F3017",
"*  c #3B1E22",
"=  c #1F323F",
"-  c #2B2929",
";  c #362A26",
":  c #262E33",
">  c #292932",
",  c #20323F",
"<  c #2A3336",
"1  c #3A3E38",
"2  c #430F0F",
"3  c #441212",
"4  c #4B1314",
"5  c #4C1E1D",
"6  c #461A1A",
"7  c #581616",
"8  c #5A131B",
"9  c #571517",
"0  c #641919",
"q  c #69191C",
"w  c #731D1D",
"e  c #422D0F",
"r  c #4C330E",
"t  c #47300E",
"y  c #52370D",
"u  c #56390D",
"i  c #5C3C0C",
"p  c #51221C",
"a  c #43361E",
"s  c #613F0C",
"d  c #691521",
"f  c #751526",
"g  c #7C1629",
"h  c #492325",
"j  c #522525",
"k  c #552B2B",
"l  c #4A3D29",
"z  c #453822",
"x  c #5C3535",
"c  c #493539",
"v  c #603831",
"b  c #5E4214",
"n  c #63410C",
"m  c #6C460B",
"M  c #6F480B",
"N  c #744B0B",
"B  c #7B4F0A",
"V  c #7D510B",
"C  c #6C501F",
"Z  c #4D412E",
"A  c #574C2E",
"S  c #544836",
"D  c #6E522E",
"F  c #1F3240",
"G  c #213442",
"H  c #2A3B45",
"J  c #243948",
"K  c #273A46",
"L  c #383A44",
"P  c #633F40",
"I  c #3E494A",
"U  c #354347",
"Y  c #2A4354",
"T  c #2D485A",
"R  c #3B4D56",
"E  c #3C515C",
"W  c #335368",
"Q  c #375365",
"!  c #3A5D75",
"~  c #3D627B",
"^  c #4C544D",
"/  c #5C5347",
"(  c #4C4B52",
")  c #4D555D",
"_  c #4C474E",
"`  c #664345",
"'  c #6A4A4B",
"]  c #6E4F51",
"[  c #6C5953",
"{  c #74595A",
"}  c #6C5946",
"|  c #6B6655",
" . c #706E5F",
".. c #535D62",
"X. c #4C626C",
"o. c #5D6566",
"O. c #506772",
"+. c #536973",
"@. c #5B6D71",
"#. c #526C78",
"$. c #796464",
"%. c #68746D",
"&. c #757668",
"*. c #7B7A73",
"=. c #607070",
"-. c #83162C",
";. c #822121",
":. c #8C2323",
">. c #912525",
",. c #AB2B2B",
"<. c #A32929",
"1. c #B72E2E",
"2. c #BF3030",
"3. c #C73333",
"4. c #D33535",
"5. c #D83737",
"6. c #DE3838",
"7. c #E33A3A",
"8. c #EF3D3D",
"9. c #F03D3D",
"0. c #855509",
"q. c #8D5909",
"w. c #895709",
"e. c #935D08",
"r. c #985F08",
"t. c #9E6307",
"y. c #996108",
"u. c #956614",
"i. c #A26607",
"p. c #AC6C06",
"a. c #A66A0A",
"s. c #B67205",
"d. c #BC7505",
"f. c #A96F10",
"g. c #C57A04",
"h. c #CC7E04",
"j. c #C27705",
"k. c #927852",
"l. c #887678",
"z. c #816C6E",
"x. c #7D816E",
"c. c #CF8003",
"v. c #CF8209",
"b. c #D58303",
"n. c #DA8603",
"m. c #DF8902",
"M. c #E38B03",
"N. c #EA8F01",
"B. c #ED9101",
"V. c #E79004",
"C. c #F39401",
"Z. c #FE9900",
"A. c #F99700",
"S. c #A3895A",
"D. c #84856E",
"F. c #948E6C",
"G. c #988E66",
"H. c #9A926C",
"J. c #86827C",
"K. c #89837E",
"L. c #A99766",
"P. c #B09E6A",
"I. c #B6A169",
"U. c #B8A36A",
"Y. c #426B87",
"T. c #426B86",
"R. c #47728F",
"E. c #4F7D9F",
"W. c #487391",
"Q. c #58809B",
"!. c #5D87A1",
"~. c #5485A8",
"^. c #5585A7",
"/. c #5C92B8",
"(. c #619AC2",
"). c #64A0C9",
"_. c #8E8B86",
"`. c #8F8D88",
"'. c #8B8782",
"]. c #948D8D",
"[. c #918486",
"{. c #9A9596",
"}. c #9E9A9B",
"|. c #989694",
" X c #93918E",
".X c #A19C9F",
"XX c #A29EA1",
"oX c #A3A3A3",
"OX c #AAAAAD",
"+X c #A7A8A9",
"@X c #AFB0B3",
"#X c #B1B4B7",
"$X c #B2B6B9",
"%X c #ACADB0",
"&X c None",
/* pixels */
"&X&X&X&X&X&X&X&X&X&X&X&X&X, G = G G F G = G , G , G , G G , G , F G G G , F G , , F G , F G G G F = G &X&X&X&X&X&X&X&X&X&X&X&X&X",
"&X&X&X&X&X&X&X&X&X&X&X&X&XG = G G G , , , , G G , = , = , G = , , , , G , , = , G = , , , , F G G G G &X&X&X&X&X&X&X&X&X&X&X&X&X",
"&X&X&X&X&X&X&X&X&X&X&X&X&X= , G G G J G G J G J G J G J J J G J G J G J G J J G J J G G J G J G G , G &X&X&X&X&X&X&X&X&X&X&X&X&X",
"&X&X&X&X&X&X&X&X&X&X&X&X&XG , G ! ^.E.E.E.E.E.E.E.E.E.E.E.E.E.E.E.E.E.E.E.E.E.E.E.E.E.^.E.E.^.W G = G &X&X&X&X&X&X&X&X&X&X&X&X&X",
"&X&X&X&X&X&X&X&X&X&X&X&X&X, , G W.&X&X&X&X&X&X&X&X&X&X&X&X&X&X&X&X&X&X&X&X&X&X&X&X&X&X&X&X&X&XY.F , , &X&X&X&X&X&X&X&X&X&X&X&X&X",
"&X&X&X&X&X&X&X&X&X&X&X&X&XG G G R.&X&X&X&X&X&X&X&X&X&X&X&X&X&X&X&X&X&X&X&X&X&X&X&X&X&X&X&X&X&XY.G , G &X&X&X&X&X&X&X&X&X&X&X&X&X",
"&X&X&X&X&X&X&X&X&X&X&X&X&XG = G R.&X&X&X&X&X&X&X&X&X&X&X&X&X&X&X&X&X&X&X&X&X&X&X&X&X&X&X&X&X&XY.F = G &X&X&X&X&X&X&X&X&X&X&X&X&X",
"&X&X&X&X&X&X&X&X&X&X&X&X&XG G G W.&X&X&X&X&X&X&X&X&X&X&X&X&X&X&X&X&X&X&X&X&X&X&X&X&X&X&X&X&X&XY.G G , &X&X&X&X&X&X&X&X&X&X&X&X&X",
"&X&X&X&X&X&X&X&X&X&X&X&X&X, , G W.&X&X&X&X&X&X&X&X&X&X&X&X&X&X&X&X&X&X&X&X&X&X&X&X&X&X&X&X&X&XY.G , G &X&X&X&X&X&X&X&X&X&X&X&X&X",
"&X&X&X&X&X&X&X&X&X&X&X&X&XG G G W.&X&X&X&X&X&X&X&X&X&X&X&X&X&X&X&X&X&X&X&X&X&X&X&X&X&X&X&X&X&XY.G = , &X&X&X&X&X&X&X&X&X&X&X&X&X",
"&X&X&X&X&X&X&X&X&X&X&X&X&XF = G ~ ~.~.~.~.~.~.~.~.~.~.~.~.~.~.~.~.~.~.~.~.~.~.~.~.~.~.~.~.~.~.! F G , &X&X&X&X&X&X&X&X&X&X&X&X&X",
"&X&X&X&X&X&X&X&X&X&X&X&X&XG , G G J J J J J J J J J J J J J J J J J J J J J J J J J J J J J J J F , G &X&X&X&X&X&X&X&X&X&X&X&X&X",
"&X&X&X&X&X&X&X&X&X&X&X&X&X, G = , , , , , , , , , , , , , , , , G G , , , , , , , = , , , , G G G = G &X&X&X&X&X&X&X&X&X&X&X&X&X",
"&X&X&X&X&X&X&X&X&X&X&X&X&XG = G , G = = = = = = = = = = = = = = = = = = = = = = = = = = = = G G , G G &X&X&X&X&X&X&X&X&X&X&X&X&X",
"&X&X&X&X&X&X&X&X&X&X&X&X&X= , , Y W W W W W W W W W W W W W W W W W W W W W W W W W W W W W W J , , G &X&X&X&X&X&X&X&X&X&X&X&X&X",
"&X&X&X&X&X&X&X&X&X&X&X&X&XG , = W &X&X&X&X&X&X&X&X&X&X&X&X&X&X&X&X&X&X&X&X&X&X&X&X&X&X&X&X&X(.T = = G &X&X&X&X&X&X&X&X&X&X&X&X&X",
"&X&X&X&X&X&X&X&X&X&X&X&X&XG = = T (.&X&X&X&X&X&X&X&X&X&X&X&X&X&X&X&X&X&X&X&X&X&X&X&X&X&X&X&X(.Y = , F &X&X&X&X&X&X&X&X&X&X&X&X&X",
"&X&X&X&X&X&X&X&X&X&X&X&X&XG G = J /.&X&X&X&X&X&X&X&X&X&X&X&X&X&X&X&X&X&X&X&X&X&X&X&X&X&X&X&X(.Y = G G &X&X&X&X&X&X&X&X&X&X&X&X&X",
"&X&X&X&X&X&X&X&X&X&X&X&X&XG G , G E.&X&X&X&X&X&X&X&X&X&X&X&X&X&X&X&X&X&X&X&X&X&X&X&X&X&X&X&X(.Y = G G &X&X&X&X&X&X&X&X&X&X&X&X&X",
"&X&X&X&X&X&X&X&X&X&X&X&X&X&X= , G W.&X&X&X&X&X&X&X&X&X&X&X&X&X&X&X&X&X&X&X&X&X&X&X&X&X&X&X&X(.Y = F G &X&X&X&X&X&X&X&X&X&X&X&X&X",
"&X&X&X&X&X&X&X&X&X&X&X&X&X&XF = = T.&X&X&X&X&X&X&X&X&X&X&X&X&X&X&X&X&X&X&X&X&X&X&X&X&X&X&X&X/.Y = , G &X&X&X&X&X&X&X&X&X&X&X&X&X",
"&X&X&X&X&X&X&X&X&X&X&X&X&X&XG F , ~ &X&X&X&X&X&X&X&X&X&X&X&X&X&X&X&X&X&X&X&X&X&X&X&X&X&X&X&X/.J = G G &X&X&X&X&X&X&X&X&X&X&X&X&X",
"&X&X&X&X&X&X&X&X&X&X&X&X&X&XF F = W &X&X&X&X&X&X&X&X&X&X&X&X&X&X&X&X&X&X&X&X&X&X&X&X&X&X&X&X^.K , G = &X&X&X&X&X&X&X&X&X&X&X&X&X",
"&X&X&X&X&X&X&X&X&X&X&X&X&X&X= F , Y Q.!.!.!.!.!.!.!.!.!.!.!.!.!.!.!.!.!.!.!.!.!.!.!.!.!.!.!.~ F = , : &X&X&X&X&X&X&X&X&X&X&X&X&X",
"&X&X&X&X&X&X&X&X&X&X&X# # o < F = K X.@.+.@.+.+.+.#.+.O.+.+.+.+.@.#.+.+.#.+.+.+.O.+.+.+.+.+.E K F F $ $ o # &X&X&X&X&X&X&X&X&X&X",
"&X&X&X&X&X&X&X&X&X&XX # o V C F F G &.F.F.F.F.&.O.O.O.+.D.H.H.F.x.+.O.O.O.%.F.F.F.F.=.O.O.+.E = F < u.t.r O &X&X&X&X&X&X&X&X&X&X",
"&X&X&X&X&X&X&X&X&X&X# X X u C = = = | I.I.I.F.@.O.+.+.x.S.S.S.k.^ ( ( ) @.L.U.U.I.x.+.+.+.O.R = F 1 f.n e # X &X&X&X&X&X&X&X&X&X",
"&X&X&X&X&X&X&X&X&X&XO y r X & < = = ^ P.P.F.@.O.+.O.o.} v p 6 6 3 3 6 6 k D k.P.x.+.O.O.O.+.R = F , e X o X # &X&X&X&X&X&X&X&X&X",
"&X&X&X&X&X&X&X&X&X&XO B i.o @ : = = U L.F.@.O.O.) c 5 3 3 2 2 3 2 3 2 2 4 3 5 S ..O.O.O.@.x.^ = G , @ i B o # &X&X&X&X&X&X&X&X&X",
"&X&X&X&X&X&X&X&X&X&XO w.B.0.X : = = U  .=.O.O._ 6 2 3 3 3 3 3 3 3 3 3 2 3 3 4 4 h ) O.+.x.H.U = F < V b.j.e . &X&X&X&X&X&X&X&X&X",
"&X&X&X&X&X&X&X&X&X&XO r.Z.m.n - = = = E X.X.^ 6 4 3 3 2 3 8 w :.:.:.-.0 4 3 2 3 3 h ) %.G.&.U = , A V.Z.b.t O &X&X&X&X&X&X&X&X&X",
"&X&X&X&X&X&X&X&X&XX # i.Z.Z.g.a = = = K Y , ; 2 3 3 3 0 <.5.8.8.8.8.8.6.1.q 3 3 3 2 ; U U H K , , D A.Z.M.y O &X&X&X&X&X&X&X&X&X",
"&X&X&X&X&X&X&X&X&XX X a.Z.Z.C.f.< = G F = > 3 3 3 4 >.4.8.9.8.8.8.8.8.8.8.4.0 3 3 3   : G F G = , f.Z.Z.B.i X &X&X&X&X&X&X&X&X&X",
"&X&X&X&X&X&X&X&X&XX + s c.Z.Z.B.D G F F = * 3 3 3 ;.7.9.8.8.8.8.9.8.8.8.8.8.3.0 3 3 3 - F G G F A V.Z.Z.B.m . @ &X&X&X&X&X&X&X&X",
"&X&X&X&X&X&X&X&X&X# # O i h.Z.Z.v.z , K L 3 3 2 7 3.9.8.8.9.8.8.8.8.8.8.8.8.8.<.3 3 3 h I > > : b b.Z.Z.C.V @ X &X&X&X&X&X&X&X&X",
"&X&X&X&X&X&X&X&X&X# + # O s c.Z.n.r @ *.$.3 3 2 :.8.9.9.9.9.8.8.8.8.8.8.8.8.8.4.7 3 3 k *.$ @ @ O s v.Z.A.q.O # &X&X&X&X&X&X&X&X",
"&X&X&X&X&X&X&X&X&X# # X X O s n.c.t & '.' 2 4 4 ,.8.8.8.8.8.8.8.9.8.8.8.8.8.8.7.q 3 2 j l.z X + # O i j.Z.t.X X &X&X&X&X&X&X&X&X",
"&X&X&X&X&X&X&X&X&XX X # # # O n t.o % `.` 2 3 4 3.8.8.8.8.8.8.8.8.8.8.9.8.8.8.5.0 3 3 k  XZ . X # @ X r s.a.X # &X&X&X&X&X&X&X&X",
"&X&X&X&X&X&X&X&X&XX # X @ X @ X t X z  X' 4 3 4 2.8.8.8.8.8.8.8.8.8.8.8.8.8.8.3.4 3 2 x }.S . X O X # @ t M o X &X&X&X&X&X&X&X&X",
"&X&X&X&X&X&X&X&XX @ n m X @ X # X X l {.S 3 3 3 >.8.8.8.8.8.8.8.8.8.8.8.9.8.9.2.4 2 2 k }./ X e # # # X X X X # &X&X&X&X&X&X&X&X",
"&X&X&X&X&X&X&X&X# X w.m.V X X # X X l }.S 2 4 3 7 2.8.9.9.8.8.8.8.8.8.8.8.8.5.;.3 3 3 j }./ . n e.t @ X # X # X # &X&X&X&X&X&X&X",
"&X&X&X&X&X&X&X&XX # y.Z.B.q.o # X @ A oX' 2 3 3 3 q 1.7.9.9.8.8.8.8.8.8.6.,.q 3 3 3 3 j }.| . s M.p.r @ @ @ X @ # &X&X&X&X&X&X&X",
"&X&X&X&X&X&X&X&XX X a.Z.Z.B.e.o X . S +X' 2 3 3 3 3 9 w 1.4.7.7.7.7.5.1.w 4 3 3 3 3 3 k XX .@ r g.Z.h.m X X X # # &X&X&X&X&X&X&X",
"&X&X&X&X&X&X&X&XX o s.Z.Z.Z.C.y.o . / %X` 2 3 3 3 3 3 3 6 7 q w w q 0 3 3 3 3 3 3 3 2 x +X&.@ X i g.A.B.i.u X @ X &X&X&X&X&X&X&X",
"&X&X&X&X&X&X&X&X+ X y.C.Z.Z.Z.N.i . | @X] 3 3 3 3 3 3 3 3 3 3 3 3 3 3 3 3 3 3 3 3 3 2 ' #Xl.# X @ y d.Z.A.n.n @ X &X&X&X&X&X&X&X",
"&X&X&X&X&X&X&X&X+ O e t.C.Z.Z.M.i .  .$Xz.3 3 3 4 8 4 3 3 3 3 3 3 3 3 3 3 4 8 8 3 4 3 ] #XJ.@ @ @ . y g.Z.Z.e.O # &X&X&X&X&X&X&X",
"&X&X&X&X&X&X&X&X+ + O e 0.M.Z.M.y . *.$X{.j 3 3 3 d f d 9 3 3 3 3 3 4 8 q f d 4 3 3 3 $.$X_.& @ # X @ i h.Z.i.X # &X&X&X&X&X&X&X",
"&X&X&X&X&X&X&X&X+ + + O O N N.b.t + l.#X#X{ 4 3 3 3 8 g -.g f f f g -.-.f 9 3 3 3 3 j ].$X X& @ # @ @ . i n.p.X # &X&X&X&X&X&X&X",
"&X&X&X&X&X&X&X# X @ X # X # e.d.e $ `.$X$XoXx 3 3 3 3 4 8 d f f f f d 9 3 3 3 3 3 6 $.@X$X|.a . . # # X @ m i.e X &X&X&X&X&X&X&X",
"&X&X&X&X&X&X&X# # X @ # @ X e N o z {.$X#X#X{.x 2 3 3 3 3 3 3 3 3 3 3 3 3 3 3 3 j $.OX#X#X}.z . o o X # X X u o # &X&X&X&X&X&X&X",
"&X&X&X&X&X&X&X# X i n X X @ X # . l oX$X#X#X#X{.' 5 2 3 3 3 3 3 3 3 3 3 3 3 6 ' ].#X#X#X$XoXl . i 0.o @ X # @ X # &X&X&X&X&X&X&X",
"&X&X&X&X&X&X&X# @ 0.b.N # X @ X . Z oX$X#X#X#X$X%X].' j 3 2 3 3 2 2 3 4 j ] [.%X$X#X#X#X#XoXl . i n.e.o @ @ X # X &X&X&X&X&X&X&X",
"&X&X&X&X&X&X&XX @ e.Z.V.V o X @ . Z +X$X$X$X$X#X$X$X#X{.z.] ` x P ' $.l..X@X$X$X$X$X$X$X$XOXS . r m.C.q.X O @ X # &X&X&X&X&X&X&X",
"&X&X&X&X&X&X&XX X i.Z.Z.B.q.o X . l K._.`._._._.`.`._._.]._.J.J.'.'.`.[._.'._.`.[.`._.`._.'.Z . # s.Z.B.V @ X # X # &X&X&X&X&X&X",
"&X&X&X&X&X&X&X# X p.Z.Z.Z.g.y @ . . X $ $ $ $ $ $ $ # $ # $ $ $ $ $ $ $ $ $ # $ $ # $ $ $ @ # # # y d.Z.M.n . # @ # &X&X&X&X&X&X",
"&X&X&X&X&X&X&X# e d.Z.C.p.y X @ y n i o . . X X o i n s r X X X X i n i i o X . . e i i n i e O X @ u g.Z.b.u O # X &X&X&X&X&X&X",
"&X&X&X&X&X&X&X# e g.B.q.o @ . t d.B.a.o X X # X q.M.B.n.n O # @ s n.N.N.e.X # X O N M.B.B.g.r . @ @ X u g.Z.d.y X # &X&X&X&X&X&X",
"&X&X&X&X&X&X&X# r p.N # @ X y p.A.M.n . X # O m B.Z.C.q.X @ . X i.Z.Z.b.u @ X @ r h.Z.Z.A.e.# + X t # @ u j.A.i.# X &X&X&X&X&X&X",
"&X&X&X&X&X&XX X e r X X u e.n.A.C.0.. # # O r g.Z.Z.d.e # X O N N.Z.N.N @ # @ e p.Z.Z.Z.h.r # O i s.N X X y d.s.o X &X&X&X&X&X&X",
"&X&X&X&X&X&X# X @ @ y y.n.Z.Z.Z.s.e O # X e p.Z.Z.M.n . @ O n n.Z.A.y.# X X o y.A.Z.Z.B.N . O o a.Z.B.q.e O r V e # &X&X&X&X&X&X",
"&X&X&X&X&X&X# # # i p.n.n.n.n.c.n O # X O M h.n.n.q.X # + o t.n.n.g.u O # O i g.n.n.n.i.o O . y j.n.n.c.q.e . X X # &X&X&X&X&X&X",
"&X&X&X&X&X&X# X # t r t r r r t X X X # O e r r t o X # X X t r r t X X X O e r r r t e # O O o t r r r r X @ O # # &X&X&X&X&X&X",
"&X&X&X&X&X&X&X# # X + + + + @ @ # # # # # X # + # # # X # # + + + + # # # # # X + + + # # # # # # # X X # # # # o &X&X&X&X&X&X&X",
"&X&X&X&X&X&X&X&X&X&X&X&X&X&X&X&X&X&X&X&X&X&X&X&X&X&X&X&X&X&X&X&X&X&X&X&X&X&X&X&X&X&X&X&X&X&X&X&X&X&X&X&X&X&X&X&X&X&X&X&X&X&X&X&X"
};
