/* XPM */
static char *_bd938a4c06b4d80fe9bf0a62f518474CbADkAmNnPOai1Il[] = {
/* columns rows colors chars-per-pixel */
"64 64 115 2 ",
"   c None",
".  c #080404",
"X  c #1B1C1D",
"o  c #26201F",
"O  c #2F211F",
"+  c #1E2325",
"@  c #212425",
"#  c #222528",
"$  c #262A2B",
"%  c #292D2D",
"&  c #332221",
"*  c #2F312F",
"=  c #2B2E31",
"-  c #2F3130",
";  c #333635",
":  c #363939",
">  c #383B3A",
",  c #2E6A32",
"<  c #396839",
"1  c #377435",
"2  c #406F3B",
"3  c #46743E",
"4  c #424243",
"5  c #4C4B4B",
"6  c #504F4F",
"7  c #4D5E47",
"8  c #535353",
"9  c #595655",
"0  c #5A5A5A",
"q  c #615E5C",
"w  c #54644F",
"e  c #5B794E",
"r  c #5C6657",
"t  c #5D7252",
"y  c #65765A",
"u  c #656363",
"i  c #6A6766",
"p  c #736F6E",
"a  c #73726E",
"s  c #757372",
"d  c #787473",
"f  c #787877",
"g  c #787778",
"h  c #7C7D7C",
"j  c #807F7F",
"k  c #408B38",
"l  c #449339",
"z  c #6EA857",
"x  c #76AB61",
"c  c #818677",
"v  c #80817B",
"b  c #85897B",
"n  c #858484",
"m  c #8A8785",
"M  c #878881",
"N  c #8B8987",
"B  c #878788",
"V  c #8B8B8B",
"C  c #938E8B",
"Z  c #8F9289",
"A  c #91908F",
"S  c #949494",
"D  c #999796",
"F  c #9A9C96",
"G  c gray60",
"H  c #989898",
"J  c #9A9998",
"K  c #9B9A99",
"L  c #9B9B9B",
"P  c #9C9B9A",
"I  c #9C9E98",
"U  c #9C9C9B",
"Y  c #9B9B9C",
"T  c #9D9D9C",
"R  c #9D9D9D",
"E  c #9E9D9C",
"W  c #9D9E9C",
"Q  c #9E9E9D",
"!  c #9F9E9E",
"~  c #9F9F9E",
"^  c #9F9F9F",
"/  c #A09F9F",
"(  c #A1A0A0",
")  c gray63",
"_  c #A2A1A0",
"`  c #A2A1A1",
"'  c #A3A2A1",
"]  c #A3A3A2",
"[  c #A2A3A3",
"{  c gray64",
"}  c #A4A3A2",
"|  c #A3A4A4",
" . c #A4A4A4",
".. c #A5A4A4",
"X. c #A5A4A5",
"o. c #A5A5A5",
"O. c #A6A5A5",
"+. c #A6A5A6",
"@. c gray65",
"#. c #A7A7A7",
"$. c #A7A8A6",
"%. c gray66",
"&. c #A9A8A8",
"*. c #AAA8A9",
"=. c #AAA9A9",
"-. c #ABAAAA",
";. c #ACABAB",
":. c #B5B4B4",
">. c #BDBCBC",
",. c gray",
"<. c gray77",
"1. c #C5C4C4",
"2. c #C5C5C5",
"3. c #C6C6C6",
"4. c gray80",
/* pixels */
"                                                                                                                                ",
"                                                                                                                                ",
"                                                                                                                                ",
"                                                                                                                                ",
"                                                                                                                                ",
"                                                                                                                                ",
"                                                                                                                                ",
"                                                                                                                                ",
"                                                                                                                                ",
"                                                                                                                                ",
"                                                                                                                                ",
"                                                                                                                                ",
"                                                                                                                                ",
"                                                                                                                                ",
"                                                      4 N C C C C C C C C C C A C C C C C C C C C C C C C C C C C m *           ",
"                                                      : S 3.4.4.4.4.4.4.4.4.4.4.4.4.4.4.4.4.4.4.4.4.4.4.4.4.4.4.>.j #           ",
"                                                      $ 8 m ,.2.1.2.1.2.1.2.2.2.1.1.1.1.2.1.1.2.1.3.1.1.1.1.1.:.d 8 +           ",
"                                                      $ 4 8 A ;.;.;.;.;.;.;.;.;.;.;.;.;.;.;.;.;.;.;.;.;.;.;.;.n 8 4 +           ",
"                                                      - 4 5 B ;.I c F %.O.b Z %.;.S n O.;.#.v C ;.*.N N ;.%.;.j 4 4 #           ",
"                                                      ; 4 5 B %.e z 3 %.y x 1 M ' u i 9 *.q m 5 D h d 9 d %.%.j 4 4 =           ",
"                                                      ; 4 5 B %.3 l < O.t k , v / 4 6 9 $.9 8 4 D f 4 5 a *.#.j 4 5 =           ",
"                                                      ; 4 5 V $.v 7 a $.T w r [ O.p 8 V $.C 8 u O.' 0 0 T #.*.j 4 4 =           ",
"                                                      ; 4 4 B #.| P [ ..#.T T ..#.[ K ..$.O./ _ O.O./ T #.#.#.h 4 4 =           ",
"                                                      ; 4 5 B | ..| ....[ ......' ......} } } } ....#.' ....[ h 4 4 =           ",
"                                                      ; 4 4 B [ | | ......O.....} O.O.} O.} } } ..' ' _ ' ' ( h 4 4 -           ",
"                                                      ; 4 5 n [ $.i 5 5 5 5 5 5 5 5 5 5 5 6 5 6 6 5 6 6 S ' / h 4 4 @           ",
"                                                      ; 4 5 n ^ -.* . . . . . . . . . . . . . . . . . . d / / h 4 5 #           ",
"                                                      ; 4 5 n ^ $.; . . . . . . . . . . . . . . . . . . d / / h 4 4 %           ",
"                                                      ; 4 5 n Y -.* . . . . . . . . . . . . . . . . . . d T T h 4 5 -           ",
"                                                      ; 4 5 n Y $.* . . . . . . . . . . . . . . . . . . d K Y g 4 4 @           ",
"                                                      ; 4 5 n Y O.* . . . . . . . . . . . . . . . . . . d K P f 4 4 +           ",
"                                                      ; 4 4 j H O.* . . . . . . . . . . . . . . . . . . s K K f 4 4 O           ",
"                                                      - 4 5 j H O.* . . . . . . . . . . . . . . . . . . s H H g 4 4 &           ",
"                                                      : 4 5 j H ..* . . . . . . . . . . . . . . . . . . s H H g 4 4 X           ",
"                                                      : 4 4 j H ..* . . . . . . . . . . . . . . . . . . s S H s 4 4 +           ",
"                                                      ; 4 5 h S _ * . . . . . . . . . . . . . . . . . . s S S g 4 4 =           ",
"                                                      : 4 5 h S / ; . . . . . . . . . . . . . . . . . . s S S s 4 5 =           ",
"                                                      ; 4 5 h A / * . . . . . . . . . . . . . . . . . . s S S s 4 4 =           ",
"                                                      ; 4 4 h A / * . . . . . . . . . . . . . . . . . . s A A g 4 4 =           ",
"                                                      ; 4 5 h A P * . . . . . . . . . . . . . . . . . . p V A s 4 4 =           ",
"                                                      ; 4 5 h V / * . . . . . . . . . . . . . . . . . . s A V s 4 4 $           ",
"                                                      ; 4 5 h V P * . . . . . . . . . . . . . . . . . . s V V s 4 5 %           ",
"                                                      ; 4 5 g V K - . . . . . . . . . . . . . . . . . . p B B s 4 4 %           ",
"                                                      ; 4 4 g B K * . . . . . . . . . . . . . . . . . . s B B s 4 4 %           ",
"                                                      ; 4 5 f B S d 0 u 0 q 0 u u u q q q q q q u 0 q q A B B s 4 5 =           ",
"                                                      * 4 5 f B B n B B B B B B B B B B B B B B B B B B B B B s 4 4 $           ",
"                                                      $ 4 8 h h h j j j x j j h h h j j h h h j h h h h h h h g 8 4 #           ",
"                                                      $ 8 s 0 5 5 5 5 5 5 5 5 5 5 5 5 5 5 5 5 5 6 5 5 6 5 5 6 u s 5 #           ",
"                                                      > s 6 4 4 4 4 4 4 4 4 4 4 4 4 4 4 4 4 4 4 4 4 4 4 4 4 4 4 u s $           ",
"                                                      $ % @ @ % % % % % % $ % % % % % % % % % % $ = $ = = = # + % :             ",
"                                                                                                                                ",
"                                                                                                                                ",
"                                                                                                                                ",
"                                                                                                                                ",
"                                                                                                                                ",
"                                                                                                                                ",
"                                                                                                                                ",
"                                                                                                                                ",
"                                                                                                                                ",
"                                                                                                                                ",
"                                                                                                                                ",
"                                                                                                                                ",
"                                                                                                                                ",
"                                                                                                                                "
};
