/* XPM */
static char *_f00425e225b4e35ecb60e22f10d136cH2xiS5XxpymN1LND[] = {
/* columns rows colors chars-per-pixel */
"64 64 72 1 ",
"  c #67757A",
". c #64747D",
"X c #66767E",
"o c #68747A",
"O c #6A777D",
"+ c #6B787E",
"@ c #6F7B81",
"# c #6C7B82",
"$ c #6F7E83",
"% c #6A7B84",
"& c #6C7C85",
"* c #6E7C84",
"= c #6E7E87",
"- c #707D82",
"; c #707D84",
": c #737F85",
"> c #718085",
", c #728086",
"< c #738086",
"1 c #758288",
"2 c #768389",
"3 c #74838A",
"4 c #758489",
"5 c #768489",
"6 c #76858E",
"7 c #79878E",
"8 c #7A888F",
"9 c #788790",
"0 c #798993",
"q c #7B8A93",
"w c #7B8C94",
"e c #7E8D95",
"r c #7E909A",
"t c #7F919A",
"y c #7F919B",
"u c #808E94",
"i c #818F98",
"p c #839299",
"a c #80929B",
"s c #829498",
"d c #83959B",
"f c #859499",
"g c #84949B",
"h c #85969B",
"j c #82959C",
"k c #82949E",
"l c #83949E",
"z c #84949C",
"x c #87979D",
"c c #85959F",
"v c #84979E",
"b c #88959C",
"n c #87989E",
"m c #89989D",
"M c #88989F",
"N c #89999F",
"B c #8A999F",
"V c #8496A0",
"C c #8697A2",
"Z c #8798A0",
"A c #8798A2",
"S c #8898A0",
"D c #8999A2",
"F c #8899A3",
"G c #899AA3",
"H c #8A9BA3",
"J c #8C9BA3",
"K c #8D9DA3",
"L c #899AA4",
"P c #8A9BA4",
"I c #8D9CA5",
"U c #8E9DA4",
/* pixels */
"1111<--;-;---;-;---;-;---------;-;---;-;$$-;;----$-----;;-+fLJIL",
"ccSb,-iiaiakuaiaytauukakukiuatauaaaauaiaktuiiatkukiuytauhqO7zLIK",
"SLS1$tLSSSLSLSSLAHHHLSLSLSLLHHHHSSLHLSSLHLHALSLSLLLLPLSSSLf$1nSP",
"CC4,ccccCcCkcccCvnkkCcCkCkCCknkkCccccccCknknccCckzCCckSnSCSk,6SL",
"a41kCtkkkvvvbknvnkvvvcknccvvvvvvvvvvNcnkvvvknckccnndkkcncaknC-1A",
"6=kLSakkchccCccdkChcchcChcccchccchcckcchcchcdchCckccddcchkaLSa-q",
"%qSLLLSAnnAnnAnnAnnAnnAnnAnAnAAAnnAnnAnnAnnAnnSSnSAAnAnAcSLLLL7-",
"=qLLLLLLLPLLLLLHLLLPPSPSSPPLSPHALLLLLLPHLLLLLLLSSPLLLLLLLLLLLL1-",
"<uJbcchkkhcdhthhhhthhahkahdhzzackkdhhkhahachdhkhhahkcacnCNnAnS4;",
":eNdhhhkchhcchhcckchhchcchccchhhhhhchchchhhchchdhchkhhhcccdctA4;",
":uSchhkNcknkkCcckncCcCccccCkccckckccAkkckAcccckccckNcccccktkkL4;",
":uKLSCASnAnAcnScAnASbScSnbnASbSCnANcnASAAAbbAnAAnNAnAnnANnSAHP4;",
":uKSLLLLLLLPHLLLSPPLLLLLLLLLLLLLPLLLLLLLSPLLLLLLLLLLPPLLLLLPSL1=",
":uILLSLLLLLSLLLLLSLLLLLLLLLLLLLLLLLSLLLSLLPSLLLLLLLLSALLLLLSPP4-",
";uICkhacdhCdthhhkhfhhhhtaccdhhhckkhhkchhcdhhccdhdchtcdthcdchcS4-",
"<uSaccNNcCSbSAnAScCCNCNnNnnASScbNnAnSccNnAAcAhnncAbLbcbbhchatL4;",
":uKSCcdfhhachfahfzchdhfkkhahhffkhcahhcakhcahhdcyhhhdkdachfkccS4;",
":uILSLLSLLSLLSLLSLPSSLLSLLSLLLLLSLSLSPSSSPSLSHSLSPLSLPSPLSLLSL4;",
":uILSLLSCSLLLSLLLSLcSCLSCSLFSSLSLSnLLSLLLSnLLLSPPSLLASSALSLSLL4;",
":uJcFktkktktkacikkkkVVuCktkyVktkuCktkVikuCktkktkkkaaktCAACCCLL4;",
";uStkkkcVVkVCzzkVcVVkcCkVyVVVzzzFkkCkhcVFkkCkCkVdCCkkkkkkckakP,;",
",uPkCdckVVVkkkcCVkVkVkCkVVVVkCkckCkkCkVkkCkkVVkcckckdCCkcckaaS4;",
";uPPLAnAAAFSCcSLVVFCFFkAFFCLCSCCCCACCCCCAAACSASbCACCCFCCnALLPS4;",
"<uILLLLSLLFLPSLSSSLFFPSSFLSLLSLLLLLSLLLLLLSALLLLSLLLSLLLLLLLPL4<",
"<uISSSHPSnSPSLLNLnSLLLScSNSLSLLSSLLLSbLSSLLSSLSPSnScAAFLLFCSLL6;",
":uJkakdthcahfcaaccacfhfkchfcahhfhcfhakhnahhffkaakhckkttyytttcS5=",
";uSkcnkncbcNCzCCccbAccVCnccccbCCccccccccchcCccbcnnnCkCAkCkCzaS<>",
"<uICkkckkaadztfkhkhtzaaVkdthkatVthhtkhadkctChakhkykkttkyykkkHK< ",
"<uILLSLFSPSSPLLSSASLLSSSSLSLSLSSLSLSSPALSLSSSSLSHAPFSAPFLSHIKK<o",
":uISLPPSLPLSLLLLLLLSLLLLPSLSLLLLLLLSHSLLLSLLLLLLHSLPLHPLLLLPIK4-",
":uJCCkckchhcCchfCachchffchhhchhfzCChhCChchhccChhhhCdhhcnAccSLI4;",
":ubckccnchhkhahhhhhhccChchdcccchczfhafhdhcffczhcahcdhhccckcaaS4;",
"<uPVtkdkdndddhddhhddhddkhkdddhhkffkhhhhfdddnhtkhhhhfyhhchtytyH1$",
"<uKSSSnAnSSLnLnLcLnLnHNSnnHPnGHALbSLcNScHAnSNnLPcNScPSNnPSPSIH4$",
":uKKPPLLSPAFLSAPSPPLSLLLSLAASSHSLSLLLLPPLLLFSLLSLSPHALLSSPPHKJ4;",
":uKPnAnCCFnCASnccAkCnAnCCAAnAAAVCcSAAncCAVVnSAAcAANcAAAAbSALSI1:",
"-uSkkctkkcktkckkckctkkakkkkccktckkkkkckkkkckckkkkkkkatdhfhhtkL1-",
"<uSakVVVkckckNckknCkvncvccckhcckknkvckkcvvdckdccckknVnhkkhbhaS4;",
",uILnnhknkcvkkdhkvkckcdnkkkndkkdckkndNckdkknckdkkNkNkndhfccNSJ4;",
":uKKKHKHHKHHKHKKHKHHKHHHKKHSKKHKHHKHHHHHKKHKHHKKLHSPHHHHJJKIIJ5<",
":uUKJIKKKSIKHKKSKKKSKHKKKKSKSIHKKKHKKKSKSKHKKHKHKSKHHIJKJKIUKK1;",
":uKcbbnNNhNNmNNnNnnmNNNnNnNNNNmNnNNnNnNNNNNNNmnmNmNmNbbbNbbbHH4;",
":uNfcbSNmmNnmmmmNmmmmmmmmmNNmmmbmmmmmmNNmbbmbmNnNNbNnhhhchhakP4;",
":uJhhdfhhfhhdfdfhdfddfdfshhhhshhhhshshfhhhshhhhhhfdhhhhhhahaaS4;",
":uKKnSSHNNHNSSNnSSNnNNHNSSINNSNNnNSPNHNHNHNNHNNNcNHNNSNNNNLSJJ<;",
":eKKKKKKKKKHKKKKIKKKKSHKKKKHKKKKSKSKKKKSHKISKKISKKSKJKKKKKKSJJ4;",
":uIKKnSSHHHPHKHHHUKHKHKHSNSKSIHHIHKKHSSKKHSKHSIKKHKHNKSJKKJKII5<",
":uShdhhnfshuddsdhsshushdhshsddphhssshshhsshshshsfshsspcaahhccS5-",
":uSfnnNcNNNNnNNNnSNmNmSNNNbNSNNNNNnNNNAnbNnNNNNnNNNnSbhccNhheC4$",
":uKShcNhbNmhNbbhnnNchmbSNhhNnnbhbbNhbhNnmbNhbcNNhbhNbchhfhhcbL1;",
";uKJKKHHKKKUHKKKKKHHKKKSKKKKKHKPKHUKKHHKKHHKHKKKKKKKKKKKJKSKKK4;",
"<uKKHKKHKSSIKISKHKKHKSKKKSKJKHKPKKISKKHLKKKKHKHHKSKJKKSKKJIKJI4;",
"<uISbSNnVnnncnncnnAnnAnScNnnnnnvcnnnnnVncnnnnAnkcccnnnCcNcScSI1;",
"-uSakckckkkkchkkkckkkkkkkkkckkckkckkkCknkckkkckkkcdckthdhhchkS4;",
"-uJackkkkckkckckkktktckkzkcktckktkcdkakktkcdkkkkckckkkddahhacS4;",
"+uULcNCkckAnkkncVcAnVVvAcckAAkcvAnckSkccAncknkAVnkkAkCkNccCSLJ4<",
"+uIIPSLSPLHAPLPAGHGPLLHnPHnHPnGGSLnPPSPPnPPLPAHSHASHLSPSSLLLIS1-",
"+uKIIAnCcvvkknkAnnnknkvkkkAvknkvnCvnknkAvnknkAkvknCkVAAAFSSLKK4;",
"$$hSchkkvknvkvnkvykvkvvvnvvdnvvvknkvdnvkvvvvnvknnvnkkCkkVykLJa--",
"k<$kAtkVddddddkddhkkkvddkdkhkkkkkdtkdkkdtdkkkddddkkkttytyktSk=O;",
"cc-,knAVvVnVnvAvVVnVAVnVvAvvVnVvvVnVnvAvVnVvAvAAvAvkcCkCkLct-61-",
"cKcq=tSLPPFPSPFPPSPFSPFPHAFPLLLLPLLLGLGGPPFPAPASHAPLLSSLLSe#9C1;",
"cKKA6%9weeeeeeeeeeeeeeeeeeeeeeeeeeeeeeeeeeeeeeeeeeeeeeeeeq-qAL1;",
"cKPSV>.X+++++++++++++#+++++++++++++++++++++++++++++++++++O;LSL4;"
};
