/* XPM */
static char *result[] = {
/* columns rows colors chars-per-pixel */
"64 64 135 2 ",
"   c #0F1515",
".  c #101716",
"X  c #111718",
"o  c #151B1B",
"O  c #191E1E",
"+  c #172021",
"@  c #192323",
"#  c #202424",
"$  c #252A26",
"%  c #262B29",
"&  c #2A2C2B",
"*  c #27312C",
"=  c #2D312E",
"-  c #32332D",
";  c #38342F",
":  c #2E2F30",
">  c #2E3131",
",  c #2F3A3B",
"<  c #343432",
"1  c #383730",
"2  c #353833",
"3  c #383832",
"4  c #323B3C",
"5  c #393D3B",
"6  c #37413E",
"7  c #3B413E",
"8  c #43423B",
"9  c #4C473E",
"0  c #303F42",
"q  c #2B4247",
"w  c #2D434A",
"e  c #364344",
"r  c #3B4444",
"t  c #3E4946",
"y  c #334449",
"u  c #394749",
"i  c #364A4D",
"p  c #3C4B4D",
"a  c #364B51",
"s  c #394C51",
"d  c #3E5155",
"f  c #3F5B60",
"g  c #414641",
"h  c #454A46",
"j  c #4D4C45",
"k  c #444D4A",
"l  c #484C49",
"z  c #524D45",
"x  c #44514E",
"c  c #5C584F",
"v  c #445454",
"b  c #4A5654",
"n  c #4E5957",
"m  c #465658",
"M  c #455A5D",
"N  c #4B5A5A",
"B  c #565656",
"V  c #585756",
"C  c #5B5C54",
"Z  c #535E5A",
"A  c #595F58",
"S  c #605D55",
"D  c #615F5E",
"F  c #536059",
"G  c #5D615B",
"H  c #696357",
"J  c #656259",
"K  c #69645A",
"L  c #6E695E",
"P  c #716B5F",
"I  c #475C62",
"U  c #495D63",
"Y  c #4A6266",
"T  c #4B616C",
"R  c #4E696F",
"E  c #556465",
"W  c #586867",
"Q  c #566769",
"!  c #556C6F",
"~  c #5D6B69",
"^  c #466671",
"/  c #486772",
"(  c #496A76",
")  c #4B6D7A",
"_  c #506D75",
"`  c #506C78",
"'  c #4F707D",
"]  c #5F7273",
"[  c #50727E",
"{  c #626663",
"}  c #626862",
"|  c #6F6E6E",
" . c #726E61",
".. c #706E6E",
"X. c #63706D",
"o. c #787264",
"O. c #707168",
"+. c #7B786D",
"@. c #6A7673",
"#. c #827E72",
"$. c #75817D",
"%. c #79847F",
"&. c #868174",
"*. c #8B8374",
"=. c #8E897B",
"-. c #928B7B",
";. c #547682",
":. c #567986",
">. c #597C86",
",. c #577A88",
"<. c #5A7E8D",
"1. c #617D85",
"2. c #5C808D",
"3. c #5C8390",
"4. c #62828C",
"5. c #7F8F91",
"6. c #8C8F85",
"7. c #979183",
"8. c #9D9688",
"9. c #9E998A",
"0. c #819190",
"q. c #879B9C",
"w. c #939890",
"e. c #A59F90",
"r. c #ADA694",
"t. c #AEA897",
"y. c #B2AC9C",
"u. c #B2CFD7",
"i. c #B8D4D6",
"p. c #B5D2DA",
"a. c #C0DDE0",
"s. c #C9E6EC",
"d. c #CBE8EF",
"f. c #C9E7F1",
"g. c #CAE8F0",
/* pixels */
"..| | | | | | | | | | | | | | | | | | | | | | | | | | | | | | | | | | | | | | | | | | | | | | | | | | | | | | | | | | | | | | | ",
".                                                         .           .                     . .         . .                     ",
"o o O O + O O O O O O + O O O O + O + + O O O O O + O O + O O O + O O O O + O O + O + + O O O O O O + o O O O + + O O + O O O O ",
"O % > : > > > > > > > > > > > > > = = > = > > = > > > > > > > > = = = > = > > > = > = = = > > > > > > = > > = > = = > > > > > = ",
"O % : > > > > > > > > * > > > > > > > > > > > > > > > > > > > > > > > > > > > > > > > > > > > > > > > > > > > > > > > > > > > > ",
"O & : : > > > > > > > > > > > * > > > > > > > > > > > > > > > > > > > > > > > > > > > > > > > = > > > > > > > = > > > > > > > > ",
"O & > : > > > : > * > > > > > > * & = = > > > > > = = > > = = = > > = > = = > > = = = = > > = = > = = > > = = = > > = = = = > > ",
"O & > < > & @ O + + O O O O O + O o O O O O O O + O O O + + + o + + O o + O + + O O + O + + + + + O O O + + + O + + O o + O + + ",
"O & < : > # .   .   . . . . o @ $ $ @ o . . . . . . . . . . . X   . . . . . . . . . . . . . . . . . X X   X   X   . . . . . . . ",
"O & : > : # . O X X X X . X O & ; 3 & # . . X X X X . . X X X X . . o . . . . o . . X X X X X X X X X X X X X X . . . . X X X . ",
"O & : : : # X + y a a p 0 & & 8 9 9 3 = 3 t s s a a i i a a a a a i i a i i a a a i a a i a a a a a a a a a a a i w q q q q q q ",
"O & : < : # X @ :.:.:.) h < < ; ; ; ; - 3 M ;.,.:.2.2.:.:.2.>.>.2.>.>.2.:.2.;.) :.:.:.2.:.2.:.,.2.:.>.>.>.>.,.,.' ^ ^ ^ ^ ^ ^ ^ ",
"O & < : : # X @ <.3.<.U < 5 j z j z z 8 - 6 ;.3.2.3.2.3.2.2.3.3.2.2.2.3.3.3.2.( ,.3.3.3.3.<.2.3.2.3.2.3.3.2.3.<.;.^ ( ( ( ( ( ( ",
"o & : : : # . @ 3.<.<.M < S K D H K L L j , ;.3.2.2.3.2.2.2.2.3.2.2.2.2.3.3.3.) :.3.<.3.3.3.2.2.2.2.3.3.3.2.2.3.;.^ ( ( ( ( ( ( ",
"O & : < : # X @ <.3.2.N ; #.-.-.=.=.9.e.K 2 ;.2.2.2.2.2.4.<.2.2.2.2.2.2.2.3.2.) :.<.<.2.,.2.2.2.2.2.2.2.2.2.<.,.;.^ ( ( ( ( ( ( ",
"O & : : : @ X @ <.3.2.Z ; #.r.y.y.y.t.r.L 2 ;.3.2.2.2.2.<.2.2.4.2.2.2.2.3.3.2.^ :.3.<.2.2.2.2.2.2.2.2.2.<.<.3.,.;.( ( ( ( ( ( ( ",
"O & : : : # X @ 3.3.3.M 1 *.t.-. . .=.r.K 1 ;.3.2.2.2.2.4.>.4.>.2.2.<.2.3.3.3.( ;.>.<.2.2.2.4.>.2.2.2.2.<.2.2.<.` ( ( ( ( ( ( ( ",
"O & < : : # X @ 3.2.3.d 1 &.-.G $.@.C 8.K 1 ;.2.2.4.2.<.2.2.<.2.2.2.2.2.<.3.<.( ;.[ <.2.4.2.2.2.2.2.2.2.4.<.2.,.' ( ( ( ( ( ( ( ",
"O & : : : # X @ 2.3.2.M 3 *.o.X.p.u.G &.K 2 ;.3.2.2.<.2.4.<.2.2.>.2.2.2.3.3.3.) >.>.2.2.<.<.4.<.2.2.2.2.<.4.<.,.) ( ( ( ( ( ( ( ",
"o : - : : # X @ 2.2.2.M 3 *.P 5.f.f.~ +.K 2 ;.2.2.<.4.2.2.2.4.<.2.2.2.>.3.<.2.( ,.3.2.2.<.4.2.2.>.2.2.2.2.<.4.,.( ( ( ( ( ( ( ( ",
"O : : : : # . + <.3.3.M 1 *.P q.f.f.} +.K 2 ;.2.2.2.2.<.2.2.2.2.2.2.2.4.2.3.<.) ,.3.2.2.2.4.<.<.2.2.4.<.4.<.4.:.( ( ( ( ( ( ( ( ",
"o & : < : # X @ <.3.3.M 3 *.P q.g.g.} +.J 2 ;.2.2.2.2.4.2.<.4.>.2.2.2.<.2.3.2.) :.<.<.2.2.<.<.4.2.4.<.2.2.2.<.>.( ( ( ( ( ( ( ( ",
"O & : : : # X @ 2.3.3.N 1 *.L q.g.g.J +.J 2 ;.2.2.2.2.2.1.2.2.4.2.<.2.<.2.3.<.) ,.<.<.2.<.4.2.<.2.4.2.2.2.2.2.;.) ( ( ( ( ( ( ( ",
"O & : : < & X @ 2.2.3.M 3 *. .q.g.g.~ +.K 2 ;.3.2.<.4.2.2.2.2.<.2.4.<.4.2.3.<.) ;.,.<.2.4.<.2.4.2.>.2.2.1.2.<.[ ( ( ( ( ( ( ( ( ",
"O & : < : & X @ <.3.3.M 1 *. .q.g.g.} +.J 2 ;.2.2.2.2.2.2.2.<.4.2.1.4.<.2.2.2.) ;.;.3.4.<.2.<.2.2.>.2.2.3.2.<.;.( ( ( ( ( ( ( ( ",
"O & : : : & X + <.3.3.M 1 *. .q.g.g.} +.J 2 ;.2.2.2.2.2.2.<.4.<.2.2.<.4.2.2.2.) ,.3.2.<.1.2.4.<.2.2.2.2.2.2.<.) ( ( ( ( ( ( ( ( ",
"O & : : : % X @ <.3.3.m 1 *.P q.g.g.} +.J 2 ;.2.2.2.2.2.2.4.2.2.2.4.<.<.2.3.2.) ,.3.3.2.3.<.2.<.2.2.2.2.3.3.<.) ( ( ( ( ( ( ( ( ",
"+ & : < : & X @ <.3.3.N 1 *.P q.g.g.} +.K 3 ;.3.2.2.2.2.2.>.4.2.2.2.2.2.2.2.2.) ,.3.<.<.<.4.2.4.2.2.2.>.3.3.<.) ( ( ( ( ( ( ( ( ",
"o & > > > & X @ <.3.3.M 1 *.P q.g.g.{ +.J 2 ;.2.2.2.2.2.2.2.4.<.2.2.2.2.3.3.,.( ,.<.<.<.<.4.<.2.2.2.2.<.<.<.,.) ( ( ( ( ( ( ( ( ",
"O & : < : & X @ <.3.2.M 1 *.P q.g.g.} +.J 2 ;.3.2.2.2.4.2.2.<.2.2.2.2.2.3.3.3.( ;.,.<.<.2.<.4.<.2.2.4.2.<.3.;.( ( ( ( ( ( ( ( ( ",
"O & : > : & . + 2.2.3.M 1 *. .q.g.d.} +.J 2 ;.3.2.2.2.2.2.2.2.2.2.2.2.2.3.3.3.( ;.;.<.2.2.2.2.4.2.2.<.2.2.<.;.( ( ( ( ( ( ( ( ( ",
"O & > > : & . + <.3.3.M 1 *.P q.g.g.{ +.J 2 ;.2.2.2.2.2.4.>.4.2.2.>.2.2.,.3.3.( ,.2.2.2.2.1.2.2.2.1.2.2.<.<.' ( ( ( ( ( ( ( ( ( ",
"O & : : > % X @ 2.2.2.N 3 *.P q.d.d.} +.J 2 ;.3.2.2.2.2.4.>.2.<.2.2.2.2.2.2.2.) :.2.2.2.2.2.2.2.2.2.2.2.<.<.) ( ( ( ( ( ( ( ( ( ",
"O : > : > % X @ 2.3.3.M 3 *.P q.g.d.} +.J 2 ;.3.2.4.>.<.2.4.<.4.2.2.<.4.2.2.2.) 2.2.2.2.2.2.2.2.2.2.2.2.<.,.` ) ( ( ( ( ( ( ( ( ",
"O & < : : &   @ 3.3.3.N 3 &.P q.d.d.} +.J 3 ;.2.2.2.2.4.2.2.<.2.2.2.2.2.2.2.2.) :.3.2.2.2.2.2.2.2.4.2.2.2.:.) ( ( ( ( ( ( ( ( ( ",
"O & : : : % X @ 3.3.2.N 3 &.P 0.s.d.J $.L 2 ;.2.2.2.<.4.<.2.4.<.2.2.2.<.2.2.2.) :.3.2.2.2.2.2.2.2.>.2.2.2.;.( ( ( ( ( ( ( ( ( ( ",
"O : : : > &   @ ,.3.3.d 1 &. .X.i.a.G &.K 2 ;.2.2.2.2.2.4.2.2.2.2.2.2.2.2.3.3.( :.2.2.2.1.2.<.4.2.4.<.2.2.[ ( ( ( ( ( ( ( ( ( ( ",
"o & : : > % X @ 3.3.3.M 1 &.7.G @.$.J 7.c 1 >.2.2.2.2.4.>.4.2.2.2.2.2.2.2.3.3.( :.;.2.2.2.2.2.2.2.>.4.<.2.[ ( ( ( ( ( ( ( ( ( ( ",
"+ & < : > % X @ 2.3.3.M 1 O.w.%.G F =.6.j 6 ;.2.2.2.2.2.<.<.<.4.2.2.2.,.3.3.3.( :.;.>.4.2.2.>.2.2.2.2.<.>.) ( ( ( ( ( ( ( ( ( ( ",
"o : : : > * . @ 2.2.2.( 2 t Q X.X.X.~ Y 1 x 2.2.2.<.4.<.4.2.2.<.2.2.2.2.2.3.3.( ,.3.2.2.2.2.4.2.4.<.2.4.:.( ( ( ( ( ( ( ( ( ( ( ",
"O & > > > & . + 2.3.3.:.d = - > = > = - 7 _ 2.2.2.2.2.2.2.4.2.2.2.2.>.2.2.3.,.) ,.3.3.2.2.>.4.2.2.2.2.2.:.( ( ( ( ( ( ( ( ( ( ( ",
"O & > > > & X @ 3.2.2.3.>.W E F N F W ~ ] 2.3.2.2.2.4.>.2.<.2.2.2.2.2.2.2.3.2.( ,.3.3.2.2.2.2.2.2.2.2.2.' ( ( ( ( ( ( ( ( ( ( ( ",
"o & < > : & . @ 2.2.2.2.4.4.4.1.2.@.2.4.4.3.2.2.2.2.2.2.2.<.<.4.2.2.2.2.3.3.3.) :.3.2.2.2.2.2.2.2.2.3.2.) ( ( ( ( ( ( ( ( ( ( ( ",
"O & : : : & X @ 2.2.2.2.2.2.2.2.2.2.2.2.2.2.2.2.2.2.2.4.2.4.4.>.2.2.2.2.3.3.,.) :.3.2.,.2.2.2.2.2.2.2.:.) ( ) ^ ( ( ( ( ( ( ( ( ",
"O & : : : & . + 2.2.2.2.<.4.2.2.4.2.4.2.4.2.2.2.2.4.2.>.2.2.2.2.>.2.2.2.2.2.3.( :.3.2.2.2.2.2.2.2.2.3.:.) ( ( ( ( ( ( ( ( ( ( ( ",
"O & : : > & o : 2.2.2.2.2.<.2.2.2.>.2.2.2.2.2.2.2.>.2.2.2.2.2.2.2.4.>.4.2.2.2.) ;.' 2.2.2.2.2.2.2.3.2.' ( ( ( ( ( ( ( ( ( ( ( ( ",
"+ & > < & & O $ 2.2.4.>.2.4.2.4.2.2.4.>.2.2.2.4.2.2.2.2.>.2.2.2.2.<.4.2.2.2.2.) :.,.3.2.2.2.:.2.2.2.3.) ( ( ( ( ( ( ( ( ( ( ( ( ",
"O & : : < & . o 2.2.2.4.<.<.>.4.<.2.2.2.2.2.2.2.2.2.2.2.2.2.2.2.2.2.<.2.2.3.2.) :.3.3.2.2.2.2.2.2.2.:.) ( ( ( ( ( ( ( ( ( ( ( ^ ",
"O & < : : & X o <.<.2.2.<.2.2.4.2.4.2.>.4.2.2.<.2.4.<.2.2.2.2.2.>.2.2.2.2.3.<.) <.3.2.2.2.2.2.2.2.<.;.) ( ( ( ( ( ( ( ( ( ( ( ( ",
"o & > : : & X O <.3.2.2.2.2.<.<.2.>.2.2.2.2.4.2.2.2.4.<.:.2.2.2.2.2.2.<.2.3.2.) ,.3.2.2.2.2.2.1.2.<.;.^ ( ( ( ( ( ( ( ( ( ( ( ( ",
"O & > > : % X O <.2.2.2.2.2.4.<.2.4.2.2.2.4.<.>.2.4.<.4.2.2.2.2.2.2.2.2.2.3.<.) ,.2.2.2.<.4.<.<.<.:.) ^ ( ( ( ( ( ( ( ( ( ( ( ( ",
"O : > > : % X o <.2.2.2.<.<.4.2.2.2.2.2.2.<.2.4.<.2.2.>.2.2.2.2.2.2.2.>.3.3.<.) ,.3.2.2.2.<.1.<.<.;.^ ) ( ( ( ( ( ( ( ( ( ( ( ( ",
"O & < : > & . + >.>.>.>.>.>.>.>.>.>.>.>.>.>.>.>.>.>.2.>.>.>.2.$.>.>.>.>.>.>.>.( ;.>.>.>.>.>.>.>.,.) / / / / ^ ^ ^ ^ ^ ^ ^ ^ ^ ^ ",
"O & > > : & . X p b b b b b b b b b n b b b b b b b b b b b b d v v b v v m m k b b b b b b b b v k k k k u h g t k t k t p h h ",
"O & : : : & . . t x l l x l j l x l l l l k x k l l l l h l k p t k h k k k k g h h j j h j l h h h g h r r g r g g t 8 8 g t g ",
"O & : : : & . X ! _ _ _ _ _ _ _ _ _ _ _ _ _ _ _ _ ` _ _ _ _ R N p M R ) ` ` ) U ! ! _ ) _ ` ` ` T I I I I f I f f f f f f f f f ",
"O : : > : % X o x d d d d d d d d d d d d d d d d d d d d d p e x h p d d d p p s v s d d d v s u p i i i i a y i i i i i i y i ",
"O : > > : % X + k h k k x k x p k k x k k x k k k k k k x x r t W b r k x x x x k k k k k x r 0 x k k k h k k k k x k x k k x k ",
"o & > > > & X o F F F F Z Z F Z Z Z Z Z Z Z Z Z F F Z Z Z Z t x n x k Z Z Z F Z Z Z Z Z Z Z k v E V Z Z Z Z Z Z F F F F Z F Z Z ",
"O & > > : % X o n n n n n n n n n n n n n n n n n n n n n n t k N x t n n n n n n n n Z Z b r v Z N Z Z N n Z Z n n n n n n Z n ",
"O & : : > & . O q e e e e e e e e e e e e e e e e e e e e e , e N p 6 q 6 e e e u 0 r 0 0 u 0 u s s s s s s s s s s s s p a p a ",
"O & > : : & . O s d d d d d d v d v d d d d v d d d d d d d u 4 e e i d d d d d s v v d v s u y i y y 0 0 0 a 0 0 y y y y y y y ",
"O : > : > & X + M I I I I I I I U I I U I I U I I U U I I I d , % * d d M I I I I I I I U M s s s a a a a a a a a a a i a i i a ",
"V D D { D A B Z % % = & * = & = * % % % % % % % % % % % % % % % % % % % % % & % & % % % % % % & $ % $ & % % $ $ & $ $ % % % % % "
};
