/* XPM */
static char *result[] = {
/* columns rows colors chars-per-pixel */
"64 64 101 2 ",
"   c #111717",
".  c #161B1B",
"X  c #181F1F",
"o  c #171F20",
"O  c #191F20",
"+  c #172020",
"@  c #192122",
"#  c #222525",
"$  c #272E2E",
"%  c #2A2B2C",
"&  c #273436",
"*  c #2F3131",
"=  c #2B363B",
"-  c #2C393C",
";  c #343935",
":  c #313C3E",
">  c #36403F",
",  c #3C403F",
"<  c #40453F",
"1  c #2F3E42",
"2  c #333E41",
"3  c #2F4045",
"4  c #344245",
"5  c #3C4242",
"6  c #3D4946",
"7  c #35454A",
"8  c #3A4649",
"9  c #37494D",
"0  c #3B4A4C",
"q  c #3C4D52",
"w  c #374F58",
"e  c #3E5155",
"r  c #3E5359",
"t  c #424541",
"y  c #444A46",
"u  c #434D4B",
"i  c #49514D",
"p  c #404E52",
"a  c #445254",
"s  c #4B5554",
"d  c #4C5957",
"f  c #42565A",
"g  c #4A5759",
"h  c #47595D",
"j  c #4D5A5C",
"k  c #515A57",
"l  c #535D5B",
"z  c #445D65",
"x  c #4B5D63",
"c  c #445F69",
"v  c #4D6266",
"b  c #446069",
"n  c #4D646B",
"m  c #566263",
"M  c #536569",
"N  c #566A6C",
"B  c #496672",
"V  c #4C6A75",
"C  c #4B6C79",
"Z  c #546E74",
"A  c #506F78",
"S  c #4E707F",
"D  c #557076",
"F  c #52727E",
"G  c #5F7178",
"H  c #63777D",
"J  c #4E7080",
"K  c #537582",
"L  c #567984",
"P  c #597A84",
"I  c #577C8A",
"U  c #597D8C",
"Y  c #617B80",
"T  c #5F838F",
"R  c #5E8491",
"E  c #71858B",
"W  c #72898D",
"Q  c #7A9297",
"!  c #79939B",
"~  c #7E989E",
"^  c #878989",
"/  c #849CA4",
"(  c #8CA4AD",
")  c #8DAAB0",
"_  c #91ACB2",
"`  c #96B5BB",
"'  c #99B4BC",
"]  c #9DBBC1",
"[  c #A2BFC8",
"{  c #A0C0C7",
"}  c #A2C1C8",
"|  c #AACACF",
" . c #ACCCD2",
".. c #B1D1D9",
"X. c #BCDDE7",
"o. c #C6E9F2",
"O. c #C9EDF6",
"+. c #CBEEF8",
"@. c #CCF2FA",
"#. c #D1F6FF",
"$. c #D2F8FF",
/* pixels */
"^ ^ ^ ^ ^ ^ ^ ^ ^ ^ ^ ^ ^ ^ ^ ^ ^ ^ ^ ^ ^ ^ ^ ^ ^ ^ ^ ^ ^ ^ ^ ^ ^ ^ ^ ^ ^ ^ ^ ^ ^ ^ ^ ^ ^ ^ ^ ^ ^ ^ ^ ^ ^ ^ ^ ^ ^ ^ ^ ^ ^ ^ ^ ^ ",
"2 2 2 : 2 2 2 y 0 8 4 7 0 y 0 0 5 : 2 2 2 : 2 2 2 : 4 u 0 8 4 0 9 u p p 2 2 2 2 4 : : : : 4 > > 6 8 4 6 8 q 2 2 8 2 2 2 2 2 2 2 ",
"1 1 2 1 2 2 = 2 e 9 = 9 w f p 2 & : 4 3 2 2 1 1 1 = & 7 e q - 8 e f g 8 - : 5 5 4 1 1 4 2 4 = & 4 q - 4 q q 2 - : 2 2 2 1 1 2 2 ",
"} } } } [ ( h 1 q 9 - q f f 2 8 H / { } } } } } { ) M - 0 e - 9 f q 2 2 x Q ] } { { { } { _ N : 7 e - 7 r 7 2 j W ' [ [ } } } [ ",
"$.$.$.$.#.+.( 8 9 9 - 9 f q 2 ! X.@.@.$.$.$.$.$.$.O.] q 7 w - 9 f 9 2 E ..o.#.$.$.$.$.$.@.@. .h 7 e > 3 w 4 Y ..o.#.$.$.#.$.$.#.",
"$.$.$.$.@.+.) 9 q 9 - 9 f q 8 ] @.$.$.$.$.$.$.$.$.O.` q 9 q = 9 f 9 4 ' #.$.$.$.$.$.$.$.$.+.} z 7 e - 7 q 1 / +.#.$.$.$.$.$.$.$.",
" . . . .} / h 2 e 9 1 q f q = N _ |  . . . . . .} / h 1 q q = 9 r 9 : M _  . . . . . . .} ~ x = 3 e - 7 w 1 p / |  . . . . . . .",
"7 8 7 8 8 2 1 9 r q 1 q f w 1 1 7 0 7 7 7 7 7 7 7 4 3 7 w q 7 q f q 4 4 9 0 8 8 7 8 7 7 4 4 1 4 q e 4 q q 4 1 7 0 8 7 7 8 7 7 8 ",
"= - - = - 1 2 4 4 4 4 4 7 3 3 1 3 > - - - - 1 = > > 3 4 3 3 9 > 4 4 4 3 2 1 = 1 = 1 = = = - 4 4 4 7 4 7 4 7 3 4 2 - - = = - = - ",
"@ @ @ @ o + + o @ @ + o + @ @ @ + + + + + + @ @ + + + + + + + + o + @ @ o o O O O O @ o @ @ @ o + + + + + + @ @ @ @ @ + @ @ @ @ ",
". .   . . . . . .   . .   . o .   . . . . . .         . + + . . . . . . . . . . . . o . . . . . X . X . X . . . . . . . X . X . ",
"z z h z z z h z z z q 1 1 2 2 = > 7 7 7 7 7 7 7 7 7 9 4 9 3 9 9 7 7 7 7 7 7 7 7 8 9 q f z f f f f f r r r 6 $ $ : q h h f f f h ",
"L F P G P F P L P F z 9 9 8 2 2 > 7 7 7 7 7 7 7 7 7 7 7 > 9 9 > 7 7 8 7 7 7 8 7 8 4 9 q q q q q e e q 0 9 8 8 8 : 8 0 q e 0 e q ",
"p a s s a p i a a q 4 a f a 8 q > 6 e a a a a a r e a e a a e e f p a a a p a s a 2 u u u u u u 6 u u 0 y 4 0 d 6 4 u u u 0 u u ",
"Z A Z N Z Z Z Z N a 5 d l m j k u d l k l l l l l l l l l l l l l l l l l l l l l 6 k l l k l l l l l l d u i d 6 u l l l l l l ",
"R R R R R R R R U n u j s s p p 6 6 i i i i i i i i i i i i i i i p i i i i i a u 2 p i i i i i i i i i i y d m 6 6 i i i i i i ",
"R R R R R R R T L r 6 d a 4 > 9 6 9 > ; > 8 9 0 0 0 0 0 0 9 > e 0 7 9 9 8 q q q e e r r f f a e e e f f r a 6 u 6 e f f f f f f ",
"T T T T R T R R T e > 6 a 6 q b B B b 6 , p f r f f f r f f f d f f f f f f z x v v N N N v v v j v n n n v f u h v n N n n n n ",
"T T T T T T T R T A 4 6 u > z V V C C b a y , < , , > > > , < , , < t t t t t t y y < i y i 6 6 y 6 u u 6 y 0 6 6 u y y i i i y ",
"T T T T T T T T T T 0 d m 4 b V C C C C V b b v z b b z z z v z x b z z x x x Z D D D D D D A b v A D D D D D D D D D D N D D D ",
"T T T T T T T T R P 0 l m 9 b C C C C C C C C C C C C C C C C C C C C C C C F U T T T T T R R T S T R R R R T T T T T T T T T T ",
"T T T T T T T T T P 0 l m 6 b C C C C C C C C C C C C C C C C C C C C C C C K R T T T T T R R T S I R R T R T T T T T T T T T T ",
"T T T T T T T T T F 0 l m 8 b C C C C C C C C C C C C C C C C C C C C C C C I T T T T T R R R T S I R R T R T T T T T T T T T T ",
"T T T T T T T T T T q k m 8 b C C C C C C C C C C C C C C C C C C C C C C S T R T T T T R R R R S I R R T T T T T T T T T T T T ",
"T T T T T T T T T T 6 l m 6 b C C C C C C C C C C C C C C C C C C C C C C K T R T T T T T R T K C T R R W T T T T T T T T T T T ",
"T T T T T T T T T G 0 l m 9 b C C C C C C C C C C C C C C C C C C C C C C L R R T T T T T T T K S T R R R T T T T T T T T T T T ",
"T T T T T T T T T F 0 l m 6 b C C C C C C C C C C C C C B C C C C C C C C T R R T T T T T T T K S I R R T T T T T T T T T T T T ",
"T T T T T T T T T T q l m 6 b C C C C C C C C C C C C C C C C C C C C C J R R R T T T T T R R T C T R R T T T R T T T T T T T T ",
"T T T T T T T T R P 0 m m 6 b C C C C C C C C C C C C C C C C C C C C C K R T T T T T R R R R R S I R R T T T T T T T T T T T T ",
"P T T T T T T T T P 0 l m 6 b C C C C C C C C C C C C C C C C C C C C C T R T T T T T T R R R I S I R R T T T T T T T T T T T T ",
"M T T T T T T T R F 0 l m 6 b C C C C C C C C C C C C C C C C C C C C S T T T T T T T T T R R R S I R R T T T T T T R T T T T T ",
"d T T T T T T T T T 0 l m 0 b C C C C C C C C C C C C C C C C C C C C S T T T T T T R T T T R K S R R R T T T T T T R R T T T R ",
"d Y T T T T T T T F 0 l m 8 b C C C C C C C C C C C C C C C C C C C C L R R T T T T T T T T U I K I R R T T T T T T T T T T T T ",
"s Y T T T T T T T T e l m 8 b C C C C C C C C C B C C C C C C C C C C I R R T T T T T T T R R R J I R R T T T T T T T T T T T T ",
"i Y T T T T T T T P 0 l m 8 b C C C C C C C C C J B C C C C C C C C S I R T T T T T R R T T R U J U R R T T T T T T T T T T T R ",
"i Y R T T T T T T P 0 j m 6 b C C C C C C C C C B J C C C C C J C C J T R T T T T T T R T T R R J U R R T T T T T T T T T T T R ",
"i Y T T T T T T T F 0 l m 6 b C C C C C C C C C C C C C C C C B C C I U R T T T E R R U R R U U J I R R R R T T T T T T T T T R ",
"i H T T T T T T T T 0 l m 8 b S C C C C C C C C C C C C C C C C C C I R R T T T T T R R R R U U J I R R R R T T T T T T T T T R ",
"i Y T T T T T T T P u l m 8 b C C C C C C C C C C C C C C C C C C C I U R R T T T T T T T U U U J I R R R T T T T T T T T T T R ",
"i Y T T T T T T T P e l m 6 b C C C C C C C C C C C C C C C C C C J U U R T T T T T T R R R R U S I R R R R T T T T T T T T T R ",
"i Y T T T T T T R T 6 l m 9 b C C C C C C C C C C C B J C C C C C J U R R T T T T T T T T R R U S T R R T T T T T T T T T R T R ",
"i Y T T T T T T R P 6 l m 6 b C C C C C C C C C C C J B C C C C C K R R R T T T T T T T T R R U S T R T T T T T T T T T T T T R ",
"i H W T T T T T R P q l m 9 b C C C C C C C C C C C C C C C C C C L R R T T T T T T T T T R U U S I R T T T T T T T T T T T T R ",
"i H T T T T T T R P 0 l m 6 b C C C C C C C C C C C C C C C C C A I R R T T T T T T R T R U U U S I R T T T T T T T T T R T R R ",
"k Y R T T T T T R P 0 l v 9 c C C C C C C C C C C C C C C C C C J I T T T T T T T T T T T T U U S I R R T T T T T T T T T T T R ",
"i Y T T T T T T T P u l v 3 c C C C C C C C C C C C C C C C C C A U T T T T T T T T T T T T R U S I R R T T T T T T T T T T R R ",
"i H R T T T T T T P 0 j m 7 c C C C C C C C C C C C C C C C C C J U U T T T T T T T T T T T R U S I R R T T T T T T T T T R W R ",
"i H R T T T T T T T 0 l m 0 c C C C C C C C C C C C C C C C J V J U R T T T T T T R T T T R R R J R R R T T T T T T T T T R R R ",
"i H W T T T T T T L 0 l m 0 b A C C C V V J C C C C C C C C C B K U T T T T T T R R U R R U U U S I R R T T T T T T T T T T T R ",
"i H T T T T T T T P 0 l m 0 b A C C C C J V C C C C C C C C C C K T T T T T T T R U W R R U U U S I R R T T T T T T T T T T T R ",
"i Y T T T T R R R P 0 l m 6 b C C C C C V C C C C C C C C C C J L U T T T T R R R R R R R U R U S I R R R T R R T T T T T T T R ",
"i Y R T T T R R R P e l m 7 b C C C C C C C C C C C C C C C C J L R R R T R R R U R R R R R U U S R R R R R R R R R R T R T R R ",
"d T T R R R R R T T 0 j m 9 b C C C C C C C C C C C C C C V C B I R R R R R R R R R R R R R R U S I R R R R R R R R R R R R R R ",
"F T T T R R R R T P e l m 9 b C V B C C C V C B C C C B C C C B L U R R R R R R R R R R U U U U J L R R R R R R R R R R R R R R ",
"z z z b b b z z b r 4 u s - 7 w w w w w w w w w w w w w w w w w z c c c z z c c c c n c z z z z z z z z c z z b b c z z z z z z ",
"+ + + + + + + + + + . X + . + + o o o o o O o O o o o o o o o o o @ o o o o o O O O O O o o o O + + + + + + + + + + + + o o o o ",
".   . . . . . . . . . .   . . . . . . . .   . . . . . . . . . . . .   . . . .   . . . . . . . . .   . . . . . .       . .   . . ",
"% % % % % % % % $ $ % % % % % % % % % % % % % % % % % % % % % % % % % % % % % % % % % % % % % % % % % % % % % % $ $ $ $ % % % % ",
"* * * * * * * * * * * * * * % * * * * * * * * * % * * * * * * * * * * * * * * * * * * * * * * * * * * * * * * * & * * * * * * * ",
"* * * * * * * * * * * * * * * * * * * * * * * * * * * * * * * * * * * * * * * * * * * * * * * * * * * * * * * * * * * * * * * * ",
"* * * * * * * * * * * * * * * * * * * * * * * * * * * * * * * * * * * * * * * * * * * * * * * * * * * * * * * * * * * * * * * * ",
"# # # # # # # # # # # # # # # # # # # # # # # # # # # # # # # # # # # # # # # # # # # # # # # # # # # # # # # # # # # # # # # # ",
"        .           .           .     .                       .           .           .                 .     .                 ",
", , , , , 2 t , , , 2 t 2 t 5 5 , , , , 5 , 5 5 , , , , , t 2 , 5 , , t 2 5 , 2 , , , 5 5 , 5 , , , , , , , 2 , , , t 2 t < : < "
};
