/* XPM */
static char *result[] = {
/* columns rows colors chars-per-pixel */
"64 64 101 2 ",
"   c #111717",
".  c #161B1B",
"X  c #181F1F",
"o  c #171F20",
"O  c #191F20",
"+  c #172020",
"@  c #192122",
"#  c #222525",
"$  c #272E2E",
"%  c #2A2B2C",
"&  c #273436",
"*  c #2F3131",
"=  c #2B363B",
"-  c #2C393C",
";  c #343935",
":  c #313C3E",
">  c #36403F",
",  c #3C403F",
"<  c #40453F",
"1  c #2F3E42",
"2  c #333E41",
"3  c #2F4045",
"4  c #344245",
"5  c #3C4242",
"6  c #3D4946",
"7  c #35454A",
"8  c #3A4649",
"9  c #37494D",
"0  c #3B4A4C",
"q  c #3C4D52",
"w  c #374F58",
"e  c #3E5155",
"r  c #3E5359",
"t  c #424541",
"y  c #444A46",
"u  c #434D4B",
"i  c #49514D",
"p  c #404E52",
"a  c #445254",
"s  c #4B5554",
"d  c #4C5957",
"f  c #42565A",
"g  c #47595D",
"h  c #4D5A5C",
"j  c #515A57",
"k  c #535D5B",
"l  c #445D65",
"z  c #4B5D63",
"x  c #445F69",
"c  c #4D6266",
"v  c #446069",
"b  c #4D646B",
"n  c #566263",
"m  c #536569",
"M  c #566A6C",
"N  c #496672",
"B  c #4C6A75",
"V  c #4B6C79",
"C  c #546E74",
"Z  c #506F78",
"A  c #4E707F",
"S  c #557076",
"D  c #52727E",
"F  c #5F7178",
"G  c #63777D",
"H  c #4E7080",
"J  c #537582",
"K  c #567984",
"L  c #597A84",
"P  c #577C8A",
"I  c #597D8C",
"U  c #617B80",
"Y  c #5F838F",
"T  c #5E8491",
"R  c #71858B",
"E  c #72898D",
"W  c #7A9297",
"Q  c #7E989E",
"!  c #878989",
"~  c #849CA4",
"^  c #8CA4AD",
"/  c #8DAAB0",
"(  c #91ACB2",
")  c #96B5BB",
"_  c #99B4BC",
"`  c #9DBBC1",
"'  c #A2BFC7",
"]  c #A2BFC8",
"[  c #A0C0C7",
"{  c #A2C1C8",
"}  c #AACACF",
"|  c #AAC7D0",
" . c #ACCCD2",
".. c #B1D1D9",
"X. c #BCDDE7",
"o. c #C6E9F2",
"O. c #C9EDF6",
"+. c #CBEEF8",
"@. c #CCF2FA",
"#. c #D1F6FF",
"$. c #D2F8FF",
/* pixels */
"5 5 5 5 , , t 2 , t 2 t , , 5 5 2 5 , t 2 , t 2 t , , 5 : t , , , , 5 , 5 , , , , , , , 5 5 , 5 5 5 , 5 , , , , , , 5 5 , 5 5 , ",
"                                                                        .                                         .             ",
"# # # # # # # # # # # # # # # # # # # # # # # # # # # # # # # # # # # # # # # # # # # # # # # # # # # # # # # # # # # # # # # # ",
"* * * * * * * * * * * * * * * * * * * * * * * * * * * * * * * * * * * * * * * * * * * * * * * * * * * * * * * * * * * * * * * * ",
"* * * * * * * * * * * * * * * * * * * * * * * * * * * * * * * * * * * * * * * * * * * * * * * * * * * * * * * * * * * * * * * * ",
"* * * * * * * * * * * * * * * * * * * * * * * * * * * * * * * * * * * * * * * * * * * * * * * * * * * * * * * * * * * % * * * * ",
"% % % % % % % % % % % % % % % % % % % % % % % % % % % % % % % % % % % % % % % % % % % % % % % % % % % % % % % % % % % % % % % % ",
". .   . . .   . . . . . . . . . . .   . . . . . . . . . . . . . . . . . . . . . . .   O   .     O     O   . . . . . . . . . . . ",
"+ + + + X X X X . O @ O @ + + + O O O o o o o o + + + + o O O O O O o o o o o o o o o o o o o o o o . o o . + @ O O O O O O O O ",
"l l v v v l l c l l x x l l l l x N x x l l l x l l x x x x x l w w w w w w w w w w w w w w w w w 7 1 s u > l v l l x N x x x x ",
"T T T T Y Y T T I T T T T T K J I I T T T T T T T T T T I T I I V V N B V N V V N V N V V V V N V x 0 n h q L T I I T T Y T I D ",
"T T T T T T T T T T T T T T P H I I T T T T T T T T T T T T I P V B V V V V V V H V V V V V V V V x 0 n k q L T I T T T T T I h ",
"T T T T T T Y T T T Y T T T P H I I T T Y T Y T T T Y T Y T T P B V V V V V V V V V V V V V V V V x 8 n k q L T Y Y Y Y T T U i ",
"T T Y T Y Y Y Y T Y Y Y T T P H I I T T Y Y Y Y T T Y Y Y Y T J H V V V V V V V V V V V V V V V V x 8 n k 0 L T Y Y Y Y Y T G i ",
"T Y Y Y Y Y Y Y T T Y Y T T P H P P Y Y Y Y Y Y Y Y Y Y Y Y I J V V V V V V V V V V V V V V V V V v 8 n k q U T Y Y Y Y Y Y U i ",
"T Y Y Y Y Y Y Y Y Y T T T T P A L I T Y Y Y Y Y Y Y Y Y Y Y I J B V V V V V V V V V V V V V V V V v 8 n k u I T Y Y Y Y Y Y G i ",
"T Y Y Y Y Y Y Y Y Y Y Y T T P H T T T T T Y Y Y Y Y Y Y Y Y I J V V V V V V V V V V V V V V V V V v 0 n k 0 Y Y Y Y Y Y Y Y U i ",
"T Y Y Y Y Y Y Y Y Y Y Y T T P A T T T T T T Y Y Y Y Y Y Y Y I H V V V V V V V V V V V V V V V V Z v 8 n k q D Y Y Y Y Y Y Y U i ",
"T Y Y Y Y Y Y Y Y Y Y Y T T Y A P T P T Y Y Y Y Y Y Y Y Y Y U H V V N V V V V V V V V V V V V V V v 8 n k 0 L Y Y Y Y Y Y Y U i ",
"T T Y Y Y Y Y Y Y Y Y Y T T K A P T T T Y Y Y Y Y Y Y Y Y Y I H V V V V V V V V V V V V V V V V V l 0 n k u L Y Y Y Y Y Y E U i ",
"Y Y Y Y Y Y Y Y Y Y Y Y T T P A H J T Y Y Y Y Y Y Y Y Y T T P V V V V V V V V V V V V V V V V V V v 8 n k u L T Y Y Y Y Y Y G i ",
"Y Y Y Y Y Y Y Y Y Y Y Y T T P H T T T Y Y Y Y Y Y Y Y T T T J V V V V V V V V V V V V V V V V V V v 8 n k q L T Y Y Y Y Y Y U i ",
"T Y Y Y Y Y Y Y T Y T T T T P H T T Y Y Y Y Y Y T Y T T T T J V V V V V V V V V V V V V V V V V V v 8 n k q L T Y Y Y Y Y Y U i ",
"T Y Y Y Y Y Y Y T T T T T T P A P T T Y Y Y Y Y I T T T T T H V V V V V V V V V V V V V V V V V V v 8 n k 0 L T Y Y Y Y Y Y U i ",
"T Y Y Y Y Y Y Y Y Y Y Y T T T A P P T T Y Y Y Y Y Y Y Y T I H V V V V V V V V V V V V V V V V V V v 0 n k 0 L Y Y Y Y Y Y Y U i ",
"T Y Y Y Y Y Y Y Y T Y Y T T P A P P Y Y Y Y Y Y Y Y Y Y I P H V V V V V V V V V V V V V V V V V V v 0 n k 0 L Y Y Y Y Y Y Y G j ",
"T Y Y Y Y T Y Y Y T Y Y T T P A P I T Y Y Y Y Y Y Y Y T I P V V V V V V V V V V V V V V V V V V V v 6 n k 0 D Y Y Y Y Y Y Y U i ",
"T Y Y Y Y Y Y Y Y Y Y Y T T P A T T Y Y Y Y Y Y Y Y Y T T K V V V V V V V V V V V V V V V V V V V v 6 n n 0 Y Y Y Y Y Y Y R U i ",
"T Y Y T Y Y Y Y Y Y Y Y T T P A P T Y Y Y Y Y Y Y Y Y T P H V V V V V V V V V V V V V V V V V V V v 6 n k 0 Y Y Y Y Y Y Y Y G i ",
"T Y Y Y Y Y Y T Y Y Y Y Y T Y A T T T T Y Y Y Y Y Y Y T P A V V V V V V V V V V B V V V V V V V V v 0 n k e D Y Y Y Y Y Y Y U i ",
"T Y Y Y Y Y Y Y Y Y T Y Y T Y A T T T T Y Y Y Y Y Y Y T P V V V V V V V V V V V V V V V V V V V V v 0 n k 0 Y Y Y Y Y Y Y Y U s ",
"T Y Y Y Y Y Y Y Y Y Y Y Y T Y V J Y T T Y Y Y Y Y Y Y Y K V V V V V V V V V V V V V V V V V V V V v 6 n k i D Y Y Y Y Y Y Y U i ",
"T Y Y Y Y Y Y Y Y Y Y Y T T P H I U Y Y Y Y Y Y Y Y Y T H V V V V V V V V V V V V V V V V V V V V v 9 c k 6 L T Y Y Y Y Y Y U j ",
"T T Y Y Y Y Y Y Y Y Y Y T T P H I T T Y Y Y Y Y Y Y Y I H V V V V V V V V V V V V V V V V V V V V v > c k e L T Y Y Y T Y Y Y M ",
"T T Y Y Y T T Y Y Y Y Y T T P H T T T Y Y Y Y Y Y Y T I H V V V V V V V V V V V V V V V V V V V Z v 6 m k 6 L Y Y Y Y Y Y Y Y K ",
"T Y Y Y Y Y Y Y Y Y T T T T P H T T T Y Y Y Y Y T T I J V Z V V V V V V V V V V V V V V V V V V Z v > n k e L T Y Y Y Y Y Y Y Y ",
"Y Y Y Y Y Y Y Y T Y Y Y T T Y A I T T T Y Y Y Y T T T J V V V V V V V V V V V V V V V V V V V V Z v 6 c k e L T Y Y Y Y Y Y Y Y ",
"Y Y Y Y Y Y Y Y Y Y Y Y T T P A P T T T Y Y Y Y T T I Z V V V V V V V V V V V V V V V V V V V V V v 6 n k 0 L T Y Y Y Y Y Y Y Y ",
"Y Y Y Y Y T Y Y Y Y Y Y T T P A J K T Y Y Y I T T T I V V V V V V V V V V V V V V V V V V V V V V v 9 n k 0 L T Y Y Y Y Y Y Y Y ",
"Y Y Y Y Y Y Y Y Y Y Y Y T T P A P Y T Y Y T T T T I K V V V V V V V V V V V V V V V V V V V V V V v 6 c k 0 L T Y Y Y Y Y Y Y Y ",
"Y Y Y Y Y Y Y Y Y Y Y Y T T P A Y T Y Y Y Y Y Y I I J V V V V V V V V V V V V V V V V V V V V V V v 9 n k 0 L T Y Y Y Y Y Y Y Y ",
"Y Y Y Y Y Y Y Y Y Y Y Y T T P A T T T Y Y Y Y Y I P H Z V V V V V V V V V V V V V V V V V V V V V v 6 n k 0 L Y Y Y Y Y Y Y Y Y ",
"Y Y Y Y Y Y Y Y Y Y Y Y T T T A P T T Y Y Y Y Y I K V V V V V V V V V V V V Z Z V V V V V V V V V v 6 n k 0 L T Y Y Y Y Y Y Y Y ",
"Y Y Y Y Y Y Y Y Y Y Y Y T T Y A T T T T Y Y Y Y I J V V V V V V V V V V V V V Z V V V V V V V V V v 6 n j e L T Y Y Y Y Y Y Y Y ",
"S S S S S S S S S S S S S D B v S S S S S S S C M x z x l l z v w v c c l l c l l l c Z V V V V V v 6 k d e L T T Y Y Y Y Y Y Y ",
"y y i u i y y y 6 0 6 y y u y y y y y u u y y u y t t t < < < 5 > > , > , > < > > > 6 e v V Z Z B f > 0 6 6 Z T T Y Y Y Y Y Y Y ",
"M b b m m b c f q s c b b b c h n c b b b b m c z g g f f f a r f f f f d f f r f f e > > v N N v w 0 a 6 > r L T Y Y Y Y Y Y Y ",
"f f f f f f e 6 u y e f f f a q a f a f f f a p 0 q 9 0 9 0 q 8 w 9 9 9 0 0 0 0 6 9 6 > > > 0 > 0 > 6 a d > f Y T T Y T Y T Y Y ",
"i i i i i i 6 6 n d 6 i i i i i i i a i i i 4 y s i i a i i i i i i i s i i s p i i i i i i y 6 a e d s d 6 c T T T T T T T T T ",
"k k k k k k u y h i i j j k k k k k k k k d 6 k k k k k k k k k k k k k k k k k k k k k k k s u d d n k d 6 a C B C C M C C C S ",
"u 6 u u 0 u 4 5 d u 4 6 u u 0 u u u u u u 0 4 a s a a a p f a a a a a a a a p a a a a a a a 0 > 0 4 f f a 8 0 a p u s s a d a a ",
"q q q q q q 6 > 0 4 9 9 0 q q q 9 q q q 0 0 4 8 7 7 7 4 7 7 9 1 7 4 7 7 4 4 7 7 7 7 7 7 4 9 4 3 4 > 4 0 9 l D D K K K D L F D D ",
"f f f f f f q ; $ $ 9 r r f f f f f l g g q 9 0 7 7 4 4 7 7 7 7 7 7 7 7 7 7 7 7 7 7 7 7 7 7 7 - - > 1 1 1 q l l l g l l l g v g ",
"X X . X X X . .   . . . X . X X . . . . . . . . . . . . . . . o . . . . . . . . . . . . . . . . . . . . . . . . . . . . . . . . ",
"+ + + + X X @ @ @ @ + @ @ @ + + + + @ @ X @ @ @ O O @ O o o @ o O o O O + + + @ @ @ + + @ @ @ @ X + + + o @ + + + + + + @ @ + @ ",
"- - - - - - - 4 4 4 7 4 4 4 4 4 4 4 - - = - - = = 1 1 1 1 7 7 4 7 7 7 1 3 1 1 - - = - - - = 1 1 4 3 4 4 4 3 7 7 4 3 - - - - - - ",
"0 8 7 8 7 8 8 q 0 > 3 e 9 7 e 9 3 1 1 4 9 7 9 4 7 0 q 0 4 4 q f q 4 q w 7 1 1 7 7 8 7 8 7 8 0 7 3 - r f e 3 q r 9 - 2 7 8 7 8 7 ",
"}  . . . . . .| ^ e = q 7 1 e 3 - c Q [  . . . . . .| ( m - q r 7 1 q w 1 z ~ |  . . . . . .| ( M & e f 9 - 9 e 4 g ~ ]  . . . .",
"$.$.$.$.$.$.$.$.O.^ - q 7 - e 7 g { O.#.$.$.$.$.$.$.$.@._ 4 9 r 7 = q 9 q ) o.@.$.$.$.$.$.$.$.@.) e e f 9 - 9 q 0 / O.@.$.$.$.$.",
"$.$.$.$.$.$.@.o...F 3 q 7 1 r 3 h } @.$.$.$.$.$.$.$.o...R 2 0 r 8 1 q 7 q ` +.$.$.$.$.$.$.$.O.X.W 3 e r 9 - 9 9 7 ^ +.#.$.$.$.$.",
"' { { { { { ) E z 4 7 e 7 - e 9 : M ( [ { { { { { _ W n 2 2 q r 9 - q q - m / [ ] ] { { ] ] ~ F 9 4 p f 9 - 9 e - h ^ ' { { { { ",
"2 1 1 1 1 2 2 - = 2 q q 7 - q 4 & = : > 1 1 1 2 4 4 - = 8 g g q 9 = q e 7 & = 1 2 2 1 1 2 2 2 ; 4 q p r 0 = 9 e 4 = : 4 2 1 1 1 ",
": 2 2 2 2 : : 4 4 5 0 0 5 4 0 8 > 4 4 2 2 2 : > : 4 4 5 u a u 8 6 4 8 0 0 > : 4 2 2 2 2 2 2 2 2 8 p 0 0 8 4 8 u 8 2 2 : 2 2 2 2 ",
"! ! ! ! ! ! ! ! ! ! ! ! ! ! ! ! ! ! ! ! ! ! ! ! ! ! ! ! ! ! ! ! ! ! ! ! ! ! ! ! ! ! ! ! ! ! ! ! ! ! ! ! ! ! ! ! ! ! ! ! ! ! ! ! "
};
