/* XPM */
static char *result[] = {
/* columns rows colors chars-per-pixel */
"64 64 126 2 ",
"   c #131717",
".  c #141817",
"X  c #161A1B",
"o  c #191D1C",
"O  c #171E21",
"+  c #1E2324",
"@  c #1E272A",
"#  c #1E282B",
"$  c #222726",
"%  c #252929",
"&  c #2A2C2C",
"*  c #29312F",
"=  c #32332D",
"-  c #2F2F30",
";  c #273034",
":  c #2E3031",
">  c #2E3A3C",
",  c #343633",
"<  c #303A37",
"1  c #3C3C35",
"2  c #333C3B",
"3  c #3A3F3D",
"4  c #35433F",
"5  c #3D413C",
"6  c #434137",
"7  c #43423A",
"8  c #48463C",
"9  c #2E3B40",
"0  c #343F42",
"q  c #383E44",
"w  c #353D4C",
"e  c #354143",
"r  c #3A4442",
"t  c #374846",
"y  c #3D4846",
"u  c #35424B",
"i  c #3B4248",
"p  c #37494B",
"a  c #3C4B4B",
"s  c #354750",
"d  c #3B4452",
"f  c #374C56",
"g  c #3C4C54",
"h  c #3E4C5A",
"j  c #3E5156",
"k  c #3F535A",
"l  c #434641",
"z  c #454946",
"x  c #4B4943",
"c  c #434C4B",
"v  c #494D48",
"b  c #4A524F",
"n  c #575449",
"m  c #5A574D",
"M  c #444E51",
"N  c #414E5C",
"B  c #435154",
"V  c #4A5353",
"C  c #42545B",
"Z  c #4D5759",
"A  c #45595E",
"S  c #4C595C",
"D  c #565552",
"F  c #545851",
"G  c #595B53",
"H  c #525C5C",
"J  c #5C5E5A",
"K  c #5E605A",
"L  c #61615A",
"P  c #455662",
"I  c #455C65",
"U  c #4A5D64",
"Y  c #475D68",
"T  c #4A5C69",
"R  c #535E60",
"E  c #4B6067",
"W  c #4C626C",
"Q  c #566264",
"!  c #50656F",
"~  c #4E6772",
"^  c #4F6972",
"/  c #506673",
"(  c #546C74",
")  c #5A6E75",
"_  c #556D79",
"`  c #57707A",
"'  c #5A737E",
"]  c #646361",
"[  c #666A63",
"{  c #736F63",
"}  c #6D726C",
"|  c #70726C",
" . c #617273",
".. c #6E7773",
"X. c #6E7873",
"o. c #747B74",
"O. c #7A7E76",
"+. c #857F72",
"@. c #7E827C",
"#. c #5B7683",
"$. c #5E7A86",
"%. c #5F7B88",
"&. c #627B84",
"*. c #697D81",
"=. c #617D88",
"-. c #7C8683",
";. c #868686",
":. c #8A8C85",
">. c #848C89",
",. c #8C928C",
"<. c #92948B",
"1. c #97998F",
"2. c #939A94",
"3. c #9F9E94",
"4. c #A09E93",
"5. c #9CA09A",
"6. c #A9A69D",
"7. c #A8A8A2",
"8. c #A5B6B3",
"9. c #A7B6B8",
"0. c #A8BAB8",
"q. c #B3C1C0",
"w. c #C4D6DB",
"e. c #C7D9DD",
"r. c #D3E4E5",
"t. c #D6E7EC",
/* pixels */
";.;.;.;.;.;.;.;.;.;.;.;.;.;.;.;.;.;.;.;.;.;.;.;.;.;.;.;.;.;.;.;.;.;.;.;.;.;.;.;.;.;.;.;.;.;.;.;.;.;.;.;.;.;.;.;.;.;.;.;.;.;.;.;.",
"$ $ $ $ $ $ $ $ $ $ % + + % $ $ $ $ $ $ $ $ $ $ $ $ $ $ $ + $ $ $ $ % + + % $ $ $ $ $ $ $ $ $ $ $ $ $ $ $ + $ $ $ $ % + + % % + ",
"X X X o X O X O X X X O X O X X X O X X X X O X X X X O X X O O O X O X X O X X X O O X X X O   O   O X   O O O O X X O X X X   ",
"& & & & & & & - & & & & & & & & & % - - & & & & & & & & & & & - & & & & & & & & & & % - & & & & & & & & & & & - & & & & & & % X ",
"- : : : : : - - - - - , - - - - - - - : : : : : - - : : : : - - - - - - - - - - - - - , - - - - - - - - - - - - ; - , : - - - X ",
": : : : : : - - - - - - - - - - - - - : : : : ; - - : : - - - - - - , - - - - - - - : : - - , - - - - - - - - - : - & : - - - o ",
": - - - : : - - - - - - - - - - - - & , : : ; ; - - - - - - - - - - - - - - - - - - - - - - & - - - - - - - - - - ; ; ; - - & o ",
"$ + + + + + + + + % + + + + + + $ + + + + + # O + + + + $ + + + + % + + + + + + + $ + + + + $ + + + + + % + + + + $ - - - - & o ",
"        . . . . X X       X     O O O       O         O . . O O                                                   X ; * * - & o ",
"O + # O + # + # + + # + O + # # # # # # # # # # # O O # # # # # % @ @ @ @ @ @ @ @ @ @ @ @ + o $ $ $ X + @ @ $ @ + X & : , & & o ",
"s f f s k k t p N P T C 9 k T Y I I I I I I I I f 9 f I I I I I Y Y Y Y Y Y P Y I I I P C a = x x 8 * r P U U I 9 . ; ; : : & o ",
"I W W E ` ` a ( =.&.&._ p / $.#.#.#.#.#.#.#.#.#.~ s I #.#.-.#.#.#.#.#.#.#.#.#.#.#.#.#.( N 3 = , 1 1 = 5 S ) #.#.j . & : : : - o ",
"I ~ ~ ~ ^ ^ f ( %.%.-.` r ( -.#.%.%.%.%.%.%.%.%.W u ^ -.%.%.%.%.%.%.%.=.=.%.=.=.%.%.=.Z - , 1 1 6 8 6 = 1 U =.=.k X - - : * & o ",
"W ^ ~ W ^ ^ f ( %.%.%._ 4 ( -.%.%.%.-.%.%.%.%.#.W s ^ #.=.=.-.%.%.%.=.=.=.=.=.=.%.%. .r , D m m n m n 7 , Z =.=.j X & - : : & o ",
"I ~ ^ W ^ -.f ^ %.%.#.^ s ^ #.%.%.%.%.%.%.%.#.-.Y s ^ -.=.=.%.%.=.=.=.=.=.=.=.=.=.=.` r M } { { { { +.| r V =.=.B X - - - & & o ",
"I ~ ^ ~ ^ ^ f ^ %.-.-.^ s ~ #.-.%.%.%.%.%.-.#.-.~ s ^ #.=.=.%.%.=.=.=.=.=.=.=.=.=.=. .3 D ,.3.3.4.4.6.,.r V &.=.k . & - , , * o ",
"W ^ ^ ~ ^ ~ a ( =.=.=.#.t ^ =.=.=.=.=.=.=.=.=.=.W s ^ -.#.#.%.%.=.=.=.%.%.%.%.%.$.#. .5 F 1.7.5.4.5.7.,.y b X.-.f   & , - : % X ",
"I ^ ^ ^ ~ W z ( =.=.=.#.t ^ =.=.=.=.=.=.=.=.=.=.W s ^ -.%.%.%.%.=.=.=.%.%.%.%.%.-.-. .5 F 1.:.K G D :.,.r b =.%.k X * : - : & o ",
"W ^ ^ ^ ^ W z ( =.=.=.^ t ^ @.=.=.=.=.=.=.=.=.=.I s ^ %.%.%.-.%.=.=.%.%.%.-.%.%.#.#. .5 F <.K } 3.-.| >.r b %.%.k X ; : : : % o ",
"I ^ ^ ^ ^ E 8 ( =.=.=.` t ^ $.$.=.=.=.=.=.=.=.=.^ f ^ #.%.%.%.%.=.=.%.%.%.%.%.-.#.-. .5 F @.K q.r.9.J o.y B #.%.k   & : : = % o ",
"W ~ ~ ~ ~ E l ( =.=.=.` f ^ -.%.=.=.=.=.=.=.=.=.^ s ^ #.%.%.=.=.=.=.=.=.%.%.%.%.-.%.^ s b @.G q.t.9.G ..i b X.-.k X & - * - & o ",
"Y ~ ~ ~ ~ E 8 ( =.%.=.#.t ^ %.%.=.=.=.=.=.=.=.=.^ 9 ^ -.%.-.=.=.=.=.=.=.%.%.%.%.#.%.` e n @.K w.t.0.G ..r b &.=.j . - , , & % o ",
"W ~ ~ ~ ~ E l ( %.%.-.^ t ^ %.%.=.=.=.=.=.=.=.$.^ t ^ =.%.%.=.=.=.=.=.=.%.%.#.#.#.-.( 4 F @.K w.t.0.G ..r b *.=.B . - : & , % o ",
"E ~ ^ ~ ~ E 7 ( %.%.%.^ t ^ %.%.=.=.=.=.=.=.=.=.^ f ` =.%.%.=.=.=.=.=.=.#.-.%.#.-.-. .5 n @.L e.t.0.G ..l b &.=.k X & : - = % o ",
"W ~ ~ ~ ~ T 7 ( =.$.=._ t ^ -.%.=.=.=.=.=.=.=.$.^ t ^ $.=.=.=.=.=.=.=.=.=.=.=.=.-.#.^ 4 V @.L e.t.0.G X.y B #.%.k X - - - : % o ",
"Y ~ ~ ~ / T l ( $.=.=.` s ^ #.%.=.=.=.=.=.$.=.$.^ t ^ =.=.=.=.=.=.=.=.=.=.=.=.=.%.#.` t F @.L e.t.0.G X.r B $.-.B   & - : : & o ",
"W ~ ~ ~ ~ T y ( $.=.=.` 9 ^ %.%.=.=.=.=.=.=.=.=.I s ^ -.=.=.=.%.=.=.=.=.=.=.=.=.%.-. .5 F @.G e.t.0.G X.y b #.%.k X & - , * % o ",
"E ~ ~ ~ / U y R $.=.=.` s ~ -.%.=.=.=.=.=.=.=.=.^ f ^ $.=.=.=.%.=.=.=.=.=.=.=.=.#.-. .5 F @.K w.t.0.G o.5 b %.%.k X & , & = % o ",
"E ~ ~ ~ ~ E r U $.=.%.^ t ^ %.%.=.=.$.@.$.$.=.=.^ t ^ %.%.%.%.%.=.=.=.=.=.=.=.=.&.$. .5 F O.L e.t.0.G X.l b &.-.B   & - - : & o ",
"E ~ ~ ~ ~ E r S $.%.-._ t ^ #.-.=.=.=.=.=.=.=.=.^ 9 ^ -.%.%.%.%.=.=.=.=.=.=.=.=.=.=. .5 F O.L e.t.0.G ..r b X.%.B X - - : : % o ",
"W ~ ~ ~ ~ E p U #.%.%.` t ( -.#.=.$.=.=.=.=.$.=.^ s ^ #.%.%.%.%.-.%.=.=.=.=.=.=.=.=. .5 F @.K e.t.0.G X.r b &.=.k X & , , * % o ",
"Y ~ ~ ~ ~ E i A _ %.%.` 4 ( #.-.=.=.=.=.=.=.=.=.I s ^ -.%.-.%.%.%.%.=.=.=.=.=.=.=.=. .5 n O.L e.t.0.G ..l b &.%.k X - - & = % o ",
"E ^ ^ ^ ( E 4 A ^ %.-.` f ^ %.%.=.=.=.=.=.=.=.=.Y s ^ %.%.%.-.%.%.%.=.=.=.=.=.=.-.#.^ 4 A @.K e.r.0.G @.4 V @.#.f   * : * * & o ",
"E ^ ^ ^ ^ E 4 A ^ #.%.^ t ^ %.%.=.=.=.=.=.=.=.=.~ f _ %.%.%.%.%.=.%.=.=.=.=.=.=.%.%.#.4 b @.K e.t.0.n @.4 j @.-.f O * * , * % o ",
"E ^ ^ E E B 4 I ^ #.#.^ t ^ %.%.=.=.=.=.=.=.=.=.~ f ~ %.%.%.%.%.=.=.=.=.=.=.=.=.#.%.@.4 F @.G e.r.8.F @.p j %.%.k   * * & = & o ",
"I ^ ^ ^ S 4 f W ^ #.-.^ t ^ -.%.=.=.=.=.=.=.=.=.%.f f #.#.-.%.%.=.=.=.=.=.=.=.=.` @.^ 4 F @.G e.t.8.y @.9 f -.#.k O * * , = % o ",
"E ~ ~ I 4 f I ^ ^ ^ %.^ t ^ -.%.=.=.=.=.%.%.%.=.%.~ s Y #.%.%.%.=.=.=.=.=.=.=.=.%.%.` 4 n @.G w.t.0.G @.4 b -.#.B X & , - - % o ",
"E ~ E t f I ^ ^ ^ ^ #.#.9 ^ %.%.=.=.=.=.%.%.%.=.%.%.f f #.%.%.%.=.=.=.=.=.=.=.=.#.#.@.9 F :.[ 8.r.8.[ -.4 b #.#.k X & - - - % o ",
"I E y r I ^ ^ ^ ^ ^ #.^ s ^ %.%.=.=.=.=.%.%.%.%.%.%.#.w Y #.#.-.=.=.=.=.=.=.=.=.#.-.@.5 v 2.@.@.0.@.[ @.4 F -.#.B . - - : = & o ",
"A y 5 A ^ ^ ^ ^ ^ ^ %.^ s ^ %.%.=.=.=.=.%.%.%.%.%.%.#.d s #.%.%.=.=.=.=.=.=.=.=.^ @.@.4 4 <.<.G K m :.@.5 F -.-.k X - - * * % o ",
"5 r P W ^ ^ ~ ~ ^ ^ ( ^ 4 ^ #.%.=.=.=.=.=.=.=.&.%.%.%.^ f I %.%.=.$.=.=.=.=.%.%.%.%.-.f 4 K @.@.L ] O.J , Q =.=.k   - - : : % o ",
"5 U W ~ ^ ^ ^ ~ ^ ^ ^ E 4 ( #.-.=.=.=.=.=.=.=.=.%.%.%.%.f f ~ %.$.=.=.=.=.=.-.%.%.%.%.I < < 4 = 1 1 1 , q #.=.=.B X & - : : & o ",
"A ~ ~ ~ ~ ~ ~ ~ ^ W A t A #.#.#.=.=.=.=.=.=.=.=.%.%.%.%.#.s f _ =.$.=.=.=.=.%.%.%.%.%.#.I 4 4 t q 3 3 a _ $.=.=.k X & - : : % o ",
"I ^ ^ ~ ^ ~ ~ ~ W E t f ( -.-.#.=.=.=.=.=.=.=.=.%.%.%.%.-.f s ~ $.$.=.=.=.=.=.%.%.%.%.%.#.#.#.#.' #.#.#.$.$.=.=.j X & , : = % o ",
"Y ~ ~ ~ ~ ~ ~ W E p t W #.%.=.=.=.=.=.=.=.&.=.=.%.%.%.%.%.^ f s ^ =.%.%.%.%.%.%.-.%.=.%.%.=.=.=.=.=.=.=.%.%.=.=.j X & - * - & o ",
"Y ~ ^ ~ ~ ~ ~ E a p E ~ #.&.&.=.=.=.=.=.=.=.=.=.%.%.%.-.%.-.^ s f #.%.%.%.%.%.%.%.%.$.$.%.%.=.=.=.=.=.=.=.%.%.=.B   - , , & % o ",
"W ~ ~ ~ ^ ^ E a e E ~ / #.&.=.=.=.=.=.=.=.=.=.=.%.%.%.%.%.%.%.^ s f -.%.%.%.-.%.%.=.=.=.=.=.=.=.=.=.=.=.=.=.=.=.C X - : & , % o ",
"E ~ ~ ^ ^ W k t C W ~ T ' #.&.*.=.=.=.=.=.=.=.=.%.%.%.-.%.%.%.%.I 9 I %.%.%.%.%.%.=.=.=.=.=.=.=.=.=.=.=.=.=.=.=.C X & : - = % o ",
"W ~ ~ ~ W I t j W ^ W ~ ^ $.%.%.%.%.%.%.%.%.%.%.%.%.%.%.%.%.%.%.#.N d _ =.=.=.&.=.=.=.=.=.=.=.=.=.=.=.=.=.=.=.=.C X & : : : & o ",
"I ~ ~ ~ E y a E W ^ ~ ~ ~ #.%.%.%.%.%.-.%.%.%.%.%.%.%.%.%.%.%.%.#._ d d #.=.=.=.=.=.=.=.=.=.=.=.=.=.=.=.=.=.=.%.h X - : : : % o ",
"W W ~ E j t P ~ ^ ^ ~ ^ ~ ' %.%.#.%.#.#.%.%.%.-.%.%.-.%.%.%.-.%.=.=./ w d #.&.&.=.$.=.$.=.$.=.=.&.=.=.=.$.$.$.$.k . - : - = & o ",
"p a f p t A W ~ ^ ^ ~ ~ ~ _ %.%.-.#.-.-.%.%.%.%.%.%.%.%.%.%.#.%.$.&.&.T w N P T T T T T T T T T T T T T T T T T u   & : - * % o ",
"t t p p A W ~ ~ ~ ~ ~ ~ ~ ^ $.%.%.-.%.#.=.=.=.=.%.%.-.#.%.%.-.#.=.$.$.#.T w q i w z w q q q i q q q q i i q i e ; X - : : * & o ",
"k k A P T W W E W E W W T E ' ' ' #.#.#.' ' #.' %.%.^ @.#.#.^ @.#.' ' ' _ ! / T / T / / / / / ! / / / / / / ! T e   - : - : % o ",
"> > > 4 e 0 0 0 0 e 0 0 3 4 e 5 r 5 q 4 r r 5 r s t 4 4 t 4 4 4 r q q q q q q q q q q q q q q q q q q q q q q i ; X & - , & % o ",
"j y 4 B M g c M g M M a M B B B M B c B M M B B f f j j f f j j c M M c M N M M M N M M M M N M M N M M M M N C e   & , & = & o ",
"Z B r R R R R R H R R H R R R R H Q H R R R H R H R R H R R R H R R H R R R R R H R R R R R H H Z Z Z R R H R R a   & , - - % o ",
"c r 3 c V c B c M M B c b M M b M M B c c V M M M b B M M c V M b M M M V c b M M M V c M b B c 4 e 0 y B M B V q   & - - - & o ",
": 2 < < < < < < < < < 2 < < 2 > < < < < 2 < < < 2 < < < 2 < < < > < < < < 2 < < < < < < 2 < < < r Z y 2 < < 2 2 *   - , : - % o ",
"c b B V c V b B b M V c B b b c b M V B b M b M b M b M b M b B M b M b B c b B b M b B c V M y V R B r b b c c 2 X & - : = % o ",
"S U Q U R R R H Q R R R H R R R Q H R R R R R Q R R R Q R R R R R R R U H R R R R R R Q H Q H M b R V c R R H H r   - - * & & o ",
"Z K K H E K R Q U R R R R R R R H Q R R R R R H H R R R R R R R R H Q K Q H R R Q H R H R Q S c M R b a R R H H q   - - - , % o ",
"4 e e e 4 4 4 e 5 r 4 5 4 e r r e 4 r e r e r e r r r r r e r r e r 5 e r r r r e 4 i r e r 5 2 r M y 2 r r r r ; . & - - - % o ",
"e u u p u u p p u u u p p u u p u p p g a h B j h B j h B j h j k B j N j h k B B h j j B j N g > 2 2 u j B j h z G ] ] ] ] L G "
};
