/* XPM */
static char *result[] = {
/* columns rows colors chars-per-pixel */
"64 64 102 2 ",
"   c #111717",
".  c #161B1B",
"X  c #181F1F",
"o  c #171F20",
"O  c #191F20",
"+  c #172020",
"@  c #192122",
"#  c #222525",
"$  c #272E2E",
"%  c #2A2B2C",
"&  c #273436",
"*  c #2F3131",
"=  c #2B363B",
"-  c #2C393C",
";  c #343935",
":  c #313C3E",
">  c #36403F",
",  c #3C403F",
"<  c #40453F",
"1  c #2F3E42",
"2  c #333E41",
"3  c #2F4045",
"4  c #344245",
"5  c #3C4242",
"6  c #3D4946",
"7  c #35454A",
"8  c #3A4649",
"9  c #37494D",
"0  c #3B4A4C",
"q  c #3C4D52",
"w  c #374F58",
"e  c #3E5155",
"r  c #3E5359",
"t  c #424541",
"y  c #444A46",
"u  c #434D4B",
"i  c #49514D",
"p  c #404E52",
"a  c #445254",
"s  c #4B5554",
"d  c #4C5957",
"f  c #42565A",
"g  c #4A5759",
"h  c #47595D",
"j  c #4D5A5C",
"k  c #515A57",
"l  c #535D5B",
"z  c #445D65",
"x  c #4B5D63",
"c  c #445F69",
"v  c #4D6266",
"b  c #446069",
"n  c #4D646B",
"m  c #566263",
"M  c #536569",
"N  c #566A6C",
"B  c #496672",
"V  c #4C6A75",
"C  c #4B6C79",
"Z  c #546E74",
"A  c #506F78",
"S  c #4E707F",
"D  c #557076",
"F  c #52727E",
"G  c #5F7178",
"H  c #63777D",
"J  c #4E7080",
"K  c #537582",
"L  c #567984",
"P  c #597A84",
"I  c #577C8A",
"U  c #597D8C",
"Y  c #617B80",
"T  c #5F838F",
"R  c #5E8491",
"E  c #71858B",
"W  c #72898D",
"Q  c #79939B",
"!  c #7E989E",
"~  c #878989",
"^  c #849CA4",
"/  c #8CA4AD",
"(  c #8DAAB0",
")  c #91ACB2",
"_  c #96B5BB",
"`  c #99B4BC",
"'  c #9DBBC1",
"]  c #A2BFC7",
"[  c #A2BFC8",
"{  c #A0C0C7",
"}  c #A2C1C8",
"|  c #AACACF",
" . c #AAC7D0",
".. c #ACCCD2",
"X. c #B1D1D9",
"o. c #BCDDE7",
"O. c #C6E9F2",
"+. c #C9EDF6",
"@. c #CBEEF8",
"#. c #CCF2FA",
"$. c #D1F6FF",
"%. c #D2F8FF",
/* pixels */
"~ 2 1 } %.%...8 - @ . z K s N R T T T T T T T T T T T T T Y N d s s i i i i i i i i i i i i i i i i i i r D b + . $ * * * #   , ",
"~ 2 1 } %.%...8 - @ . h F s Z R T T T T T T T T T T T T T T T Y Y Y Y Y Y Y Y H Y Y Y Y Y Y Y Y Y Y Y H T T b +   $ * * * #   , ",
"~ : 1 } $.%...7 = @ . z L i Z R T T T T T T T T T T T T T T T T R R T R T T W T T T T T E T T T T T W T R T z + . % * * * #   , ",
"~ 2 1 } $.$...7 - @ . z F a Z R T T T T T T T T T T T T T T T T T T T T T T T T T T T T T T T T T T T T R T z + . % * * * #   , ",
"~ 5 2 [ $.$.[ 7 - X . b P a Z R T T T T T T T T T T T T T T T T T R T T T T T T T T T T T T T T T T T R R R b + . % * * * #   , ",
"~ 2 2 / @.O.^ 2 - X . h F s Z R R T T T T T T T T T T T T T T T T T T T T T T T T R T T T T T T T T T T R R z + . % * * * # . , ",
"~ 5 & h / / x 1 3 X . z F a Z R R R T T T T R T T T T T T T T T T T T T T T T T T T T T T T T T T T T T R R b + . $ * * * #   , ",
"~ 8 4 1 8 0 2 9 4 X . v F a Z T R R R R T T R R T T T T T T T T T T T T T T T T T T T T T T T R T T T T R R b + . % * * * @ . , ",
"~ 0 w e 9 q e r 4 + . z F a V T T T T T T T R R T R T R T R T T R T T T R R R R R R R R R R R R T T T T R R c o . % * * * #   < ",
"~ 8 9 9 9 9 9 q 7 + . h F a a v f r V L L L P P P P P P P P P P Y P P P P P P P P P P Y P P P P P P P P I L z O   % * * * #   , ",
"~ > - - - - - 4 3 + . w h 4 6 6 6 > 7 0 0 e 0 0 e 6 0 0 0 e 0 e e 0 0 e 0 e 0 0 e 0 0 0 0 e 0 0 u q q q 0 0 2 . . % * * * #   , ",
"~ 8 7 q 9 9 9 q 7 + . 3 9 f d d d 6 6 d d l l l l l l l l l l d l l l k l l l l l l l l l l l l l l l l l l u O . % * * * #   , ",
"~ 0 e r f f f f 4 O . 2 9 h l s a a i l l m m m m N m m v M m m m m v m m m m m m m v m m m m m m m m m m m a O . % * * * #   , ",
"~ 0 r f q q r r 4 o . 2 4 a m g > 7 > 9 9 0 6 9 6 6 0 > > 9 6 0 6 6 6 0 6 6 8 8 6 6 6 0 8 6 8 8 9 9 9 6 0 q 2 . . % * * * #   5 ",
"~ u p 4 4 q & 1 3 @ . : : 8 j a > q z z b b b b b b b b b b b b b b b b b b b b b b b b b b b b b c b z c c 9 X . % * * * #   , ",
"~ 8 4 8 Q _ N 1 1 o . = 4 0 d a 0 b B A C C C C C C A A C C C C C C C C C C C C C C C C C C A C C A C C C V w X   % * * * #   5 ",
"~ 2 = G o.#.) 8 1 O . 1 1 2 u 6 7 n C C C C C C C C C C C C C C C C C C C C C C C C C C C C C C C C C C C C w o . % * * * #   2 ",
"~ 2 2 ^ @.$. .0 1 o . 9 4 0 s y 9 B C C C C C C C C C C C C C C C C C C C C C J C C C C C C C C C C C C C C w .   % * * * #   t ",
"~ 2 2 [ $.%...7 = o . 7 7 a l i > z C C C C C C C C C C C C C C C C C C C C C B C C C C C C C C C C C C C C w o . % * * * #   2 ",
"~ 2 2 } %.%...8 1 o . 7 7 a l i ; 6 b C C C C C C B C C C C C C C C C C C C C C C C C C C C C C C C C C C C w . . % * * * #   t ",
"~ 2 1 } %.%...7 = o . 7 7 a l i 2 2 p C C C C C C C C C C C C C C B J B C C C C C C C C C C C C C C C C C V w X . % * * * #   , ",
"~ 2 1 } %.%...8 1 @ . 7 7 a l i u p y b C C C C C C C C C C C C B J C C C C C C C C C C C C C C C C C C C C w X . % * * * #   , ",
"~ : 1 } %.%...7 = O . 7 7 a l i 0 f t z C C C C C C C C C C C C C C C C C C C C C C C C C C C C C C C C C V w X . % * * * #   5 ",
"~ 5 1 } %.%...8 = O . 7 7 a l i 9 f t z C C C C C C C C C C C C C C C C C C C C C C C C C C C C C C C C C C w o . % * * * #   , ",
"~ 4 1 { $.#.| 7 - @ . 7 7 a l i 9 f < h C C C C C C C C C C C C C C C C C C C C C C C C C C C C C C C C C C w o . % * * * #   , ",
"~ - - ( @.O.^ 3 - @ . 7 8 a l i 9 f < b C C C C C C C C C C C C C C C C C C C C C C C C C C C C C C C C V B w o . % * * * #   , ",
"~ 5 & v ' _ z 1 2 o . 4 7 p l i 0 f < z C C C C C C C C C C C C C C C C C C C C C C C C C C C C C C C C C C w o . % * * * #   5 ",
"~ u 4 - q q 1 7 7 o . 7 7 a l i 9 a < z C C C C C C C C C C C C C C C C C C C C C C C C C C C C C C C C J V w o   % * * * #   5 ",
"~ 0 r 9 9 9 q r 4 @ . 7 7 r l i 0 r < v A C C C C C C C C C C C C C C C C C C C C C C C C C C C C C C C C C w o . % * * * #   , ",
"~ 9 9 e q q q q 7 o . 7 7 p l p 0 f , z C C C C C C C C C C C C C C C C C C C C C C C C C C C C C C C C C C w O . % * * * #   5 ",
"~ 5 - - - - - 7 3 @ . 7 7 a l i 0 f , z C C C C C C C C C C C C C C C C C C C C C C C C C C C C C C C C C V w O . % * * * #   5 ",
"~ 8 7 9 9 9 9 0 7 o . 7 7 a l i 9 r , v C C C C C C C C C C C C C C C C C C C C C C C V C C C C C C C C V V w O . % * * * #   , ",
"~ 8 q f r r f r 7 o . 7 7 a l i 6 f , b C C C C C C C C C C C C C C C C C C C C A C C C A J K K K P K P L I z o o # * * * #   2 ",
"~ q h q 0 9 0 q 4 o . 7 7 a l i 0 f < v C C C C C C C C C C C C C C C C C C C J K P L I I I U U U U U U R R z o o % * * * #   5 ",
"~ p g 2 1 4 - 7 7 o . 7 7 a l i 9 r , b C C C C C C C C C C C C C J J J J I I I R R R T U T T T T T R R R R c o   % * * * #   5 ",
"~ p 7 2 E ` M 4 1 o . 7 4 a l i 0 f > z C C C C C C C C C C S S J I I R R U R R R R R T U T T T T T T R R R z o . % * * * #   5 ",
"~ t = l X.#.) 0 1 @ . 7 7 a l i 9 f , v C C C C C B C S S T T T T R U R R U R R R R R T T T T T T T T R R R z O . % * * * #   , ",
"~ 2 2 Q +.%...0 1 o . 7 7 a l i 0 h < b C S C J K T R R T T T T T T R R R R R R T T R T T T T T T T T T R R c O . % * * * #   5 ",
"~ 2 2 ' $.%. .0 1 O . 7 7 a l i q h < v S J K R R R R R T T T T T T R R R R R U T T T T T T T T T T T R R R c O . % * * * #   5 ",
"~ 2 4 } $.$...1 1 o . 7 8 f l i 0 h y D I R R R R R R R T T T T T T U R R R R R T T T T T T T T T T T R R R c # . % * * * #   5 ",
"~ 2 1 } %.%...7 - @ . 9 8 a j u e v y D T T T T T T T T T T T T T T T T T T T T T T T T T T T T T T T T R U c o . % * * * #   , ",
"~ 2 2 } %.%...8 - @ . 7 4 5 6 5 a n y D T T T T T T T T T R R T T T T T T T T T T T T T T T T T T T T R R U c o . % * * * #   , ",
"~ 2 2 } %.%...7 - @ . e 9 0 j u r M u D T T T T T R T T T T T T T T T T T T R R T T T T R T R R T T R R R R c O   % * * * #   , ",
"~ : 2 } %.%...9 - @ . f 0 u l i f n u D T T T T T T T T T T T T T T T T T R R R T T T T U R R R T T R R R R c O . % * * * #   5 ",
"~ > > } %.$.} 4 - @ X h q u l i f M u D T T T T R R R R T R R R T T R R R R R R T T Y R R R R R T T T T R R B O . % * * * #   , ",
"~ 4 - ) #.+.! 4 - @ . f q u l i a M y Z T T R R R R T R R R R R R R R R T R U R T T R R R R R R R R R R U U n O . % * * * #   5 ",
"~ 4 - N | { x 1 3 @ . h 0 u l i f v y D R T R R R J T R R R R L Y R R R R R I U T R R I U U R R U I U R U U z O . % * * * #   5 ",
"~ > & - x g - 3 4 @ . f e 0 l i a v y Z R U T R T K K T R T R L U R R U U I L I U R U L U U U R I I U U U I z O . % * * * #   5 ",
"~ 8 4 4 7 2 9 9 1 O . h q u l i e x < v S S S S S S S J C S S S S J J S J S S S J J S S J J J J J J J J S F z o . $ * * * #   5 ",
"~ 9 q e q q w a 7 O   z q u l i e v u Z L T I R I I I I T T I I I I I T I I I T I I I T I I I T I I I U I I z @   $ * * * #   5 ",
"~ 5 - - 2 1 1 2 7 o o f q 0 l i f M 0 D R R R R R R R R R R R R R R R R R R R R R R R R R R R R R R R R R R z X . % % * * #   5 ",
"~ 6 4 9 7 9 2 q 7 o o r q y l i f n u D R R R R R R R R R R R R R R R R R R R R R R R R R R R T R R R R R R z @ . % * * * #   t ",
"~ 0 r q w q q w 4 @ . r 0 0 k u f n y D T T T T R R T T T T T T R T T R T T T T R T T T T T T T R T T T R R z @ . % * * * #   2 ",
"~ 0 q 9 1 2 1 2 4 + . 6 7 5 u y e v y D T T T T R R T T T T T R R T T T T T T T R T T T T T T T T T T T R R z @ . % * * * #   t ",
"~ 4 2 4 Y ^ a 1 4 + . $ 4 a i g 6 f 0 D T T T T R T T T T T T T T T T T T T T T T T T T T T T T T T T T R R c X . % * * * #   2 ",
"~ 4 & j X.@.^ 8 4 @   $ 8 g d m i 0 6 D T T T T R T T T T T T T T T T T T T T T T T T T T T T T T T T T R R c @ . % * * * #   t ",
"~ : - W O.$. .0 3 @ . - : 5 0 6 6 f 6 D T T T T T T T T T T T T R T T T T T T T T T T T T T T T T T T T R R z @ . % * * * #   , ",
"~ 4 2 _ $.$...6 > @ X e 6 > u 6 e v u D T T T T T T T T T T T T T T T T T T T R T T T T T T T T T T T R R R z o   % * * * #   , ",
"~ : 1 } $.%...9 - + . r q u l i f M i D T T T T T T T T T T T T T T T R T T T T T T T T T T T T T T R R R R z o . % * * * #   , ",
"~ 5 2 } %.%...4 - + . h q u l i f M y D T T T T T T T T T T T T T T T T T T T T T T T T T T T T T T R R R R c o . % * * * #   , ",
"~ 4 1 } %.%...9 - + X f q u l i r M i D T T T T T T T T T T T T T T T T T T T T T T T T T T T T T T T R R R c O . % * * * #   , ",
"~ : 1 } %.%...7 - + X f q u l i f M y D T T T T T T T T T T T T T T T T T T T T T T T T T T T T T T T T R R c O . % * * * #   , ",
"~ 2 1 } %.%...6 - X X r q 0 l i f n i D T T T T T T T T T T T R T T T T T R T T T T T R T T T T T T T R R R z O . % * * * #   , ",
"~ 2 2 ] %.%.| 9 - + X s q u l i a M i D T T T T T T T T R R R R R R R R R R R R R R R R R R R R R R R R R U z O . % * * * #   5 "
};
