/* XPM */
static char *result[] = {
/* columns rows colors chars-per-pixel */
"64 64 120 2 ",
"   c #121516",
".  c #171916",
"X  c #141718",
"o  c #161A1B",
"O  c #1A1E1D",
"+  c #1D2221",
"@  c #212324",
"#  c #232A27",
"$  c #252728",
"%  c #262828",
"&  c #2B2C2C",
"*  c #2E302E",
"=  c #32322C",
"-  c #2C2F31",
";  c #2F3031",
":  c #283438",
">  c #2D383A",
",  c #333432",
"<  c #383735",
"1  c #333934",
"2  c #3C3C36",
"3  c #343D3D",
"4  c #3B3E39",
"5  c #36403F",
"6  c #3C413C",
"7  c #42423D",
"8  c #49453E",
"9  c #2E3D41",
"0  c #343E40",
"q  c #2F4046",
"w  c #344145",
"e  c #394241",
"r  c #3F4846",
"t  c #35454C",
"y  c #394548",
"u  c #3E4A4B",
"i  c #3A4C51",
"p  c #3F5459",
"a  c #434640",
"s  c #4D4943",
"d  c #444D4C",
"f  c #494A49",
"g  c #46504E",
"h  c #56534D",
"j  c #454F51",
"k  c #455151",
"l  c #4A5655",
"z  c #4F5855",
"x  c #45565B",
"c  c #46595D",
"v  c #4C5A5C",
"b  c #565453",
"n  c #595756",
"m  c #545954",
"M  c #5C5C56",
"N  c #535B59",
"B  c #595F59",
"V  c #5B615B",
"C  c #676257",
"Z  c #66645C",
"A  c #6A665C",
"S  c #455C65",
"D  c #4C5E64",
"F  c #495F69",
"G  c #545E60",
"H  c #4E6165",
"J  c #4B626B",
"K  c #556262",
"L  c #5C6562",
"P  c #53666B",
"I  c #52686E",
"U  c #5D6A6B",
"Y  c #4E6772",
"T  c #4F6974",
"R  c #526973",
"E  c #546E7B",
"W  c #586F78",
"Q  c #56707A",
"!  c #606764",
"~  c #676860",
"^  c #6C6A62",
"/  c #656D6D",
"(  c #716E64",
")  c #736E68",
"_  c #727066",
"`  c #757169",
"'  c #79766B",
"]  c #7C796F",
"[  c #6E7977",
"{  c #6E797A",
"}  c #787C75",
"|  c #817F72",
" . c #75807E",
".. c #858174",
"X. c #888376",
"o. c #878479",
"O. c #8A8679",
"+. c #8D8A7E",
"@. c #5B7682",
"#. c #5E7A86",
"$. c #5F7B89",
"%. c #617B87",
"&. c #617D88",
"*. c #798585",
"=. c #818181",
"-. c #818883",
";. c #8E918A",
":. c #959185",
">. c #9A9588",
",. c #9F9C8E",
"<. c #A39D8C",
"1. c #A6A092",
"2. c #AAA495",
"3. c #ACA799",
"4. c #A6B8B9",
"5. c #BED4D6",
"6. c #C0D6D9",
"7. c #C5DCE2",
"8. c #CEE3E7",
"9. c #D0E5EB",
/* pixels */
": > > > > > > > > > > > > > > > 5 > 5 e y y y y y y y y y w + + # 3 t y y y y y 5 u y r y y y y y y y y y y y > @ f n n n n b f ",
"t i i u i i i i i i i i i i i i i i i S H H S D D D D D c c y > 5 u D D D D D D S H H S H S H H H S c H D D S p o o & ; ; ; % o ",
"9 w w w w w w w w w 0 w w w w w 5 5 5 5 5 w 5 w 0 3 3 5 > w w k y : 3 0 0 3 3 0 5 5 5 5 5 5 5 5 0 3 5 5 w 3 5 :   o & ; ; ; % O ",
"k l l l l l l l l l x l l l l l v y r p u g g g k k g k g u r l g 3 g g k k k j g p g g g g u k k k g k k g k r o o & ; ; , % o ",
"l N N N N N N N N N N N N N N N H 6 l B B z H B N N N N N g r z k e z N N N N N N N N N B B B z N N N N N N N l o X & ; ; ; & o ",
"k z z z z z z z z z z m z z z z z 5 g z z z z z z z z z m d g K l 6 l z m z z z z z z z l l l z z z z m z z z g o X ; ; ; ; & o ",
"1 3 e 3 3 3 5 3 0 3 3 3 3 3 0 0 5 5 5 5 5 5 5 5 5 e e e e 5 r N d 3 e e e e e 3 5 5 5 5 5 5 5 5 e e e e e e 5 1   o ; ; ; ; $ o ",
"i x p p x p p p p x p p p x S x S H H I H I H H H v J J J J d e e x P J P J P J J I I H I I I H J P J J J J P l . X & ; ; ; & o ",
"u k k p j j j x i k k i k k x j S c H H H H S c H c H H H H p p l c H H S H H H H H H H H H H H D J G D D G G j O o ; ; ; ; & o ",
"1 6 4 4 6 4 4 4 6 6 7 6 6 7 7 7 i 5 6 r 8 6 5 q 6 5 5 q 5 5 t q e r 8 7 t q 6 6 6 8 8 6 5 q r r a a a a a a 0 3 $ . & ; ; ; & o ",
"k c x x x x x x x x x c x S c D T S T T  .S T S H H T T  .c T T P I I I Y Y T T S S Q I T T T T P P P P R P D D + o & ; ; ; $ o ",
"J Y Y Y Y Y Y J Y Y J Y J J Y @.#.@.*.$. .Q  .*.T  .#.#.@. .&.&.#.#.%.#.@.*.#.$.*.*.*. .@.*.#.$.%.&.%.%.%.%.%.W o X ; ; ; & & o ",
"J Y Y Y Y Y Y Y Y Y Y Y Y Y R @.$.&.&.&.&.&.&.&.T  .@.*.&.&.&.&.%.*.*.$.$.$.$.$.@.$.$.$.*.$.&.&.&.&.&.&.&.&.&.E O X ; ; ; , $ O ",
"S Y Y Y Y Y Y Y Y Y Y Y Y Y T $.&.&.&.&.&.&.&.&.T T #.@.&.&.&.&.$.$.$.$.$.$.$.$.$.$.$.$.$.$.&.$.&.&.&.&.&.&.&.@.o X & ; ; ; $ O ",
"J Y Y Y Y Y Y Y Y Y Y Y Y Y @.$.&.&.&.&.&.&.$.&.E E $.$.&.&.&.&.#.$.*.@.$.$.$.$.$.$.$.$.$.&.&.&.&.&.&.&.&.&.&.W o o ; ; ; ; $ O ",
"J Y Y Y Y Y Y Y Y Y Y Y Y Y @.$.&.&.&.&.&.&.&.&.E E $.$.&.&.&.&.*.@.@.*.$.$.*.$.*.$.$.$.&.&.&.&.%.&.&.&.&.&.&.W o X & ; ; , $ o ",
"J Y Y Y Y Y Y Y T T T Y Y T $.$.$.$.$.$.$.$.$.$.E E $.&.&.&.&.&.&.&.&.&.&.&.#.&.$.$.$.$.$.$.*.$.&.&.&.&.$.$.$.E o o * ; ; ; # O ",
"S Y Y Y Y Y Y Y T S Y Y T T $.$.$.$.$.$.$.*.$.@.E E $.&.&.&.&.&.&.&.&.&.&.&.&.&.$.$.$.$.$.$.$.$.&.&.&.%.$.$.$.E + + # - ; ; % O ",
"J Y Y Y Y Y Y Y Y T Y Y T T *.$.$.*.$.$.$.$.#.E @.T &.&.&.&.&.&.&.&.&.&.&.&.&.&.*.$.$.$.$.$.@.$.&.&.&.&.$.$.*.E o o : : - , % O ",
"J Y Y Y Y Y Y Y Y Y Y Y Y E $.$.$.$.$.$.$.$.$.$.T @.&.&.&.&.&.&.&.&.&.&.&.&.&.&.$.$.*.$.$.$.*.@.&.%.&.&.@.*.$.E o o : : - ; % o ",
"J Y Y Y Y Y Y Y Y Y Y Y T $.$.$.&.&.&.&.&.&.&.&.E E &.&.&.&.&.&.&.&.&.&.&.$.&.&.$.$.$.&.@.*.@.*.&.&.%.%.&.&.$.T o o ; ; , ; & o ",
"J Y Y Y Y Y Y Y Y Y Y Y T $.$.$.&.&.&.&.&.&.&.&.T @.&.&.&.&.&.&.#.&.&.&.&.&.&.&.$.$.$.*.*.*.@.@.%.&.&.%.&.&.*.T o o & ; - ; & o ",
"S Y Y Y Y Y Y Y Y Y T T E $.$.$.&.&.&.&.&.&.&.&.E E &.&.&.&.&.&.&.&.&.&.&.&.#.*.#.#.$.T V v z z N G P #.&.$.$.@.o o & ; ; ; $ o ",
"J Y Y Y Y Y Y Y Y T T T @.$.$.$.&.&.&.&.&.&.&.&.E E &.&.&.&.&.&.&.&.&.&.&.#.#.#.#.*.T q * * - : = = , K %.*.*.T o o ; ; ; & & o ",
"J Y Y Y Y Y Y Y Y Y Y Y @.$.$.$.&.&.&.&.&.&.&.#.T Q &.&.&.&.&.&.&.&.&.&.&.&.&.&.$.@.t 5 z V L ! G G 4 a @.$.%.W o o ; ; ; ; $ O ",
"J Y Y Y Y Y Y Y Y Y Y Y @.$.$.*.&.&.&.&.&.&.#.#.@.T &.&.&.&.&.&.&.&.#.&.&.&.&.#.*.Q : m ;. .V V -.;.M , R &.&.E o X & ; ; ; $ O ",
"S Y Y Y Y Y Y Y Y Y Y @.@.$.@.*.&.&.&.&.&.&.#.#.@.T &.&.&.&.&.&.&.#.#.&.&.&.&.&.$.T * Z +.V  .Z ~ >.^ = R &.&.@.o o & ; & , $ O ",
"J Y Y Y Y Y Y Y Y Y Y T @.*.$.@.&.&.&.&.&.#.#.#.E @.&.&.&.&.&.&.#.*.&.&.&.&.&.&.*.W 1 _ ' [ 5.4.n o.^ = R &.&.W o o ; ; ; , $ o ",
"J Y Y Y Y Y Y Y Y Y Y @.$.$.$.*.&.&.&.&.&.&.&.&.E T &.&.&.&.&.&.&.#.&.&.&.&.&.&.*.T : ' ) *.8.6./ } ( = R %.%.E O X & ; ; ; $ O ",
"F Y Y Y Y Y Y Y Y Y Y @.$.$.$.$.&.&.&.&.&.&.&.&.E @.&.&.&.&.&.&.&.&.&.&.&.&.&.&.$.Q * _ ^ *.9.7.{ ..( = R &.&.@.O o & ; ; ; $ O ",
"F Y Y Y Y Y Y Y Y Y Y @.$.$.$.*.&.&.&.&.&.&.&.&.E @.$.&.&.&.&.&.&.&.&.&.&.&.&.&.$.E = _ ^ *.9.7.[ ..( = R &.%.E X X ; ; ; ; $ o ",
"F Y Y Y Y Y Y Y Y Y T $.$.$.$.$.&.&.&.&.&.&.&.&.E T $.&.&.&.&.&.&.&.&.&.&.&.&.&.*.Q = ` A *.9.7.[ | ^ = W &.%.E O o ; ; ; ; $ O ",
"S Y Y Y Y Y T Y T T T $.&.&.&.&.&.&.&.&.$.$.#.#.E E &.&.&.&.&.&.&.&.&.&.&.&.&.&.*.T : / ~  .9.7. . .( = T *.$.E + o * ; ; ; # O ",
"S Y Y Y Y Y Y Y T T T $.$.&.&.&.&.&.&.&.$.#.#.@.T @.&.&.&.&.&.&.&.&.#.&.&.&.&.#.*.T # W _ *.9.7. . .A = T $.$.E O o # - ; ; % O ",
"S T Y Y Y Y Y Y T T E $.$.$.&.&.&.&.&.&.$.$.#.@.E E &.&.&.&.&.&.&.&.*.#.&.&.&.&.*.T 5 ( ( *.9.7. ...( = T $.$.E o o : : ; ; % O ",
"Y T Y Y Y Y Y Y T T @.$.&.$.&.&.&.&.&.&.&.&.$.$.E E &.&.&.&.&.&.&.&.#.#.&.&.&.&. .W # ( ~ *.9.7._ ..( = T $.*.E o o : : ; ; % O ",
"S T T T Y Y Y Y T T E $.&.$.&.&.&.&.&.&.&.$.&.$.@.E $.&.&.&.&.&.&.&.&.&.&.&.&.&.*.T : / / *.8.7. ...( = P  .$.T o o & ; ; - % o ",
"S T T T Y Y Y Y T T #.$.&.&.&.&.&.#.&.&.&.&.&.&.T E &.&.&.&.&.&.&.&.&.&.&.&.&.&.*.T : U ^ *.9.7.[ ..^ = J *.*.E o o & ; ; ; % O ",
"S T Y Y Y Y T T T T #.$.&.&.&.&.&.&.&.&.&.&.&.$.@.E &.$.&.&.&.&.&.&.&.&.&.&.&.&.*.T 5 _ ^  .9.7.[ ..^ = T *.@.E o o ; ; ; ; % O ",
"S Y Y Y Y Y T T T T #.*.&.&.&.$.&.&.&.&.&.&.$.$.T @.&.&.&.$.&.&.&.&.&.&.&.&.&.&. .W # _ _ *.9.7.[ ..( = Y *.$.T o o & ; ; ; & o ",
"S T T T T Y Y Y T T $.$.$.$.$.$.&.&.&.&.&.&.#.Q E E $.&.&.&.&.&.&.&.&.&.&.&.&.&.&.Q :  .( *.9.7.} | ( = T $.%.@.o o & ; ; ; $ o ",
"S T T S T Y Y Y T T $.$.&.&.#.#.&.&.&.&.&.#.#.#.E E $.$.&.&.&.&.#.&.*.&.&.&.&.&.&.Q +  .~ *.9.7.{ | ( = R &.%.W o X & ; ; ; $ o ",
"S T T T Y Y Y Y T @.#.#.&.&.&.*.&.&.&.&.$.#.#.$.T E &.&.&.&.&.&.&.#.#.#.&.&.&.&. .v #  ._ *.9.7.{ | ( = R &.&.W o X & ; ; ; & X ",
"T T T T Y Y Y Y T @.$.#.&.&.&.#.&.&.&.&.*.$.$.$.@.@.&.&.&.&.&.&.&.&.&.#.&.&.&.&. . .+  .~ *.9.7.{ | ( ; R &.%.E o X $ ; ; ; & o ",
"S Y Y Y Y Y Y Y T E $.*.&.&.&.&.&.&.&.&.$.$.$.&.E T $.&.$.$.$.$.&.&.&.&.&.&.&.&.Q T =  .C  .8.7.} | ( = R &.&.E o X $ ; , & $ O ",
"S Y Y Y Y Y Y Y T @.$.$.&.&.#.&.&.&.&.&.#.#.&.$.@.T $.$.$.$.$.*.&.&.&.&.&.&.&.&.*.Q = C A  .8.5./ | ) = R &.&.@.o X $ , & , $ O ",
"S T Y Y Y Y Y Y T #.#.&.&.&.&.&.&.&.&.&.&.&.$.#.E @.&.&.$.&.$.$.&.&.&.&.&.&.&.&.#.Q :  . .( 4.4.n | ( = R &.&.W o X $ = ; ; $ o ",
"Y T Y Y Y Y Y T T #.&.&.&.&.&.&.&.#.&.&.&.#.@.@.E @.&.$.&.&.$.$.#.&.&.&.&.&.&.&.#.T :  .+.C B V ) <.( = W &.&.W o X $ ; ; ; & o ",
"S T T T Y Y Y Y Y @.@.$.$.$.$.$.$.$.$.$.$.$.$.$.E E $.$.$.$.$.$.$.$.$.$.$.$.@.*.*.Q = ] 1.:.O.+.<.2.( = R &.&.E o X $ ; ; ; & o ",
"S T Y Y Y Y Y Y T $.$.*.$.*.$.$.@.*.*.@.$.$.$.$.E E $.$.*.$.$.$.$.*.$.$.$.$.$.$.$.Q ; ] 2.2.3.3.2.<.( = R &.&.@.o X $ ; ; ; $ O ",
"S Y Y Y Y Y Y Y E $.$.$.$.*.$.$.@.$.$.$.$.$.$.$.E E *.$.$.$.$.$.$.$.$.$.$.*.*.$.*.T = ' ,.:.O.O.O.X.A = T &.$.T o X $ ; ; ; $ O ",
"S Y Y Y Y Y Y Y E $.*.@.$.$.$.$.*.$.*.$.$.$.$.$.@.E $.$.$.$.$.$.$.$.$.$.$.$.@.*.$.T , h ^ A C C C C h = T $.$.@.o X $ ; ; ; $ o ",
"Y T T T T T Y Y E $.*.@.$.$.$.$.&.&.&.*.&.$.$.$.E E *.$.$.$.*.$.$.$.$.$.$.*.$.$.$.@.: ; 7 s 8 8 s a < < E %.$.@.o X $ ; ; ; & o ",
"S S F Y F S F Y T E E *.$.@.@.$.@.@.@.@.@.@.@.@.E E T *.@.@.E *.$.$.#.$.@.@.@.@.@.@.k 1 = = < = , , < j @.@.@.T O X $ ; ; ; & o ",
"q q q q q q q q t p i i i i p t i i i i i i i i p i i i t i i i i i i i i i i i i i y , = 2 8 8 < & , 0 0 i 0 9 X X $ ; ; ; $ . ",
"                  o       o o o               X o       o o o     o o o                 O + @ @ O X     X X o X X X & ; ; ; & . ",
"@ @ @ @ @ @ @ @ + + + + # @ @ @ @ @ @ @ @ @ @ @ @ @ @ @ @ @ @ @ + + + + # + + + @ @ @ @ @ + + + @ @ @ @ @ @ @ @ @ $ ; ; ; ; & o ",
"- , - = = ; ; , : : ; * ; ; ; ; , , - - & , & , & , ; - ; - , ; 5 : * * 1 * ; 1 ; ; ; ; ; = * * & ; ; , ; ; ; ; ; ; ; ; ; ; & o ",
"- ; ; ; - - ; - : * ; - * ; ; ; - & - - , ; ; - ; ; & , ; & - ; # * : * ; * ; ; ; ; , - * ; ; ; , - & ; ; ; ; ; ; ; ; ; ; ; $ X ",
"; ; ; - ; ; ; ; : - ; ; ; ; ; ; , - ; , - - & , ; ; , - - , - , * * * * ; ; ; ; ; ; & - ; ; * ; ; - ; ; ; ; ; ; ; ; & ; ; , & . ",
"& & & - - & - & & & & & & & & ; - & - & ; & & & & & & - - - - & & - - - * - & * - - & & - & & - & & & & - - - & - - - - & - $ X ",
"o . o o X o X o o o o o o o o o o o X X X o o o o o o o o o X X X o X o o X o X X o o o o o o o o o o o o o X X X o X X X X o X ",
"O o o O O O o o O o o O O o o o O o O o o O o o O o o O o o o O o O O o O O o o o O O o o o O o o O O o O o o o o O o O O o o O ",
"=.=.=.=.=.=.=.=.=.*.=.=.=.=.=.*.=.=.=.=.=.=.=.=.*.=.=.=.=.=.=.=.=.=.=.| *.=.=.*.=.=.=.=.=.=.=.=.=.=.=.=.=.=.=.=.=.=.=.=.=.=.=.=."
};
