/* XPM */
static char *result[] = {
/* columns rows colors chars-per-pixel */
"64 64 103 2 ",
"   c #111717",
".  c #161B1B",
"X  c #181F1F",
"o  c #171F20",
"O  c #191F20",
"+  c #172020",
"@  c #192122",
"#  c #222525",
"$  c #272E2E",
"%  c #2A2B2C",
"&  c #273436",
"*  c #2F3131",
"=  c #2B363B",
"-  c #2C393C",
";  c #343935",
":  c #313C3E",
">  c #36403F",
",  c #3C403F",
"<  c #40453F",
"1  c #2F3E42",
"2  c #333E41",
"3  c #2F4045",
"4  c #344245",
"5  c #3C4242",
"6  c #3D4946",
"7  c #35454A",
"8  c #3A4649",
"9  c #37494D",
"0  c #3B4A4C",
"q  c #3C4D52",
"w  c #374F58",
"e  c #3E5155",
"r  c #3E5359",
"t  c #424541",
"y  c #444A46",
"u  c #434D4B",
"i  c #49514D",
"p  c #404E52",
"a  c #445254",
"s  c #4B5554",
"d  c #4C5957",
"f  c #42565A",
"g  c #4A5759",
"h  c #47595D",
"j  c #4D5A5C",
"k  c #515A57",
"l  c #535D5B",
"z  c #445D65",
"x  c #4B5D63",
"c  c #445F69",
"v  c #4D6266",
"b  c #446069",
"n  c #4D646B",
"m  c #566263",
"M  c #536569",
"N  c #566A6C",
"B  c #496672",
"V  c #4C6A75",
"C  c #4B6C79",
"Z  c #546E74",
"A  c #506F78",
"S  c #4E707F",
"D  c #557076",
"F  c #52727E",
"G  c #5F7178",
"H  c #63777D",
"J  c #4E7080",
"K  c #537582",
"L  c #567984",
"P  c #597A84",
"I  c #577C8A",
"U  c #597D8C",
"Y  c #617B80",
"T  c #5F838F",
"R  c #5E8491",
"E  c #71858B",
"W  c #72898D",
"Q  c #7A9297",
"!  c #79939B",
"~  c #7E989E",
"^  c #878989",
"/  c #849CA4",
"(  c #8CA4AD",
")  c #8DAAB0",
"_  c #91ACB2",
"`  c #96B5BB",
"'  c #99B4BC",
"]  c #9DBBC1",
"[  c #A2BFC7",
"{  c #A2BFC8",
"}  c #A0C0C7",
"|  c #A2C1C8",
" . c #AACACF",
".. c #AAC7D0",
"X. c #ACCCD2",
"o. c #B1D1D9",
"O. c #BCDDE7",
"+. c #C6E9F2",
"@. c #C9EDF6",
"#. c #CBEEF8",
"$. c #CCF2FA",
"%. c #D1F6FF",
"&. c #D2F8FF",
/* pixels */
"5   # * * * % . X x F h i i i i i i i i i i i i i i i i i i s i k M P T T T T T T T T T T T T R R Z u P z   + - 9 X.&.&.| 3 : ^ ",
"5   # * * * % . O z T U H Y Y H Y Y Y Y Y H Y Y Y Y Y H Y Y Y Y Y T T T T T T T T T T T T T T T R D a F z . + - 7 X.&.&.| 3 > ^ ",
"5   # * * * % . O z R R R T R T T T T T W T T T T T W T R R T T T T T T T T T T T T T T T T T R R N a Y z   + - 8 X.&.&.} 1 : ^ ",
"5   # * * % % . o z R R T T T T T T T T T T T T T T T T T T T T T T T T T T T T R T T T T T T R R D a F z + + - 7  .&.&.} 1 > ^ ",
": . # * * * % . X b R R R T T T T T T T T T T T T T T T T T T T T T T T T T T T R T T T T T T R R D s L z . + & 7 { %.%.} 2 2 ^ ",
"<   # * * * % . X b R R T T T T T T T T T T T T T T T T T T T T T T T T T T T T T T T T T T T T R D u P z . + > 2 / @.#.( 2 2 ^ ",
"2   # * * * % . X b R R R T T T T T T T T T T T T T T T T T T T T T T T T T T T T T T T T T T T R Z u F h . + > 1 g ( ( g = 5 ^ ",
"t   # * * * % . X b R R R T T T T T T T T T T T T T T T T T T T T T T T T T T T T T T T R R T T R D a P z . + 4 9 2 9 8 1 7 8 ^ ",
"2   # * * * % . + b T T T R R R T T T T T T T T T T T T R R R R T T T T T T R T R T R T R R T T U Z a F z . o 7 r r q 9 e e 9 ^ ",
",   # * * * % . + f L T L L P P F T T F T Y L T F T F T P P P P P P F T F T P P P P F T L A q r n a u F z o o 4 q 9 9 9 9 9 8 ^ ",
", . # * * * %   X > 0 q q q 0 u q 0 0 0 0 0 0 q u 0 q 0 u 0 q 0 e 0 0 u e 0 0 0 0 0 0 u 0 6 > 6 u 5 7 z q   o 7 4 1 = - - = 4 ^ ",
"2   # * * * % . + u l j l l l l l l l j k k l l l l l l l l l j l l l l l l l k l l l l d 6 6 d g g f 9 1   O 4 q 9 9 9 0 9 8 ^ ",
"t   # * * * % . O a m m m m m m m m m m m m m m m m m m v m m m m m m m m m m m M m m m j u a a s l h 9 1 . o 7 f z f f r e 0 ^ ",
", . # * * * % . . 2 9 9 6 0 0 8 0 6 8 8 0 8 0 6 0 6 0 6 9 3 9 8 6 0 0 6 0 6 7 6 6 0 0 6 0 > 7 4 d m a 4 2 . O 1 q p q q a r 0 ^ ",
"2   # * * * % . X 7 b b b b b b b b b b b b b b b b b b c c c c b b b b b b b b b b b b b h e > p l 8 2 2 . O 1 1 & 9 2 2 q 0 ^ ",
",   # * * * % . o w V S V C C V C C C C C V C C C C C C C C C C C C C C C C C C C C C C C B b 0 p j 0 4 - . o 1 1 N ] ! q 2 u ^ ",
", . # * * * % . o w B C C C C C C C C C C B J B C C C C C C C C C C C C C C C C C C C C C C b 6 y y 2 2 1   @ 1 7 _ $.O.G = 4 ^ ",
",   # * * * % . o w C C C C C C C C C C C C B J C C C C C C C C C C C C C C C C C C C C C C B 0 y s 9 4 7 X @ 1 7 X.&.#./ 2 : ^ ",
",   # * * * %   o w C C C C C C C C C C C C J C C C C C C C C C C C C C C C C C C C C C C C z > i l a 7 7 . o = 8 X.&.%.[ 4 : ^ ",
", . # * * * % . o w C C C C C C C C C C C C C C C C C C C C C C C C C C C C C C C C C C C n , > i l a 7 7 . @ = 7 X.&.&.} 2 5 ^ ",
",   # * * * % . o w B C C C C C C C C C C C C C C C C C C C C C C C C C C C C C C C C C C e , > i l a 7 7 . @ 1 8 X.&.&.} 1 2 ^ ",
",   # * * * % . o w C C C C C C C B C C C C C C C C C C C C C C C C C C C C C C C C C C n 6 q 0 i l a 7 4 . o = 7 X.&.&.| 2 2 ^ ",
", . # * * * % . o w C C C C C C C C C C C C C C C C C C C C C C C C C C C C C C C C C C z , r 0 i l a 7 7 . o = 8 X.&.&.} 1 2 ^ ",
",   # * * % % . o w C C C C C C C C C C C C C C C C C C C C C C C C C C C C C C C C C C v , r 0 i l a 7 7 . @ 1 9 X.&.&.} 2 2 ^ ",
",   # * * * % . O w B C C C C C C C C C C C C C C C C C C C C C C C C C C C C C C C C C z , r 0 i l a 7 7 . o 1 7 | %.%.} 3 > ^ ",
",   # * * * % . o w V C C C C C C C J B C J C C C C C C C C C C C C C C C C C C C C C C v < r 9 i l a 7 7 . o 1 4 / @.$.) = - ^ ",
",   # * * * % . O w C C C C C C C C C C C B C C C C C C C C C C C C C C C C C C C C C C z < f 0 i l a 7 1 o O 1 1 h ` ] v & 4 ^ ",
",   # * * * % . o w C C C C C C C C C C C C C C C C C C C C C C C C C C C C C C C V C C z < f 0 i l f 1 7 . o 7 7 1 q q - 8 0 ^ ",
", . # * * * % . o w B J C C C C C C C C C C C C C C C C C C C C C C C C C C C C C C C C z < f 9 i l a 7 7 . o 1 r q 9 7 0 e 0 ^ ",
"2   # * * * % . o w C C C C C C C C C C C C C C C C C C C C C C C C C C C C C C C C C C x < f 9 i l a 7 7 . o 7 q q 9 e e q 8 ^ ",
",   # * * * %   o w B J C C C C C C C C C C C C C C C C C C C C C C C C C C C C C C C C z < f 9 i l a 7 7 . o 3 4 1 = - - - 4 ^ ",
"t   # * * * % O o w V V C C C V C C C C C C C C C C C C C C C C C C C C C C C C C C C C z < f 9 i l g 1 7 . o 4 q 9 9 0 0 9 8 ^ ",
"5   # * * * % . o c I I L L K K K J A C C C C C C C C C C C C C C C C C C C C C C C C C z t f 0 i l a 4 7   o 7 r r f r r q 0 ^ ",
"2   # * * * % . o c U R U R U R U U U I L L J J J J C C C C C C C C C C C C C C C C C C z < f 9 i j a 9 7 . o 7 q 9 9 9 q h p ^ ",
"t   # * * * % . o c R R R T T T T T R T R R R R I I J K S C C C C C C C C C C C C C C C z < f 9 i l a 7 7 . @ 4 4 1 7 : 2 g p ^ ",
"2   # * * * %   o c R R T T T T T T R R R R R R R R R I R R T J S S S C C C C C C C C C x < a 9 i l a 7 7 . @ 2 4 M ' E 2 8 u ^ ",
"t   # * * * % . o z R R T T T T T T T T T R R R R R U R T T R R T T T S S C C C C C C C z 6 f 0 i l a 7 7 . @ 1 9 _ $.o.x = 2 ^ ",
", . # * * * % . o z R R T T T T T T T T T T T T R R R R T T T T T T T R R T T S K C C C v t h q i l a 7 7 . @ 2 0 X.%.@.Q 2 2 ^ ",
"2   # * * * % . o z R R T T T T T T T T T T T R T T R R T T T T T T R R R R R R U I K S v t h q i l a 7 4 . + - 8 X.&.%.] 5 2 ^ ",
",   # * * * %   o c R R T T T T T T T T T T T T T T T T T T T T T T R R R R R R R R U U Z t j 0 i l f 9 7 . + - 8 X.&.&.| 5 2 ^ ",
", . # * * * % . o z R R R R T T T T T T T T T T T T T T T T T T T T T T T T T T T T T T D y v e u k a 8 8 . @ - 8 X.&.&.} 1 4 ^ ",
",   # * * * % . O c R R R R T T T T T T T T T T T R T T R T T T T T R T T T T T T T T T D y n r > 6 4 7 9 . @ = 7 X.&.&.| 2 : ^ ",
",   # * * * % . @ c R R R T T T T T T T T T T T T T T T T T T T T T T T T T R R T T T T D y v f u k 0 8 e . @ - 8 X.&.&.} 1 2 ^ ",
", . # * * % % . @ c R R T T T T T T T T T R T T T T T R T T T T T T T T T T T R T T T T D i n f i l u q f . @ - 7 X.&.&.} 2 2 ^ ",
"2   # * * * % . o c U R T T T T R R R R T T T T R R R R R R R R T T R R R R R R T T T T B 6 N f i l u q f . @ - 7 | %.&.} 1 2 ^ ",
"t   # * * * % . O c U R R T U T R R U R T T R T R R R R R R R R T R R R R R R R T T R T D 6 v e i l u q f X @ - > ~ @.$._ 4 2 ^ ",
",   # * * * % . O c R U U R U U R R R U I T R R R J R R R R R R K T R R R T S R R R R T D < N a i l 0 q f X + 3 3 x |  .N = 4 ^ ",
",   # * * * % . O B U U U U I U U U U I L U U R R S R J T T R K T T T J T T T S T T T T A < v f i l u q f X @ 3 3 & h j : = > ^ ",
",   # * * * % . O z K K A J J J C S S C J J S J S S S S C S S C S J J S S S S S J J S S v y l q i l u q h . + 4 9 7 3 7 9 7 7 ^ ",
",   # * * * % . . z I U I I I I T T T I I I I R I I I I T T I T I I I T I I I T I I I T V 0 v a i l u 0 f . + 4 r q q w q q 0 ^ ",
",   # * * * % . o c U R R R R R R R W R R R R R R R R R R R R R R R R R R R R R R R R R D u n f i l u q h X @ 4 7 > > > - > > ^ ",
",   # * * * % . o z U R R R R R R R R R R R R R R R R R R R R R R R R R R R R R R R T R D u n f i l 0 q r + @ 4 9 9 3 3 4 4 8 ^ ",
", . # * * * % . + z R R R R R T T T T T R T R R R R T T T T T T R T T T T T R T R T T T D u v f i k 6 9 r + + 4 w q q q w e 8 ^ ",
"2   # * * * % . + c R R R R T T T T T T T T R T R R T T T T T T T T T T T T T T R T T T D u v q 6 u > 8 0 . + 4 4 = 1 4 7 w 0 ^ ",
",   # * * * % . + z R R T T T T T T T T T T T T R T T T T T T T T T T R T T T T T T T T D 6 f 6 d i p 8 $ . + 4 1 a / H 4 4 8 ^ ",
", . # * * * % . + b R R T R T T T T T T T T T T R T T T T T T T T T T T T T T T T T T T D 6 0 i m d d 8 $   + 4 9 / @.o.j & 4 ^ ",
"2   # * * * % . + z R R R T T T T T T T T T T T T T T T T T T T T T T T T T T T T T T T D u f 6 6 u 5 : ; . @ 1 p ..%.+.W - : ^ ",
"t   # * * * % . + z R R R T T T T T T T T T T T T T T T T T T T T T T T T T R T T T T T D y v e 6 u 5 8 q X @ - 8 X.%.%.' 2 4 ^ ",
"2 . # * * * %   + z R R R T T T T T T T T T T T T T T T T T T T T T T T T T T T T T T T D i M f i l 0 q h X @ - 8 X.%.&.} 2 : ^ ",
",   # * * * % . + b R R R T T T T T T T T T T T T T T T T T T T T T T T T T T T T T T T D y M f i l u q f . + - 7 X.%.%.| 4 : ^ ",
",   # * * * % . @ z R R T T T T T T T T T T R T T R T T T T T T T T T T T T T T T T T T D i n f i l u 0 f X O = 8 X.&.&.| 1 2 ^ ",
", . # * * * % . @ z R R T T T T T T T T T T T T T T T T T T T T T T T R T R T T T T T T D i n f i l 0 e f . + - 8 X.&.&.| 2 2 ^ ",
"2   # * * * $ . + z R R R R T T T T T T T T T T T T T T R T T R T T T T T R T T T T T T D y n f i l u q f X + - 7 X.&.&.} 1 2 ^ ",
",   # * * * %   + z R R R R R R T T R R R R R R R R R R R R R R R R R R T T T T T T T T D y n a i l u q h X + - 8  .&.%.[ 4 2 ^ "
};
