/* XPM */
static char *result[] = {
/* columns rows colors chars-per-pixel */
"64 64 137 2 ",
"   c #121617",
".  c #141819",
"X  c #1A1E1D",
"o  c #1A1C20",
"O  c #1B2223",
"+  c #1E2528",
"@  c #1E282C",
"#  c #252727",
"$  c #222927",
"%  c #252728",
"&  c #252828",
"*  c #292C2B",
"=  c #2D302F",
"-  c #32332D",
";  c #38372E",
":  c #232D31",
">  c #292F32",
",  c #253135",
"<  c #2F3031",
"1  c #273539",
"2  c #293539",
"3  c #2B3A3F",
"4  c #343532",
"5  c #383733",
"6  c #323937",
"7  c #393A33",
"8  c #353A39",
"9  c #3A3E3B",
"0  c #36453F",
"q  c #3C413D",
"w  c #45443C",
"e  c #2E3C41",
"r  c #313E42",
"t  c #353B4A",
"y  c #383F4C",
"u  c #354344",
"i  c #3A4443",
"p  c #374947",
"a  c #3F4846",
"s  c #35454A",
"d  c #3A424B",
"f  c #3D4A4D",
"g  c #3A4452",
"h  c #3E4A52",
"j  c #3E4C5A",
"k  c #3E5255",
"l  c #3E515B",
"z  c #3C5660",
"x  c #434641",
"c  c #484741",
"v  c #454946",
"b  c #4C4C45",
"n  c #414C4D",
"m  c #4B4C49",
"M  c #45504F",
"N  c #4D524E",
"B  c #414C53",
"V  c #404D58",
"C  c #445153",
"Z  c #4A5455",
"A  c #4F5956",
"S  c #43565B",
"D  c #4D5759",
"F  c #44595F",
"G  c #4E595B",
"H  c #555453",
"J  c #585756",
"K  c #5C5B54",
"L  c #525D5F",
"P  c #5B5D5A",
"I  c #615E53",
"U  c #5D625A",
"Y  c #61625C",
"T  c #445362",
"R  c #465A63",
"E  c #4A5C65",
"W  c #4B5E69",
"Q  c #535E60",
"!  c #496067",
"~  c #4C636D",
"^  c #556366",
"/  c #5B6564",
"(  c #52656C",
")  c #596A6B",
"_  c #4E6772",
"`  c #4E6873",
"'  c #506572",
"]  c #536B73",
"[  c #596E76",
"{  c #556D7A",
"}  c #586F7C",
"|  c #57707D",
" . c #59727C",
".. c #676C63",
"X. c #696C65",
"o. c #626C6A",
"O. c #6E6E6A",
"+. c #64716F",
"@. c #6C716D",
"#. c #71736C",
"$. c #637273",
"%. c #6E7573",
"&. c #747571",
"*. c #767A75",
"=. c #7A7D75",
"-. c #7A7E7B",
";. c #837F74",
":. c #7C817D",
">. c #838176",
",. c #82857D",
"<. c #8D887C",
"1. c #5C7683",
"2. c #5E7A86",
"3. c #5F7B89",
"4. c #617C87",
"5. c #617D88",
"6. c #828881",
"7. c #898982",
"8. c #8C8E89",
"9. c #85918B",
"0. c #8F908F",
"q. c #9B9688",
"w. c #8F9891",
"e. c #989991",
"r. c #99A199",
"t. c #A0A197",
"y. c #A3A39B",
"u. c #A8A79F",
"i. c #A9A8A1",
"p. c #A2ACAA",
"a. c #ABB4AF",
"s. c #B6C3C0",
"d. c #BDC7C4",
"f. c #C9DCE1",
"g. c #CFE3E5",
"h. c #D1E3E3",
"j. c #D2E5EB",
/* pixels */
"m J J J J H v m + t s s s u 2 , 3 r s s s s s s s s u s s s s u s u u s s u s s s s s s s e e e 3 e 1 e 3 3 3 e 1 e 3 3 3 e e 1 ",
"X * < = > *   o & l l C C h 0 3 3 u C l l C l C C l C k C l l C C l C l l C l l l C C h h h f s s s s s s s s s s s s s s s s s ",
"X * = < < *   . : i 0 i u u 8 C n 8 0 i 0 i i i i i u i i i i i s i i i i i 0 i i i i i p i i 0 u i u u i i i i u i i i 0 i s u ",
"X * < = < &   o 6 A A L L Z a L D v D E L L L L L L L L L L L L L L L L L L L L L L L L G ! L L L L L E L L L L E G ^ G L L ! G ",
"X * > - > *   X 6 A P L L Z v L G f G U L L L L L Q L L L ^ L Q L L L ^ L L ^ L Q Q ^ L Q Q Q Q L L L L ^ L L L Q Q E U L Q Q Q ",
"X * < = < *   X 6 n n M n n a Q G a n M M C N B C n M M M M M M M M M n M M M M M n n M M M M M M M M M M M M M M M M M N M M M ",
"X * 4 < < *   X = 0 8 6 6 6 u Z f 8 6 6 6 6 6 6 6 6 6 6 6 6 6 6 6 6 6 6 6 6 6 6 6 6 6 6 6 6 6 6 6 6 6 6 6 6 6 6 6 6 6 2 6 6 6 2 ",
"X = < = < *   . 0 C Z C C n i r 8 n C N C C M B C N C C M M C M C C M C C N C M M C C N C C C B C C N C M C M C C C N C C n 0 v ",
"X * > - < *     i Q L L L L G D D G L G Q L Q Q L G L L Q Q Q Q L L L Q Q Q Q Q Q Q Q Q Q Q Q Q Q Q Q Q Q L L L L L L L L L i n ",
"X * < > < &     r V V h B B B B B B B B B B h m B B B B B n f n n n n n n f f n n n n f n n n n f n h n n f f h f a f f f h 9 i ",
"X = < < < *   X & d d d d y d d d d i y y d d d y y d d y i i a d a a i a a i a i a i d a i a a a i a i r d s u d i s d u u e u ",
"X * < * 4 &   O > E E ~ ! ~ ( ~ ~ W ( ~ W W ( W ( W W ( ' 1.1.1. .3.1.1.1.1.1.3.1.4.1.1.1.1.1.1.1.1. .( ~ ~ ~ ~ ~ ~ ~ ~ ~ R S S ",
"X = = = < *   O + d d d i y i y d d d y d d d d y y t r j 1.1.4.5.5.5.4.4.4.5.5.5.5.5.5.5.5.4.5.5.3.3.] _ _ _ _ _ _ ` ~ S a s p ",
"X * = < > *   % 1 _ _ ] ' ' ' ' ] ` _ _ _ ' _ ` ( ' W Q d V 1.1.5.5.3.5.5.4.4.5.5.5.5.5.5.5.5.5.5.4.1.1.` ` _ _ _ _ ~ k u f k k ",
"X = < < < * . & e 3.3.5.5.5.5.5.5.5.5.3.5.5.5.5.5.5.5.4.W t R 1.5.3.5.4.5.4.5.5.5.5.5.5.5.5.5.5.3.3.3.1.` ` _ _ _ ~ F p l ! ` _ ",
"X * < = > *   & e 3.5.5.5.5.5.5.5.5.5.5.5.5.5.5.5.5.5.5.1.R t W 3.3.5.5.5.5.5.5.5.5.5.5.5.5.5.5.3.3.3.1.` _ ` ` _ ! f f ! _ ` _ ",
"X * = < < *   4 e 3.3.5.5.5.5.5.5.5.5.5.5.5.5.5.5.5.5.5.5.1.T g ' 3.3.4.5.5.5.5.4.5.5.5.5.4.5.5.5.4.3.3.] _ _ _ ~ k p ! _ _ _ _ ",
"X * < < < *   > u 3.5.5.5.5.5.5.5.5.5.5.5.5.5.5.4.5.5.5.5.3.1.d g 1.3.4.5.5.5.5.5.5.5.4.5.5.5.4.5.5.5.3. ._ ~ ~ k 0 k ~ _ ` _ _ ",
"X * = = > *   o e 3.5.5.5.5.5.5.5.5.5.5.5.5.5.5.5.5.5.5.3.3.3.~ t j } 4.5.5.5.5.5.5.5.5.5.5.5.5.5.4.4.4.1.` _ F p k ! _ _ _ _ ` ",
"X = = < < *   X u 5.5.5.3.5.5.5.5.5.5.5.5.5.5.5.5.5.5.5.3.3.3.3.W t R 3.4.4.5.5.4.5.5.5.4.5.5.5.5.5.1.4.2.` ! p p ~ _ _ _ _ _ _ ",
"X * < = < *   X e 5.5.3.3.4.5.5.5.5.5.5.3.3.3.4.5.5.5.5.4.3.3.5.1.j y ] 1.3.4.5.4.4.4.4.5.5.5.4.5.5.3.3.1.! p f ! _ _ _ _ _ _ _ ",
"X * = < < *   o r 5.3.3.3. .] ] [ ] ] ] } 3.3.4.5.4.5.5.4.5.5.5.3.1.g j 1.3.4.5.4.4.5.5.4.5.5.5.5.4.3.3.] f p ! _ _ _ _ ` _ _ _ ",
"X = < < < &   o e 5.5.3.] d - - - - - = y ' 3.3.5.5.5.5.5.4.5.4.3.3.W t ~ 3.5.5.4.5.4.5.5.5.5.5.5.3.3.1.S p ! ~ _ _ _ _ _ _ ` _ ",
"X * < > < *   + r 5.5.1.a 5 b b b b b c 5 v 4.4.5.5.4.5.5.5.4.4.3.3.1.T g | 5.5.5.5.5.5.5.4.5.5.5.4.3. .0 ! ` _ _ _ _ _ _ _ ~ S ",
"X * = < < *   + r 4.5.[ 9 N 8.O.K Y ,.6.N 4 +.5.5.5.5.5.5.5.5.5.3.3.4.' y T 3.3.3.4.5.5.5.5.5.5.5.5.5. .u ` 1.` _ _ _ _ _ ! C 0 ",
"X = < = * *   o r 4.5./ 9 o.0.K &.O.=.r.U - / 3.5.5.5.5.5.5.5.5.5.3.3.3.T y 1.3.3.5.5.5.5.5.5.5.5.5.5. .u ` 1.` _ _ _ _ ~ C q M ",
"X = < = < *   O r 5.5.) 9 $.-.&.d.a...w...5 / 4.5.5.5.5.5.5.5.5.5.5.5.3.1.y j 1.3.4.5.5.5.5.5.5.5.5.5. .0 ` 1.` _ ` _ _ F q C ! ",
"X * = < < *   O r 5.5./ 7 $...9.h.h.*.=...9 / 4.5.5.5.5.5.5.4.5.5.5.3.3.1.T t 1.5.5.5.5.5.5.5.5.5.5.4. .0 ] 3.| _ _ _ S i n ! _ ",
"X * < = < *   O r 3.4./ 7 o.U 9.g.j.:.#...7 / 5.5.5.5.4.5.5.5.5.5.5.5.3.3.1.y T 4.5.5.5.5.5.5.5.5.5.5. .i ] 3. .` _ E x v ~ ~ ' ",
"X * = < < *   + r 5.5./ 8 o.U 9.g.j.:.#...7 / 5.5.5.5.5.5.5.4.5.5.5.3.4.3.3.W y  .5.5.5.5.5.5.5.5.5.5. .0 ] 5. ._ ~ n i F ~ ` ` ",
"X * = < < *   o e 3.5./ 7 o.U 9.g.j.:.#...7 / 5.5.5.5.5.4.4.4.5.5.5.4.3.4.3.1.y ! 5.5.5.5.5.5.5.5.5.5. .0 ] 3.1._ E q D ~ ~ _ _ ",
"X = < = < *   o u 3.5./ 6 o.U 9.g.j.:.#...6 / 5.5.5.4.5.4.4.4.4.5.5.5.5.5.3.1.y ! 5.5.5.5.5.5.5.5.5.5. .u ] 3.3.] R i E ` _ _ _ ",
"X * < = > *   O u 5.4./ 8 o.U 9.h.j.:.#.X.6 U 5.5.5.5.5.5.5.5.5.5.5.5.5.5.5. .f T 4.4.5.4.5.5.5.4.5.5.1.p ] 5.5.] F i E ' ` ` ` ",
"X * < < < &   O e 5.5./ 6 o.U 9.h.j.:.#.X.6 / 4.5.4.5.5.5.4.5.5.5.5.5.5.5.5.} d E 4.5.5.5.5.5.5.5.5.5. .0 ] 5.5.| ! x ! ' ` _ ` ",
"X * = < < *   O r 5.5./ 8 o.U 9.g.j.:.#.X.7 ) 4.5.4.5.4.5.4.4.5.5.5.5.5.5.5. .g E 3.5.5.5.5.5.4.5.5.5. .0 ] 5.5.2.! 0 ! _ _ ` _ ",
"X = < = = *   O r 3.4./ 8 o.U 9.g.j.:.#...6 U 5.5.5.5.5.5.5.5.5.5.5.5.5.5.5. .d E 4.5.5.4.5.5.5.5.5.5. .p | 5.5.2.! q ! _ _ _ _ ",
"X * < < < *   + r 5.5./ 8 o.U 9.g.j.:.#.X.q U 5.5.4.5.5.5.5.5.5.5.5.5.5.5.5. .d E 1.4.4.5.5.5.5.5.5.5. .p ] 5.5.4.! i ! ` _ _ _ ",
"X * < = < *   o e 5.5./ 8 o.U 9.g.j.:.#.Y 7 / 5.5.5.5.5.5.5.4.5.5.5.5.5.5.5. .g E 4.4.4.5.5.5.5.5.5.5. .0 ] 5.5.4.' x E _ _ ` _ ",
"X * = < < *   O r 4.4./ 6 o.U 9.g.j.:.@.X.0 ..4.5.5.4.5.5.5.5.5.5.5.5.5.5.5. .d E 4.5.5.5.5.5.5.5.5.5. .i ] 5.5.4.{ x ! _ _ _ _ ",
"X = = < > *   O r 5.4./ 8 o.U 9.g.j.:.#.Y 0 U 4.5.5.5.5.5.5.5.5.5.5.5.5.5.5. .d E 4.5.5.5.5.5.5.5.5.5.1.0 ] 5.5.3.[ x E ` _ _ _ ",
"X * = < < *   o r 3.5./ 7 o.U 9.h.j.:.#...7 / 4.5.5.5.5.5.5.5.5.5.5.5.4.5.5. .f E 3.4.4.5.5.5.5.5.5.5. .p ] 5.5.3.[ x W _ _ ` _ ",
"X * < < < *   O r 5.4./ 8 o.U 9.g.j.:.@...6 / 4.5.5.5.5.5.5.5.5.5.4.5.5.5.5. .d E 4.4.4.4.5.5.5.5.5.5. .0  .5.5.3.[ x ! _ _ _ _ ",
"X * - = < #   O r 5.5.^ 8 o.U 9.g.j.:.@.Y 7 / 4.4.5.5.5.5.5.5.5.5.5.5.4.5.5. .d E 4.4.4.5.5.5.5.5.5.2. .p ] 5.5.4.} w E _ _ _ _ ",
"X = < < < *   + r 5.4./ 8 o.U 9.g.j.:.@.X.9 / 4.5.5.5.4.4.5.5.5.5.5.5.5.5.5. .g E 3.5.5.5.4.5.5.5.5.2.:.0 ] 5.5.5.{ c E _ _ ` _ ",
"X * < = < *   o e 3.5./ 8 o.U 9.h.f.%.@.X.7 U 5.4.4.4.5.5.5.5.5.5.5.5.5.5.5. .d E 3.4.5.5.5.4.5.5.5.5. .0 ] 5.5.5.[ w E _ _ _ _ ",
"X * = < < *   O u 3.5./ 8 @.#.:.s.p.U ,.X.q / 5.4.4.4.5.5.5.5.5.5.5.5.5.5.5.} f E 3.5.5.4.5.5.5.5.5.5. .0 ] 5.5.5.[ v ~ ` _ ` _ ",
"X * = < > *   O u 3.5./ 6 &.0.U U K U e...6 / 5.5.4.5.4.4.5.5.5.4.5.5.5.5.5. .f T 4.4.4.5.5.5.5.3.3.5.:.p ] 5.5.5. .v ~ _ ` _ _ ",
"X = < = < *   O 8 5.4.) 8 %.y.8.,.7.e.y.X.7 / 2.5.5.5.5.5.5.5.5.5.5.5.5.5.5. .d E 4.4.4.5.5.4.5.3.3.3.` i { 5.5.5.[ v ~ _ _ _ _ ",
"o * 4 > > *   O r 4.5./ 8 %.i.i.u.u.u.t...7 / 4.4.4.4.4.5.5.5.5.5.5.5.5.5.5.} g R 4.5.5.5.5.5.5.3.5.5.2.0 ` 2.5.5.:.p ` ` ` ` ` ",
"X 4 = < > *   O r 4.5.) 9 $.q.<.;.>.>.;.^ 8 ( 4.4.4.5.5.5.5.5.5.5.5.5.5.5.5. .d R 4.5.5.5.5.5.5.5.5.3.:.3 :.5.5.2.` p ` ` ` ` ` ",
"X = < < < *   O r 3.5.( 7 c K I I I I P v 5 ( 4.5.5.5.5.5.5.5.5.5.5.5.5.5.5. .g E 4.5.5.5.5.5.5.3.3.3.` 0 ] 5.5.3.:.3 :.` ! ` ! ",
"X = < = < *   O r 4.5.] 9 ; w w b w w w 4 r $.4.5.5.5.5.5.5.5.5.5.5.5.5.5.5. .d E 4.5.5.5.5.5.5.5.3.3.| p ] 5.5.3.| p ` :.` ` ` ",
"X < = = < *   O 3 3.4. .F q 5 ; 5 5 - 4 y W $.1.4.3.3.3.3.1.3.1.1.2.2.2.3.3.{ g E 3.1.4.1.3.1.3.3.3.5.:.3 ` 2.5.5. .p { ` ` ! ` ",
"X = > < > &   o 3 ` ' ( ( B - 9 c c ; 9 R W _ ' _ _ ` _ ` ` ` ` ' ` ` ` _ _ R r V _ _ _ _ ' ' _ ` ` ` ! s z ` ` _ ! s ! z z z z ",
"X * 4 < > %     O 3 3 3 3 < O - 5 5 * * 2 3 e e e e 3 e 3 3 3 3 3 3 3 3 e e 1 @ : e e e e e e e 3 3 3 3 : 1 3 1 : : @ 1 3 : , , ",
"X 4 > < < * X   . . . . . . .   . . .       . .         . . . . . . . . . .     .       .     . O . . . . . . O X . . . . . . . ",
"X = < = > > % # & # * # # * # # % % % * % # % % & & % # # # & & & & % % % # & # % % % % % * % % % % * % * # # * + $ $ & & & & & ",
"X = < > 4 > > < 4 < < < > < < > < < < < < < < < < < < < < < < < 4 = 4 < > < 4 > < < < < < < < < < < < < * = > < = = < < < < < < ",
"X < < 4 > > < < > < < < < < < < < < < < < < < < < < < < < < < < < < < < < < > < < < < < < < < < < < < < < < < < - 4 < < > 4 < < ",
"X = < < < < < * = < < < < < < < < < < > < < < < < < < < < < < < < < < < < < < < < < < < < < < < < < < < < < < < = < < < < < < < ",
"X # * # * % * * # * % * * * # # % % * * # * # * % * % * * * # * # * # * * # * # % % % * # % # % % % * # * # # * * # # # & * # & ",
"        .             .         . .             .                     .           X   . . . . . . .   . .         . . .         ",
"8 8 8 8 5 8 8 8 8 8 8 8 5 8 8 8 5 8 8 8 8 8 8 8 5 8 8 8 5 8 8 8 8 8 8 8 8 5 8 8 8 8 5 8 5 8 8 8 8 5 8 8 8 8 8 8 5 8 8 8 8 8 8 8 ",
"0.0.0.0.0.0.0.0.0.0.0.0.0.0.0.0.0.0.0.0.0.0.0.0.0.0.0.0.0.0.0.0.0.0.0.0.0.0.0.0.0.0.0.0.0.0.0.0.0.0.0.0.0.0.0.0.0.0.0.0.0.0.0.0."
};
