/* XPM */
static char *eb378fc466124f1bf803237452826edfye7qfU9dAsEZdEj8[] = {
/* columns rows colors chars-per-pixel */
"64 64 130 2 ",
"   c #111516",
".  c #131718",
"X  c #151B1B",
"o  c #181D1C",
"O  c #161D20",
"+  c #172122",
"@  c #1C2324",
"#  c #1F2826",
"$  c #1C262A",
"%  c #1F2828",
"&  c #212626",
"*  c #252927",
"=  c #272B2A",
"-  c #2A2E2D",
";  c #2D302F",
":  c #32332D",
">  c #272F31",
",  c #2D2F30",
"<  c #263133",
"1  c #2D3030",
"2  c #333733",
"3  c #363832",
"4  c #3B3B35",
"5  c #353938",
"6  c #3B3F3B",
"7  c #33433F",
"8  c #3C413C",
"9  c #424137",
"0  c #44433B",
"q  c #2D3B40",
"w  c #363E44",
"e  c #383F43",
"r  c #333D4B",
"t  c #364441",
"y  c #3B4344",
"u  c #354847",
"i  c #33404C",
"p  c #3A4449",
"a  c #364A4B",
"s  c #3F4849",
"d  c #394452",
"f  c #364A50",
"g  c #3A4B55",
"h  c #3D4D5B",
"j  c #3E5257",
"k  c #3D5259",
"l  c #3F5860",
"z  c #454640",
"x  c #434846",
"c  c #444B4D",
"v  c #484C48",
"b  c #48524F",
"n  c #565349",
"m  c #59574D",
"M  c #404F5C",
"N  c #475455",
"B  c #495352",
"V  c #41545B",
"C  c #44595F",
"Z  c #49585E",
"A  c #555552",
"S  c #535851",
"D  c #585B54",
"F  c #5B5D5B",
"G  c #5F6059",
"H  c #62625E",
"J  c #445563",
"K  c #455B64",
"L  c #495C65",
"P  c #4A5E6A",
"I  c #4B6067",
"U  c #466069",
"Y  c #4C636D",
"T  c #4C6571",
"R  c #4D6972",
"E  c #526B73",
"W  c #586D74",
"Q  c #556E7B",
"!  c #5E7172",
"~  c #56707C",
"^  c #59747D",
"/  c #636361",
"(  c #666A62",
")  c #696C64",
"_  c #736F64",
"`  c #6D726C",
"'  c #6D7672",
"]  c #63797F",
"[  c #767777",
"{  c #757A73",
"}  c #767778",
"|  c #777A7B",
" . c #7A7D7F",
".. c #837F72",
"X. c #7D817B",
"o. c #80807F",
"O. c #597582",
"+. c #5E7B86",
"@. c #627B82",
"#. c #607A84",
"$. c #7B8582",
"%. c #838382",
"&. c #868687",
"*. c #878F86",
"=. c #8B8A84",
"-. c #808A88",
";. c #878D8A",
":. c #8C9087",
">. c #8A908D",
",. c #8D938D",
"<. c #91938A",
"1. c #96988F",
"2. c #929993",
"3. c #9F9D93",
"4. c #A09D92",
"5. c #9BA09A",
"6. c #9FA098",
"7. c #A8A59C",
"8. c #A8A8A1",
"9. c #A6B2AE",
"0. c #A3B4B0",
"q. c #A5B7B5",
"w. c #AEB6B1",
"e. c #B1BFBE",
"r. c #C1D4D9",
"t. c #C3D6D9",
"y. c #C4D7DB",
"u. c #CFE0E2",
"i. c #D4E3E1",
"p. c #D4E4E9",
/* pixels */
"D H / / / F A A F &.&.&.&.&.&.&.&.&.&.&.&.&.&.&.&.&.&.&.&.&.&.&.&.&.&.&.&.&.&.&.&.&.&.&.&.&.&.&.&.&.&.&.&.&.&.&.&.&.&.&.&.&.&.&.",
"o - - , , =   X > & @ @ & $ & & & & & @ & & @ @ & $ & & & & & @ & & % @ & @ & & & & & & & $ @ $ & & @ & & & & & & @ & @ & @ & & ",
"o - , , , =   O O X X X X . . X X X X . . X X X X X . . X X X . X X X X X X . X X X . . . X . X X . . o X X X X . X X X X X .   ",
"o - 1 - , *   X , - = - - = - = = = = = = = - - = = = - = = = = - * = = & * - - = = = = = = - - - = = = = = = = = = - = - = & X ",
"o - ; ; ; =   X 2 , , , , , , 1 , , , 2 1 1 , , , 1 , , 2 - 2 , , , , , , 1 1 1 , , , 2 1 1 , , 1 1 , 2 - , 2 - ; ; ; ; , , - . ",
"o - ; ; - =   X 1 - 2 , , , , 1 , , , , 1 1 , , 1 1 , , , , , , , 2 , , , , 1 1 , , , , 1 1 1 : 1 1 , , , , , , 1 ; < ; - , - X ",
"o = ; ; 2 =   X 1 , - , , - , , , , , , , , > > , , , - , - , , , , , , , , , , ; , , - , , - - 1 - , ; , - , , > > ; < ; ; ; . ",
"o - ; ; - =   . < @ @ @ @ @ @ @ @ @ & O @ $ $ O @ @ @ @ @ @ & O O @ & O @ @ @ @ @ & O & @ @ & o @ @ @ @ @ @ & O @ & > 1 ; ; ; X ",
"o - ; ; ; *     1               O .         O         .     O O .                                     X           X = < ; ; ; X ",
"o - ; ; ; *     < $ $ $ X $ $ $ $ $ $ $ $ $ $ $ + O + $ $ $ $ $ % $ $ $ $ $ $ $ $ $ $ $ $ $ X & & & X o $ $ $ $ +   > 1 ; ; ; X ",
"o = ; ; ; =   X 5 J K k 5 k K K l l l l l l l l h q h l l l U U K K K K K l K K K K l l k s : z 0 0 - 7 C C K K t   = < ; ; = X ",
"o - ; ; ; =   o k +.+.E u Y +.+.O.O.+.O.O.O.+.O.T r T O.O.O.O.O.O.O.O.O.O.O.O.O.O.O.^ E M e : 3 4 4 : 8 Z E ^ +.g   > 1 ; ; ; X ",
"o - ; ; < *   @ l +.$.R t R $.O.+.+.+.+.O.+.+.+.l r R +.+.+.+.+.O.+.+.+.O.+.+.+.+.O.] B 2 2 4 4 9 0 9 3 7 Z @.+.j   ; ; ; ; = X ",
"o = ; ; 2 #   # l O.O.O.u R $.O.+.+.+.+.+.+.+.+.T d R +.+.+.+.+.+.+.+.+.+.+.+.+.+.+.^ y 5 v m m m m n 0 : N +.+.j   - ; ; ; - X ",
"o - ; ; < < O < l O.O.R f R O.O.+.+.+.+.+.+.+.O.U i Q O.+.+.+.+.+.+.+.+.+.+.+.+.+.+.W e c ` _ _ _ _ ..` t V O.O.j   ; ; ; ; - X ",
"o - ; ; < $   $ l +.$.R q R O.$.+.+.+.+.+.+.+.O.T i R $.+.+.+.+.+.+.+.+.+.+.+.+.+.+.! 6 A >.4.3.4.4.7.<.u f $.$.j   ; ; ; ; - X ",
"o - ; ; ; *   2 l +.+.^ u R +.+.+.+.+.+.+.+.+.+.U i R O.O.$.+.+.+.+.+.+.O.$.$.O.+.+.! 8 S 2.8.3.4.6.8.>.8 b X.O.k   > ; ; ; = X ",
"o = ; ; ; =   < U +.+.R u R +.+.+.+.+.+.+.+.+.+.T i R $.O.O.+.+.+.+.+.+.O.O.O.O.+.+.! 4 S 2.=.D S A =.>.8 j O.$.k   - ; ; ; * o ",
"o - ; ; ; =   X U +.$.^ 7 R X.+.+.+.+.+.+.O.+.+.U i R O.O.+.+.+.+.+.+.+.O.+.O.$.+.+.! 8 S <.H ` 5.$.` ;.u j O.O.k   < > ; ; * o ",
"o - ; ; ; *   X l +.O.R 7 R +.+.+.+.+.+.+.$.+.+.R f R O.+.+.+.+.+.+.+.+.+.+.O.$.+.+.! 8 A X.S 0.u.0.D [ u f $.$.k   < < ; ; * o ",
"o - ; ; ; =   X l +.+.R f R +.+.+.+.+.+.+.+.+.+.U f R O.+.+.+.+.+.+.+.+.+.+.+.@.+.@.! 8 S { G r.p.q.D ' y b O.O.j   ; ; ; ; * o ",
"o - ; ; ; =   + l O.+.O.a R +.+.+.+.+.+.+.+.+.+.U i R $.+.+.+.+.+.+.+.+.+.+.+.+.+.+.! 8 S { G t.p.q.D ' y b O.$.j   - ; ; ; * o ",
"o = ; ; ; *   + l $.O.X.u R +.+.+.+.+.+.+.+.+.+.U f O.+.+.+.+.+.+.+.+.+.+.+.+.+.+.+.! 8 S X.G t.p.q.D ' y b ] O.j X - ; ; ; * o ",
"o - ; ; 1 =   + l O.O.R u R +.+.+.+.+.+.+.+.+.+.U f R +.+.+.+.+.+.+.+.+.+.+.+.+.+.+.! 4 S X.G t.p.q.D ' 8 B ] $.j   - ; ; : * X ",
"o = ; ; ; =   O L +.+.W u R $.O.+.+.+.+.+.+.+.+.R a R $.+.+.+.+.+.+.+.+.+.+.+.+.+.+.! 8 S X.G t.p.q.D ' u k O.O.j   ; ; ; ; * o ",
"o - ; ; ; =   O Z #.+.W u R O.O.+.+.+.+.+.+.+.+.U a R O.+.+.+.+.+.+.+.+.+.+.+.+.+.+.! 8 S { H y.p.q.D ' u f $.O.j   > ; ; ; * X ",
"o = ; ; ; *   + l O.+.Q f R +.+.+.+.+.+.+.+.+.+.U a R O.+.+.+.+.+.+.+.+.+.+.+.+.+.+.! 7 S { G t.p.q.S ' 7 b O.$.j   ; ; ; ; * o ",
"o ; ; ; ; *   + l O.$.E f R +.O.+.+.+.+.+.+.+.+.U a R +.+.+.+.+.+.+.$.O.+.+.+.+.+.^ ! 7 S X.G t.p.q.G ' 7 b O.$.j X - ; ; ; * o ",
"o - ; ; ; =   + l +.O.R u R O.O.+.+.+.+.+.+.+.+.R f R $.O.O.+.+.+.+.+.+.+.+.+.+.O.O.R 7 S X.G y.p.q.D ' s b ] O.j   - ; ; ; * o ",
"o = ; ; ; =   + K +.$.E u R O.$.+.+.+.+.+.+.+.+.U q R O.+.O.+.+.+.+.+.+.+.+.+.+.$.O.~ u S X.G y.p.q.D ' 8 b ] $.j   - ; ; ; * o ",
"o = ; ; ; =   + l +.+.E u E $.O.+.+.+.+.+.+.+.+.R i R O.+.O.O.+.+.+.+.+.+.+.+.+.O.$.! 8 S X.G y.p.q.D ' t B O.O.j X - ; ; ; * o ",
"o ; ; ; ; =   + l +.+.Q 7 R $.O.+.+.+.+.+.+.+.+.U f R $.+.$.+.+.+.+.+.+.+.+.+.+.X.^ ! 8 b X.G y.p.0.D ' t b +.$.j   - ; ; : * o ",
"o = ; ; ; *   + l O.$.R a O.+.+.+.+.+.+.+.+.+.+.T r Q +.+.+.+.+.+.+.+.+.+.+.+.+.+.+.! 8 S { G t.p.q.D ' s b ] O.k   ; ; ; ; * o ",
"o ; ; ; ; =   + l O.O.R u R +.+.+.+.+.+.+.+.+.+.T r T +.+.+.+.+.+.+.+.+.+.+.+.+.+.+.! 8 S X.G t.p.q.S ' 8 B ] $.k   > ; ; ; * o ",
"o - ; ; ; =   + l R O.R q R +.+.+.+.+.+.+.+.+.+.O.r T O.+.+.+.+.+.+.+.+.+.+.+.+.+.+.! 5 S { G t.p.q.G ' t B O.O.k   < ; ; ; * o ",
"X - ; ; ; =   + l R $.R u R +.+.+.+.+.+.+.+.+.+.O.h h O.+.+.+.+.+.+.+.+.+.+.+.+.+.+.! 7 S X.G r.p.0.D ' t B O.$.k   - < ; ; * o ",
"o - ; ; : *   + l O.O.R u R $.O.+.+.+.+.+.+.+.+.O.T d T O.O.+.+.+.+.+.+.+.+.+.+.O.O.~ t S X.G y.p.q.D ' y B +.+.j   - ; ; ; * o ",
"o - ; ; < =   + f R +.R a R O.O.+.+.+.+.+.+.+.+.+.O.d d O.O.O.+.+.+.+.+.+.+.+.+.$.O.~ u S ;.H e.i.9.( $.x B +.O.j   - ; ; ; & o ",
"o = ; ; < >   + l R O.R q R +.O.+.+.+.+.+.+.+.+.+.O.T r U O.+.+.+.+.+.+.+.$.+.+.O.$.! 8 v 2.{ { w.{ ( $.7 B +.$.j X ; ; ; ; * o ",
"o - ; ; < $   + l R O.R f R +.O.+.+.+.+.+.+.+.+.+.O.O.h d O.O.+.+.+.+.+.+.+.+.+.O.$.! 8 8 ,.3.H G m :.$.8 B ] +.j   - ; ; : * o ",
"o - ; ; ; =   + j R E R 7 R $.O.+.+.+.+.+.+.+.+.O.+.O.Q i U O.O.+.+.+.+.+.+.+.+.+.+.$.f 5 ! { ) G G X.U 5 U +.+.j   ; ; ; ; = X ",
"o - ; ; ; *   + j U R U 7 E O.O.+.+.+.+.+.+.+.+.+.+.+.O.l f T O.+.+.+.+.+.+.+.+.+.+.O.U 5 < 3 4 8 8 5 < q O.+.+.j   - ; ; ; = X ",
"o - ; ; : *   o j U C u j O.O.O.+.+.+.+.+.+.+.+.+.+.+.O.O.r h O.O.+.+.+.+.+.+.+.+.+.O.O.l r r i t 8 q f R $.+.+.j   ; ; ; ; * X ",
"o = ; ; 1 *   + j U u f E $.O.$.+.+.+.+.+.+.+.+.+.+.+.+.O.l r U +.+.+.+.+.+.+.+.+.+.+.+.O.O.O.O.^ ^ O.O.O.O.+.+.j X - ; ; ; * o ",
"X = ; ; 1 *   @ g a a U O.+.+.+.+.+.+.+.+.+.+.+.+.+.+.+.O.O.f f O.O.O.+.+.+.+.+.+.+.+.+.+.+.+.+.+.+.+.+.$.O.O.+.j o - ; ; ; * X ",
"o - ; ; 1 -   + i i U R O.+.+.+.+.+.+.+.+.+.+.+.+.+.+.O.O.O.R i f O.O.O.+.+.+.+.+.+.O.+.+.+.+.+.+.+.+.+.O.O.O.+.j   > ; ; ; * o ",
"o - ; ; ; *   X r K P P O.+.+.+.+.+.+.+.+.+.+.+.+.+.+.+.$.O.O.R r l O.O.O.+.+.+.+.+.+.+.+.+.+.+.+.+.+.+.$.O.O.O.k   ; - ; ; * o ",
"X - ; ; 1 =   @ d P T P O.+.+.+.+.+.+.+.+.+.+.+.+.+.+.+.+.O.+.O.l r U O.+.+.+.+.+.+.+.+.+.+.+.+.+.+.+.+.O.O.$.$.C   : ; ; : & o ",
"+ ; ; ; 1 = . @ g Y Y U R O.+.+.#.+.+.+.+.+.$.O.O.+.+.+.+.+.+.O.~ h d E +.#.+.+.+.+.+.+.+.+.+.#.+.+.+.+.+.+.+.+.k X 1 1 ; ; * o ",
"o ; ; ; - =   O j Y T Y R O.+.+.+.+.+.+.#.+.#.+.$.O.+.+.+.+.+.+.+.Q d g O.+.+.#.+.+.+.+.+.+.+.#.+.+.O.$.#.#.+.+.k   - 1 ; ; * o ",
"+ ; ; ; ; =   + k T T T U O.+.O.+.+.+.+.+.+.+.+.$.+.+.+.+.+.O.$.+.O.T r d O.O.+.+.+.+.+.+.+.+.O.+.+.O.O.+.O.+.O.h   1 1 ; ; * o ",
"o ; ; ; ; *   + k Y T T T Q O.+.+.+.+.+.+.+.+.+.O.+.+.+.+.O.O.O.+.+.O.P r h J L J P K K K P L P K U l U L K K K i   - 1 ; ; * o ",
"o ; ; ; ; =   + k T Y T U T O.+.+.+.+.+.#.#.#.#.O.$.$.O.O.$.$.O.#.+.+.O.L e r e r r e e e p e e i i w p e p i i < X - ; ; ; * o ",
"o ; ; ; ; %   + a U U U P U ~ ~ ^ ^ ^ ^ O.~ O.O.R O.~ O.O.R ~ ~ ^ ~ Q Q Q T Y Y T T T T Y P T T Y T Y Y Y T Y L i . - ; ; ; & o ",
"o ; ; ; > %     < t 6 w e 7 t t 8 7 t 8 w e w e i i i u q a q u t 8 e e w w e r e r e e w w w w w t w w w w w r <   - ; ; ; = X ",
"o ; ; ; > * X   X $ @ $ @ $ % % $ $ @ $ & $ @ & $ $ + $ $ $ $ $ $ @ & $ $ & & & & O & * $ $ & $ $ % $ # & $ & = @ X o + o o o   ",
"X ; 1 ; 1 > & % & & & & & & = & * * & & & & = * & * * * & * & & & & & & * * & & * * & & * & * * = & & * & * * & & & & & * * & * ",
"+ ; ; ; < < 1 , , , 1 1 1 1 1 , , , , , , , , , , , , , , , , , 1 , 1 1 , 1 , , , , , , , , , , , , , , , , , , ; ; 1 1 , 1 , , ",
"o ; 1 1 , < , , 1 1 1 1 1 1 , 1 , , , , , , , , , , , , , , , , 1 , 1 1 1 1 1 1 , , , , , , , , , , , , , , , , ; ; ; 1 1 1 , , ",
"X ; 1 ; ; ; , , 1 1 1 1 1 1 1 1 , , , , , , , , , , , , , , , , 1 1 1 1 1 1 1 1 , , , , , , , , , , , , , , , , ; ; 1 1 1 1 1 1 ",
"o & * * * * * * * * * & = * & * * * * * * * * * = * * * * * * * * * * * = & = & * * * * * * * = * * & * * * * * & * * & = & * & ",
"                        .     .   .         . .                       .     . . . .           . .     . . .     .   .         . ",
"5 5 5 5 5 5 5 5 5 5 5 5 5 5 5 5 5 5 5 5 5 5 5 5 5 5 5 5 5 5 5 5 5 5 4 5 5 6 3 5 6 5 5 5 5 5 4 4 5 5 5 5 5 5 4 9 3 5 5 5 5 5 5 5 ",
"| | | | | | | | | | | | | | | | ..@. .o...@.%...@.o.o.@. . . . . . .%.@.o...@. ...@. . . . .@.| } } } | %...@.@.| %.%.%.%.%.%.%."
};
