/* XPM */
static char *result[] = {
/* columns rows colors chars-per-pixel */
"64 64 96 2 ",
"   c #010201",
".  c #050C03",
"X  c #070708",
"o  c #060809",
"O  c #0B0B0B",
"+  c #071104",
"@  c #091505",
"#  c #0B1A06",
"$  c #0B1708",
"%  c #0C1B08",
"&  c #100F10",
"*  c #0D1113",
"=  c #131313",
"-  c #111619",
";  c #161C1F",
":  c #1C1C1C",
">  c #0F2109",
",  c #11250A",
"<  c #122B0C",
"1  c #173410",
"2  c #161C20",
"3  c #181F23",
"4  c #201F20",
"5  c #192025",
"6  c #1F262B",
"7  c #232323",
"8  c #20292E",
"9  c #2B2A2B",
"0  c #212B31",
"q  c #302F30",
"w  c #2D3032",
"e  c #353535",
"r  c #3B3A3B",
"t  c #313F48",
"y  c #33414A",
"u  c #3C4B54",
"i  c #3D4E59",
"p  c #434343",
"a  c #4C4C4C",
"s  c #535353",
"d  c #5A5A5A",
"f  c #435661",
"g  c #465965",
"h  c #495B66",
"j  c #475C68",
"k  c #495E6B",
"l  c #4C616F",
"z  c #4D6370",
"x  c #516470",
"c  c #546A77",
"v  c #556C7A",
"b  c #58707E",
"n  c #636363",
"m  c #6C6C6C",
"M  c #737373",
"N  c #7C7C7C",
"B  c #5C7584",
"V  c #657C8A",
"C  c #668191",
"Z  c #6E8A9B",
"A  c #708B9B",
"S  c #7693A5",
"D  c #7D9CAE",
"F  c #848484",
"G  c #8E8E8E",
"H  c #939393",
"J  c #9C9C9C",
"K  c #82A3B6",
"L  c #A2A2A2",
"P  c #ACACAC",
"I  c #B3B3B3",
"U  c #BBBBBB",
"Y  c #8BADC1",
"T  c #8FB1C6",
"R  c #95B9CF",
"E  c #96BAD0",
"W  c #9ABFD5",
"Q  c #9CC0D7",
"!  c #9DC2D8",
"~  c #B0C4D0",
"^  c #B4D0E1",
"/  c gray77",
"(  c #CBCBCB",
")  c #C3D1DA",
"_  c LightGray",
"`  c #DBDBDB",
"'  c #C0D7E5",
"]  c #CEE0EB",
"[  c #DEEAF1",
"{  c #E3E3E3",
"}  c #EBEBEB",
"|  c #F2F2F2",
" . c #F3F7F9",
".. c #F2F8FB",
"X. c #FFFFFF",
"o. c None",
/* pixels */
"o.o.o.o.o.o.o.o.o.o.o.o.o.o.o.o.o.o.o.o.o.o.o.o.o.o.o.o.o.o.o.o.o.o.o.o.o.o.o.o.o.o.o.o.o.o.o.o.o.o.o.o.o.o.o.o.o.o.o.o.o.o.o.o.",
"o.o.o.o.o.o.o.o.o.o.o.o.o.o.o.o.o.o.o.o.o.o.o.o.o.o.o.o.o.o.o.o.o.o.o.o.o.o.o.o.o.o.o.o.o.o.o.o.o.o.o.o.o.o.o.o.o.o.o.o.o.o.o.o.",
"o.o.o.o.o.o.o.o.o.o.o.o.o.o.o.o.o.o.o.o.o.o.o.o.o.o.o.o.o.o.o.o.o.o.o.o.o.o.o.o.o.o.o.o.o.o.o.o.o.o.o.o.o.o.o.o.o.o.o.o.o.o.o.o.",
"o.o.o.o.o.o.o.o.o.o.o.o.o.o.o.o.o.o.o.o.o.o.o.o.o.o.o.o.o.o.o.o.o.o.o.o.o.o.o.o.o.o.o.o.o.o.o.o.o.o.o.o.o.o.o.o.o.o.o.o.o.o.o.o.",
"o.o.o.o.o.o.o.o.o.o.o.o.o.o.o.o.o.o.o.o.o.o.o.o.o.o.o.o.o.o.o.o.o.o.o.o.o.o.o.o.o.o.o.o.o.o.o.o.o.o.o.o.o.o.o.o.o.o.o.o.o.o.o.o.",
"o.o.o.o.o.o.o.o.o.o.o.o.o.o.o.o.o.o.o.o.o.o.o.o.o.o.o.o.o.o.o.o.o.o.o.o.o.o.o.o.o.o.o.o.o.o.o.o.o.o.o.o.o.o.o.o.o.o.o.o.o.o.o.o.",
"o.o.o.o.o.o.o.o.o.o.o.o.o.o.o.o.o.o.o.o.o.o.o.o.o.o.o.o.o.o.o.o.o.o.o.o.o.o.o.o.o.o.o.o.o.o.o.o.o.o.o.o.o.o.o.o.o.o.o.o.o.o.o.o.",
"o.o.o.o.o.o.o.o.o.o.o.o.o.o.o.o.o.o.o.o.o.o.o.o.o.o.o.o.o.o.o.o.o.o.o.o.o.o.o.o.o.o.o.o.o.o.o.o.o.o.o.o.o.o.o.o.o.o.o.o.o.o.o.o.",
"o.o.o.o.o.o.o.o.o.o.o.o.o.o.o.o.o.o.o.o.o.o.o.o.o.o.o.o.o.o.o.o.o.o.o.o.o.o.o.o.o.o.o.o.o.o.o.o.o.o.o.o.o.o.o.o.o.o.o.o.o.o.o.o.",
"o.o.o.o.o.o.o.o.o.o.o.o.o.o.o.o.o.o.o.o.o.o.o.% #               # o.o.o.o.o.o.o.o.o.o.o.o.o.o.o.o.o.o.o.o.o.o.o.o.o.o.o.o.o.o.o.",
"o.o.o.o.o.o.o.o.o.o.o.o.o.o.o.o.o.o.o.o.o.o.+   = r r r r r r e = . # o.o.o.o.o.o.o.o.o.o.o.o.o.o.o.o.o.o.o.o.o.o.o.o.o.o.o.o.o.",
"o.o.o.o.o.o.o.o.o.o.o.o.o.o.o.o.o.o.o.o.o.. O a J } | } } } } } F =   + o.o.o.o.o.o.o.o.o.o.o.o.o.o.o.o.o.o.o.o.o.o.o.o.o.o.o.o.",
"o.o.o.o.o.o.o.o.o.o.o.o.o.o.o.o.o.o.o.o.. O m { X.X.X.X.X.X.X.X.| U d X + o.o.o.o.o.o.o.o.o.o.o.o.o.o.o.o.o.o.o.o.o.o.o.o.o.o.o.",
"o.o.o.o.o.o.o.o.o.o.o.o.o.o.o.o.o.o.o.. X m } X.X.X.X.X.X.X.X.X.X.X.{ d X + o.o.o.o.o.o.o.o.o.o.o.o.o.o.o.o.o.o.o.o.o.o.o.o.o.o.",
"o.o.o.o.o.o.o.o.o.o.o.o.o.o.o.o.o.o.o.  7 _ X.X.X.X.X.X.X.X.X.X.X.X.X.{ d O . @ @ @ @ # # $ # # o.o.o.o.o.o.o.o.o.o.o.o.o.o.o.o.",
"o.o.o.o.o.o.o.o.o.o.o.o.o.o.o.o.o.o.+   d P U U U U U { X.X.X.X.X.X.X.X.` r                     . % o.o.o.o.o.o.o.o.o.o.o.o.o.o.",
"o.o.o.o.o.o.o.o.o.o.o.o.o.o.o.o.> .     X O O O O O & s L } X.X.X.X.X.X.X.G & & n N N N F N N N p   @ o.o.o.o.o.o.o.o.o.o.o.o.o.",
"o.o.o.o.o.o.o.o.o.o.o.o.o.o.o..   = e e e e e e w 8 6 O = a I X.X.X.X.X.X.| N O M X.X.X.X.X.X.X.( e   o.o.o.o.o.o.o.o.o.o.o.o.o.",
"o.o.o.o.o.o.o.o.o.o.o.o.o.o.+ O a J } } } } } } ) T Y c *   9 I X.X.X.X.X.X./ 7 9 ( X.X.X.X.X.X.| p   o.o.o.o.o.o.o.o.o.o.o.o.o.",
"o.o.o.o.o.o.o.o.o.o.o.o.o.. 6 V ~  .X.X.X.X.X...^ Q ! R A u   9 / X.X.X.X.X.| d   H X.X.X.X.X.X.| p   o.o.o.o.o.o.o.o.o.o.o.o.o.",
"o.o.o.o.o.o.o.o.o.o.o.o.. X j E Q ' [ [ [ [ [ ] ! W W W ! Y u X N | X.X.X.X. .d   G X.X.X.X.X.X.| p   o.o.o.o.o.o.o.o.o.o.o.o.o.",
"o.o.o.o.o.o.o.o.o.o.o.,   2 D W Q Q Q Q ! ! Q ! W W W W W ! S O & G  .X.X.X. .d   G X.X.X.X.X.X.| p   o.o.o.o.o.o.o.o.o.o.o.o.o.",
"o.o.o.o.o.o.o.o.o.o.o.@   x E W Q W W W W W W W W W W W W ! D 2   s | X.X.X. .d   H X.X.X.X.X.X.} p   o.o.o.o.o.o.o.o.o.o.o.o.o.",
"o.o.o.o.o.o.o.o.o.o.o.@ X V ! Q ! W W W W W W W W W W W W R S y   a | X.X.X. .d   G X.X.X.X.X.X.| p   o.o.o.o.o.o.o.o.o.o.o.o.o.",
"o.o.o.o.o.o.o.o.o.o.o.@   u K Y T W W W W W ! W ! W ! E K C v f - : I X.X.X.X.d   G X.X.X.X.X.X.| p   o.o.o.o.o.o.o.o.o.o.o.o.o.",
"o.o.o.o.o.o.o.o.o.o.o.,   * f c B D D K D D D D D D D Z b l l j 2   H X.X.X. .d   G X.X.X.X.X.X.} p   o.o.o.o.o.o.o.o.o.o.o.o.o.",
"o.o.o.o.o.o.o.o.o.o.o.o..   0 g k k k k z z l l z z z z l g f t o O L X.X.X. .d   G X.X.X.X.X.X.| p   o.o.o.o.o.o.o.o.o.o.o.o.o.",
"o.o.o.o.o.o.o.o.o.o.o.o.o.. X 0 y f k k k k j g y y t y y 6 * o O m } X.X.X.| d   G X.X.X.X.X.X.| p   o.o.o.o.o.o.o.o.o.o.o.o.o.",
"o.o.o.o.o.o.o.o.o.o.o.o.o.o..     = 8 8 8 8 8 3 X           O = M } X.X.X.X.X.d   G X.X.X.X.X.X.| p   o.o.o.o.o.o.o.o.o.o.o.o.o.",
"o.o.o.o.o.o.o.o.o.o.o.o.o.o.o.,                 = 3 e p p p J / } X.X.X.X.X. .d   G X.X.X.X.X.X._ e   o.o.o.o.o.o.o.o.o.o.o.o.o.",
"o.o.o.o.o.o.o.o.o.o.o.o.o.o.o.o.@ X a M M m M m L P ` | } | X.X.X.X.X.X.X.X. .d   G X.X.X.X.X.X.N     o.o.o.o.o.o.o.o.o.o.o.o.o.",
"o.o.o.o.o.o.o.o.o.o.o.o.o.o.o.o.@ O P X.X.X.X.X.X.X.X.X.X.X.X.X.X.X.X.X.X.X.| d   G X.X.X.X.X.X.N   . o.o.o.o.o.o.o.o.o.o.o.o.o.",
"o.o.o.o.o.o.o.o.o.o.o.o.o.o.o.o.+ O I X.X.X.X.X.X.X.X.X.X.X.X.X.X.X.X.X.X.X.X.d   G X.X.X.X.X.X.M   % o.o.o.o.o.o.o.o.o.o.o.o.o.",
"o.o.o.o.o.o.o.o.o.o.o.o.o.o.o.o.+ O I X.X.X.X.X.X.X.X.X.X.X.X.X.X.X.X.X.X.X. .d   G X.X.X.X.X.X.M   % o.o.o.o.o.o.o.o.o.o.o.o.o.",
"o.o.o.o.o.o.o.o.o.o.o.o.o.o.o.o.+ . F X.X.X.X.X.X.X.X.X.X.X.X.X.X.X.X.X.X.X. .d   G X.X.X.X.X.X.M   % o.o.o.o.o.o.o.o.o.o.o.o.o.",
"o.o.o.o.o.o.o.o.o.o.o.o.o.o.o.o.<   e { X.X.X.X.X.X.X.X.X.X.X.X.X.X.X.X.X.X. .d   G X.X.X.X.X.X.M   % o.o.o.o.o.o.o.o.o.o.o.o.o.",
"o.o.o.o.o.o.o.o.o.o.o.o.o.o.o.o.o.  9 { X.X.X.X.X.X.X.X.X.X.X.X.X.X.X.X.X.X.{ p   G X.X.X.X.X./ 9   % o.o.o.o.o.o.o.o.o.o.o.o.o.",
"o.o.o.o.o.o.o.o.o.o.o.o.o.o.o.o.o.  9 ` X.X.X.X.X.X.X.X.X.X.X.X.X.X.X.X.X.X.P O 7 U X.X.X.X.| N X . o.o.o.o.o.o.o.o.o.o.o.o.o.o.",
"o.o.o.o.o.o.o.o.o.o.o.o.o.o.o.o.o.. O F X.X.X.X.X.X.X.X.X.X.X.X.X.X.X.X.X.X.J   a | { _ _ _ N O . o.o.o.o.o.o.o.o.o.o.o.o.o.o.o.",
"o.o.o.o.o.o.o.o.o.o.o.o.o.o.o.o.o.>   d  .X.X.X.X.X.X.X.X.X.X.X.X.X.X.X.X.X.L   e H p : 7 : O . o.o.o.o.o.o.o.o.o.o.o.o.o.o.o.o.",
"o.o.o.o.o.o.o.o.o.o.o.o.o.o.o.o.o.o.  7 / X.X.X.X.X.X.X.X.X.X.X.X.X.X.X.X.X.L X   X       . . o.o.o.o.o.o.o.o.o.o.o.o.o.o.o.o.o.",
"o.o.o.o.o.o.o.o.o.o.o.o.o.o.o.o.o.o.+ X L X.X.X.X.X.X.X.X.X.X.X.X.X.X.X.X.X.L X     . o.o.o.o.o.o.o.o.o.o.o.o.o.o.o.o.o.o.o.o.o.",
"o.o.o.o.o.o.o.o.o.o.o.o.o.o.o.o.o.o.# . J X.X.X.X.X.X.X.X.X.X.X.X.X.X.X.X.X.J   7 r   @ o.o.o.o.o.o.o.o.o.o.o.o.o.o.o.o.o.o.o.o.",
"o.o.o.o.o.o.o.o.o.o.o.o.o.o.o.o.o.o.o.  r ` X.X.X.X.X.X.X.X.X.X.X.X.X.X.X.` r   m ( a   . < o.o.o.o.o.o.o.o.o.o.o.o.o.o.o.o.o.o.",
"o.o.o.o.o.o.o.o.o.o.o.o.o.o.o.o.o.o.+ X a { X.X.X.X.X.X.X.X.X.X.X.X.X. .| H O 4 ( X._ m :   o.o.o.o.o.o.o.o.o.o.o.o.o.o.o.o.o.o.",
"o.o.o.o.o.o.o.o.o.o.o.o.o.o.o.o.o.+   s ` X.X.X.X.X.X.} _ } X.X.X. ._ M a = & F | X.X.| n   < o.o.o.o.o.o.o.o.o.o.o.o.o.o.o.o.o.",
"o.o.o.o.o.o.o.o.o.o.o.o.o.o.o.o.@ X s ` X.X.X.X.X.X.` d 7 n P P P N 7 X   & F | X.X.X.X.U : . o.o.o.o.o.o.o.o.o.o.o.o.o.o.o.o.o.",
"o.o.o.o.o.o.o.o.o.o.o.o.o.o.o.%   s ` X.X.X.X.X.X.} d     X . O X   O e H I | X.X.X.X.X.F O > o.o.o.o.o.o.o.o.o.o.o.o.o.o.o.o.o.",
"o.o.o.o.o.o.o.o.o.o.o.o.o.o.o.. e _ X.X.X.X.X.X.X._ 7   1 % @   O r H ` X.X.X.X.X.X.X._ e   o.o.o.o.o.o.o.o.o.o.o.o.o.o.o.o.o.o.",
"o.o.o.o.o.o.o.o.o.o.o.o.o.o.+ X N X.X.X.X.X.X.X.X.H & # o.o.o.  O F | X.X.X.X.X.X.X.` s X + o.o.o.o.o.o.o.o.o.o.o.o.o.o.o.o.o.o.",
"o.o.o.o.o.o.o.o.o.o.o.o.o.o.. O U X.X.X.X.X.X.X.` p   o.o.o.o.o.. : G ` X.X.X.X.X.` d   @ o.o.o.o.o.o.o.o.o.o.o.o.o.o.o.o.o.o.o.",
"o.o.o.o.o.o.o.o.o.o.o.o.o.@   p ` X.X.X.X.X.X.X.J O + o.o.o.o.o.o.  O e U X.X.} P a   + o.o.o.o.o.o.o.o.o.o.o.o.o.o.o.o.o.o.o.o.",
"o.o.o.o.o.o.o.o.o.o.o.o.o.@   G X.X.X.X.X.X.X.` r . o.o.o.o.o.o.o.o.#   9 M J s =   + o.o.o.o.o.o.o.o.o.o.o.o.o.o.o.o.o.o.o.o.o.",
"o.o.o.o.o.o.o.o.o.o.o.o.o.@   G X.X.X.X.X.X.X.H O % o.o.o.o.o.o.o.o.o.%   o =   . # o.o.o.o.o.o.o.o.o.o.o.o.o.o.o.o.o.o.o.o.o.o.",
"o.o.o.o.o.o.o.o.o.o.o.o.o.@   H X.X.X.X.X.( m :   o.o.o.o.o.o.o.o.o.o.o.o.. . o.o.o.o.o.o.o.o.o.o.o.o.o.o.o.o.o.o.o.o.o.o.o.o.o.",
"o.o.o.o.o.o.o.o.o.o.o.o.o.@   m | X.X.X./ p     , o.o.o.o.o.o.o.o.o.o.o.o.o.o.o.o.o.o.o.o.o.o.o.o.o.o.o.o.o.o.o.o.o.o.o.o.o.o.o.",
"o.o.o.o.o.o.o.o.o.o.o.o.o.o.. & m F F F e     < o.o.o.o.o.o.o.o.o.o.o.o.o.o.o.o.o.o.o.o.o.o.o.o.o.o.o.o.o.o.o.o.o.o.o.o.o.o.o.o.",
"o.o.o.o.o.o.o.o.o.o.o.o.o.o.o..           . , o.o.o.o.o.o.o.o.o.o.o.o.o.o.o.o.o.o.o.o.o.o.o.o.o.o.o.o.o.o.o.o.o.o.o.o.o.o.o.o.o.",
"o.o.o.o.o.o.o.o.o.o.o.o.o.o.o.o.+ + @ # # o.o.o.o.o.o.o.o.o.o.o.o.o.o.o.o.o.o.o.o.o.o.o.o.o.o.o.o.o.o.o.o.o.o.o.o.o.o.o.o.o.o.o.",
"o.o.o.o.o.o.o.o.o.o.o.o.o.o.o.o.o.o.o.o.o.o.o.o.o.o.o.o.o.o.o.o.o.o.o.o.o.o.o.o.o.o.o.o.o.o.o.o.o.o.o.o.o.o.o.o.o.o.o.o.o.o.o.o.",
"o.o.o.o.o.o.o.o.o.o.o.o.o.o.o.o.o.o.o.o.o.o.o.o.o.o.o.o.o.o.o.o.o.o.o.o.o.o.o.o.o.o.o.o.o.o.o.o.o.o.o.o.o.o.o.o.o.o.o.o.o.o.o.o.",
"o.o.o.o.o.o.o.o.o.o.o.o.o.o.o.o.o.o.o.o.o.o.o.o.o.o.o.o.o.o.o.o.o.o.o.o.o.o.o.o.o.o.o.o.o.o.o.o.o.o.o.o.o.o.o.o.o.o.o.o.o.o.o.o.",
"o.o.o.o.o.o.o.o.o.o.o.o.o.o.o.o.o.o.o.o.o.o.o.o.o.o.o.o.o.o.o.o.o.o.o.o.o.o.o.o.o.o.o.o.o.o.o.o.o.o.o.o.o.o.o.o.o.o.o.o.o.o.o.o.",
"o.o.o.o.o.o.o.o.o.o.o.o.o.o.o.o.o.o.o.o.o.o.o.o.o.o.o.o.o.o.o.o.o.o.o.o.o.o.o.o.o.o.o.o.o.o.o.o.o.o.o.o.o.o.o.o.o.o.o.o.o.o.o.o."
};
