/* XPM */
static char *result[] = {
/* columns rows colors chars-per-pixel */
"64 64 89 1 ",
"  c #010201",
". c #040B02",
"X c #060708",
"o c #080708",
"O c #0B0B0B",
"+ c #071104",
"@ c #091505",
"# c #0B1907",
"$ c #0D1D08",
"% c #0B0F10",
"& c #0D1013",
"* c #131314",
"= c #11161A",
"- c #1C1C1C",
"; c #0F2109",
": c #10250A",
"> c #132B0C",
", c #171E22",
"< c #1E262A",
"1 c #252525",
"2 c #242628",
"3 c #20292E",
"4 c #2B2B2B",
"5 c #222C32",
"6 c #302F30",
"7 c #273136",
"8 c #363636",
"9 c #383738",
"0 c #3A3A3A",
"q c #2D3A42",
"w c #35434B",
"e c #3A4A53",
"r c #424242",
"t c #4C4C4C",
"y c #504F50",
"u c #525252",
"i c #585858",
"p c #435561",
"a c #455965",
"s c #495E6B",
"d c #4C616D",
"f c #4F6573",
"g c #556975",
"h c #576C79",
"j c #596E7B",
"k c #58707F",
"l c #626262",
"z c #747474",
"x c #7A7A7B",
"c c #5F7887",
"v c #627C8B",
"b c #668191",
"n c #6D8492",
"m c #7997A9",
"M c #7F9EB1",
"N c #848484",
"B c #8B8B8B",
"V c #929292",
"C c #9D9D9D",
"Z c #82A2B5",
"A c #8AABBF",
"S c #A2A2A2",
"D c #AAAAAA",
"F c #B2B2B2",
"G c #BBBBBB",
"H c #8FB1C5",
"J c #93B4C7",
"K c #93B6CB",
"L c #96B9CE",
"P c #97BCD1",
"I c #9ABED4",
"U c #B3BEC4",
"Y c #9BC0D6",
"T c #A3C5DA",
"R c #ABCADC",
"E c #BFCAD1",
"W c #BCD5E3",
"Q c #C3C3C3",
"! c #CBCBCB",
"~ c gray83",
"^ c #DADADA",
"/ c #C3D9E6",
"( c #E4E4E4",
") c #EDEDED",
"_ c #E1ECF3",
"` c #EDF2F5",
"' c #F4F4F4",
"] c #FFFFFF",
"[ c None",
/* pixels */
"[[[[[[[[[[[[[[[[[[[[[[[[[[[[[[[[[[[[[[[[[[[[[[[[[[[[[[[[[[[[[[[[",
"[[[[[[[[[[[[[[[[[[[[[[[[[[[[[[[[[[[[[[[[[[[[[[[[[[[[[[[[[[[[[[[[",
"[[[[[[[[[[[[[[[[[[[[[[[[[[[[[[[[[[[[[[[[[[[[[[[[[[[[[[[[[[[[[[[[",
"[[[[[[[[[[[[[[[[[[[[[[[[[[[[[[[[[[[[[[[[[[[[[[[[[[[[[[[[[[[[[[[[",
"[[[[[[[[[[[[[[[[[[[[[[[[[[[[[[[[[[[[[[[[[[[[[[[[[[[[[[[[[[[[[[[[",
"[[[[[[[[[[[[[[[[[[[[[[[[[[[[[[[[[[[[[[[[[[[[[[[[[[[[[[[[[[[[[[[[",
"[[[[[[[[[[[[[[[[[[[[[[[[[[[[[[[[[[[[[[[[[[[[[[[[[[[[[[[[[[[[[[[[",
"[[[[[[[[[[[[[[[[[[[[[[[[[[[[[[[[[[[[[[[[[[[[[[[[[[[[[[[[[[[[[[[[",
"[[[[[[[[[[[[[[[[[[[[[[[[[[[>@+@@;[[[[[[[[[[[[[[[[[[[[[[[[[[[[[[[",
"[[[[[[[[[[[[[[[[[[[[[[[[[:@ o%Oo   @[[[[[[[[[[[[[[[[[[[[[[[[[[[[",
"[[[[[[[[[[[[[[[[[[[[[[[[@ X6BGGCr91 .@;[[[[[[[[[[[[[[[[[[[[[[[[[",
"[[[[[[[[[[[[[[[[[[[[[[[. 4z^]]]]))!l-o  :[[[[[[[[[[[[[[[[[[[[[[[",
"[[[[[[[[[[[[[[[[[[[[[[$ox!]]]]]]]]]'QSu* #[[[[[[[[[[[[[[[[[[[[[[",
"[[[[[[[[[[[[[[[[[[[[[$ 8~]]]]]]]]]]]]](S1 .[[[[[[[[[[[[[[[[[[[[[",
"[[[[[[[[[[[[[[[[[[[[[. B]]]]]]]]]]]]]]]]QzO.[[[[[[[[[[[[[[[[[[[[",
"[[[[[[[[[[[[[[[[[[[[> 9^]]]]]]]]]'!FGGF^])i #[[[[[[[[[[[[[[[[[[[",
"[[[[[[[[[[[[[[[[[[[[.oB]]]]]]]]^Bz-oOOo8xN9  $;[[[[[[[[[[[[[[[[[",
"[[[[[[[[[[[[[[[[[[[[.*!]]]]]]'B9  O<332        +#[[[[[[[[[[[[[[[",
"[[[[[[[[[[[[[[[[[[[# t^]]]]]'B*&wegHJJUzlillllrO .>[[[[[[[[[[[[[",
"[[[[[[[[[[[[[[[[[[[@ C]]]]])N*OkKPPYYYW`]]']']End%.>[[[[[[[[[[[[",
"[[[[[[[[[[[[[[[[[[[+ S]]]]]G=%hPYIYIIYYW_']]]_RTLh% [[[[[[[[[[[[",
"[[[[[[[[[[[$###.    oS]]]]]S 7HYIIIIIYIITW///RIIILgX+[[[[[[[[[[[",
"[[[[[[[[[[#    8rr4  S]]]](r qLIYIYIIIIYIIIIIIIIITZ3 :[[[[[[[[[[",
"[[[[[[[[[$ 8xzN^''B oS]]]]^1XaZIIIYIIYIIIYIIYIIIIIIjX@[[[[[[[[[[",
"[[[[[[[[[$ z]]]]]]V 0^]]]]^1XecMIYYIYIIYIIIIIIIIYILs @[[[[[[[[[[",
"[[[[[[[[[@ x]]]]]]V i]]]]]^4 qajmZKIPPPIIIPIPIIIJZv=.[[[[[[[[[[[",
"[[[[[[[[[ 4Q]]]]]]V i']]]]'x =psdfvbbbbbbbbbvbbvcs5 @[[[[[[[[[[[",
"[[[[[[[[[ r)]]]]]]V i']]]]]Q4 3pssssssssssssssssse& [[[[[[[[[[[[",
"[[[[[[[[[ r)]]]]]]V i']]]]]]D1 ,qaaaaaaaaaaaw<5<3= @[[[[[[[[[[[[",
"[[[[[[[[[ r)]]]]]]V i']]]]]]]D1 X===========%    .$[[[[[[[[[[[[[",
"[[[[[[[[[ r']]]]]]V i]]]]]]]]]FztOooOoOOoOOOO  @$[[[[[[[[[[[[[[[",
"[[[[[[[[[ r)]]]]]]V i']]]]]]]]]](FFFFFFFFFFFD9 [[[[[[[[[[[[[[[[[",
"[[[[[[[[[ 0']]]]]]V i]]]]]]]]]]]]]]]]]]]]]]]'u [[[[[[[[[[[[[[[[[",
"[[[[[[[[[ r)]]]]]]V i']]]]]]]]]]]]]]]]]]]]]]'u [[[[[[[[[[[[[[[[[",
"[[[[[[[[[ r']]]]]]V i']]]]]]]]]]]]]]]]]]]]]]'y [[[[[[[[[[[[[[[[[",
"[[[[[[[[[ 0']]]]]]V i']]]]]]]]]]]]]]]]]]]]]]'y [[[[[[[[[[[[[[[[[",
"[[[[[[[[[ r)]]]]]]V i']]]]]]]]]]]]]]]]]]]]]]'y [[[[[[[[[[[[[[[[[",
"[[[[[[[[[ r']]]]]]V i']]]]]]]]]]]]]]]]]]]]]]'t [[[[[[[[[[[[[[[[[",
"[[[[[[[[[ r)]]]]]]V i]]]]]]]]]]]]]]]]]]]]]]]'y [[[[[[[[[[[[[[[[[",
"[[[[[[[[[ 1!]]]]]]V i']]]]]]]]]]]]]]]]]]]]]]'y [[[[[[[[[[[[[[[[[",
"[[[[[[[[[@ x]]]]]]V i']]]]]]]]]]]]]]]]]]]]]]'y [[[[[[[[[[[[[[[[[",
"[[[[[[[[[# z]]]]]]V i']]]]]]]]]]]]]]]]]]]]]]^0 [[[[[[[[[[[[[[[[[",
"[[[[[[[[[$ 0^]]]]]V i]]]]]]]]]]]]]]]]]]]]]]]VO@[[[[[[[[[[[[[[[[[",
"[[[[[[[[[[@oV]]]]]V i']]]]]]]]]]]]]]]]]]]]]]V @[[[[[[[[[[[[[[[[[",
"[[[[[[[[[[: 1B^'']B i']]]]]]]]]]]]]]]]]]]]](i #[[[[[[[[[[[[[[[[[",
"[[[[[[[[[[[:  8uuu6 i']]]]]]]]'']]]]]]]]]]]Q*+[[[[[[[[[[[[[[[[[[",
"[[[[[[[[[[[[>@      i']]]]]]](zNDDDDDDG']]]G*.[[[[[[[[[[[[[[[[[[",
"[[[[[[[[[[[[[[[[[[# u']]]]]]]G* oooooo-C]]]Q&.[[[[[[[[[[[[[[[[[[",
"[[[[[[[[[[[[[[[[[[[.*F]]]]]]]FO @@@@+ -!]]]Q*.[[[[[[[[[[[[[[[[[[",
"[[[[[[[[[[[[[[[[[[[# S]]]]]]]G&+[[[[[ 9(]]'N +[[[[[[[[[[[[[[[[[[",
"[[[[[[[[[[[[[[[[[[[@ S]]]]]]]GO+[[[[$OV]]])r [[[[[[[[[[[[[[[[[[[",
"[[[[[[[[[[[[[[[[[[[@oS]]]]]]]Bo+[[[[+OF]]]Q4 [[[[[[[[[[[[[[[[[[[",
"[[[[[[[[[[[[[[[[[[[@ S]]]]]])0 >[[[[+OC^''l @[[[[[[[[[[[[[[[[[[[",
"[[[[[[[[[[[[[[[[[[[:.z']]]]](9 [[[[[; -4xB-.[[[[[[[[[[[[[[[[[[[[",
"[[[[[[[[[[[[[[[[[[[[.-Q)))'Ql- [[[[[[$  o  @[[[[[[[[[[[[[[[[[[[[",
"[[[[[[[[[[[[[[[[[[[[@X409091 .>[[[[[[[[[@@@[[[[[[[[[[[[[[[[[[[[[",
"[[[[[[[[[[[[[[[[[[[[[@      @[[[[[[[[[[[[[[[[[[[[[[[[[[[[[[[[[[[",
"[[[[[[[[[[[[[[[[[[[[[[[[[[[[[[[[[[[[[[[[[[[[[[[[[[[[[[[[[[[[[[[[",
"[[[[[[[[[[[[[[[[[[[[[[[[[[[[[[[[[[[[[[[[[[[[[[[[[[[[[[[[[[[[[[[[",
"[[[[[[[[[[[[[[[[[[[[[[[[[[[[[[[[[[[[[[[[[[[[[[[[[[[[[[[[[[[[[[[[",
"[[[[[[[[[[[[[[[[[[[[[[[[[[[[[[[[[[[[[[[[[[[[[[[[[[[[[[[[[[[[[[[[",
"[[[[[[[[[[[[[[[[[[[[[[[[[[[[[[[[[[[[[[[[[[[[[[[[[[[[[[[[[[[[[[[[",
"[[[[[[[[[[[[[[[[[[[[[[[[[[[[[[[[[[[[[[[[[[[[[[[[[[[[[[[[[[[[[[[[",
"[[[[[[[[[[[[[[[[[[[[[[[[[[[[[[[[[[[[[[[[[[[[[[[[[[[[[[[[[[[[[[[["
};
