/* XPM */
static char *result[] = {
/* columns rows colors chars-per-pixel */
"64 64 96 2 ",
"   c #020302",
".  c #050C02",
"X  c #050708",
"o  c #060809",
"O  c #0B0C0C",
"+  c #100F0F",
"@  c #061104",
"#  c #091505",
"$  c #0C1C07",
"%  c #0A110B",
"&  c #0C1C08",
"*  c #10100F",
"=  c #0B0F11",
"-  c #0D1113",
";  c #131414",
":  c #171718",
">  c #151B1F",
",  c #1A1A1A",
"<  c #0E2109",
"1  c #10220A",
"2  c #15320D",
"3  c #161C20",
"4  c #192025",
"5  c #1D252A",
"6  c #242424",
"7  c #22292D",
"8  c #2C2C2C",
"9  c #232E34",
"0  c #2A343B",
"q  c #363636",
"w  c #3B3B3C",
"e  c #2F3A41",
"r  c #303C43",
"t  c #313F48",
"y  c #35444D",
"u  c #38464E",
"i  c #374751",
"p  c #3A4952",
"a  c #434343",
"s  c #4B4B4B",
"d  c #41545F",
"f  c #525252",
"g  c #5B5B5B",
"h  c #435662",
"j  c #455964",
"k  c #475B68",
"l  c #4A5F6B",
"z  c #4B616E",
"x  c #556A76",
"c  c #586D7A",
"v  c #636363",
"b  c #6C6C6C",
"n  c #737373",
"m  c gray49",
"M  c #6A8393",
"N  c #6E8999",
"B  c #728E9E",
"V  c #828282",
"C  c #8C8C8C",
"Z  c #8E9192",
"A  c #959595",
"S  c #9D9D9D",
"D  c #899AA4",
"F  c #809FB2",
"G  c #83A3B6",
"H  c #8AAABD",
"J  c #A3A3A3",
"K  c #ACACAC",
"L  c #B6B6B6",
"P  c #BBBBBB",
"I  c #8FB2C6",
"U  c #92B5CA",
"Y  c #97BBD0",
"T  c #9ABFD5",
"R  c #9CC1D6",
"E  c #9CC2D8",
"W  c #A3C5D9",
"Q  c #A7C8DB",
"!  c #ADCBDD",
"~  c #BAD3E2",
"^  c #BFD8E6",
"/  c #C1C1C1",
"(  c #CDCDCD",
")  c #D2D2D2",
"_  c #DCDCDC",
"`  c #C6D9E5",
"'  c #C8DCE8",
"]  c #D2E3EC",
"[  c #DDE9F1",
"{  c #E4E4E4",
"}  c #ECECEC",
"|  c #F4F4F4",
" . c #F1F6F9",
".. c #F7FAFC",
"X. c #FFFFFF",
"o. c None",
/* pixels */
"o.o.o.o.o.o.o.o.o.o.o.o.o.o.o.o.o.o.o.o.o.o.o.o.o.o.o.o.o.o.o.o.o.o.o.o.o.o.o.o.o.o.o.o.o.o.o.o.o.o.o.o.o.o.o.o.o.o.o.o.o.o.o.o.",
"o.o.o.o.o.o.o.o.o.o.o.o.o.o.o.o.o.o.o.o.o.o.o.o.o.o.o.o.o.o.o.o.o.o.o.o.o.o.o.o.o.o.o.o.o.o.o.o.o.o.o.o.o.o.o.o.o.o.o.o.o.o.o.o.",
"o.o.o.o.o.o.o.o.o.o.o.o.o.o.o.o.o.o.o.o.o.o.o.o.o.o.o.o.o.o.o.o.o.o.o.o.o.o.o.o.o.o.o.o.o.o.o.o.o.o.o.o.o.o.o.o.o.o.o.o.o.o.o.o.",
"o.o.o.o.o.o.o.o.o.o.o.o.o.o.o.o.o.o.o.o.o.o.o.o.o.o.o.o.o.o.o.o.o.o.o.o.o.o.o.o.o.o.o.o.o.o.o.o.o.o.o.o.o.o.o.o.o.o.o.o.o.o.o.o.",
"o.o.o.o.o.o.o.o.o.o.o.o.o.o.o.o.o.o.o.o.o.o.o.o.o.o.o.o.o.o.o.o.o.o.o.o.o.o.o.o.o.o.o.o.o.o.o.o.o.o.o.o.o.o.o.o.o.o.o.o.o.o.o.o.",
"o.o.o.o.o.o.o.o.o.o.o.o.o.o.o.o.o.o.o.o.o.o.o.o.o.o.o.o.o.o.o.o.o.o.o.o.o.o.o.o.o.o.o.o.o.o.o.o.o.o.o.o.o.o.o.o.o.o.o.o.o.o.o.o.",
"o.o.o.o.o.o.o.o.o.o.o.o.o.o.o.o.o.o.o.o.o.o.o.o.o.o.o.o.o.o.o.o.o.o.o.o.o.o.o.o.o.o.o.o.o.o.o.o.o.o.o.o.o.o.o.o.o.o.o.o.o.o.o.o.",
"o.o.o.o.o.o.o.o.o.o.o.o.o.o.o.o.o.o.o.o.o.o.o.o.o.o.o.o.o.o.o.o.o.o.o.o.o.o.o.o.o.o.o.o.o.o.o.o.o.o.o.o.o.o.o.o.o.o.o.o.o.o.o.o.",
"o.o.o.o.o.o.o.o.o.o.o.o.o.o.o.o.o.o.o.o.o.o.o.o.o.$ @ . . # . # o.o.o.o.o.o.o.o.o.o.o.o.o.o.o.o.o.o.o.o.o.o.o.o.o.o.o.o.o.o.o.o.",
"o.o.o.o.o.o.o.o.o.o.o.o.o.o.o.o.o.o.o.o.o.o.o.$   O O O * O O       $ o.o.o.o.o.$ < < o.o.o.o.o.o.o.o.o.o.o.o.o.o.o.o.o.o.o.o.o.",
"o.o.o.o.o.o.o.o.o.o.o.o.o.o.o.o.o.o.o.o.o.o.. ; a J P P P P L b q ,   . 2 $ @         @ # # . o.o.o.o.o.o.o.o.o.o.o.o.o.o.o.o.o.",
"o.o.o.o.o.o.o.o.o.o.o.o.o.o.o.o.o.o.o.o.o.  ; C } X.X.X.X.X.X.| } J f O       6 g b a o O o o     o.o.o.o.o.o.o.o.o.o.o.o.o.o.o.",
"o.o.o.o.o.o.o.o.o.o.o.o.o.o.o.o.o.o.o.o.. : A | X.X.X.X.X.X.X.X.X.X.} K s   o C | X._ K K K K b O   o.o.o.o.o.o.o.o.o.o.o.o.o.o.",
"o.o.o.o.o.o.o.o.o.o.o.o.o.o.o.o.o.o.o.. ; C ..X.X.X.X.X.X.X.X.X.X.X.X.X.) s   g | X.X.X.X.X.X.} b o . o.o.o.o.o.o.o.o.o.o.o.o.o.",
"o.o.o.o.o.o.o.o.o.o.o.o.o.o.o.o.o.o.#   : S | } } } } | X.X.X.X.X.X.X.X.X.K o , K X.X.X.X.X.X.X.( 6 . o.o.o.o.o.o.o.o.o.o.o.o.o.",
"o.o.o.o.o.o.o.o.o.o.o.o.o.o.o.o.o.$       : q q q q q g L } X.X.X.X.X.X.X.} s   g } X.X.X.X.X.X.| V X 1 o.o.o.o.o.o.o.o.o.o.o.o.",
"o.o.o.o.o.o.o.o.o.o.o.o.o.o.o.o.. : b V v ; o o o X X   O n { X.X.X.X.X.X...v   , P X.X.X.X.X.X.X.J X # o.o.o.o.o.o.o.o.o.o.o.o.",
"o.o.o.o.o.o.o.o.o.o.o.o.o.o.o.% 7 Z | X.} P L L D N M y ; o a S | X.X.X.X...v   g } X.X.X.X.X.X.X.J X # o.o.o.o.o.o.o.o.o.o.o.o.",
"o.o.o.o.o.o.o.o.o.o.o.o.o.o.X p H ` ..X.X.X.X.X.` E T U M u o 6 ( X.X.X.X...v   V X.X.X.X.X.X.X.X.J . # o.o.o.o.o.o.o.o.o.o.o.o.",
"o.o.o.o.o.o.o.o.o.o.o.o.o.. ; B E R '  .X.X...[ W T T E T B 5 X b } X.X.X...v   V X.X.X.X.X.X.X.X.J o @ o.o.o.o.o.o.o.o.o.o.o.o.",
"o.o.o.o.o.o.o.o.o.o.o.o.  = c U E T R ! ] [ ~ W T T T T T T x   O A X.X.X...v   m X.X.X.X.X.X.X.X.J o @ o.o.o.o.o.o.o.o.o.o.o.o.",
"o.o.o.o.o.o.o.o.o.o.o.o.  0 U T T T R T R R T E T T E E Y G u o   w _ X.X...g   n X.X.X.X.X.X.X.X.J o # o.o.o.o.o.o.o.o.o.o.o.o.",
"o.o.o.o.o.o.o.o.o.o.o.o.  5 N I T T T T T T T T T T G N c u p y O O P X.X...C o 6 ( X.X.X.X.X.X.| m   # o.o.o.o.o.o.o.o.o.o.o.o.",
"o.o.o.o.o.o.o.o.o.o.o.o.  O 5 d x x x x x x x x x x e 9 u k k t o ; P X.X.X.{ q o L X.X.X.X.X.X.( 6   o.o.o.o.o.o.o.o.o.o.o.o.o.",
"o.o.o.o.o.o.o.o.o.o.o.o.. X 5 t u y u y u u y y y y y j l z k > O m } X.X.X.} q O L X.X.X.X.X.X.( : . o.o.o.o.o.o.o.o.o.o.o.o.o.",
"o.o.o.o.o.o.o.o.o.o.o.o.o.. X 0 k z z z z z z z z z z l k h 9   a } X.X.X.X.} q o P X.X.X.X.X.X.( ,   o.o.o.o.o.o.o.o.o.o.o.o.o.",
"o.o.o.o.o.o.o.o.o.o.o.o.o.o.. o 4 y d d d d d d d d d i 5 > X O S X.X.X.X.X.} q O L X.X.X.X.X.X./ ; . o.o.o.o.o.o.o.o.o.o.o.o.o.",
"o.o.o.o.o.o.o.o.o.o.o.o.o.o.o..   o - = = = = - - - - o       a ] X.X.X.X.X.} q O L X.X.X.X.X.| v   o.o.o.o.o.o.o.o.o.o.o.o.o.o.",
"o.o.o.o.o.o.o.o.o.o.o.o.o.o.o.o.$   X + + * O * % - O + s C A ( X.X.X.X.X.X.} q o L X.X.X.X.X.| s   o.o.o.o.o.o.o.o.o.o.o.o.o.o.",
"o.o.o.o.o.o.o.o.o.o.o.o.o.o.o.o.o.  w P / / / / / / / / _ X.X.X.X.X.X.X.X.X.} q O P X.X.X.X.X.| s   o.o.o.o.o.o.o.o.o.o.o.o.o.o.",
"o.o.o.o.o.o.o.o.o.o.o.o.o.o.o.o.o.  f | X.X.X.X.X.X.X.X.X.X.X.X.X.X.X.X.X.X.} q O L X.X.X.X.X./ 8   o.o.o.o.o.o.o.o.o.o.o.o.o.o.",
"o.o.o.o.o.o.o.o.o.o.o.o.o.o.o.o.o.  f | X.X.X.X.X.X.X.X.X.X.X.X.X.X.X.X.X.X.) 8 o L X.X.X.X.X.C   # o.o.o.o.o.o.o.o.o.o.o.o.o.o.",
"o.o.o.o.o.o.o.o.o.o.o.o.o.o.o.o.o.  f | X.X.X.X.X.X.X.X.X.X.X.X.X.X.X.X.X...n   q ) X.X.X.X.{ g   $ o.o.o.o.o.o.o.o.o.o.o.o.o.o.",
"o.o.o.o.o.o.o.o.o.o.o.o.o.o.o.o.o.  f | X.X.X.X.X.X.X.X.X.X.X.X.X.X.X.X.X...v   m X.X.X..._ v O @ o.o.o.o.o.o.o.o.o.o.o.o.o.o.o.",
"o.o.o.o.o.o.o.o.o.o.o.o.o.o.o.o.o.  f | X.X.X.X.X.X.X.X.X.X.X.X.X.X.X.X.X...v   g K L L C 8 O . o.o.o.o.o.o.o.o.o.o.o.o.o.o.o.o.",
"o.o.o.o.o.o.o.o.o.o.o.o.o.o.o.o.o.  f | X.X.X.X.X.X.X.X.X.X.X.X.X.X.X.X.X...v   o O o O X   . o.o.o.o.o.o.o.o.o.o.o.o.o.o.o.o.o.",
"o.o.o.o.o.o.o.o.o.o.o.o.o.o.o.o.o.  f | X.X.X.X.X.X.X.X.X.X.X.X.X.X.X.X.X...v   . @ # . # o.o.o.o.o.o.o.o.o.o.o.o.o.o.o.o.o.o.o.",
"o.o.o.o.o.o.o.o.o.o.o.o.o.o.o.o.o.  s | X.X.X.X.X.X.X.X.X.X.X.X.X.X.X.X.X...v   1 o.o.o.o.o.o.o.o.o.o.o.o.o.o.o.o.o.o.o.o.o.o.o.",
"o.o.o.o.o.o.o.o.o.o.o.o.o.o.o.o.o.@ , L X.X.X.X.X.X.X.X.X.X.X.X.X.X.X.X.X...v   1 o.o.o.o.o.o.o.o.o.o.o.o.o.o.o.o.o.o.o.o.o.o.o.",
"o.o.o.o.o.o.o.o.o.o.o.o.o.o.o.o.o.&   v } X.X.X.X.X.X.X.X.X.X.X.X.X.X.X.X...v   $ o.o.o.o.o.o.o.o.o.o.o.o.o.o.o.o.o.o.o.o.o.o.o.",
"o.o.o.o.o.o.o.o.o.o.o.o.o.o.o.o.o.o.. ; P X.X.X.X.X.X.X.X.X.X.X.X.X.X.X.X.| g   o.o.o.o.o.o.o.o.o.o.o.o.o.o.o.o.o.o.o.o.o.o.o.o.",
"o.o.o.o.o.o.o.o.o.o.o.o.o.o.o.o.o.o.&   s ( X.X.X.X.X.X.X.X.X.X.X.X.X.X.| A : # o.o.o.o.o.o.o.o.o.o.o.o.o.o.o.o.o.o.o.o.o.o.o.o.",
"o.o.o.o.o.o.o.o.o.o.o.o.o.o.o.o.o.o.o.@   a _ X.X.X.X.X.X.X.X.X.X.X.X.X.) 8   # o.o.o.o.o.o.o.o.o.o.o.o.o.o.o.o.o.o.o.o.o.o.o.o.",
"o.o.o.o.o.o.o.o.o.o.o.o.o.o.o.o.o.o.o.#   X A X.X.X.X.X.X.X.X.X.X.X.X.{ v     . o.o.o.o.o.o.o.o.o.o.o.o.o.o.o.o.o.o.o.o.o.o.o.o.",
"o.o.o.o.o.o.o.o.o.o.o.o.o.o.o.o.o.o.1   o o 6 C ) X.X.X.X.X.X.X.X.X.{ b   8 g ;   o.o.o.o.o.o.o.o.o.o.o.o.o.o.o.o.o.o.o.o.o.o.o.",
"o.o.o.o.o.o.o.o.o.o.o.o.o.o.o.o.o.o.. O V b 6 O s { X.X.X.X.X.X.X.| b   8 L } s   & o.o.o.o.o.o.o.o.o.o.o.o.o.o.o.o.o.o.o.o.o.o.",
"o.o.o.o.o.o.o.o.o.o.o.o.o.o.o.o.o.o.. * / ..K ; , ) X.X.X.X.X.X.X.} a X S X.X.J O @ o.o.o.o.o.o.o.o.o.o.o.o.o.o.o.o.o.o.o.o.o.o.",
"o.o.o.o.o.o.o.o.o.o.o.o.o.o.o.o.o.o.. ; / X.( : , ) X.X.X.X.X.X.X.| a X K X.X.P % . o.o.o.o.o.o.o.o.o.o.o.o.o.o.o.o.o.o.o.o.o.o.",
"o.o.o.o.o.o.o.o.o.o.o.o.o.o.o.o.o.o.. O S X.( ; , ) X.X.X.X.X.X.X.| a X K X...A o . o.o.o.o.o.o.o.o.o.o.o.o.o.o.o.o.o.o.o.o.o.o.",
"o.o.o.o.o.o.o.o.o.o.o.o.o.o.o.o.o.o.<   6 V J : , ) X.X.X.X.X.X.X.} a   g V n 6   # o.o.o.o.o.o.o.o.o.o.o.o.o.o.o.o.o.o.o.o.o.o.",
"o.o.o.o.o.o.o.o.o.o.o.o.o.o.o.o.o.o.o.<   X 6 X , ) X.X.X.X.X.X.X.} a           # o.o.o.o.o.o.o.o.o.o.o.o.o.o.o.o.o.o.o.o.o.o.o.",
"o.o.o.o.o.o.o.o.o.o.o.o.o.o.o.o.o.o.o.o.o.@     , ) X.X.X.X.X.X.X.| a   # # # o.o.o.o.o.o.o.o.o.o.o.o.o.o.o.o.o.o.o.o.o.o.o.o.o.",
"o.o.o.o.o.o.o.o.o.o.o.o.o.o.o.o.o.o.o.o.o.o.o.  , ) X.X.X.X.X.X.X.} a   o.o.o.o.o.o.o.o.o.o.o.o.o.o.o.o.o.o.o.o.o.o.o.o.o.o.o.o.",
"o.o.o.o.o.o.o.o.o.o.o.o.o.o.o.o.o.o.o.o.o.o.o.  ; K X.X.X.X.X.X.X.| a   o.o.o.o.o.o.o.o.o.o.o.o.o.o.o.o.o.o.o.o.o.o.o.o.o.o.o.o.",
"o.o.o.o.o.o.o.o.o.o.o.o.o.o.o.o.o.o.o.o.o.o.o.&   s { X.X.X.X.X.X.{ w   o.o.o.o.o.o.o.o.o.o.o.o.o.o.o.o.o.o.o.o.o.o.o.o.o.o.o.o.",
"o.o.o.o.o.o.o.o.o.o.o.o.o.o.o.o.o.o.o.o.o.o.o.o.. + a S P P P P A w O . o.o.o.o.o.o.o.o.o.o.o.o.o.o.o.o.o.o.o.o.o.o.o.o.o.o.o.o.",
"o.o.o.o.o.o.o.o.o.o.o.o.o.o.o.o.o.o.o.o.o.o.o.o.o..   O + O O ; o   . o.o.o.o.o.o.o.o.o.o.o.o.o.o.o.o.o.o.o.o.o.o.o.o.o.o.o.o.o.",
"o.o.o.o.o.o.o.o.o.o.o.o.o.o.o.o.o.o.o.o.o.o.o.o.o.o.$ . . @ . . . 1 o.o.o.o.o.o.o.o.o.o.o.o.o.o.o.o.o.o.o.o.o.o.o.o.o.o.o.o.o.o.",
"o.o.o.o.o.o.o.o.o.o.o.o.o.o.o.o.o.o.o.o.o.o.o.o.o.o.o.o.o.o.o.o.o.o.o.o.o.o.o.o.o.o.o.o.o.o.o.o.o.o.o.o.o.o.o.o.o.o.o.o.o.o.o.o.",
"o.o.o.o.o.o.o.o.o.o.o.o.o.o.o.o.o.o.o.o.o.o.o.o.o.o.o.o.o.o.o.o.o.o.o.o.o.o.o.o.o.o.o.o.o.o.o.o.o.o.o.o.o.o.o.o.o.o.o.o.o.o.o.o.",
"o.o.o.o.o.o.o.o.o.o.o.o.o.o.o.o.o.o.o.o.o.o.o.o.o.o.o.o.o.o.o.o.o.o.o.o.o.o.o.o.o.o.o.o.o.o.o.o.o.o.o.o.o.o.o.o.o.o.o.o.o.o.o.o.",
"o.o.o.o.o.o.o.o.o.o.o.o.o.o.o.o.o.o.o.o.o.o.o.o.o.o.o.o.o.o.o.o.o.o.o.o.o.o.o.o.o.o.o.o.o.o.o.o.o.o.o.o.o.o.o.o.o.o.o.o.o.o.o.o.",
"o.o.o.o.o.o.o.o.o.o.o.o.o.o.o.o.o.o.o.o.o.o.o.o.o.o.o.o.o.o.o.o.o.o.o.o.o.o.o.o.o.o.o.o.o.o.o.o.o.o.o.o.o.o.o.o.o.o.o.o.o.o.o.o.",
"o.o.o.o.o.o.o.o.o.o.o.o.o.o.o.o.o.o.o.o.o.o.o.o.o.o.o.o.o.o.o.o.o.o.o.o.o.o.o.o.o.o.o.o.o.o.o.o.o.o.o.o.o.o.o.o.o.o.o.o.o.o.o.o."
};
