/* XPM */
static char *result[] = {
/* columns rows colors chars-per-pixel */
"64 64 99 2 ",
"   c #010301",
".  c #020C01",
"X  c #050708",
"o  c #07090B",
"O  c #0B0B0B",
"+  c #021402",
"@  c #031A02",
"#  c #0A0E10",
"$  c #100F10",
"%  c #0D1114",
"&  c #0F1519",
"*  c #121212",
"=  c #181717",
"-  c #10161A",
";  c #131B1E",
":  c #1D1C1D",
">  c #201F1F",
",  c #042303",
"<  c #042B03",
"1  c #043402",
"2  c #043A02",
"3  c #181D20",
"4  c #1B252B",
"5  c #1E2A2F",
"6  c #1E2A30",
"7  c #212121",
"8  c gray17",
"9  c #243138",
"0  c #28383F",
"q  c #333333",
"w  c #3A3A3A",
"e  c #044304",
"r  c #2C3B43",
"t  c #2F414A",
"y  c #33454F",
"u  c #364750",
"i  c #374A52",
"p  c #3D4E57",
"a  c #3D5460",
"s  c #3F5864",
"d  c #444444",
"f  c #4B4B4B",
"g  c #535353",
"h  c #5B5B5B",
"j  c #415761",
"k  c #415A66",
"l  c #445F6C",
"z  c #46616E",
"x  c #4C6977",
"c  c #536F7C",
"v  c #656565",
"b  c #6E6E6E",
"n  c #727272",
"m  c #7B7B7B",
"M  c #028D03",
"N  c #587787",
"B  c #5E7F90",
"V  c #5D8090",
"C  c #7F8689",
"Z  c #608293",
"A  c #698D9F",
"S  c #6D91A4",
"D  c #759CB0",
"F  c #789EB1",
"G  c #7AA3B8",
"H  c #858585",
"J  c #8B8B8B",
"K  c #949494",
"L  c #9B9B9B",
"P  c #A4A4A4",
"I  c #ABABAB",
"U  c #AEB4B7",
"Y  c #B2B2B2",
"T  c #BBBBBB",
"R  c #85B0C6",
"E  c #87B3C9",
"W  c #8AB7CD",
"Q  c #8EBDD4",
"!  c #90BFD7",
"~  c #98C0D4",
"^  c #91C0D8",
"/  c #99C5DB",
"(  c #A3CBDE",
")  c #B6D6E5",
"_  c #B8D7E7",
"`  c #BDD9E7",
"'  c #BFDAE8",
"]  c #C4C4C4",
"[  c #CCCCCC",
"{  c #D3D3D3",
"}  c #DDDDDD",
"|  c #D2E5EE",
" . c #DEECF3",
".. c #E4E4E4",
"X. c #EBECEC",
"o. c #F4F4F4",
"O. c #F7FBFC",
"+. c #FFFFFF",
"@. c None",
/* pixels */
"@.@.@.@.@.@.@.@.@.@.@.@.@.@.@.@.@.@.@.@.@.@.@.@.@.@.@.@.@.@.@.@.@.@.@.@.@.@.@.@.@.@.@.@.@.@.@.@.@.@.@.@.@.@.@.@.@.@.@.@.@.@.@.@.",
"@.@.@.@.@.@.@.@.@.@.@.@.@.@.@.@.@.@.@.@.@.@.@.@.@.@.@.@.@.@.@.@.@.@.@.@.@.@.@.@.@.@.@.@.@.@.@.@.@.@.@.@.@.@.@.@.@.@.@.@.@.@.@.@.",
"@.@.@.@.@.@.@.@.@.@.@.@.@.@.@.@.@.@.@.@.@.@.@.@.@.@.@.@.@.@.@.@.@.@.@.@.@.@.@.@.@.@.@.@.@.@.@.@.@.@.@.@.@.@.@.@.@.@.@.@.@.@.@.@.",
"@.@.@.@.@.@.@.@.@.@.@.@.@.@.@.@.@.@.@.@.@.@.@.@.@.@.@.@.@.@.@.@.@.@.@.@.@.@.@.@.@.@.@.@.@.@.@.@.@.@.@.@.@.@.@.@.@.@.@.@.@.@.@.@.",
"@.@.@.@.@.@.@.@.@.@.@.@.@.@.@.@.@.@.@.@.@.@.@.@.@.@.@.@.@.@.@.@.@.@.@.@.@.@.@.@.@.@.@.@.@.@.@.@.@.@.@.@.@.@.@.@.@.@.@.@.@.@.@.@.",
"@.@.@.@.@.@.@.@.@.@.@.@.@.@.@.@.@.@.@.@.@.@.@.@.@.@.@.@.@.@.@.@.@.@.@.@.@.@.@.@.@.@.@.@.@.@.@.@.@.@.@.@.@.@.@.@.@.@.@.@.@.@.@.@.",
"@.@.@.@.@.@.@.@.@.@.@.@.@.@.@.@.@.@.@.@.@.@.@.@.@.@.@.@.@.@.@.@.@.@.@.@.@.@.@.@.@.@.@.@.@.@.@.@.@.@.@.@.@.@.@.@.@.@.@.@.@.@.@.@.",
"@.@.@.@.@.@.@.@.@.@.@.@.@.@.@.@.@.@.@.@.@.@.@.@.@.@.@.@.@.@.@.@.@.@.@.@.@.@.@.@.@.@.@.@.@.@.@.@.@.@.@.@.@.@.@.@.@.@.@.@.@.@.@.@.",
"@.@.@.@.@.@.@.@.@.@.@.@.@.@.@.@.@.@.@.@.@.@.@.@.@.@.@.@.@.@.@.@ + + . . @ @.@.@.@.@.@.@.@.@.@.@.@.@.@.@.@.@.@.@.@.@.@.@.@.@.@.@.",
"@.@.@.@.@.@.@.@.@.@.@.@.@.@.@.@.@.@.@.@.@.@.@.@.@.@., +         O $ $ O     + @.@.@.@.@.@.@.@.@.@.@.@.@.@.@.@.@.@.@.@.@.@.@.@.@.",
"@.@.@.@.@.@.@.@.@.@.@.@.@.@.@.@.@.@.@.@.@.@.@.@.@ .     8 w w v T T T L d q X . @.@.@.@.@.@.@.@.@.@.@.@.@.@.@.@.@.@.@.@.@.@.@.@.",
"@.@.@.@.@.@.@.@.@.@.@.@.@.@.@.@.@.@.@.@.@.@.@.+   * g b [ X.X.o.+.+.+.+.o.} h X . @.@.@.@.@.@.@.@.@.@.@.@.@.@.@.@.@.@.@.@.@.@.@.",
"@.@.@.@.@.@.@.@.@.@.@.@.@.@.@.@.@.@.@.@.@.@.,   w I X.+.+.+.+.+.+.+.+.+.+.+...h X + @.@.@.@.@.@.@.@.@.@.@.@.@.@.@.@.@.@.@.@.@.@.",
"@.@.@.@.@.@.@.@.@.@.@.@.@.@.@.@.@.@.@.< . .   O H +.+.+.+.+.+.+.+.+.+.+.+.+.+.} q   @.@.@.@.@.@.@.@.@.@.@.@.@.@.@.@.@.@.@.@.@.@.",
"@.@.@.@.@.@.@.@.@.@.@.@.@.+             *     q } +.+.+.+.+.+.+.+.+.+.+.+.+.+.+.J O + @.@.@.@.@.@.@.@.@.@.@.@.@.@.@.@.@.@.@.@.@.",
"@.@.@.@.@.@.@.@.@.@.@.@.@ X q d d d d b T q   K O.+.+.+.+.+.+.+.+.+.+.+...T T T J O . @.@.@.@.@.@.@.@.@.@.@.@.@.@.@.@.@.@.@.@.@.",
"@.@.@.@.@.@.@.@.@.@.@.@   g { o.o.o.o.o.Y > O T +.+.+.+.+.+.+.O.I m m H h O O O X     + @ @.@.@.@.@.@.@.@.@.@.@.@.@.@.@.@.@.@.@.",
"@.@.@.@.@.@.@.@.@.@.@.@   K +.+.+.+.+.O.n   g ..+.+.+.+.+.+.O.P 7         7 w q w q 8     . @ @.@.@.@.@.@.@.@.@.@.@.@.@.@.@.@.@.",
"@.@.@.@.@.@.@.@.@.@.@.@   K +.+.+.+.+.+.n   b +.+.+.+.+.+.O.I > X r u u p U X.X.X.X.{ b h *   . @.@.@.@.@.@.@.@.@.@.@.@.@.@.@.@.",
"@.@.@.@.@.@.@.@.@.@.@.@   K +.+.+.+.+.+.n   b O.+.+.+.+.O.P > X k R Q Q ! | +.+.+.+.+.O.X.H 3 X . @.@.@.@.@.@.@.@.@.@.@.@.@.@.@.",
"@.@.@.@.@.@.@.@.@.@.@.+ X K +.+.+.+.+.O.n   b O.+.+.+.O.P : X j E ^ ^ ! ^ (  .+.+.+.O. ._ / F i   @ @.@.@.@.@.@.@.@.@.@.@.@.@.@.",
"@.@.@.@.@.@.@.@.@.@.@.@   K +.+.+.+.+.+.n   b O.+.+.+.X.d   j E / ! ^ ^ ! ^ ( ' ` ` ) / ! ^ ^ S *   @.@.@.@.@.@.@.@.@.@.@.@.@.@.",
"@.@.@.@.@.@.@.@.@.@.@.@   K +.+.+.+.+.O.n   b O.+.+.+.K O & A ^ ! ^ ^ ! ^ ^ ^ ! ! ! ! ! ^ ^ ! Q j   + @.@.@.@.@.@.@.@.@.@.@.@.@.",
"@.@.@.@.@.@.@.@.@.@.@.@   K +.+.+.+.+.+.n   b O.+.+.+.m   5 A Q ! ^ ^ ^ ^ ! ^ ^ ^ ! ! ! ! ! ! ^ c   @ @.@.@.@.@.@.@.@.@.@.@.@.@.",
"@.@.@.@.@.@.@.@.@.@.@.@   K +.+.+.+.+.+.n   b O.+.+.+.m   4 x B D ! ^ ^ ^ ! ^ ^ ! ! ! ! ! ! ! ^ c   + @.@.@.@.@.@.@.@.@.@.@.@.@.",
"@.@.@.@.@.@.@.@.@.@.@.@   K +.+.+.+.+...f   b +.+.+.+.m   4 l l x S D G Q ! ! Q ! Q ! ! ! ! Q D u . @.@.@.@.@.@.@.@.@.@.@.@.@.@.",
"@.@.@.@.@.@.@.@.@.@.@.@   K +.+.+.+.+...g   b O.+.+.+.H X # u l z z z x B Z Z Z Z Z V B V Z N 9   + @.@.@.@.@.@.@.@.@.@.@.@.@.@.",
"@.@.@.@.@.@.@.@.@.@.@.+   K +.+.+.+.+.+.n   b +.+.+.+.} h X % r a l z z l l l l l z l l k u 4   . @.@.@.@.@.@.@.@.@.@.@.@.@.@.@.",
"@.@.@.@.@.@.@.@.@.@.@.@   f } +.+.+.+.O.n   b O.+.+.+.+...v     ; 5 y k k k k k k s r 6 4 #   . @.@.@.@.@.@.@.@.@.@.@.@.@.@.@.@.",
"@.@.@.@.@.@.@.@.@.@.@.@.. $ ] +.+.+.+.+.n   b O.+.+.+.+.+...b 8     X - - - - - & *       . + @.@.@.@.@.@.@.@.@.@.@.@.@.@.@.@.@.",
"@.@.@.@.@.@.@.@.@.@.@.@.. $ ] +.+.+.+.+.n   b O.+.+.+.+.+.+.o.] m g * O X O O O X O O X   + @.@.@.@.@.@.@.@.@.@.@.@.@.@.@.@.@.@.",
"@.@.@.@.@.@.@.@.@.@.@.@.. * ] +.+.+.+.+.n   b O.+.+.+.+.+.+.+.+.+...Y Y Y Y Y Y Y Y T n   + @.@.@.@.@.@.@.@.@.@.@.@.@.@.@.@.@.@.",
"@.@.@.@.@.@.@.@.@.@.@.@.. * ] +.+.+.+.O.n   b +.+.+.+.+.+.+.+.+.+.+.+.+.+.+.+.+.+.+.+.P X + @.@.@.@.@.@.@.@.@.@.@.@.@.@.@.@.@.@.",
"@.@.@.@.@.@.@.@.@.@.@.@.+ O Y +.+.+.+.+.b   v o.+.+.+.+.+.+.+.+.+.+.+.+.+.+.+.+.+.+.+.K   + @.@.@.@.@.@.@.@.@.@.@.@.@.@.@.@.@.@.",
"@.@.@.@.@.@.@.@.@.@.@.@.@   h o.+.+.+.+.L $ : T +.+.+.+.+.+.+.+.+.+.+.+.+.+.+.+.+.+.} q   , @.@.@.@.@.@.@.@.@.@.@.@.@.@.@.@.@.@.",
"@.@.@.@.@.@.@.@.@.@.@.@.@.+ : P o.+.+.+.X.w X I +.+.+.+.+.+.+.+.+.+.+.+.+.+.+.+.+.+.[ = . @.@.@.@.@.@.@.@.@.@.@.@.@.@.@.@.@.@.@.",
"@.@.@.@.@.@.@.@.@.@.@.@.@.@.  : h T ] o.o.d X Y +.+.+.+.+.+.+.+.+.+.+.+.+.+.+.+.+.+.[ =   @.@.@.@.@.@.@.@.@.@.@.@.@.@.@.@.@.@.@.",
"@.@.@.@.@.@.@.@.@.@.@.@.@.@.<     O 7 m J 7 X Y +.+.+.+.+.+.+.+.+.+.+.+.+.+.+.+.+.+.[ : . @.@.@.@.@.@.@.@.@.@.@.@.@.@.@.@.@.@.@.",
"@.@.@.@.@.@.@.@.@.@.@.@.@.@.@.@.@.      X   O I +.+.+.+.+.+.+.+.+.+.+.+.+.+.+.+.+.+.{ =   @.@.@.@.@.@.@.@.@.@.@.@.@.@.@.@.@.@.@.",
"@.@.@.@.@.@.@.@.@.@.@.@.@.@.@.@.@.@.@.@., . O Y +.+.+.+.+.+.+.+.+.+.+.+.+.+.+.+.+.O.P $ . @.@.@.@.@.@.@.@.@.@.@.@.@.@.@.@.@.@.@.",
"@.@.@.@.@.@.@.@.@.@.@.@.@.@.@.@.@.@.@.@.@., O I +.+.+.+.+.+.+.+.+.+.+.+.+.+.+.+.+.X.f   , @.@.@.@.@.@.@.@.@.@.@.@.@.@.@.@.@.@.@.",
"@.@.@.@.@.@.@.@.@.@.@.@.@.@.@.@.@.@.@.@.M < O Y +.+.+.+.+.+.+.+.+.+.+.+.+.+.+.+.+.L O   . @ @.@.@.@.@.@.@.@.@.@.@.@.@.@.@.@.@.@.",
"@.@.@.@.@.@.@.@.@.@.@.@.@.@.@.1 2 1 1 2 e + O Y +.+.+.+.+.+.+.+.+.+.+.+.+.+.+.+.+.H   8 q   @ @.@.@.@.@.@.@.@.@.@.@.@.@.@.@.@.@.",
"@.@.@.@.@.@.@.@.@.@.@.@.@.< +               O I +.+.+.+.+.+.+.+.+.+.+.+.+.+.+.+.{ 8 O m ] w     , @.@.@.@.@.@.@.@.@.@.@.@.@.@.@.",
"@.@.@.@.@.@.@.@.@.@.@.@.@.+   w v v v v v v b { +.+.+.+.+.+.+.+.+.+.+.+.+.+.+.o.H   q } +.] v >   , @.@.@.@.@.@.@.@.@.@.@.@.@.@.",
"@.@.@.@.@.@.@.@.@.@.@.@.+   d { +.O.+.O.O.O.O.+.+.+.+.+.+.+.+.+.+.+.+.+.+.+.} H * * K O.+.+.o.P :   . @.@.@.@.@.@.@.@.@.@.@.@.@.",
"@.@.@.@.@.@.@.@.@.@.@.,   w ] +.+.+.+.+.+.+.+.+.+.+.+.+.+.+.] I I I P I I K w O = K o.+.+.+.+.O.P f O , @.@.@.@.@.@.@.@.@.@.@.@.",
"@.@.@.@.@.@.@.@.@.@.@.. O K +.+.+.+.+.+.+.+.+.+.+.+.+.+.+.o.h   X O O X X X   : K o.+.+.+.+.+.+.+.[ : . @.@.@.@.@.@.@.@.@.@.@.@.",
"@.@.@.@.@.@.@.@.@.@.@.  d } +.+.+.+.+.+.+.+.+.+.+.+.+.+.o.L >   + + + .   X v ] o.+.+.+.+.+.+.+.+.{ :   @.@.@.@.@.@.@.@.@.@.@.@.",
"@.@.@.@.@.@.@.@.@.@.@.  g o.+.+.+.+.+.+.+.+.+.+.+.+.+.o.L 3 . < @.@.@.@.  O J O.+.+.+.+.+.+.+.+.+.{ :   @.@.@.@.@.@.@.@.@.@.@.@.",
"@.@.@.@.@.@.@.@.@.@.@.. d ..+.+.+.+.+.+.+.+.+.+.+.+.o.K 7 . < @.@.@.@.@.@.. = Y +.+.+.+.+.+.+.+.+.{ >   @.@.@.@.@.@.@.@.@.@.@.@.",
"@.@.@.@.@.@.@.@.@.@.@.+ = b J ] o.X.o.+.+.+.+.+.+.X.H = . , @.@.@.@.@.@.@.,   v ..+.+.+.+.+.+.+.+.L * . @.@.@.@.@.@.@.@.@.@.@.@.",
"@.@.@.@.@.@.@.@.@.@.@.< .   X 8 g f h Y } } } } } m * . < @.@.@.@.@.@.@.@.@.+ o v ..+.+.+.+.+.+.o.g   @ @.@.@.@.@.@.@.@.@.@.@.@.",
"@.@.@.@.@.@.@.@.@.@.@.@.1 @ +         > q q q q q O   < @.@.@.@.@.@.@.@.@.@.@.. O v ..+.+.+.+.+.{ q . @.@.@.@.@.@.@.@.@.@.@.@.@.",
"@.@.@.@.@.@.@.@.@.@.@.@.@.@.@.< < < + .           . < @.@.@.@.@.@.@.@.@.@.@.@.@.. X v X.+.+.+.+.J X @ @.@.@.@.@.@.@.@.@.@.@.@.@.",
"@.@.@.@.@.@.@.@.@.@.@.@.@.@.@.@.@.@.@.@.@.@.@.@.@.@.@.@.@.@.@.@.@.@.@.@.@.@.@.@.@.. X v ..+.+.I 8   @.@.@.@.@.@.@.@.@.@.@.@.@.@.",
"@.@.@.@.@.@.@.@.@.@.@.@.@.@.@.@.@.@.@.@.@.@.@.@.@.@.@.@.@.@.@.@.@.@.@.@.@.@.@.@.@.@.+ X h H m 8   , @.@.@.@.@.@.@.@.@.@.@.@.@.@.",
"@.@.@.@.@.@.@.@.@.@.@.@.@.@.@.@.@.@.@.@.@.@.@.@.@.@.@.@.@.@.@.@.@.@.@.@.@.@.@.@.@.@.@..         @ @.@.@.@.@.@.@.@.@.@.@.@.@.@.@.",
"@.@.@.@.@.@.@.@.@.@.@.@.@.@.@.@.@.@.@.@.@.@.@.@.@.@.@.@.@.@.@.@.@.@.@.@.@.@.@.@.@.@.@.@.+ + + @.@.@.@.@.@.@.@.@.@.@.@.@.@.@.@.@.",
"@.@.@.@.@.@.@.@.@.@.@.@.@.@.@.@.@.@.@.@.@.@.@.@.@.@.@.@.@.@.@.@.@.@.@.@.@.@.@.@.@.@.@.@.@.@.@.@.@.@.@.@.@.@.@.@.@.@.@.@.@.@.@.@.",
"@.@.@.@.@.@.@.@.@.@.@.@.@.@.@.@.@.@.@.@.@.@.@.@.@.@.@.@.@.@.@.@.@.@.@.@.@.@.@.@.@.@.@.@.@.@.@.@.@.@.@.@.@.@.@.@.@.@.@.@.@.@.@.@.",
"@.@.@.@.@.@.@.@.@.@.@.@.@.@.@.@.@.@.@.@.@.@.@.@.@.@.@.@.@.@.@.@.@.@.@.@.@.@.@.@.@.@.@.@.@.@.@.@.@.@.@.@.@.@.@.@.@.@.@.@.@.@.@.@.",
"@.@.@.@.@.@.@.@.@.@.@.@.@.@.@.@.@.@.@.@.@.@.@.@.@.@.@.@.@.@.@.@.@.@.@.@.@.@.@.@.@.@.@.@.@.@.@.@.@.@.@.@.@.@.@.@.@.@.@.@.@.@.@.@.",
"@.@.@.@.@.@.@.@.@.@.@.@.@.@.@.@.@.@.@.@.@.@.@.@.@.@.@.@.@.@.@.@.@.@.@.@.@.@.@.@.@.@.@.@.@.@.@.@.@.@.@.@.@.@.@.@.@.@.@.@.@.@.@.@."
};
