/* XPM */
static char *result[] = {
/* columns rows colors chars-per-pixel */
"64 64 96 2 ",
"   c #020302",
".  c #040B02",
"X  c #080708",
"o  c #07080A",
"O  c #0B0B0B",
"+  c #071004",
"@  c #091405",
"#  c #0B1907",
"$  c #0F100F",
"%  c #0D1D08",
"&  c #0B0F11",
"*  c #0E1114",
"=  c #131213",
"-  c #111519",
";  c #1B1B1B",
":  c #0F2209",
">  c #11250B",
",  c #12280B",
"<  c #1D252A",
"1  c #242424",
"2  c #20272C",
"3  c #20292E",
"4  c #2B2A2B",
"5  c #242F35",
"6  c #302F30",
"7  c #283137",
"8  c #273239",
"9  c #283238",
"0  c #333333",
"q  c #3A393A",
"w  c #2F3C44",
"e  c #33414A",
"r  c #374650",
"t  c #3B4B55",
"y  c #3F4F59",
"u  c #3F515D",
"i  c #434343",
"p  c #4C4C4C",
"a  c #41545F",
"s  c #555455",
"d  c #575758",
"f  c gray37",
"g  c #465A66",
"h  c #495E6A",
"j  c #4B606D",
"k  c #4E6472",
"l  c #526976",
"z  c #5B6971",
"x  c #576E7D",
"c  c #646464",
"v  c #6B6B6B",
"b  c #747474",
"n  c #7C7C7C",
"m  c #5A7281",
"M  c #617A89",
"N  c #708B9B",
"B  c #728FA0",
"V  c #7C9AAC",
"C  c #848484",
"Z  c #8B8B8B",
"A  c #939393",
"S  c #9C9C9C",
"D  c #899AA5",
"F  c #80A0B3",
"G  c #85A6B9",
"H  c #89A9BD",
"J  c #A5A5A5",
"K  c #ACACAC",
"L  c #B4B5B5",
"P  c #BBBBBB",
"I  c #8AACC0",
"U  c #8FB1C5",
"Y  c #94B7CD",
"T  c #97BCD1",
"R  c #9ABFD5",
"E  c #9CC0D6",
"W  c #A4C6D9",
"Q  c #ACCBDD",
"!  c #B2D0E1",
"~  c #B9D3E2",
"^  c #C5C5C5",
"/  c #CACACA",
"(  c #C9D2D7",
")  c LightGray",
"_  c #DBDBDB",
"`  c #CADEE9",
"'  c #D0E1EC",
"]  c #DCE9F0",
"[  c #E4E4E4",
"{  c #EDEDED",
"}  c #E1ECF3",
"|  c #F3F3F3",
" . c #F3F7FA",
".. c #F5F9FC",
"X. c #FFFFFF",
"o. c None",
/* pixels */
"o.o.o.o.o.o.o.o.o.o.o.o.o.o.o.o.o.o.o.o.o.o.o.o.o.o.o.o.o.o.o.o.o.o.o.o.o.o.o.o.o.o.o.o.o.o.o.o.o.o.o.o.o.o.o.o.o.o.o.o.o.o.o.o.",
"o.o.o.o.o.o.o.o.o.o.o.o.o.o.o.o.o.o.o.o.o.o.o.o.o.o.o.o.o.o.o.o.o.o.o.o.o.o.o.o.o.o.o.o.o.o.o.o.o.o.o.o.o.o.o.o.o.o.o.o.o.o.o.o.",
"o.o.o.o.o.o.o.o.o.o.o.o.o.o.o.o.o.o.o.o.o.o.o.o.o.o.o.o.o.o.o.o.o.o.o.o.o.o.o.o.o.o.o.o.o.o.o.o.o.o.o.o.o.o.o.o.o.o.o.o.o.o.o.o.",
"o.o.o.o.o.o.o.o.o.o.o.o.o.o.o.o.o.o.o.o.o.o.o.o.o.o.o.o.o.o.o.o.o.o.o.o.o.o.o.o.o.o.o.o.o.o.o.o.o.o.o.o.o.o.o.o.o.o.o.o.o.o.o.o.",
"o.o.o.o.o.o.o.o.o.o.o.o.o.o.o.o.o.o.o.o.o.o.o.o.o.o.o.o.o.o.o.o.o.o.o.o.o.o.o.o.o.o.o.o.o.o.o.o.o.o.o.o.o.o.o.o.o.o.o.o.o.o.o.o.",
"o.o.o.o.o.o.o.o.o.o.o.o.o.o.o.o.o.o.o.o.o.o.o.o.o.o.o.o.o.o.o.o.o.o.o.o.o.o.o.o.o.o.o.o.o.o.o.o.o.o.o.o.o.o.o.o.o.o.o.o.o.o.o.o.",
"o.o.o.o.o.o.o.o.o.o.o.o.o.o.o.o.o.o.o.o.o.o.o.o.o.o.o.o.o.o.o.o.o.o.o.o.o.o.o.o.o.o.o.o.o.o.o.o.o.o.o.o.o.o.o.o.o.o.o.o.o.o.o.o.",
"o.o.o.o.o.o.o.o.o.o.o.o.o.o.o.o.o.o.o.o.o.o.o.o.o.o.o.o.o.o.o.o.o.o.o.o.o.o.o.o.o.o.o.o.o.o.o.o.o.o.o.o.o.o.o.o.o.o.o.o.o.o.o.o.",
"o.o.o.o.o.o.o.o.o.o.o.o.o.o.o.o.o.o.o.o.o.o.o.o.o.o.o.o.o.o.o.o.o.o.o.o.o.o.o.o.o.o.o.o.o.o.o.o.o.o.o.o.o.o.o.o.o.o.o.o.o.o.o.o.",
"o.o.o.o.o.o.o.o.o.o.o.o.o.o.o.o.o.o.o.o.o.o.o.o.o.o.o.o.: : %     .           : o.o.o.o.o.o.o.o.o.o.o.o.o.o.o.o.o.o.o.o.o.o.o.o.",
"o.o.o.o.o.o.o.o.o.o.o.o.o.o.o.o.o.o.o.o.o.o.o.o.o.o.o.%             4 q q q 0 O + o.o.o.o.o.o.o.o.o.o.o.o.o.o.o.o.o.o.o.o.o.o.o.",
"o.o.o.o.o.o.o.o.o.o.o.o.o.o.o.o.o.o.o.o.o.o.o.o.o.o.@   6 c c c c v / { { { [ v X . o.o.o.o.o.o.o.o.o.o.o.o.o.o.o.o.o.o.o.o.o.o.",
"o.o.o.o.o.o.o.o.o.o.o.o.o.o.o.o.o.o.o.o.o.o.o.o.o.%   q ^ X...X...X.X.X.X.X.X.[ v O . o.o.o.o.o.o.o.o.o.o.o.o.o.o.o.o.o.o.o.o.o.",
"o.o.o.o.o.o.o.o.o.o.o.o.o.o.o.o.o.% . . # o.o.o.#   q ^ X.X.X.X.X.X.X.X.X.X.X.X.[ i   > o.o.o.o.o.o.o.o.o.o.o.o.o.o.o.o.o.o.o.o.",
"o.o.o.o.o.o.o.o.o.o.o.o.o.o.o..     O =     . @   6 / X.X.X.X.X.X.X.X.X.| { { { [ Z X . o.o.o.o.o.o.o.o.o.o.o.o.o.o.o.o.o.o.o.o.",
"o.o.o.o.o.o.o.o.o.o.o.o.o.% . $ q d L P c i =     b ..X.X.X.X.X.X.../ L c 0 q q q 6   . o.o.o.o.o.o.o.o.o.o.o.o.o.o.o.o.o.o.o.o.",
"o.o.o.o.o.o.o.o.o.o.o.o.@   i A { | X.X.| [ p   f [ X.X.X.X.X.X.| L 4 O o O O O O O O O     @ : o.o.o.o.o.o.o.o.o.o.o.o.o.o.o.o.",
"o.o.o.o.o.o.o.o.o.o.o.o.  0 ) X.X.X.X.X.X.| p   J X.X.X.X.X.X.) f ; X 3 l D L L L L P J p 0 O   # o.o.o.o.o.o.o.o.o.o.o.o.o.o.o.",
"o.o.o.o.o.o.o.o.o.o.o.o.  i | X.X.X.X.X.X.| p   J X.X.X.X.X.) p   2 j H T !  .X.X.X.X.X.{ ( z <   @ o.o.o.o.o.o.o.o.o.o.o.o.o.o.",
"o.o.o.o.o.o.o.o.o.o.o.#   d | X.X.X.X.X.X.| p   J X.X.X.X.[ p   7 V T E E E ' ..X.X.X...} Q R V 8 . o.o.o.o.o.o.o.o.o.o.o.o.o.o.",
"o.o.o.o.o.o.o.o.o.o.o.. O L X.X.X.X.X.X.X.| p   J X.X.X.X.J $ O N E R R R R W ~ ] } ` Q W R R E N * . o.o.o.o.o.o.o.o.o.o.o.o.o.",
"o.o.o.o.o.o.o.o.o.o.o.. = / X.X.X.X.X.X.X.| p   J X.X.X.| s   t U E R R R R R R E E E E R R R E V * . o.o.o.o.o.o.o.o.o.o.o.o.o.",
"o.o.o.o.o.o.o.o.o.o.o.. = ^ X.X.X.X.X.X.X.| p   J X.X.X.| p   a G R R R R R R R R R R R R R R E V = . o.o.o.o.o.o.o.o.o.o.o.o.o.",
"o.o.o.o.o.o.o.o.o.o.o.. = / X.X.X.X.X.X.X.| p   J X.X.X.| s   w m G T T E E E E E E E E E E E T l O   o.o.o.o.o.o.o.o.o.o.o.o.o.",
"o.o.o.o.o.o.o.o.o.o.o.. = / X.X.X.X.X.X.X.| p   J X.X.X.| p   9 h x M B I I I I I I I I I I V M <   @ o.o.o.o.o.o.o.o.o.o.o.o.o.",
"o.o.o.o.o.o.o.o.o.o.o.. = ^ X.X.X.X.X.X.X.| p   J X.X.X...n X O y j h h l k l l l l l l l l k t *   o.o.o.o.o.o.o.o.o.o.o.o.o.o.",
"o.o.o.o.o.o.o.o.o.o.o.. = / X.X.X.X.X.X.X.| p   J X.X.X.X.) 4   < u g g h k k h h k g a u g e -   # o.o.o.o.o.o.o.o.o.o.o.o.o.o.",
"o.o.o.o.o.o.o.o.o.o.o.. = ^ X.X.X.X.X.X.X.| p X J X.X.X.X.X.J 1   * & < e e e e e e 5 & * * O   % o.o.o.o.o.o.o.o.o.o.o.o.o.o.o.",
"o.o.o.o.o.o.o.o.o.o.o.. = ^ X.X.X.X.X.X.X.| p   J X.X.X.X.X...P v = $ O                       # o.o.o.o.o.o.o.o.o.o.o.o.o.o.o.o.",
"o.o.o.o.o.o.o.o.o.o.o.. = / X.X.X.X.X.X.X.| p   J X.X.X.X.X.X.X.{ ^ ^ Z i w i i i q i q O   o.o.o.o.o.o.o.o.o.o.o.o.o.o.o.o.o.o.",
"o.o.o.o.o.o.o.o.o.o.o.. = ^ X.X.X.X.X.X.X.| p   J X.X.X.X.X.X.X.X.X.X...| { { { { | | / 1   o.o.o.o.o.o.o.o.o.o.o.o.o.o.o.o.o.o.",
"o.o.o.o.o.o.o.o.o.o.o.@ O L X.X.X.X.X.X.X.| p   J X.X.X.X.X.X.X.X.X.X.X.X.X.X.X.X.X.X._ 4   o.o.o.o.o.o.o.o.o.o.o.o.o.o.o.o.o.o.",
"o.o.o.o.o.o.o.o.o.o.o.o.  s | X.X.X.X.X.X.| p   J X.X.X.X.X.X.X.X.X.X.X.X.X.X.X.X.X.X._ 4   o.o.o.o.o.o.o.o.o.o.o.o.o.o.o.o.o.o.",
"o.o.o.o.o.o.o.o.o.o.o.o.  i | X.X.X.X.X.X.| p X J X.X.X.X.X.X.X.X.X.X.X.X.X.X.X.X.X.X._ 4   o.o.o.o.o.o.o.o.o.o.o.o.o.o.o.o.o.o.",
"o.o.o.o.o.o.o.o.o.o.o.o.  i | X.X.X.X.X.X.| p   J X.X.X.X.X.X.X.X.X.X.X.X.X.X.X.X.X.X._ 4   o.o.o.o.o.o.o.o.o.o.o.o.o.o.o.o.o.o.",
"o.o.o.o.o.o.o.o.o.o.o.o.  1 L X.X.X.X.X.X.| p   J X.X.X.X.X.X.X.X.X.X.X.X.X.X.X.X.X.X.) 1   o.o.o.o.o.o.o.o.o.o.o.o.o.o.o.o.o.o.",
"o.o.o.o.o.o.o.o.o.o.o.o.@   c { X.X.X.X.X.| p   J X.X.X.X.X.X.X.X.X.X.X.X.X.X.X.X.X...n O . o.o.o.o.o.o.o.o.o.o.o.o.o.o.o.o.o.o.",
"o.o.o.o.o.o.o.o.o.o.o.o.o.. O C | X.X.X.X.| p   J X.X.X.X.X.X.X.X.X.X.X.X.X.X.X.X.X.) 6   > o.o.o.o.o.o.o.o.o.o.o.o.o.o.o.o.o.o.",
"o.o.o.o.o.o.o.o.o.o.o.o.o.o.. $ n ) X.X.X.| s   J X.X.X.X.X.X.X.X.X.X.X.X.X.X.X.X.X.S X . o.o.o.o.o.o.o.o.o.o.o.o.o.o.o.o.o.o.o.",
"o.o.o.o.o.o.o.o.o.o.o.o.o.o.o.. O 0 A J J S 6   b | X.X.X.X.X.X.X.X.X.X.X.X.X.X.X.X.J   @ o.o.o.o.o.o.o.o.o.o.o.o.o.o.o.o.o.o.o.",
"o.o.o.o.o.o.o.o.o.o.o.o.o.o.o.o..     O O X     ; ^ { [ { ..X.X.X.X.X.X.X.X.X.X.X.X.A   @ o.o.o.o.o.o.o.o.o.o.o.o.o.o.o.o.o.o.o.",
"o.o.o.o.o.o.o.o.o.o.o.o.o.o.o.o.o.> @ @ @ @ .     4 0 6 q S | X.X.X.X...) | X.X.X.) 0   > o.o.o.o.o.o.o.o.o.o.o.o.o.o.o.o.o.o.o.",
"o.o.o.o.o.o.o.o.o.o.o.o.o.o.o.o.o.o.o.o.o.o..       O O $ n | X.X.X.X.^ i A | X.| n   . o.o.o.o.o.o.o.o.o.o.o.o.o.o.o.o.o.o.o.o.",
"o.o.o.o.o.o.o.o.o.o.o.o.o.o.o.o.o.o.o.o.: . O 0 q c L P P { X.X.X.X.X.K = ; P | Z = X o.o.o.o.o.o.o.o.o.o.o.o.o.o.o.o.o.o.o.o.o.",
"o.o.o.o.o.o.o.o.o.o.o.o.o.o.o.o.o.o.o.:   X c [ { | X.X.X.X.X.X.X.X.X.{ p   f b $ . o.o.o.o.o.o.o.o.o.o.o.o.o.o.o.o.o.o.o.o.o.o.",
"o.o.o.o.o.o.o.o.o.o.o.o.o.o.o.o.o.o.o.. X c [ X.X.X.X.X.X.X.X.X.X.X.X.[ i       . o.o.o.o.o.o.o.o.o.o.o.o.o.o.o.o.o.o.o.o.o.o.o.",
"o.o.o.o.o.o.o.o.o.o.o.o.o.o.o.o.o.o.o.  0 [ X.X.X.X.X.X.X.X.X.X.X.X.X.J =       % o.o.o.o.o.o.o.o.o.o.o.o.o.o.o.o.o.o.o.o.o.o.o.",
"o.o.o.o.o.o.o.o.o.o.o.o.o.o.o.o.o.o.%   i | X.X.X.X.X.X.X.X.X.X.X.X.X.S   0 i   % o.o.o.o.o.o.o.o.o.o.o.o.o.o.o.o.o.o.o.o.o.o.o.",
"o.o.o.o.o.o.o.o.o.o.o.o.o.o.o.o.o.o.#   i { X.X.X.X.X.X.X.X.X.X.X.X.| b   d ^ 4 . o.o.o.o.o.o.o.o.o.o.o.o.o.o.o.o.o.o.o.o.o.o.o.",
"o.o.o.o.o.o.o.o.o.o.o.o.o.o.o.o.o.o.o.  i | X.X.X.X.X.X.X.X.X.X.X.X.^ = O S { 0   o.o.o.o.o.o.o.o.o.o.o.o.o.o.o.o.o.o.o.o.o.o.o.",
"o.o.o.o.o.o.o.o.o.o.o.o.o.o.o.o.o.o.o.  0 ) X.X.X.X.X.X.X.X.X.X.| ^ d   i [ | s   % o.o.o.o.o.o.o.o.o.o.o.o.o.o.o.o.o.o.o.o.o.o.",
"o.o.o.o.o.o.o.o.o.o.o.o.o.o.o.o.o.o.o.+   d K { ..X.X.X.X.| | ^ b =   0 ^ X.X.L O . o.o.o.o.o.o.o.o.o.o.o.o.o.o.o.o.o.o.o.o.o.o.",
"o.o.o.o.o.o.o.o.o.o.o.o.o.o.o.o.o.o.o.o.@   = p c ^ _ _ J d s ;   = C / X.X.X.J O . o.o.o.o.o.o.o.o.o.o.o.o.o.o.o.o.o.o.o.o.o.o.",
"o.o.o.o.o.o.o.o.o.o.o.o.o.o.o.o.o.o.o.o.o.# .     ; 4 1 =     0 d S ..X.X.X.{ p   : o.o.o.o.o.o.o.o.o.o.o.o.o.o.o.o.o.o.o.o.o.o.",
"o.o.o.o.o.o.o.o.o.o.o.o.o.o.o.o.o.o.o.o.o.o.o.o.@           0 / | X.X.X.X...A = . o.o.o.o.o.o.o.o.o.o.o.o.o.o.o.o.o.o.o.o.o.o.o.",
"o.o.o.o.o.o.o.o.o.o.o.o.o.o.o.o.o.o.o.o.o.o.o.o.o.o.o.o.o.  ; L X.X.X.[ P Z ; . > o.o.o.o.o.o.o.o.o.o.o.o.o.o.o.o.o.o.o.o.o.o.o.",
"o.o.o.o.o.o.o.o.o.o.o.o.o.o.o.o.o.o.o.o.o.o.o.o.o.o.o.o.o.#   s C C C d $ O   o.o.o.o.o.o.o.o.o.o.o.o.o.o.o.o.o.o.o.o.o.o.o.o.o.",
"o.o.o.o.o.o.o.o.o.o.o.o.o.o.o.o.o.o.o.o.o.o.o.o.o.o.o.o.o.o.@ .       . + # o.o.o.o.o.o.o.o.o.o.o.o.o.o.o.o.o.o.o.o.o.o.o.o.o.o.",
"o.o.o.o.o.o.o.o.o.o.o.o.o.o.o.o.o.o.o.o.o.o.o.o.o.o.o.o.o.o.o.o.@ @ @ o.o.o.o.o.o.o.o.o.o.o.o.o.o.o.o.o.o.o.o.o.o.o.o.o.o.o.o.o.",
"o.o.o.o.o.o.o.o.o.o.o.o.o.o.o.o.o.o.o.o.o.o.o.o.o.o.o.o.o.o.o.o.o.o.o.o.o.o.o.o.o.o.o.o.o.o.o.o.o.o.o.o.o.o.o.o.o.o.o.o.o.o.o.o.",
"o.o.o.o.o.o.o.o.o.o.o.o.o.o.o.o.o.o.o.o.o.o.o.o.o.o.o.o.o.o.o.o.o.o.o.o.o.o.o.o.o.o.o.o.o.o.o.o.o.o.o.o.o.o.o.o.o.o.o.o.o.o.o.o.",
"o.o.o.o.o.o.o.o.o.o.o.o.o.o.o.o.o.o.o.o.o.o.o.o.o.o.o.o.o.o.o.o.o.o.o.o.o.o.o.o.o.o.o.o.o.o.o.o.o.o.o.o.o.o.o.o.o.o.o.o.o.o.o.o.",
"o.o.o.o.o.o.o.o.o.o.o.o.o.o.o.o.o.o.o.o.o.o.o.o.o.o.o.o.o.o.o.o.o.o.o.o.o.o.o.o.o.o.o.o.o.o.o.o.o.o.o.o.o.o.o.o.o.o.o.o.o.o.o.o.",
"o.o.o.o.o.o.o.o.o.o.o.o.o.o.o.o.o.o.o.o.o.o.o.o.o.o.o.o.o.o.o.o.o.o.o.o.o.o.o.o.o.o.o.o.o.o.o.o.o.o.o.o.o.o.o.o.o.o.o.o.o.o.o.o."
};
