/* XPM */
static char *result[] = {
/* columns rows colors chars-per-pixel */
"64 64 96 2 ",
"   c #020302",
".  c #040B02",
"X  c #080708",
"o  c #07080A",
"O  c #0B0B0B",
"+  c #071204",
"@  c #091505",
"#  c #0B1A07",
"$  c #0F100F",
"%  c #0D1D08",
"&  c #0B0F11",
"*  c #0E1114",
"=  c #131213",
"-  c #111519",
";  c #1B1B1B",
":  c #0F2109",
">  c #11250B",
",  c #12290C",
"<  c #1D252A",
"1  c #242424",
"2  c #20272C",
"3  c #20292E",
"4  c #2B2A2B",
"5  c #242F35",
"6  c #302F30",
"7  c #283137",
"8  c #273239",
"9  c #283238",
"0  c #333333",
"q  c #3A393A",
"w  c #2F3C44",
"e  c #33414A",
"r  c #374650",
"t  c #3B4B55",
"y  c #3F4F59",
"u  c #3F515D",
"i  c #434343",
"p  c #4C4C4C",
"a  c #41545F",
"s  c #555455",
"d  c #575758",
"f  c gray37",
"g  c #465A66",
"h  c #495E6A",
"j  c #4B606D",
"k  c #4E6472",
"l  c #526976",
"z  c #5B6971",
"x  c #576E7D",
"c  c #646464",
"v  c #6B6B6B",
"b  c #747474",
"n  c #7C7C7C",
"m  c #5A7281",
"M  c #617A89",
"N  c #708B9B",
"B  c #728FA0",
"V  c #7C9AAC",
"C  c #848484",
"Z  c #8B8B8B",
"A  c #939393",
"S  c #9C9C9C",
"D  c #899AA5",
"F  c #80A0B3",
"G  c #85A6B9",
"H  c #89A9BD",
"J  c #A5A5A5",
"K  c #ACACAC",
"L  c #B4B5B5",
"P  c #BBBBBB",
"I  c #8AACC0",
"U  c #8FB1C5",
"Y  c #94B7CD",
"T  c #97BCD1",
"R  c #9ABFD5",
"E  c #9CC0D6",
"W  c #A4C6D9",
"Q  c #ACCBDD",
"!  c #B2D0E1",
"~  c #B9D3E2",
"^  c #C5C5C5",
"/  c #CACACA",
"(  c #C9D2D7",
")  c LightGray",
"_  c #DBDBDB",
"`  c #CADEE9",
"'  c #D0E1EC",
"]  c #DCE9F0",
"[  c #E4E4E4",
"{  c #EDEDED",
"}  c #E1ECF3",
"|  c #F3F3F3",
" . c #F3F7FA",
".. c #F5F9FC",
"X. c #FFFFFF",
"o. c None",
/* pixels */
"o.o.o.o.o.o.o.o.o.o.o.o.o.o.o.o.o.o.o.o.o.o.o.o.o.o.o.o.o.o.o.o.o.o.o.o.o.o.o.o.o.o.o.o.o.o.o.o.o.o.o.o.o.o.o.o.o.o.o.o.o.o.o.o.",
"o.o.o.o.o.o.o.o.o.o.o.o.o.o.o.o.o.o.o.o.o.o.o.o.o.o.o.o.o.o.o.o.o.o.o.o.o.o.o.o.o.o.o.o.o.o.o.o.o.o.o.o.o.o.o.o.o.o.o.o.o.o.o.o.",
"o.o.o.o.o.o.o.o.o.o.o.o.o.o.o.o.o.o.o.o.o.o.o.o.o.o.o.o.o.o.o.o.o.o.o.o.o.o.o.o.o.o.o.o.o.o.o.o.o.o.o.o.o.o.o.o.o.o.o.o.o.o.o.o.",
"o.o.o.o.o.o.o.o.o.o.o.o.o.o.o.o.o.o.o.o.o.o.o.o.o.o.o.o.o.o.o.o.o.o.o.o.o.o.o.o.o.o.o.o.o.o.o.o.o.o.o.o.o.o.o.o.o.o.o.o.o.o.o.o.",
"o.o.o.o.o.o.o.o.o.o.o.o.o.o.o.o.o.o.o.o.o.o.o.o.o.o.o.o.o.o.o.o.o.o.o.o.o.o.o.o.o.o.o.o.o.o.o.o.o.o.o.o.o.o.o.o.o.o.o.o.o.o.o.o.",
"o.o.o.o.o.o.o.o.o.o.o.o.o.o.o.o.o.o.o.o.o.o.o.o.o.o.o.o.o.o.o.o.o.o.o.o.o.o.o.o.o.o.o.o.o.o.o.o.o.o.o.o.o.o.o.o.o.o.o.o.o.o.o.o.",
"o.o.o.o.o.o.o.o.o.o.o.o.o.o.o.o.o.o.o.o.o.o.o.o.o.o.o.o.o.o.o.o.o.o.o.o.o.o.o.o.o.o.o.o.o.o.o.o.o.o.o.o.o.o.o.o.o.o.o.o.o.o.o.o.",
"o.o.o.o.o.o.o.o.o.o.o.o.o.o.o.o.o.o.o.o.o.o.o.o.o.o.o.o.o.o.o.o.o.o.o.o.o.o.o.o.o.o.o.o.o.o.o.o.o.o.o.o.o.o.o.o.o.o.o.o.o.o.o.o.",
"o.o.o.o.o.o.o.o.o.o.o.o.o.o.o.o.o.o.o.o.o.o.o.o.o.o.o.o.o.o.o.o.o.o.o.o.o.o.o.o.o.o.o.o.o.o.o.o.o.o.o.o.o.o.o.o.o.o.o.o.o.o.o.o.",
"o.o.o.o.o.o.o.o.o.o.o.o.o.o.o.o.o.o.o.o.o.o.o.o.:               . # : > o.o.o.o.o.o.o.o.o.o.o.o.o.o.o.o.o.o.o.o.o.o.o.o.o.o.o.o.",
"o.o.o.o.o.o.o.o.o.o.o.o.o.o.o.o.o.o.o.o.o.o.o.. O 0 q q q 4             % o.o.o.o.o.o.o.o.o.o.o.o.o.o.o.o.o.o.o.o.o.o.o.o.o.o.o.",
"o.o.o.o.o.o.o.o.o.o.o.o.o.o.o.o.o.o.o.o.o.o.. X v [ { { { / v c c c c 6   # o.o.o.o.o.o.o.o.o.o.o.o.o.o.o.o.o.o.o.o.o.o.o.o.o.o.",
"o.o.o.o.o.o.o.o.o.o.o.o.o.o.o.o.o.o.o.o.o.+ o v [ X.X.X.X.X...X...X...^ q   % o.o.o.o.o.o.o.o.o.o.o.o.o.o.o.o.o.o.o.o.o.o.o.o.o.",
"o.o.o.o.o.o.o.o.o.o.o.o.o.o.o.o.o.o.o.o.>   q [ X.X.X.X.X.X.X.X.X.X.X.X.^ q   # o.o.o.@ . . # o.o.o.o.o.o.o.o.o.o.o.o.o.o.o.o.o.",
"o.o.o.o.o.o.o.o.o.o.o.o.o.o.o.o.o.o.o.o.. o Z { { { { | X.X.X.X.X.X.X.X.X./ 6   + .     = $     . o.o.o.o.o.o.o.o.o.o.o.o.o.o.o.",
"o.o.o.o.o.o.o.o.o.o.o.o.o.o.o.o.o.o.o.o.. X 4 q q q 0 c L / ..X.X.X.X.X.X...b     = i c P L d i $ . % o.o.o.o.o.o.o.o.o.o.o.o.o.",
"o.o.o.o.o.o.o.o.o.o.o.o.o.o.o.o.> +     O O O O o o o o O 6 L | X.X.X.X.X.X.[ f   p [ | X.X.| { A i X + o.o.o.o.o.o.o.o.o.o.o.o.",
"o.o.o.o.o.o.o.o.o.o.o.o.o.o.o.%   O 0 p J P P L P L D l 2 X ; f ) X.X.X.X.X.X.J   p | X.X.X.X.X.X.) 0   o.o.o.o.o.o.o.o.o.o.o.o.",
"o.o.o.o.o.o.o.o.o.o.o.o.o.o.@   2 z ( { X.X.X.X.X. .! R H j <   i ) X.X.X.X.X.J   p | X.X.X.X.X.X.| i   o.o.o.o.o.o.o.o.o.o.o.o.",
"o.o.o.o.o.o.o.o.o.o.o.o.o.o.  9 V T Q }  .X.X.X...' R R E R V 7   s [ X.X.X.X.J   p | X.X.X.X.X.X.| d   # o.o.o.o.o.o.o.o.o.o.o.",
"o.o.o.o.o.o.o.o.o.o.o.o.o.. * N E R R W Q ` ] ] ~ W R R R R R N & $ J X.X.X.X.J X p | X.X.X.X.X.X.X.L O . o.o.o.o.o.o.o.o.o.o.o.",
"o.o.o.o.o.o.o.o.o.o.o.o.o.. * V E R R R T E W E R R R R R R E U t   s | X.X.X.J   p | X.X.X.X.X.X.X./ = . o.o.o.o.o.o.o.o.o.o.o.",
"o.o.o.o.o.o.o.o.o.o.o.o.o.. = V E E R R R R R R R R R R R R R G y   p | X.X.X.J   p | X.X.X.X.X.X.X.^ = . o.o.o.o.o.o.o.o.o.o.o.",
"o.o.o.o.o.o.o.o.o.o.o.o.o.. o l Y R E E E E E E E E E R R T G m w   s | X.X.X.J   p | X.X.X.X.X.X.X./ = . o.o.o.o.o.o.o.o.o.o.o.",
"o.o.o.o.o.o.o.o.o.o.o.o.o.+   < m V U I I I I I I I I I B M x h 8   p | X.X.X.J   p | X.X.X.X.X.X.X.^ = . o.o.o.o.o.o.o.o.o.o.o.",
"o.o.o.o.o.o.o.o.o.o.o.o.o.o.  * y l l l l k l l k l l l j h j y O X n ..X.X.X.J   p | X.X.X.X.X.X.X./ = . o.o.o.o.o.o.o.o.o.o.o.",
"o.o.o.o.o.o.o.o.o.o.o.o.o.o.#   - r a a g g j j j h h k g a a 3   4 ) X.X.X.X.J X p | X.X.X.X.X.X.X./ = . o.o.o.o.o.o.o.o.o.o.o.",
"o.o.o.o.o.o.o.o.o.o.o.o.o.o.o.%   O * * * 8 e w e e e e < & &   1 J ..X.X.X.X.J   p | X.X.X.X.X.X.X.^ = . o.o.o.o.o.o.o.o.o.o.o.",
"o.o.o.o.o.o.o.o.o.o.o.o.o.o.o.o.#                       o O - v P ..X.X.X.X.X.J   p | X.X.X.X.X.X.X.^ = . o.o.o.o.o.o.o.o.o.o.o.",
"o.o.o.o.o.o.o.o.o.o.o.o.o.o.o.o.o.o.  O q q i i i w i i Z ^ ^ { X.X.X.X.X.X.X.J   p | X.X.X.X.X.X.X./ = . o.o.o.o.o.o.o.o.o.o.o.",
"o.o.o.o.o.o.o.o.o.o.o.o.o.o.o.o.o.o.  1 ) | { { | { { { ..X.X.X.X.X.X.X.X.X.X.J   p | X.X.X.X.X.X.X./ = . o.o.o.o.o.o.o.o.o.o.o.",
"o.o.o.o.o.o.o.o.o.o.o.o.o.o.o.o.o.o.  4 _ X.X.X.X.X.X.X.X.X.X.X.X.X.X.X.X.X.X.J X p | X.X.X.X.X.X.X.L O + o.o.o.o.o.o.o.o.o.o.o.",
"o.o.o.o.o.o.o.o.o.o.o.o.o.o.o.o.o.o.  1 _ X.X.X.X.X.X.X.X.X.X.X.X.X.X.X.X.X.X.J   p | X.X.X.X.X.X.| s   o.o.o.o.o.o.o.o.o.o.o.o.",
"o.o.o.o.o.o.o.o.o.o.o.o.o.o.o.o.o.o.  4 _ X.X.X.X.X.X.X.X.X.X.X.X.X.X.X.X.X.X.J   p | X.X.X.X.X.X.| i   o.o.o.o.o.o.o.o.o.o.o.o.",
"o.o.o.o.o.o.o.o.o.o.o.o.o.o.o.o.o.o.  4 _ X.X.X.X.X.X.X.X.X.X.X.X.X.X.X.X.X.X.J X p | X.X.X.X.X.X.{ i   o.o.o.o.o.o.o.o.o.o.o.o.",
"o.o.o.o.o.o.o.o.o.o.o.o.o.o.o.o.o.o.  1 ) X.X.X.X.X.X.X.X.X.X.X.X.X.X.X.X.X.X.J   p | X.X.X.X.X.X.L 1   o.o.o.o.o.o.o.o.o.o.o.o.",
"o.o.o.o.o.o.o.o.o.o.o.o.o.o.o.o.o.o.+ o n  .X.X.X.X.X.X.X.X.X.X.X.X.X.X.X.X.X.J   p | X.X.X.X.X.{ c   @ o.o.o.o.o.o.o.o.o.o.o.o.",
"o.o.o.o.o.o.o.o.o.o.o.o.o.o.o.o.o.o.>   0 ) X.X.X.X.X.X.X.X.X.X.X.X.X.X.X.X.X.J X p | X.X.X.X.| C O . o.o.o.o.o.o.o.o.o.o.o.o.o.",
"o.o.o.o.o.o.o.o.o.o.o.o.o.o.o.o.o.o.o.. X S X.X.X.X.X.X.X.X.X.X.X.X.X.X.X.X.X.J   p | X.X..._ n = . o.o.o.o.o.o.o.o.o.o.o.o.o.o.",
"o.o.o.o.o.o.o.o.o.o.o.o.o.o.o.o.o.o.o.@ X S X.X.X.X.X.X.X.X.X.X.X.X.X.X.X.X.| b   6 J J J A 0 o . o.o.o.o.o.o.o.o.o.o.o.o.o.o.o.",
"o.o.o.o.o.o.o.o.o.o.o.o.o.o.o.o.o.o.o.@   A X.X.X.X.X.X.X.X.X.X.X.X...{ [ { ^ ;     X X X X   . o.o.o.o.o.o.o.o.o.o.o.o.o.o.o.o.",
"o.o.o.o.o.o.o.o.o.o.o.o.o.o.o.o.o.o.o.>   0 ) X.X.X.| _ ..X.X.X.X...S 0 0 0 4       # @ @ @ : o.o.o.o.o.o.o.o.o.o.o.o.o.o.o.o.o.",
"o.o.o.o.o.o.o.o.o.o.o.o.o.o.o.o.o.o.o.o.. X n | X.| A i ^ X.X.X.X.| n $ o O       + o.o.o.o.o.o.o.o.o.o.o.o.o.o.o.o.o.o.o.o.o.o.",
"o.o.o.o.o.o.o.o.o.o.o.o.o.o.o.o.o.o.o.o.o.. = C | L ; - K X.X.X.X.X.{ P P L c q 0 o . > o.o.o.o.o.o.o.o.o.o.o.o.o.o.o.o.o.o.o.o.",
"o.o.o.o.o.o.o.o.o.o.o.o.o.o.o.o.o.o.o.o.o.o.. O b f   p { X.X.X.X.X.X.X.X.X.| { [ c X   % o.o.o.o.o.o.o.o.o.o.o.o.o.o.o.o.o.o.o.",
"o.o.o.o.o.o.o.o.o.o.o.o.o.o.o.o.o.o.o.o.o.o.o..       i [ X.X.X.X.X.X.X.X.X.X.X.X.[ c o + o.o.o.o.o.o.o.o.o.o.o.o.o.o.o.o.o.o.o.",
"o.o.o.o.o.o.o.o.o.o.o.o.o.o.o.o.o.o.o.o.o.o.o.%       O J X.X.X.X.X.X.X.X.X.X.X.X.X.[ q   o.o.o.o.o.o.o.o.o.o.o.o.o.o.o.o.o.o.o.",
"o.o.o.o.o.o.o.o.o.o.o.o.o.o.o.o.o.o.o.o.o.o.o.%   i 0   S X.X.X.X.X.X.X.X.X.X.X.X.X.{ i   # o.o.o.o.o.o.o.o.o.o.o.o.o.o.o.o.o.o.",
"o.o.o.o.o.o.o.o.o.o.o.o.o.o.o.o.o.o.o.o.o.o.o.. 4 ^ s   b | X.X.X.X.X.X.X.X.X.X.X.X.| i   # o.o.o.o.o.o.o.o.o.o.o.o.o.o.o.o.o.o.",
"o.o.o.o.o.o.o.o.o.o.o.o.o.o.o.o.o.o.o.o.o.o.o.  q { S $ ; P X.X.X.X.X.X.X.X.X.X.X.X.{ i   o.o.o.o.o.o.o.o.o.o.o.o.o.o.o.o.o.o.o.",
"o.o.o.o.o.o.o.o.o.o.o.o.o.o.o.o.o.o.o.o.o.o.%   s { [ i   d ^ | X.X.X.X.X.X.X.X.X.X.) 0   o.o.o.o.o.o.o.o.o.o.o.o.o.o.o.o.o.o.o.",
"o.o.o.o.o.o.o.o.o.o.o.o.o.o.o.o.o.o.o.o.o.o.+ O K X.X.^ 6 X - b ^ | | X.X.X.X...{ K s X + o.o.o.o.o.o.o.o.o.o.o.o.o.o.o.o.o.o.o.",
"o.o.o.o.o.o.o.o.o.o.o.o.o.o.o.o.o.o.o.o.o.o.+ O K X.X.X./ C ;   ; s s J _ _ ^ c p -   + o.o.o.o.o.o.o.o.o.o.o.o.o.o.o.o.o.o.o.o.",
"o.o.o.o.o.o.o.o.o.o.o.o.o.o.o.o.o.o.o.o.o.o.%   p { X.X.X...S s 0     = 4 1 ;     . # o.o.o.o.o.o.o.o.o.o.o.o.o.o.o.o.o.o.o.o.o.",
"o.o.o.o.o.o.o.o.o.o.o.o.o.o.o.o.o.o.o.o.o.o.o.. = A ..X.X.X.X.| / 0           + o.o.o.o.o.o.o.o.o.o.o.o.o.o.o.o.o.o.o.o.o.o.o.o.",
"o.o.o.o.o.o.o.o.o.o.o.o.o.o.o.o.o.o.o.o.o.o.o.,   ; Z P [ X.X.X.L ;   o.o.o.o.o.o.o.o.o.o.o.o.o.o.o.o.o.o.o.o.o.o.o.o.o.o.o.o.o.",
"o.o.o.o.o.o.o.o.o.o.o.o.o.o.o.o.o.o.o.o.o.o.o.o.o.  o $ d C C C s   # o.o.o.o.o.o.o.o.o.o.o.o.o.o.o.o.o.o.o.o.o.o.o.o.o.o.o.o.o.",
"o.o.o.o.o.o.o.o.o.o.o.o.o.o.o.o.o.o.o.o.o.o.o.o.o.o.# + .       . @ o.o.o.o.o.o.o.o.o.o.o.o.o.o.o.o.o.o.o.o.o.o.o.o.o.o.o.o.o.o.",
"o.o.o.o.o.o.o.o.o.o.o.o.o.o.o.o.o.o.o.o.o.o.o.o.o.o.o.o.o.@ @ @ o.o.o.o.o.o.o.o.o.o.o.o.o.o.o.o.o.o.o.o.o.o.o.o.o.o.o.o.o.o.o.o.",
"o.o.o.o.o.o.o.o.o.o.o.o.o.o.o.o.o.o.o.o.o.o.o.o.o.o.o.o.o.o.o.o.o.o.o.o.o.o.o.o.o.o.o.o.o.o.o.o.o.o.o.o.o.o.o.o.o.o.o.o.o.o.o.o.",
"o.o.o.o.o.o.o.o.o.o.o.o.o.o.o.o.o.o.o.o.o.o.o.o.o.o.o.o.o.o.o.o.o.o.o.o.o.o.o.o.o.o.o.o.o.o.o.o.o.o.o.o.o.o.o.o.o.o.o.o.o.o.o.o.",
"o.o.o.o.o.o.o.o.o.o.o.o.o.o.o.o.o.o.o.o.o.o.o.o.o.o.o.o.o.o.o.o.o.o.o.o.o.o.o.o.o.o.o.o.o.o.o.o.o.o.o.o.o.o.o.o.o.o.o.o.o.o.o.o.",
"o.o.o.o.o.o.o.o.o.o.o.o.o.o.o.o.o.o.o.o.o.o.o.o.o.o.o.o.o.o.o.o.o.o.o.o.o.o.o.o.o.o.o.o.o.o.o.o.o.o.o.o.o.o.o.o.o.o.o.o.o.o.o.o.",
"o.o.o.o.o.o.o.o.o.o.o.o.o.o.o.o.o.o.o.o.o.o.o.o.o.o.o.o.o.o.o.o.o.o.o.o.o.o.o.o.o.o.o.o.o.o.o.o.o.o.o.o.o.o.o.o.o.o.o.o.o.o.o.o."
};
