/* XPM */
static char *result[] = {
/* columns rows colors chars-per-pixel */
"64 64 99 2 ",
"   c #010301",
".  c #020C01",
"X  c #050708",
"o  c #07090B",
"O  c #0B0B0B",
"+  c #021402",
"@  c #031B02",
"#  c #0A0E10",
"$  c #100F10",
"%  c #0D1114",
"&  c #0F1519",
"*  c #121212",
"=  c #181717",
"-  c #10161A",
";  c #131B1E",
":  c #1D1C1D",
">  c #201F1F",
",  c #042303",
"<  c #042B03",
"1  c #043402",
"2  c #043A02",
"3  c #181D20",
"4  c #1B252B",
"5  c #1E2A2F",
"6  c #1E2A30",
"7  c #212121",
"8  c gray17",
"9  c #243138",
"0  c #28383F",
"q  c #333333",
"w  c #3A3A3A",
"e  c #044305",
"r  c #2C3B43",
"t  c #2F414A",
"y  c #33454F",
"u  c #364750",
"i  c #374A52",
"p  c #3D4E57",
"a  c #3D5460",
"s  c #3F5864",
"d  c #444444",
"f  c #4B4B4B",
"g  c #535353",
"h  c #5B5B5B",
"j  c #415761",
"k  c #415A66",
"l  c #445F6C",
"z  c #46616E",
"x  c #4C6977",
"c  c #536F7C",
"v  c #656565",
"b  c #6E6E6E",
"n  c #727272",
"m  c #7B7B7B",
"M  c #018D03",
"N  c #587787",
"B  c #5E7F90",
"V  c #5D8090",
"C  c #7F8689",
"Z  c #608293",
"A  c #698D9F",
"S  c #6D91A4",
"D  c #759CB0",
"F  c #789EB1",
"G  c #7AA3B8",
"H  c #858585",
"J  c #8B8B8B",
"K  c #949494",
"L  c #9B9B9B",
"P  c #A4A4A4",
"I  c #ABABAB",
"U  c #AEB4B7",
"Y  c #B2B2B2",
"T  c #BBBBBB",
"R  c #85B0C6",
"E  c #87B3C9",
"W  c #8AB7CD",
"Q  c #8EBDD4",
"!  c #90BFD7",
"~  c #98C0D4",
"^  c #91C0D8",
"/  c #99C5DB",
"(  c #A3CBDE",
")  c #B6D6E5",
"_  c #B8D7E7",
"`  c #BDD9E7",
"'  c #BFDAE8",
"]  c #C4C4C4",
"[  c #CCCCCC",
"{  c #D3D3D3",
"}  c #DDDDDD",
"|  c #D2E5EE",
" . c #DEECF3",
".. c #E4E4E4",
"X. c #EBECEC",
"o. c #F4F4F4",
"O. c #F7FBFC",
"+. c #FFFFFF",
"@. c None",
/* pixels */
"@.@.@.@.@.@.@.@.@.@.@.@.@.@.@.@.@.@.@.@.@.@.@.@.@.@.@.@.@.@.@.@.@.@.@.@.@.@.@.@.@.@.@.@.@.@.@.@.@.@.@.@.@.@.@.@.@.@.@.@.@.@.@.@.",
"@.@.@.@.@.@.@.@.@.@.@.@.@.@.@.@.@.@.@.@.@.@.@.@.@.@.@.@.@.@.@.@.@.@.@.@.@.@.@.@.@.@.@.@.@.@.@.@.@.@.@.@.@.@.@.@.@.@.@.@.@.@.@.@.",
"@.@.@.@.@.@.@.@.@.@.@.@.@.@.@.@.@.@.@.@.@.@.@.@.@.@.@.@.@.@.@.@.@.@.@.@.@.@.@.@.@.@.@.@.@.@.@.@.@.@.@.@.@.@.@.@.@.@.@.@.@.@.@.@.",
"@.@.@.@.@.@.@.@.@.@.@.@.@.@.@.@.@.@.@.@.@.@.@.@.@.@.@.@.@.@.@.@.@.@.@.@.@.@.@.@.@.@.@.@.@.@.@.@.@.@.@.@.@.@.@.@.@.@.@.@.@.@.@.@.",
"@.@.@.@.@.@.@.@.@.@.@.@.@.@.@.@.@.@.@.@.@.@.@.@.@.@.@.@.@.@.@.@.@.@.@.@.@.@.@.@.@.@.@.@.@.@.@.@.@.@.@.@.@.@.@.@.@.@.@.@.@.@.@.@.",
"@.@.@.@.@.@.@.@.@.@.@.@.@.@.@.@.@.@.@.@.@.@.@.@.@.@.@.@.@.@.@.@.@.@.@.@.@.@.@.@.@.@.@.@.@.@.@.@.@.@.@.@.@.@.@.@.@.@.@.@.@.@.@.@.",
"@.@.@.@.@.@.@.@.@.@.@.@.@.@.@.@.@.@.@.@.@.@.@.@.@.@.@.@.@.@.@.@.@.@.@.@.@.@.@.@.@.@.@.@.@.@.@.@.@.@.@.@.@.@.@.@.@.@.@.@.@.@.@.@.",
"@.@.@.@.@.@.@.@.@.@.@.@.@.@.@.@.@.@.@.@.@.@.@.@.@.@.@.@.@.@.@.@.@.@.@.@.@.@.@.@.@.@.@.@.@.@.@.@.@.@.@.@.@.@.@.@.@.@.@.@.@.@.@.@.",
"@.@.@.@.@.@.@.@.@.@.@.@.@.@.@.@.@.@.@.@.@.@.@.@.@.@.@.@ . + . + @ @.@.@.@.@.@.@.@.@.@.@.@.@.@.@.@.@.@.@.@.@.@.@.@.@.@.@.@.@.@.@.",
"@.@.@.@.@.@.@.@.@.@.@.@.@.@.@.@.@.@.@.@.@.@.@.@.@.+     O $ O $         + , @.@.@.@.@.@.@.@.@.@.@.@.@.@.@.@.@.@.@.@.@.@.@.@.@.@.",
"@.@.@.@.@.@.@.@.@.@.@.@.@.@.@.@.@.@.@.@.@.@.@.@.. X q d P T T Y v w w 8     . @ @.@.@.@.@.@.@.@.@.@.@.@.@.@.@.@.@.@.@.@.@.@.@.@.",
"@.@.@.@.@.@.@.@.@.@.@.@.@.@.@.@.@.@.@.@.@.@.@.. X h } X.+.+.+.+.o.X.o.] b g *   + @.@.@.@.@.@.@.@.@.@.@.@.@.@.@.@.@.@.@.@.@.@.@.",
"@.@.@.@.@.@.@.@.@.@.@.@.@.@.@.@.@.@.@.@.@.@.+ O h ..+.+.+.+.+.+.+.+.+.+.+.X.I w   , @.@.@.@.@.@.@.@.@.@.@.@.@.@.@.@.@.@.@.@.@.@.",
"@.@.@.@.@.@.@.@.@.@.@.@.@.@.@.@.@.@.@.@.@.@.  q } +.+.+.+.+.+.+.+.+.+.+.+.+.+.H O . . . < @.@.@.@.@.@.@.@.@.@.@.@.@.@.@.@.@.@.@.",
"@.@.@.@.@.@.@.@.@.@.@.@.@.@.@.@.@.@.@.@.@.+ X J +.+.+.+.+.+.+.+.+.+.+.+.+.+.+.} q     * X           + @.@.@.@.@.@.@.@.@.@.@.@.@.",
"@.@.@.@.@.@.@.@.@.@.@.@.@.@.@.@.@.@.@.@.@.. O J T T T ..+.+.+.+.+.+.+.+.+.+.+.O.K   q Y b d d d d q X @ @.@.@.@.@.@.@.@.@.@.@.@.",
"@.@.@.@.@.@.@.@.@.@.@.@.@.@.@.@.@.@.@., .     o O O O g H H m I O.+.+.+.+.+.+.+.Y O : Y o.o.X.o.o.{ g   @ @.@.@.@.@.@.@.@.@.@.@.",
"@.@.@.@.@.@.@.@.@.@.@.@.@.@.@.@.@.@       8 w q w q 7         > P O.+.+.+.+.+.+.X.g   n +.+.+.+.+.+.K X @ @.@.@.@.@.@.@.@.@.@.@.",
"@.@.@.@.@.@.@.@.@.@.@.@.@.@.@.@.+   * h b { X.X.X.X.U p u i r X > P O.+.+.+.+.+.+.b   n +.+.+.+.+.+.K   @ @.@.@.@.@.@.@.@.@.@.@.",
"@.@.@.@.@.@.@.@.@.@.@.@.@.@.@.+ X 3 H X.O.+.+.+.+.+.| ! Q Q R k X 7 P O.+.+.+.+.+.b   n +.+.+.+.+.+.K   + @.@.@.@.@.@.@.@.@.@.@.",
"@.@.@.@.@.@.@.@.@.@.@.@.@.@.+   u F ~ _  .O.+.+.+. .( ^ ^ ^ ^ E j O > P +.+.+.+.O.b   n +.+.+.+.+.+.K   @ @.@.@.@.@.@.@.@.@.@.@.",
"@.@.@.@.@.@.@.@.@.@.@.@.@.@.  % S / ^ ^ / ) ' ` _ ( ^ ^ ^ ^ ^ ^ E j   d ..+.+.+.O.b   n O.+.+.+.+.+.K   @ @.@.@.@.@.@.@.@.@.@.@.",
"@.@.@.@.@.@.@.@.@.@.@.@.@.@   j W ^ ! ^ ^ ! ! ! ! ^ ^ ^ ^ ^ ^ ^ ^ A # $ K +.+.+.O.b   n +.+.+.+.+.+.K   @ @.@.@.@.@.@.@.@.@.@.@.",
"@.@.@.@.@.@.@.@.@.@.@.@.@.@   c ^ ! ^ ^ ^ ! ! ! ^ ^ ! ^ ^ ! ^ ! Q A 5   m +.+.+.O.b   n +.+.+.+.+.+.K X + @.@.@.@.@.@.@.@.@.@.@.",
"@.@.@.@.@.@.@.@.@.@.@.@.@.@   c / ! ! ^ ! ! ! ! ! ! ! ! ^ ^ ! D B x 5   m +.+.+.O.n   n O.+.+.+.+.+.K   @ @.@.@.@.@.@.@.@.@.@.@.",
"@.@.@.@.@.@.@.@.@.@.@.@.@.@.  u D Q ! ! Q ! ! ! ! ! ! Q G F S x l l 4   m O.+.+.O.b   g ..+.+.+.+.+.K X @ @.@.@.@.@.@.@.@.@.@.@.",
"@.@.@.@.@.@.@.@.@.@.@.@.@.@.+   9 N V Z V Z Z Z Z Z B B x z z l l y #   H +.+.+.O.b   g ..+.+.+.+.+.K   + @.@.@.@.@.@.@.@.@.@.@.",
"@.@.@.@.@.@.@.@.@.@.@.@.@.@.@.. X 3 u l l l l l l l l l z l l a r %   v ..+.+.+.O.b   n +.+.+.+.+.+.K   + @.@.@.@.@.@.@.@.@.@.@.",
"@.@.@.@.@.@.@.@.@.@.@.@.@.@.@.@..   o 4 6 r s k k k k k k r 5 ;     v ..+.+.+.+.+.b   n +.+.+.+.+.} f   @ @.@.@.@.@.@.@.@.@.@.@.",
"@.@.@.@.@.@.@.@.@.@.@.@.@.@.@.@.@.+         & - - - - - & O     8 b ..+.+.+.+.+.O.b   n +.+.+.+.+.] O . @.@.@.@.@.@.@.@.@.@.@.@.",
"@.@.@.@.@.@.@.@.@.@.@.@.@.@.@.@.@.@.@   X O O O O O O O O * h m ] o.+.+.+.+.+.+.O.b   n O.+.+.+.+.] * . @.@.@.@.@.@.@.@.@.@.@.@.",
"@.@.@.@.@.@.@.@.@.@.@.@.@.@.@.@.@.@.+ X n Y Y Y Y Y Y Y Y U ..+.+.+.+.+.+.+.+.+.O.b   n +.+.+.+.+.] * . @.@.@.@.@.@.@.@.@.@.@.@.",
"@.@.@.@.@.@.@.@.@.@.@.@.@.@.@.@.@.@.+ X P +.+.+.+.+.+.+.+.+.+.+.+.+.+.+.+.+.+.+.+.b   n +.+.+.+.+.] * . @.@.@.@.@.@.@.@.@.@.@.@.",
"@.@.@.@.@.@.@.@.@.@.@.@.@.@.@.@.@.@.+ X K +.+.+.+.+.+.+.+.+.+.+.+.+.+.+.+.+.+.+.o.v   b +.+.+.+.+.Y O . @.@.@.@.@.@.@.@.@.@.@.@.",
"@.@.@.@.@.@.@.@.@.@.@.@.@.@.@.@.@.@.,   q } +.+.+.+.+.+.+.+.+.+.+.+.+.+.+.+.+.+.] : * K +.+.+.+.o.h   @ @.@.@.@.@.@.@.@.@.@.@.@.",
"@.@.@.@.@.@.@.@.@.@.@.@.@.@.@.@.@.@.@.  = [ +.+.+.+.+.+.+.+.+.+.+.+.+.+.+.+.+.+.I X w X.+.+.+.o.P : + @.@.@.@.@.@.@.@.@.@.@.@.@.",
"@.@.@.@.@.@.@.@.@.@.@.@.@.@.@.@.@.@.@.. : [ +.+.+.+.+.+.+.+.+.+.+.+.+.+.+.+.+.+.I O d o.o.[ Y h :   @.@.@.@.@.@.@.@.@.@.@.@.@.@.",
"@.@.@.@.@.@.@.@.@.@.@.@.@.@.@.@.@.@.@.  : [ +.+.+.+.+.+.+.+.+.+.+.+.+.+.+.+.+.+.Y O 7 J m > $     < @.@.@.@.@.@.@.@.@.@.@.@.@.@.",
"@.@.@.@.@.@.@.@.@.@.@.@.@.@.@.@.@.@.@.. : [ +.+.+.+.+.+.+.+.+.+.+.+.+.+.+.+.+.+.Y O           @.@.@.@.@.@.@.@.@.@.@.@.@.@.@.@.@.",
"@.@.@.@.@.@.@.@.@.@.@.@.@.@.@.@.@.@.@.  O P +.+.+.+.+.+.+.+.+.+.+.+.+.+.+.+.+.+.I O . , @.@.@.@.@.@.@.@.@.@.@.@.@.@.@.@.@.@.@.@.",
"@.@.@.@.@.@.@.@.@.@.@.@.@.@.@.@.@.@.@.,   f X.+.+.+.+.+.+.+.+.+.+.+.+.+.+.+.+.+.Y O , @.@.@.@.@.@.@.@.@.@.@.@.@.@.@.@.@.@.@.@.@.",
"@.@.@.@.@.@.@.@.@.@.@.@.@.@.@.@.@.@.@ .   $ L +.+.+.+.+.+.+.+.+.+.+.+.+.+.+.+.+.I O < M @.@.@.@.@.@.@.@.@.@.@.@.@.@.@.@.@.@.@.@.",
"@.@.@.@.@.@.@.@.@.@.@.@.@.@.@.@.@.+   q 8   H O.+.+.+.+.+.+.+.+.+.+.+.+.+.+.+.+.I O + e 2 1 2 2 2 @.@.@.@.@.@.@.@.@.@.@.@.@.@.@.",
"@.@.@.@.@.@.@.@.@.@.@.@.@.@.@., .   w ] m o 8 { +.+.+.+.+.+.+.+.+.+.+.+.+.+.+.+.Y X               + < @.@.@.@.@.@.@.@.@.@.@.@.@.",
"@.@.@.@.@.@.@.@.@.@.@.@.@.@.,   : b [ +.} q   H o.+.+.+.+.+.+.+.+.+.+.+.+.+.+.+.{ b v v b v v v w   + @.@.@.@.@.@.@.@.@.@.@.@.@.",
"@.@.@.@.@.@.@.@.@.@.@.@.@..   : L o.+.+.O.K = * H } +.+.+.+.+.+.+.+.+.+.+.+.+.+.O.O.O.O.O.O.O.O.[ d   @ @.@.@.@.@.@.@.@.@.@.@.@.",
"@.@.@.@.@.@.@.@.@.@.@.@., O d P O.+.+.+.+.o.K * O w K I I I I P I ] +.+.+.+.+.+.+.+.+.+.+.+.+.+.+.] w   , @.@.@.@.@.@.@.@.@.@.@.",
"@.@.@.@.@.@.@.@.@.@.@.@.. : [ +.+.+.+.+.+.+.o.K =   O X o X X o X g o.+.+.+.+.+.+.+.+.+.+.+.+.+.+.+.K o . @.@.@.@.@.@.@.@.@.@.@.",
"@.@.@.@.@.@.@.@.@.@.@.@.  : { +.+.+.+.+.+.+.+.o.] v X   . + + @ . > L o.+.+.+.+.+.+.+.+.+.+.+.+.+.+...w   @.@.@.@.@.@.@.@.@.@.@.",
"@.@.@.@.@.@.@.@.@.@.@.@.  > { +.+.+.+.+.+.+.+.+.O.J O   @.@.@.@.< . 7 K o.+.+.+.+.+.+.+.+.+.+.+.+.+.O.g   @.@.@.@.@.@.@.@.@.@.@.",
"@.@.@.@.@.@.@.@.@.@.@.@.  : { +.+.+.+.+.+.+.+.+.Y : . @.@.@.@.@.@.<   4 K o.+.+.+.+.+.+.+.+.+.+.+.+...d . @.@.@.@.@.@.@.@.@.@.@.",
"@.@.@.@.@.@.@.@.@.@.@.@.. $ P +.+.+.+.+.+.+.+...h   , @.@.@.@.@.@.@., . = H X.+.+.+.+.+.O.o.o.o.] J b = + @.@.@.@.@.@.@.@.@.@.@.",
"@.@.@.@.@.@.@.@.@.@.@.@.,   g o.+.+.+.+.+.+...v O + @.@.@.@.@.@.@.@.@.<   * m } } } } } Y h g f 8 X   . < @.@.@.@.@.@.@.@.@.@.@.",
"@.@.@.@.@.@.@.@.@.@.@.@.@.. q { +.+.+.+.+...v X . @.@.@.@.@.@.@.@.@.@.@.< . % 8 q q q q >         @ @ 1 @.@.@.@.@.@.@.@.@.@.@.@.",
"@.@.@.@.@.@.@.@.@.@.@.@.@.+ X J +.+.+.+.X.v X . @.@.@.@.@.@.@.@.@.@.@.@.@.< .             + < < < @.@.@.@.@.@.@.@.@.@.@.@.@.@.@.",
"@.@.@.@.@.@.@.@.@.@.@.@.@.@.  8 I +.+...v X + @.@.@.@.@.@.@.@.@.@.@.@.@.@.@.@.@.@.@.@.@.@.@.@.@.@.@.@.@.@.@.@.@.@.@.@.@.@.@.@.@.",
"@.@.@.@.@.@.@.@.@.@.@.@.@.@.@   8 m H h X . @.@.@.@.@.@.@.@.@.@.@.@.@.@.@.@.@.@.@.@.@.@.@.@.@.@.@.@.@.@.@.@.@.@.@.@.@.@.@.@.@.@.",
"@.@.@.@.@.@.@.@.@.@.@.@.@.@.@.,         . @.@.@.@.@.@.@.@.@.@.@.@.@.@.@.@.@.@.@.@.@.@.@.@.@.@.@.@.@.@.@.@.@.@.@.@.@.@.@.@.@.@.@.",
"@.@.@.@.@.@.@.@.@.@.@.@.@.@.@.@.@.+ + @ @.@.@.@.@.@.@.@.@.@.@.@.@.@.@.@.@.@.@.@.@.@.@.@.@.@.@.@.@.@.@.@.@.@.@.@.@.@.@.@.@.@.@.@.",
"@.@.@.@.@.@.@.@.@.@.@.@.@.@.@.@.@.@.@.@.@.@.@.@.@.@.@.@.@.@.@.@.@.@.@.@.@.@.@.@.@.@.@.@.@.@.@.@.@.@.@.@.@.@.@.@.@.@.@.@.@.@.@.@.",
"@.@.@.@.@.@.@.@.@.@.@.@.@.@.@.@.@.@.@.@.@.@.@.@.@.@.@.@.@.@.@.@.@.@.@.@.@.@.@.@.@.@.@.@.@.@.@.@.@.@.@.@.@.@.@.@.@.@.@.@.@.@.@.@.",
"@.@.@.@.@.@.@.@.@.@.@.@.@.@.@.@.@.@.@.@.@.@.@.@.@.@.@.@.@.@.@.@.@.@.@.@.@.@.@.@.@.@.@.@.@.@.@.@.@.@.@.@.@.@.@.@.@.@.@.@.@.@.@.@.",
"@.@.@.@.@.@.@.@.@.@.@.@.@.@.@.@.@.@.@.@.@.@.@.@.@.@.@.@.@.@.@.@.@.@.@.@.@.@.@.@.@.@.@.@.@.@.@.@.@.@.@.@.@.@.@.@.@.@.@.@.@.@.@.@.",
"@.@.@.@.@.@.@.@.@.@.@.@.@.@.@.@.@.@.@.@.@.@.@.@.@.@.@.@.@.@.@.@.@.@.@.@.@.@.@.@.@.@.@.@.@.@.@.@.@.@.@.@.@.@.@.@.@.@.@.@.@.@.@.@."
};
